M48
; DRILL file KiCad 10.0.4 date 2026-07-12T11:49:59
; FORMAT={-:-/ absolute / metric / decimal}
; #@! TF.CreationDate,2026-07-12T11:49:59-04:00
; #@! TF.GenerationSoftware,Kicad,Pcbnew,10.0.4
; #@! TF.FileFunction,Plated,1,4,PTH
FMAT,2
METRIC
; #@! TA.AperFunction,Plated,PTH,ViaDrill
T1C0.300
; #@! TA.AperFunction,Plated,PTH,ComponentDrill
T2C0.750
; #@! TA.AperFunction,Plated,PTH,ComponentDrill
T3C0.800
; #@! TA.AperFunction,Plated,PTH,ComponentDrill
T4C1.000
; #@! TA.AperFunction,Plated,PTH,ComponentDrill
T5C3.200
%
G90
G05
T1
X79.0Y-91.0
X79.0Y-92.0
X79.6Y-95.0
X79.6Y-96.0
X80.5Y-91.0
X80.5Y-92.0
X80.9Y-95.0
X80.9Y-96.0
X82.0Y-91.0
X82.0Y-92.0
X82.2Y-95.0
X82.2Y-96.0
X83.12Y-104.524
X83.25Y-109.25
X83.808Y-104.512
X83.809Y-109.251
X84.349Y-109.251
X84.8Y-104.5
X85.152Y-103.648
X85.25Y-104.5
X85.5Y-114.825
X87.4Y-103.6
X87.5Y-106.7
X87.571Y-107.62
X88.0Y-101.0
X88.0Y-102.0
X88.0Y-102.8
X88.0Y-103.6
X88.5Y-91.0
X88.5Y-92.0
X88.5Y-95.0
X88.5Y-96.0
X88.8Y-110.0
X88.963Y-107.562
X89.5Y-95.0
X89.5Y-96.0
X89.6Y-91.0
X89.6Y-92.0
X90.5Y-95.0
X90.5Y-96.0
X90.8Y-91.0
X90.8Y-92.0
X90.8Y-105.8
X91.138Y-110.95
X91.6Y-105.8
X92.476Y-114.924
X93.0Y-100.5
X93.0Y-101.5
X93.0Y-102.5
X93.0Y-103.25
X93.5Y-111.45
X93.75Y-100.5
X93.75Y-101.5
X93.75Y-102.5
X93.75Y-103.25
X94.2Y-88.6
X94.2Y-90.2
X94.4Y-105.8
X94.5Y-95.2
X94.5Y-96.2
X95.0Y-111.45
X95.2Y-105.8
X95.325Y-108.5
X95.325Y-110.0
X95.6Y-88.6
X95.6Y-90.2
X96.5Y-95.2
X96.5Y-96.2
X96.8Y-88.6
X96.8Y-90.2
X100.6Y-105.6
X101.2Y-105.6
X101.725Y-113.5
X101.725Y-115.0
X102.4Y-89.0
X102.4Y-90.4
X102.4Y-91.4
X102.5Y-94.5
X102.5Y-95.5
X102.5Y-96.5
X105.6Y-105.6
X106.4Y-90.4
X106.4Y-105.6
X107.0Y-92.0
X107.0Y-92.5
X107.4Y-90.4
X107.4Y-117.45
X107.5Y-92.0
X107.5Y-92.5
X110.089Y-105.711
X111.16Y-119.16
X111.4Y-105.6
X111.5Y-115.5
X111.5Y-117.5
X115.2Y-105.6
X115.252Y-109.874
X115.252Y-110.874
X115.382Y-111.643
X116.2Y-105.6
X116.252Y-109.874
X116.252Y-110.874
X116.252Y-111.874
X117.4Y-111.0
X117.426Y-109.91
X120.0Y-105.6
X120.0Y-110.0
X120.0Y-111.0
X120.0Y-112.15
X120.8Y-105.6
X124.8Y-105.6
X125.8Y-105.6
X129.8Y-105.6
X130.8Y-105.6
X134.8Y-105.6
X135.6Y-105.6
X139.6Y-105.6
X140.6Y-105.6
X142.647Y-94.416
X143.775Y-88.5
X143.775Y-90.0
X143.808Y-91.488
X144.0Y-105.6
X144.8Y-105.6
X146.05Y-87.45
X146.05Y-96.374
X146.1Y-90.0
X146.1Y-91.6
X146.1Y-92.4
X147.0Y-105.8
X147.183Y-95.824
X147.8Y-96.382
X149.6Y-97.3
X150.0Y-90.5
X150.0Y-105.8
X150.025Y-92.4
X150.025Y-94.375
X150.4Y-97.3
X152.0Y-90.425
X152.0Y-92.4
X152.0Y-94.375
X153.975Y-90.425
X153.975Y-92.4
X153.975Y-94.375
X154.2Y-105.8
X154.5Y-104.519
X155.0Y-105.8
X157.0Y-91.5
X157.0Y-92.5
X157.95Y-87.45
X157.95Y-97.35
X158.8Y-105.8
X160.0Y-105.8
X163.8Y-105.8
X164.0Y-94.0
X165.2Y-105.8
X166.262Y-91.166
X166.262Y-91.766
X166.862Y-91.166
X166.862Y-91.766
X167.462Y-91.166
X167.462Y-91.766
X169.0Y-105.8
X169.8Y-105.8
X173.8Y-105.8
X174.6Y-105.8
X178.8Y-105.8
X179.4Y-105.8
X183.2Y-105.8
X184.4Y-105.8
X193.4Y-105.8
X194.0Y-105.8
X196.048Y-102.037
X196.088Y-111.832
X198.2Y-105.8
X198.8Y-105.8
X203.0Y-105.8
X203.6Y-105.8
X207.8Y-105.8
X208.4Y-105.8
X212.6Y-105.8
X213.2Y-105.8
X213.5Y-90.0
X213.5Y-91.0
X213.5Y-94.0
X213.5Y-95.0
X214.5Y-90.0
X214.5Y-91.0
X214.5Y-94.0
X214.5Y-95.0
X215.5Y-90.0
X215.5Y-91.0
X215.5Y-94.0
X215.5Y-95.0
X217.2Y-105.8
X217.8Y-105.8
X221.5Y-90.0
X221.5Y-91.0
X221.5Y-94.0
X221.5Y-95.0
X224.0Y-90.0
X224.0Y-91.0
X224.0Y-94.0
X224.0Y-95.0
X226.0Y-90.0
X226.0Y-91.0
X226.0Y-94.0
X226.0Y-95.0
T2
X82.237Y-104.0
X82.237Y-109.8
T4
X139.14Y-109.5
X141.68Y-109.5
X144.22Y-109.5
X146.76Y-109.5
X149.3Y-109.5
X151.84Y-109.5
X154.38Y-109.5
X156.92Y-109.5
X159.46Y-109.5
X162.0Y-109.5
X164.54Y-109.5
X168.5Y-109.5
X171.04Y-109.5
X173.58Y-109.5
T5
X80.5Y-84.0
X80.5Y-117.0
X223.5Y-84.0
X223.5Y-117.0
T3
G00X78.857Y-102.57
M15
G01X78.258Y-102.57
M16
G05
G00X78.857Y-111.23
M15
G01X78.258Y-111.23
M16
G05
G00X83.138Y-102.57
M15
G01X82.337Y-102.57
M16
G05
G00X83.137Y-111.23
M15
G01X82.338Y-111.23
M16
G05
M30
