%TF.GenerationSoftware,KiCad,Pcbnew,10.0.4*%
%TF.CreationDate,2026-07-12T11:49:55-04:00*%
%TF.ProjectId,linklite_v2,6c696e6b-6c69-4746-955f-76322e6b6963,rev?*%
%TF.SameCoordinates,Original*%
%TF.FileFunction,Copper,L4,Bot*%
%TF.FilePolarity,Positive*%
%FSLAX46Y46*%
G04 Gerber Fmt 4.6, Leading zero omitted, Abs format (unit mm)*
G04 Created by KiCad (PCBNEW 10.0.4) date 2026-07-12 11:49:55*
%MOMM*%
%LPD*%
G01*
G04 APERTURE LIST*
G04 Aperture macros list*
%AMRoundRect*
0 Rectangle with rounded corners*
0 $1 Rounding radius*
0 $2 $3 $4 $5 $6 $7 $8 $9 X,Y pos of 4 corners*
0 Add a 4 corners polygon primitive as box body*
4,1,4,$2,$3,$4,$5,$6,$7,$8,$9,$2,$3,0*
0 Add four circle primitives for the rounded corners*
1,1,$1+$1,$2,$3*
1,1,$1+$1,$4,$5*
1,1,$1+$1,$6,$7*
1,1,$1+$1,$8,$9*
0 Add four rect primitives between the rounded corners*
20,1,$1+$1,$2,$3,$4,$5,0*
20,1,$1+$1,$4,$5,$6,$7,0*
20,1,$1+$1,$6,$7,$8,$9,0*
20,1,$1+$1,$8,$9,$2,$3,0*%
G04 Aperture macros list end*
%TA.AperFunction,SMDPad,CuDef*%
%ADD10RoundRect,0.200000X-0.275000X0.200000X-0.275000X-0.200000X0.275000X-0.200000X0.275000X0.200000X0*%
%TD*%
%TA.AperFunction,ComponentPad*%
%ADD11C,3.600000*%
%TD*%
%TA.AperFunction,ConnectorPad*%
%ADD12C,6.400000*%
%TD*%
%TA.AperFunction,ComponentPad*%
%ADD13R,1.700000X1.700000*%
%TD*%
%TA.AperFunction,ComponentPad*%
%ADD14C,1.700000*%
%TD*%
%TA.AperFunction,ComponentPad*%
%ADD15C,0.750000*%
%TD*%
%TA.AperFunction,ComponentPad*%
%ADD16O,2.000000X1.200000*%
%TD*%
%TA.AperFunction,ComponentPad*%
%ADD17O,1.800000X1.200000*%
%TD*%
%TA.AperFunction,SMDPad,CuDef*%
%ADD18R,2.100000X2.300000*%
%TD*%
%TA.AperFunction,SMDPad,CuDef*%
%ADD19R,2.100000X1.550000*%
%TD*%
%TA.AperFunction,ViaPad*%
%ADD20C,0.500000*%
%TD*%
%TA.AperFunction,ViaPad*%
%ADD21C,0.600000*%
%TD*%
%TA.AperFunction,Conductor*%
%ADD22C,0.500000*%
%TD*%
%TA.AperFunction,Conductor*%
%ADD23C,3.000000*%
%TD*%
%TA.AperFunction,Conductor*%
%ADD24C,1.000000*%
%TD*%
%TA.AperFunction,Conductor*%
%ADD25C,2.000000*%
%TD*%
G04 APERTURE END LIST*
D10*
%TO.P,R26,2*%
%TO.N,+3V3*%
X101141617Y-104519346D03*
%TO.P,R26,1*%
%TO.N,Net-(LED11-A)*%
X101141617Y-102869346D03*
%TD*%
D11*
%TO.P,H2,1*%
%TO.N,N/C*%
X223500000Y-117000000D03*
D12*
X223500000Y-117000000D03*
%TD*%
D13*
%TO.P,J2,1,Pin_1_1*%
%TO.N,/VBUS*%
X173580000Y-109500000D03*
D14*
%TO.P,J2,2,Pin_2_2*%
%TO.N,GND*%
X171040000Y-109500000D03*
%TO.P,J2,3,Pin_3_3*%
%TO.N,+3V3*%
X168500000Y-109500000D03*
%TD*%
D13*
%TO.P,J3,1,Pin_1_1*%
%TO.N,/RXD0*%
X164540000Y-109500000D03*
D14*
%TO.P,J3,2,Pin_2_2*%
%TO.N,/TXD0*%
X162000000Y-109500000D03*
%TO.P,J3,3,Pin_3_3*%
%TO.N,/IO19*%
X159460000Y-109500000D03*
%TO.P,J3,4,Pin_4_4*%
%TO.N,/IO18*%
X156920000Y-109500000D03*
%TO.P,J3,5,Pin_5_5*%
%TO.N,/IO14*%
X154380000Y-109500000D03*
%TO.P,J3,6,Pin_6_6*%
%TO.N,/IO7*%
X151840000Y-109500000D03*
%TO.P,J3,7,Pin_7_7*%
%TO.N,/IO6*%
X149300000Y-109500000D03*
%TO.P,J3,8,Pin_8_8*%
%TO.N,/IO3*%
X146760000Y-109500000D03*
%TO.P,J3,9,Pin_9_9*%
%TO.N,/IO2*%
X144220000Y-109500000D03*
%TO.P,J3,10,Pin_10_10*%
%TO.N,/IO1*%
X141680000Y-109500000D03*
%TO.P,J3,11,Pin_11_11*%
%TO.N,/IO0*%
X139140000Y-109500000D03*
%TD*%
D11*
%TO.P,H1,1*%
%TO.N,N/C*%
X223500000Y-84000000D03*
D12*
X223500000Y-84000000D03*
%TD*%
D11*
%TO.P,H4,1*%
%TO.N,N/C*%
X80500000Y-84000000D03*
D12*
X80500000Y-84000000D03*
%TD*%
D15*
%TO.P,USBC1,*%
%TO.N,*%
X82237500Y-104000000D03*
X82237500Y-109800000D03*
D16*
%TO.P,USBC1,1,EH_1*%
%TO.N,GND*%
X82737500Y-111230000D03*
D17*
%TO.P,USBC1,2,EH_2*%
X78557500Y-111230000D03*
%TO.P,USBC1,3,EH_3*%
X78557500Y-102570000D03*
D16*
%TO.P,USBC1,4,EH_4*%
X82737500Y-102570000D03*
%TD*%
D11*
%TO.P,H3,1*%
%TO.N,N/C*%
X80500000Y-117000000D03*
D12*
X80500000Y-117000000D03*
%TD*%
D18*
%TO.P,LED26,1,K_1*%
%TO.N,GND2*%
X159599869Y-99374702D03*
D19*
%TO.P,LED26,2,A_2*%
%TO.N,Net-(LED26-A)*%
X159599869Y-101834702D03*
%TD*%
D18*
%TO.P,LED30,1,K_1*%
%TO.N,GND2*%
X125435611Y-99409702D03*
D19*
%TO.P,LED30,2,A_2*%
%TO.N,Net-(LED30-A)*%
X125435611Y-101869702D03*
%TD*%
D18*
%TO.P,LED9,1,K_1*%
%TO.N,GND2*%
X178940396Y-99374702D03*
D19*
%TO.P,LED9,2,A_2*%
%TO.N,Net-(LED9-A)*%
X178940396Y-101834702D03*
%TD*%
D18*
%TO.P,LED2,1,K_1*%
%TO.N,GND2*%
X212858503Y-99414490D03*
D19*
%TO.P,LED2,2,A_2*%
%TO.N,Net-(LED2-A)*%
X212858503Y-101874490D03*
%TD*%
D18*
%TO.P,LED16,1,K_1*%
%TO.N,GND2*%
X135234208Y-99409702D03*
D19*
%TO.P,LED16,2,A_2*%
%TO.N,Net-(LED16-A)*%
X135234208Y-101869702D03*
%TD*%
D10*
%TO.P,R30,1*%
%TO.N,Net-(LED15-A)*%
X140046007Y-102816846D03*
%TO.P,R30,2*%
%TO.N,+3V3*%
X140046007Y-104466846D03*
%TD*%
%TO.P,R22,1*%
%TO.N,Net-(LED7-A)*%
X208106533Y-102848248D03*
%TO.P,R22,2*%
%TO.N,+3V3*%
X208106533Y-104498248D03*
%TD*%
%TO.P,R34,1*%
%TO.N,Net-(LED19-A)*%
X188478994Y-102879320D03*
%TO.P,R34,2*%
%TO.N,+3V3*%
X188478994Y-104529320D03*
%TD*%
D18*
%TO.P,LED31,1,K_1*%
%TO.N,GND2*%
X120483812Y-99409702D03*
D19*
%TO.P,LED31,2,A_2*%
%TO.N,Net-(LED31-A)*%
X120483812Y-101869702D03*
%TD*%
D18*
%TO.P,LED17,1,K_1*%
%TO.N,GND2*%
X198450349Y-99378300D03*
D19*
%TO.P,LED17,2,A_2*%
%TO.N,Net-(LED17-A)*%
X198450349Y-101838300D03*
%TD*%
D10*
%TO.P,R41,1*%
%TO.N,Net-(LED26-A)*%
X159468202Y-102851846D03*
%TO.P,R41,2*%
%TO.N,+3V3*%
X159468202Y-104501846D03*
%TD*%
D18*
%TO.P,LED19,1,K_1*%
%TO.N,GND2*%
X188636580Y-99347228D03*
D19*
%TO.P,LED19,2,A_2*%
%TO.N,Net-(LED19-A)*%
X188636580Y-101807228D03*
%TD*%
D10*
%TO.P,R23,1*%
%TO.N,Net-(LED8-A)*%
X203262148Y-102848248D03*
%TO.P,R23,2*%
%TO.N,+3V3*%
X203262148Y-104498248D03*
%TD*%
%TO.P,R31,1*%
%TO.N,Net-(LED16-A)*%
X135164208Y-102816846D03*
%TO.P,R31,2*%
%TO.N,+3V3*%
X135164208Y-104466846D03*
%TD*%
D18*
%TO.P,LED5,1,K_1*%
%TO.N,GND2*%
X110770215Y-99357202D03*
D19*
%TO.P,LED5,2,A_2*%
%TO.N,Net-(LED5-A)*%
X110770215Y-101817202D03*
%TD*%
D10*
%TO.P,R44,1*%
%TO.N,Net-(LED29-A)*%
X130247409Y-102816846D03*
%TO.P,R44,2*%
%TO.N,+3V3*%
X130247409Y-104466846D03*
%TD*%
%TO.P,R29,1*%
%TO.N,Net-(LED14-A)*%
X169311799Y-102851846D03*
%TO.P,R29,2*%
%TO.N,+3V3*%
X169311799Y-104501846D03*
%TD*%
%TO.P,R33,1*%
%TO.N,Net-(LED18-A)*%
X193448378Y-102848248D03*
%TO.P,R33,2*%
%TO.N,+3V3*%
X193448378Y-104498248D03*
%TD*%
%TO.P,R36,1*%
%TO.N,Net-(LED21-A)*%
X96241485Y-102869346D03*
%TO.P,R36,2*%
%TO.N,+3V3*%
X96241485Y-104519346D03*
%TD*%
%TO.P,R17,1*%
%TO.N,Net-(LED3-A)*%
X115582013Y-102869346D03*
%TO.P,R17,2*%
%TO.N,+3V3*%
X115582013Y-104519346D03*
%TD*%
%TO.P,R45,1*%
%TO.N,Net-(LED30-A)*%
X125295611Y-102816846D03*
%TO.P,R45,2*%
%TO.N,+3V3*%
X125295611Y-104466846D03*
%TD*%
%TO.P,R6,1*%
%TO.N,Net-(LED2-A)*%
X212909250Y-102884438D03*
%TO.P,R6,2*%
%TO.N,+3V3*%
X212909250Y-104534438D03*
%TD*%
%TO.P,R20,1*%
%TO.N,Net-(LED5-A)*%
X110811882Y-102869346D03*
%TO.P,R20,2*%
%TO.N,+3V3*%
X110811882Y-104519346D03*
%TD*%
D18*
%TO.P,LED15,1,K_1*%
%TO.N,GND2*%
X140081007Y-99409702D03*
D19*
%TO.P,LED15,2,A_2*%
%TO.N,Net-(LED15-A)*%
X140081007Y-101869702D03*
%TD*%
D18*
%TO.P,LED29,1,K_1*%
%TO.N,GND2*%
X130352409Y-99409702D03*
D19*
%TO.P,LED29,2,A_2*%
%TO.N,Net-(LED29-A)*%
X130352409Y-101869702D03*
%TD*%
D18*
%TO.P,LED25,1,K_1*%
%TO.N,GND2*%
X164500000Y-99374702D03*
D19*
%TO.P,LED25,2,A_2*%
%TO.N,Net-(LED25-A)*%
X164500000Y-101834702D03*
%TD*%
D18*
%TO.P,LED11,1,K_1*%
%TO.N,GND2*%
X101186617Y-99357202D03*
D19*
%TO.P,LED11,2,A_2*%
%TO.N,Net-(LED11-A)*%
X101186617Y-101817202D03*
%TD*%
D10*
%TO.P,R27,1*%
%TO.N,Net-(LED12-A)*%
X174168598Y-102851846D03*
%TO.P,R27,2*%
%TO.N,+3V3*%
X174168598Y-104501846D03*
%TD*%
D18*
%TO.P,LED14,1,K_1*%
%TO.N,GND2*%
X169356799Y-99374702D03*
D19*
%TO.P,LED14,2,A_2*%
%TO.N,Net-(LED14-A)*%
X169356799Y-101834702D03*
%TD*%
D10*
%TO.P,R24,1*%
%TO.N,Net-(LED9-A)*%
X178982063Y-102851846D03*
%TO.P,R24,2*%
%TO.N,+3V3*%
X178982063Y-104501846D03*
%TD*%
%TO.P,R38,1*%
%TO.N,Net-(LED23-A)*%
X86311221Y-102869346D03*
%TO.P,R38,2*%
%TO.N,+3V3*%
X86311221Y-104519346D03*
%TD*%
%TO.P,R21,1*%
%TO.N,Net-(LED6-A)*%
X149704604Y-102816846D03*
%TO.P,R21,2*%
%TO.N,+3V3*%
X149704604Y-104466846D03*
%TD*%
%TO.P,R40,1*%
%TO.N,Net-(LED25-A)*%
X164411667Y-102851846D03*
%TO.P,R40,2*%
%TO.N,+3V3*%
X164411667Y-104501846D03*
%TD*%
D18*
%TO.P,LED7,1,K_1*%
%TO.N,GND2*%
X208097452Y-99378300D03*
D19*
%TO.P,LED7,2,A_2*%
%TO.N,Net-(LED7-A)*%
X208097452Y-101838300D03*
%TD*%
D18*
%TO.P,LED4,1,K_1*%
%TO.N,GND2*%
X183667195Y-99374702D03*
D19*
%TO.P,LED4,2,A_2*%
%TO.N,Net-(LED4-A)*%
X183667195Y-101834702D03*
%TD*%
D10*
%TO.P,R42,1*%
%TO.N,Net-(LED27-A)*%
X154481403Y-102851846D03*
%TO.P,R42,2*%
%TO.N,+3V3*%
X154481403Y-104501846D03*
%TD*%
%TO.P,R19,1*%
%TO.N,Net-(LED4-A)*%
X183752195Y-102851846D03*
%TO.P,R19,2*%
%TO.N,+3V3*%
X183752195Y-104501846D03*
%TD*%
D18*
%TO.P,LED18,1,K_1*%
%TO.N,GND2*%
X193564297Y-99378300D03*
D19*
%TO.P,LED18,2,A_2*%
%TO.N,Net-(LED18-A)*%
X193564297Y-101838300D03*
%TD*%
D10*
%TO.P,R25,1*%
%TO.N,Net-(LED10-A)*%
X105998416Y-102869346D03*
%TO.P,R25,2*%
%TO.N,+3V3*%
X105998416Y-104519346D03*
%TD*%
D18*
%TO.P,LED27,1,K_1*%
%TO.N,GND2*%
X154656403Y-99374702D03*
D19*
%TO.P,LED27,2,A_2*%
%TO.N,Net-(LED27-A)*%
X154656403Y-101834702D03*
%TD*%
D18*
%TO.P,LED13,1,K_1*%
%TO.N,GND2*%
X144892805Y-99409702D03*
D19*
%TO.P,LED13,2,A_2*%
%TO.N,Net-(LED13-A)*%
X144892805Y-101869702D03*
%TD*%
D10*
%TO.P,R37,1*%
%TO.N,Net-(LED22-A)*%
X91298020Y-102869346D03*
%TO.P,R37,2*%
%TO.N,+3V3*%
X91298020Y-104519346D03*
%TD*%
D18*
%TO.P,LED10,1,K_1*%
%TO.N,GND2*%
X106000083Y-99357202D03*
D19*
%TO.P,LED10,2,A_2*%
%TO.N,Net-(LED10-A)*%
X106000083Y-101817202D03*
%TD*%
D18*
%TO.P,LED6,1,K_1*%
%TO.N,GND2*%
X149669604Y-99409702D03*
D19*
%TO.P,LED6,2,A_2*%
%TO.N,Net-(LED6-A)*%
X149669604Y-101869702D03*
%TD*%
D18*
%TO.P,LED3,1,K_1*%
%TO.N,GND2*%
X115497013Y-99357202D03*
D19*
%TO.P,LED3,2,A_2*%
%TO.N,Net-(LED3-A)*%
X115497013Y-101817202D03*
%TD*%
D18*
%TO.P,LED8,1,K_1*%
%TO.N,GND2*%
X203294734Y-99378300D03*
D19*
%TO.P,LED8,2,A_2*%
%TO.N,Net-(LED8-A)*%
X203294734Y-101838300D03*
%TD*%
D18*
%TO.P,LED23,1,K_1*%
%TO.N,GND2*%
X86486221Y-99357202D03*
D19*
%TO.P,LED23,2,A_2*%
%TO.N,Net-(LED23-A)*%
X86486221Y-101817202D03*
%TD*%
D10*
%TO.P,R32,1*%
%TO.N,Net-(LED17-A)*%
X198376096Y-102848248D03*
%TO.P,R32,2*%
%TO.N,+3V3*%
X198376096Y-104498248D03*
%TD*%
D18*
%TO.P,LED1,1,K_1*%
%TO.N,GND2*%
X217577888Y-99414490D03*
D19*
%TO.P,LED1,2,A_2*%
%TO.N,Net-(LED1-A)*%
X217577888Y-101874490D03*
%TD*%
D18*
%TO.P,LED22,1,K_1*%
%TO.N,GND2*%
X91429687Y-99357202D03*
D19*
%TO.P,LED22,2,A_2*%
%TO.N,Net-(LED22-A)*%
X91429687Y-101817202D03*
%TD*%
D18*
%TO.P,LED21,1,K_1*%
%TO.N,GND2*%
X96329818Y-99357202D03*
D19*
%TO.P,LED21,2,A_2*%
%TO.N,Net-(LED21-A)*%
X96329818Y-101817202D03*
%TD*%
D10*
%TO.P,R28,1*%
%TO.N,Net-(LED13-A)*%
X144892805Y-102816846D03*
%TO.P,R28,2*%
%TO.N,+3V3*%
X144892805Y-104466846D03*
%TD*%
D18*
%TO.P,LED12,1,K_1*%
%TO.N,GND2*%
X174170265Y-99374702D03*
D19*
%TO.P,LED12,2,A_2*%
%TO.N,Net-(LED12-A)*%
X174170265Y-101834702D03*
%TD*%
D10*
%TO.P,R1,1*%
%TO.N,Net-(LED1-A)*%
X217670302Y-102884438D03*
%TO.P,R1,2*%
%TO.N,+3V3*%
X217670302Y-104534438D03*
%TD*%
D20*
%TO.N,+3V3*%
X115382194Y-111643292D03*
X117425731Y-109909634D03*
%TO.N,GND2*%
X167461707Y-91166097D03*
X167461707Y-91766097D03*
X166861707Y-91766097D03*
X166861707Y-91166097D03*
X166261707Y-91166097D03*
X166261707Y-91766097D03*
%TO.N,Net-(F3-Pad1)*%
X87400000Y-103600000D03*
X84349052Y-109250948D03*
X88000000Y-103600000D03*
X88000000Y-102800000D03*
X88000000Y-102000000D03*
X88000000Y-101000000D03*
%TO.N,/CC1*%
X88800000Y-110000000D03*
X87500000Y-106700000D03*
%TO.N,Net-(F3-Pad1)*%
X85250000Y-104500000D03*
X85152424Y-103647576D03*
X84800000Y-104500000D03*
%TO.N,GND*%
X120000000Y-111000000D03*
D21*
X87571345Y-107619875D03*
D20*
%TO.N,+3V3*%
X154500000Y-104519346D03*
X147000000Y-105800000D03*
%TO.N,/VBUS*%
X82200000Y-95000000D03*
X82200000Y-96000000D03*
X79600000Y-96000000D03*
X79600000Y-95000000D03*
%TO.N,GND*%
X89600000Y-92000000D03*
X89600000Y-91000000D03*
X107400000Y-90400000D03*
X106400000Y-90400000D03*
X102400000Y-90400000D03*
X102400000Y-91400000D03*
X102400000Y-89000000D03*
X96800000Y-90200000D03*
X94200000Y-90200000D03*
X95600000Y-90200000D03*
X95600000Y-88600000D03*
X96800000Y-88600000D03*
X94200000Y-88600000D03*
%TO.N,+3V3*%
X117400000Y-111000000D03*
X95200000Y-105800000D03*
X94400000Y-105800000D03*
X91600000Y-105800000D03*
X90800000Y-105800000D03*
X101200000Y-105600000D03*
X100600000Y-105600000D03*
X105600000Y-105600000D03*
X106400000Y-105600000D03*
X110088593Y-105711407D03*
X111400000Y-105600000D03*
X115200000Y-105600000D03*
X116200000Y-105600000D03*
X120000000Y-105600000D03*
X120800000Y-105600000D03*
X124800000Y-105600000D03*
X125800000Y-105600000D03*
X129800000Y-105600000D03*
X130800000Y-105600000D03*
X134800000Y-105600000D03*
X135600000Y-105600000D03*
X139600000Y-105600000D03*
X140600000Y-105600000D03*
X144800000Y-105600000D03*
X144000000Y-105600000D03*
X150000000Y-105800000D03*
X154200000Y-105800000D03*
X155000000Y-105800000D03*
X158800000Y-105800000D03*
X160000000Y-105800000D03*
X163800000Y-105800000D03*
X165200000Y-105800000D03*
X169000000Y-105800000D03*
X169800000Y-105800000D03*
X173800000Y-105800000D03*
X174600000Y-105800000D03*
X178800000Y-105800000D03*
X179400000Y-105800000D03*
X183200000Y-105800000D03*
X184400000Y-105800000D03*
X193400000Y-105800000D03*
X194000000Y-105800000D03*
X198200000Y-105800000D03*
X198800000Y-105800000D03*
X203000000Y-105800000D03*
X203600000Y-105800000D03*
X207800000Y-105800000D03*
X208400000Y-105800000D03*
X212600000Y-105800000D03*
X213200000Y-105800000D03*
X217800000Y-105800000D03*
X217200000Y-105800000D03*
%TO.N,/VBUS*%
X93750000Y-103250000D03*
X93000000Y-103250000D03*
X93000000Y-102500000D03*
X93750000Y-102500000D03*
X93750000Y-101500000D03*
X93000000Y-101500000D03*
X93750000Y-100500000D03*
X93000000Y-100500000D03*
%TO.N,Net-(F3-Pad1)*%
X83809213Y-109250948D03*
X83807742Y-104511771D03*
X83119899Y-104524392D03*
X83250000Y-109250000D03*
%TO.N,/VBUS*%
X215500000Y-91000000D03*
X215500000Y-90000000D03*
X214500000Y-90000000D03*
X214500000Y-91000000D03*
X213500000Y-91000000D03*
X213500000Y-90000000D03*
X226000000Y-90000000D03*
X226000000Y-91000000D03*
X221500000Y-91000000D03*
X221500000Y-90000000D03*
%TO.N,+3V3*%
X116251677Y-111874490D03*
X116251677Y-109874490D03*
X115251677Y-109874490D03*
%TO.N,/VBUS*%
X107500000Y-92500000D03*
X107500000Y-92000000D03*
X107000000Y-92000000D03*
X102500000Y-95500000D03*
X102500000Y-96500000D03*
X102500000Y-94500000D03*
X96500000Y-95200000D03*
X96500000Y-96200000D03*
X94500000Y-96200000D03*
X89500000Y-96000000D03*
X89500000Y-95000000D03*
X90500000Y-95000000D03*
X90500000Y-96000000D03*
X88500000Y-96000000D03*
X88500000Y-95000000D03*
X92476398Y-114924300D03*
D21*
%TO.N,GND*%
X152000000Y-92400000D03*
X120000000Y-110000000D03*
X82000000Y-92000000D03*
X215500000Y-95000000D03*
X157950000Y-97350000D03*
X93500000Y-111450000D03*
X214500000Y-94000000D03*
X157950000Y-87450000D03*
X213500000Y-94000000D03*
X153975000Y-94375000D03*
X95000000Y-111450000D03*
X79000000Y-92000000D03*
X146050000Y-87450000D03*
X221500000Y-95000000D03*
X111160209Y-119160209D03*
X146050000Y-96374490D03*
X107400000Y-117450000D03*
X82000000Y-91000000D03*
X196088012Y-111831797D03*
X88500000Y-91000000D03*
X85500000Y-114825000D03*
X213500000Y-95000000D03*
X224000000Y-95000000D03*
X152000000Y-90425000D03*
X120000000Y-112150000D03*
X196047618Y-102036535D03*
X80500000Y-92000000D03*
X224000000Y-94000000D03*
X215500000Y-94000000D03*
X152000000Y-94375000D03*
X226000000Y-95000000D03*
X226000000Y-94000000D03*
X101725000Y-115000000D03*
X150000000Y-90500000D03*
X79000000Y-91000000D03*
X150025000Y-94375000D03*
X221500000Y-94000000D03*
X153975000Y-90425000D03*
X150025000Y-92400000D03*
X88500000Y-92000000D03*
X164000000Y-94000000D03*
X214500000Y-95000000D03*
X153975000Y-92400000D03*
X111500000Y-117500000D03*
X111500000Y-115500000D03*
X80500000Y-91000000D03*
X91137500Y-110950000D03*
%TO.N,+3V3*%
X88963220Y-107562499D03*
X143807886Y-91488338D03*
X95325000Y-110000000D03*
X146100000Y-90000000D03*
D20*
X116251677Y-110874490D03*
D21*
X142647066Y-94415604D03*
X143775000Y-88500000D03*
X101725000Y-113500000D03*
D20*
X115251677Y-110874490D03*
D21*
X95325000Y-108500000D03*
X143775000Y-90000000D03*
%TO.N,/VBUS*%
X224000000Y-90000000D03*
X224000000Y-91000000D03*
X80900000Y-95000000D03*
X80900000Y-96000000D03*
%TO.N,/RXD0*%
X157000000Y-92500000D03*
%TO.N,/TXD0*%
X157000000Y-91500000D03*
%TO.N,/IO7*%
X150400000Y-97300000D03*
%TO.N,/IO6*%
X149600000Y-97300000D03*
%TO.N,/IO3*%
X146100000Y-92400000D03*
%TO.N,/IO2*%
X146100000Y-91600000D03*
%TO.N,/IO1*%
X147800164Y-96382401D03*
%TO.N,/IO0*%
X147183386Y-95824166D03*
D20*
%TO.N,/VBUS*%
X94500000Y-95200000D03*
X107000000Y-92500000D03*
D21*
%TO.N,GND*%
X90800000Y-91000000D03*
X90800000Y-92000000D03*
%TD*%
%TO.N,+3V3*%
D22*
X115251677Y-110122813D02*
X115500000Y-109874490D01*
X115251677Y-111512775D02*
X115251677Y-110122813D01*
X115382194Y-111643292D02*
X115251677Y-111512775D01*
X116251677Y-111874490D02*
X115613392Y-111874490D01*
X115613392Y-111874490D02*
X115382194Y-111643292D01*
D23*
X116251677Y-108748323D02*
X119200000Y-105800000D01*
X116251677Y-110874490D02*
X116251677Y-108748323D01*
X116251677Y-107651677D02*
X114600000Y-106000000D01*
X116251677Y-110451677D02*
X116251677Y-107651677D01*
X116251677Y-110451677D02*
X111400000Y-105600000D01*
X116251677Y-110874490D02*
X116251677Y-110451677D01*
D24*
X90500000Y-104519346D02*
X91298020Y-104519346D01*
D22*
X115251677Y-109874490D02*
X115500000Y-109874490D01*
D24*
X217608158Y-104596582D02*
X217670302Y-104534438D01*
D22*
X115500000Y-109874490D02*
X116251677Y-109874490D01*
D24*
X115582013Y-104519346D02*
X115500000Y-104519346D01*
D22*
X116251677Y-109874490D02*
X116251677Y-111874490D01*
X115251677Y-110874490D02*
X116251677Y-110874490D01*
%TO.N,GND2*%
D25*
X169530588Y-99200913D02*
X169530588Y-94153401D01*
X169356799Y-99374702D02*
X169530588Y-99200913D01*
X169530588Y-94153401D02*
X166751677Y-91374490D01*
%TD*%
%TA.AperFunction,Conductor*%
%TO.N,+3V3*%
G36*
X86765413Y-104019685D02*
G01*
X86801477Y-104055111D01*
X86817047Y-104078414D01*
X86817051Y-104078419D01*
X86921580Y-104182948D01*
X86921584Y-104182951D01*
X87044498Y-104265080D01*
X87044511Y-104265087D01*
X87129420Y-104300257D01*
X87181087Y-104321658D01*
X87181091Y-104321658D01*
X87181092Y-104321659D01*
X87326079Y-104350500D01*
X87326082Y-104350500D01*
X87473920Y-104350500D01*
X87571462Y-104331096D01*
X87618913Y-104321658D01*
X87652547Y-104307725D01*
X87722016Y-104300257D01*
X87747452Y-104307725D01*
X87781087Y-104321658D01*
X87781091Y-104321658D01*
X87781092Y-104321659D01*
X87926079Y-104350500D01*
X87926082Y-104350500D01*
X88073920Y-104350500D01*
X88171462Y-104331096D01*
X88218913Y-104321658D01*
X88355495Y-104265084D01*
X88478416Y-104182951D01*
X88582951Y-104078416D01*
X88598523Y-104055111D01*
X88652134Y-104010305D01*
X88701626Y-104000000D01*
X92923568Y-104000000D01*
X92926082Y-104000500D01*
X93073918Y-104000500D01*
X93076432Y-104000000D01*
X93664914Y-104000000D01*
X93675092Y-104000500D01*
X93676082Y-104000500D01*
X93824908Y-104000500D01*
X93835086Y-104000000D01*
X217876000Y-104000000D01*
X217943039Y-104019685D01*
X217988794Y-104072489D01*
X218000000Y-104124000D01*
X218000000Y-106276000D01*
X217980315Y-106343039D01*
X217927511Y-106388794D01*
X217876000Y-106400000D01*
X88268445Y-106400000D01*
X88201406Y-106380315D01*
X88165343Y-106344891D01*
X88082951Y-106221584D01*
X88082948Y-106221580D01*
X87978419Y-106117051D01*
X87978415Y-106117048D01*
X87855501Y-106034919D01*
X87855488Y-106034912D01*
X87718917Y-105978343D01*
X87718907Y-105978340D01*
X87573920Y-105949500D01*
X87573918Y-105949500D01*
X87426082Y-105949500D01*
X87426080Y-105949500D01*
X87281092Y-105978340D01*
X87281082Y-105978343D01*
X87144511Y-106034912D01*
X87144498Y-106034919D01*
X87021584Y-106117048D01*
X87021580Y-106117051D01*
X86917051Y-106221580D01*
X86917048Y-106221584D01*
X86834657Y-106344891D01*
X86781045Y-106389696D01*
X86731555Y-106400000D01*
X85924000Y-106400000D01*
X85856961Y-106380315D01*
X85811206Y-106327511D01*
X85800000Y-106276000D01*
X85800000Y-105062729D01*
X85819685Y-104995690D01*
X85829524Y-104983485D01*
X85829086Y-104983126D01*
X85832946Y-104978420D01*
X85832951Y-104978416D01*
X85915084Y-104855495D01*
X85971658Y-104718913D01*
X86000500Y-104573918D01*
X86000500Y-104426082D01*
X86000500Y-104426079D01*
X85971659Y-104281092D01*
X85971658Y-104281091D01*
X85971658Y-104281087D01*
X85926245Y-104171452D01*
X85918777Y-104101983D01*
X85950052Y-104039504D01*
X86010141Y-104003852D01*
X86040807Y-104000000D01*
X86698374Y-104000000D01*
X86765413Y-104019685D01*
G37*
%TD.AperFunction*%
%TD*%
%TA.AperFunction,Conductor*%
%TO.N,GND2*%
G36*
X218543039Y-98244387D02*
G01*
X218588794Y-98297191D01*
X218600000Y-98348702D01*
X218600000Y-100463202D01*
X218580315Y-100530241D01*
X218527511Y-100575996D01*
X218476000Y-100587202D01*
X209325549Y-100587202D01*
X209282216Y-100579384D01*
X209254934Y-100569208D01*
X209254935Y-100569208D01*
X209195335Y-100562801D01*
X209195333Y-100562800D01*
X209195325Y-100562800D01*
X209195316Y-100562800D01*
X206999581Y-100562800D01*
X206999575Y-100562801D01*
X206939968Y-100569208D01*
X206912688Y-100579384D01*
X206869355Y-100587202D01*
X204522831Y-100587202D01*
X204479498Y-100579384D01*
X204452216Y-100569208D01*
X204452217Y-100569208D01*
X204392617Y-100562801D01*
X204392615Y-100562800D01*
X204392607Y-100562800D01*
X204392598Y-100562800D01*
X202196863Y-100562800D01*
X202196857Y-100562801D01*
X202137250Y-100569208D01*
X202109970Y-100579384D01*
X202066637Y-100587202D01*
X199678446Y-100587202D01*
X199635113Y-100579384D01*
X199607831Y-100569208D01*
X199607832Y-100569208D01*
X199548232Y-100562801D01*
X199548230Y-100562800D01*
X199548222Y-100562800D01*
X199548213Y-100562800D01*
X197352478Y-100562800D01*
X197352472Y-100562801D01*
X197292865Y-100569208D01*
X197265585Y-100579384D01*
X197222252Y-100587202D01*
X194792394Y-100587202D01*
X194749061Y-100579384D01*
X194721779Y-100569208D01*
X194721780Y-100569208D01*
X194662180Y-100562801D01*
X194662178Y-100562800D01*
X194662170Y-100562800D01*
X194662161Y-100562800D01*
X192466426Y-100562800D01*
X192466420Y-100562801D01*
X192406813Y-100569208D01*
X192379533Y-100579384D01*
X192336200Y-100587202D01*
X189947985Y-100587202D01*
X189904652Y-100579384D01*
X189794062Y-100538136D01*
X189794063Y-100538136D01*
X189734463Y-100531729D01*
X189734461Y-100531728D01*
X189734453Y-100531728D01*
X189734444Y-100531728D01*
X187538709Y-100531728D01*
X187538703Y-100531729D01*
X187479096Y-100538136D01*
X187368508Y-100579384D01*
X187325175Y-100587202D01*
X184904939Y-100587202D01*
X184861606Y-100579384D01*
X184824677Y-100565610D01*
X184824678Y-100565610D01*
X184765078Y-100559203D01*
X184765076Y-100559202D01*
X184765068Y-100559202D01*
X184765059Y-100559202D01*
X182569324Y-100559202D01*
X182569318Y-100559203D01*
X182509711Y-100565610D01*
X182472784Y-100579384D01*
X182429451Y-100587202D01*
X180178140Y-100587202D01*
X180134807Y-100579384D01*
X180097878Y-100565610D01*
X180097879Y-100565610D01*
X180038279Y-100559203D01*
X180038277Y-100559202D01*
X180038269Y-100559202D01*
X180038260Y-100559202D01*
X177842525Y-100559202D01*
X177842519Y-100559203D01*
X177782912Y-100565610D01*
X177745985Y-100579384D01*
X177702652Y-100587202D01*
X175408009Y-100587202D01*
X175364676Y-100579384D01*
X175327747Y-100565610D01*
X175327748Y-100565610D01*
X175268148Y-100559203D01*
X175268146Y-100559202D01*
X175268138Y-100559202D01*
X175268129Y-100559202D01*
X173072394Y-100559202D01*
X173072388Y-100559203D01*
X173012781Y-100565610D01*
X172975854Y-100579384D01*
X172932521Y-100587202D01*
X170594543Y-100587202D01*
X170551210Y-100579384D01*
X170514281Y-100565610D01*
X170514282Y-100565610D01*
X170454682Y-100559203D01*
X170454680Y-100559202D01*
X170454672Y-100559202D01*
X170454663Y-100559202D01*
X168258928Y-100559202D01*
X168258922Y-100559203D01*
X168199315Y-100565610D01*
X168162388Y-100579384D01*
X168119055Y-100587202D01*
X165737744Y-100587202D01*
X165694411Y-100579384D01*
X165657482Y-100565610D01*
X165657483Y-100565610D01*
X165597883Y-100559203D01*
X165597881Y-100559202D01*
X165597873Y-100559202D01*
X165597864Y-100559202D01*
X163402129Y-100559202D01*
X163402123Y-100559203D01*
X163342516Y-100565610D01*
X163305589Y-100579384D01*
X163262256Y-100587202D01*
X160837613Y-100587202D01*
X160794280Y-100579384D01*
X160757351Y-100565610D01*
X160757352Y-100565610D01*
X160697752Y-100559203D01*
X160697750Y-100559202D01*
X160697742Y-100559202D01*
X160697733Y-100559202D01*
X158501998Y-100559202D01*
X158501992Y-100559203D01*
X158442385Y-100565610D01*
X158405458Y-100579384D01*
X158362125Y-100587202D01*
X155894147Y-100587202D01*
X155850814Y-100579384D01*
X155813885Y-100565610D01*
X155813886Y-100565610D01*
X155754286Y-100559203D01*
X155754284Y-100559202D01*
X155754276Y-100559202D01*
X155754267Y-100559202D01*
X153558532Y-100559202D01*
X153558526Y-100559203D01*
X153498919Y-100565610D01*
X153461992Y-100579384D01*
X153418659Y-100587202D01*
X116781676Y-100587202D01*
X116738344Y-100579384D01*
X116684233Y-100559202D01*
X116654497Y-100548111D01*
X116654493Y-100548110D01*
X116594896Y-100541703D01*
X116594894Y-100541702D01*
X116594886Y-100541702D01*
X116594877Y-100541702D01*
X114399142Y-100541702D01*
X114399136Y-100541703D01*
X114339529Y-100548110D01*
X114255683Y-100579384D01*
X114212350Y-100587202D01*
X112054878Y-100587202D01*
X112011546Y-100579384D01*
X111957435Y-100559202D01*
X111927699Y-100548111D01*
X111927695Y-100548110D01*
X111868098Y-100541703D01*
X111868096Y-100541702D01*
X111868088Y-100541702D01*
X111868079Y-100541702D01*
X109672344Y-100541702D01*
X109672338Y-100541703D01*
X109612731Y-100548110D01*
X109528885Y-100579384D01*
X109485552Y-100587202D01*
X107284746Y-100587202D01*
X107241414Y-100579384D01*
X107187303Y-100559202D01*
X107157567Y-100548111D01*
X107157563Y-100548110D01*
X107097966Y-100541703D01*
X107097964Y-100541702D01*
X107097956Y-100541702D01*
X107097947Y-100541702D01*
X104902212Y-100541702D01*
X104902206Y-100541703D01*
X104842599Y-100548110D01*
X104758753Y-100579384D01*
X104715420Y-100587202D01*
X102471280Y-100587202D01*
X102427948Y-100579384D01*
X102373837Y-100559202D01*
X102344101Y-100548111D01*
X102344097Y-100548110D01*
X102284500Y-100541703D01*
X102284498Y-100541702D01*
X102284490Y-100541702D01*
X102284481Y-100541702D01*
X100088746Y-100541702D01*
X100088740Y-100541703D01*
X100029133Y-100548110D01*
X99945287Y-100579384D01*
X99901954Y-100587202D01*
X97614481Y-100587202D01*
X97571149Y-100579384D01*
X97517038Y-100559202D01*
X97487302Y-100548111D01*
X97487298Y-100548110D01*
X97427701Y-100541703D01*
X97427699Y-100541702D01*
X97427691Y-100541702D01*
X97427682Y-100541702D01*
X95231947Y-100541702D01*
X95231941Y-100541703D01*
X95172334Y-100548110D01*
X95088488Y-100579384D01*
X95045155Y-100587202D01*
X94624500Y-100587202D01*
X94557461Y-100567517D01*
X94511706Y-100514713D01*
X94500500Y-100463202D01*
X94500500Y-100426079D01*
X94471659Y-100281092D01*
X94471658Y-100281091D01*
X94471658Y-100281087D01*
X94458574Y-100249500D01*
X94415087Y-100144511D01*
X94415080Y-100144498D01*
X94332951Y-100021584D01*
X94332948Y-100021580D01*
X94228419Y-99917051D01*
X94228415Y-99917048D01*
X94105501Y-99834919D01*
X94105488Y-99834912D01*
X93968917Y-99778343D01*
X93968907Y-99778340D01*
X93823920Y-99749500D01*
X93823918Y-99749500D01*
X93676082Y-99749500D01*
X93676080Y-99749500D01*
X93531092Y-99778340D01*
X93531082Y-99778343D01*
X93422452Y-99823339D01*
X93352983Y-99830808D01*
X93327548Y-99823339D01*
X93218917Y-99778343D01*
X93218907Y-99778340D01*
X93073920Y-99749500D01*
X93073918Y-99749500D01*
X92926082Y-99749500D01*
X92926080Y-99749500D01*
X92781092Y-99778340D01*
X92781082Y-99778343D01*
X92644511Y-99834912D01*
X92644498Y-99834919D01*
X92521584Y-99917048D01*
X92521580Y-99917051D01*
X92417051Y-100021580D01*
X92417048Y-100021584D01*
X92334919Y-100144498D01*
X92334912Y-100144511D01*
X92278343Y-100281082D01*
X92278340Y-100281092D01*
X92249500Y-100426077D01*
X92249128Y-100429858D01*
X92248379Y-100431710D01*
X92248311Y-100432057D01*
X92248245Y-100432043D01*
X92222966Y-100494645D01*
X92165931Y-100535003D01*
X92125725Y-100541702D01*
X90331816Y-100541702D01*
X90331810Y-100541703D01*
X90272203Y-100548110D01*
X90188357Y-100579384D01*
X90145024Y-100587202D01*
X88693075Y-100587202D01*
X88626036Y-100567517D01*
X88589974Y-100532095D01*
X88582951Y-100521584D01*
X88582950Y-100521583D01*
X88582948Y-100521580D01*
X88478419Y-100417051D01*
X88478415Y-100417048D01*
X88355501Y-100334919D01*
X88355488Y-100334912D01*
X88218917Y-100278343D01*
X88218907Y-100278340D01*
X88073920Y-100249500D01*
X88073918Y-100249500D01*
X87926082Y-100249500D01*
X87926080Y-100249500D01*
X87781092Y-100278340D01*
X87781082Y-100278343D01*
X87644511Y-100334912D01*
X87644498Y-100334919D01*
X87521585Y-100417047D01*
X87477418Y-100461215D01*
X87433248Y-100505384D01*
X87371928Y-100538868D01*
X87345569Y-100541702D01*
X85524000Y-100541702D01*
X85456961Y-100522017D01*
X85411206Y-100469213D01*
X85400000Y-100417702D01*
X85400000Y-98348702D01*
X85419685Y-98281663D01*
X85472489Y-98235908D01*
X85524000Y-98224702D01*
X218476000Y-98224702D01*
X218543039Y-98244387D01*
G37*
%TD.AperFunction*%
%TD*%
M02*
