%TF.GenerationSoftware,KiCad,Pcbnew,10.0.4*%
%TF.CreationDate,2026-07-12T11:49:56-04:00*%
%TF.ProjectId,linklite_v2,6c696e6b-6c69-4746-955f-76322e6b6963,rev?*%
%TF.SameCoordinates,Original*%
%TF.FileFunction,Legend,Bot*%
%TF.FilePolarity,Positive*%
%FSLAX46Y46*%
G04 Gerber Fmt 4.6, Leading zero omitted, Abs format (unit mm)*
G04 Created by KiCad (PCBNEW 10.0.4) date 2026-07-12 11:49:56*
%MOMM*%
%LPD*%
G01*
G04 APERTURE LIST*
%ADD10C,0.250000*%
%ADD11C,0.150000*%
%ADD12C,0.000000*%
%ADD13C,0.120000*%
%ADD14C,0.060000*%
G04 APERTURE END LIST*
D10*
X205783520Y-87415976D02*
X206200187Y-86165976D01*
X206200187Y-86165976D02*
X206616853Y-87415976D01*
X207033521Y-86820738D02*
X207450187Y-86820738D01*
X207628759Y-86165976D02*
X207033521Y-86165976D01*
X207033521Y-86165976D02*
X207033521Y-87415976D01*
X207033521Y-87415976D02*
X207628759Y-87415976D01*
X208878758Y-86165976D02*
X208462092Y-86761214D01*
X208164473Y-86165976D02*
X208164473Y-87415976D01*
X208164473Y-87415976D02*
X208640663Y-87415976D01*
X208640663Y-87415976D02*
X208759711Y-87356452D01*
X208759711Y-87356452D02*
X208819234Y-87296928D01*
X208819234Y-87296928D02*
X208878758Y-87177880D01*
X208878758Y-87177880D02*
X208878758Y-86999309D01*
X208878758Y-86999309D02*
X208819234Y-86880261D01*
X208819234Y-86880261D02*
X208759711Y-86820738D01*
X208759711Y-86820738D02*
X208640663Y-86761214D01*
X208640663Y-86761214D02*
X208164473Y-86761214D01*
X209354949Y-86225500D02*
X209533520Y-86165976D01*
X209533520Y-86165976D02*
X209831139Y-86165976D01*
X209831139Y-86165976D02*
X209950187Y-86225500D01*
X209950187Y-86225500D02*
X210009711Y-86285023D01*
X210009711Y-86285023D02*
X210069234Y-86404071D01*
X210069234Y-86404071D02*
X210069234Y-86523119D01*
X210069234Y-86523119D02*
X210009711Y-86642166D01*
X210009711Y-86642166D02*
X209950187Y-86701690D01*
X209950187Y-86701690D02*
X209831139Y-86761214D01*
X209831139Y-86761214D02*
X209593044Y-86820738D01*
X209593044Y-86820738D02*
X209473996Y-86880261D01*
X209473996Y-86880261D02*
X209414473Y-86939785D01*
X209414473Y-86939785D02*
X209354949Y-87058833D01*
X209354949Y-87058833D02*
X209354949Y-87177880D01*
X209354949Y-87177880D02*
X209414473Y-87296928D01*
X209414473Y-87296928D02*
X209473996Y-87356452D01*
X209473996Y-87356452D02*
X209593044Y-87415976D01*
X209593044Y-87415976D02*
X209890663Y-87415976D01*
X209890663Y-87415976D02*
X210069234Y-87356452D01*
X210604949Y-86165976D02*
X210604949Y-87415976D01*
X211438282Y-87415976D02*
X211676377Y-87415976D01*
X211676377Y-87415976D02*
X211795425Y-87356452D01*
X211795425Y-87356452D02*
X211914472Y-87237404D01*
X211914472Y-87237404D02*
X211973996Y-86999309D01*
X211973996Y-86999309D02*
X211973996Y-86582642D01*
X211973996Y-86582642D02*
X211914472Y-86344547D01*
X211914472Y-86344547D02*
X211795425Y-86225500D01*
X211795425Y-86225500D02*
X211676377Y-86165976D01*
X211676377Y-86165976D02*
X211438282Y-86165976D01*
X211438282Y-86165976D02*
X211319234Y-86225500D01*
X211319234Y-86225500D02*
X211200187Y-86344547D01*
X211200187Y-86344547D02*
X211140663Y-86582642D01*
X211140663Y-86582642D02*
X211140663Y-86999309D01*
X211140663Y-86999309D02*
X211200187Y-87237404D01*
X211200187Y-87237404D02*
X211319234Y-87356452D01*
X211319234Y-87356452D02*
X211438282Y-87415976D01*
X212509711Y-86165976D02*
X212509711Y-87415976D01*
X212509711Y-87415976D02*
X213223996Y-86165976D01*
X213223996Y-86165976D02*
X213223996Y-87415976D01*
X214712092Y-87296928D02*
X214771616Y-87356452D01*
X214771616Y-87356452D02*
X214890663Y-87415976D01*
X214890663Y-87415976D02*
X215188282Y-87415976D01*
X215188282Y-87415976D02*
X215307330Y-87356452D01*
X215307330Y-87356452D02*
X215366854Y-87296928D01*
X215366854Y-87296928D02*
X215426377Y-87177880D01*
X215426377Y-87177880D02*
X215426377Y-87058833D01*
X215426377Y-87058833D02*
X215366854Y-86880261D01*
X215366854Y-86880261D02*
X214652568Y-86165976D01*
X214652568Y-86165976D02*
X215426377Y-86165976D01*
X215962092Y-86285023D02*
X216021615Y-86225500D01*
X216021615Y-86225500D02*
X215962092Y-86165976D01*
X215962092Y-86165976D02*
X215902568Y-86225500D01*
X215902568Y-86225500D02*
X215962092Y-86285023D01*
X215962092Y-86285023D02*
X215962092Y-86165976D01*
X216795425Y-87415976D02*
X216914472Y-87415976D01*
X216914472Y-87415976D02*
X217033520Y-87356452D01*
X217033520Y-87356452D02*
X217093044Y-87296928D01*
X217093044Y-87296928D02*
X217152568Y-87177880D01*
X217152568Y-87177880D02*
X217212091Y-86939785D01*
X217212091Y-86939785D02*
X217212091Y-86642166D01*
X217212091Y-86642166D02*
X217152568Y-86404071D01*
X217152568Y-86404071D02*
X217093044Y-86285023D01*
X217093044Y-86285023D02*
X217033520Y-86225500D01*
X217033520Y-86225500D02*
X216914472Y-86165976D01*
X216914472Y-86165976D02*
X216795425Y-86165976D01*
X216795425Y-86165976D02*
X216676377Y-86225500D01*
X216676377Y-86225500D02*
X216616853Y-86285023D01*
X216616853Y-86285023D02*
X216557330Y-86404071D01*
X216557330Y-86404071D02*
X216497806Y-86642166D01*
X216497806Y-86642166D02*
X216497806Y-86939785D01*
X216497806Y-86939785D02*
X216557330Y-87177880D01*
X216557330Y-87177880D02*
X216616853Y-87296928D01*
X216616853Y-87296928D02*
X216676377Y-87356452D01*
X216676377Y-87356452D02*
X216795425Y-87415976D01*
X205843044Y-84915976D02*
X206676377Y-84915976D01*
X206676377Y-84915976D02*
X206140663Y-83665976D01*
X208045425Y-84975500D02*
X206973996Y-83368357D01*
X209116853Y-83665976D02*
X208402568Y-83665976D01*
X208759711Y-83665976D02*
X208759711Y-84915976D01*
X208759711Y-84915976D02*
X208640663Y-84737404D01*
X208640663Y-84737404D02*
X208521615Y-84618357D01*
X208521615Y-84618357D02*
X208402568Y-84558833D01*
X210307329Y-83665976D02*
X209593044Y-83665976D01*
X209950187Y-83665976D02*
X209950187Y-84915976D01*
X209950187Y-84915976D02*
X209831139Y-84737404D01*
X209831139Y-84737404D02*
X209712091Y-84618357D01*
X209712091Y-84618357D02*
X209593044Y-84558833D01*
X211735901Y-84975500D02*
X210664472Y-83368357D01*
X212093044Y-84796928D02*
X212152568Y-84856452D01*
X212152568Y-84856452D02*
X212271615Y-84915976D01*
X212271615Y-84915976D02*
X212569234Y-84915976D01*
X212569234Y-84915976D02*
X212688282Y-84856452D01*
X212688282Y-84856452D02*
X212747806Y-84796928D01*
X212747806Y-84796928D02*
X212807329Y-84677880D01*
X212807329Y-84677880D02*
X212807329Y-84558833D01*
X212807329Y-84558833D02*
X212747806Y-84380261D01*
X212747806Y-84380261D02*
X212033520Y-83665976D01*
X212033520Y-83665976D02*
X212807329Y-83665976D01*
X213581139Y-84915976D02*
X213700186Y-84915976D01*
X213700186Y-84915976D02*
X213819234Y-84856452D01*
X213819234Y-84856452D02*
X213878758Y-84796928D01*
X213878758Y-84796928D02*
X213938282Y-84677880D01*
X213938282Y-84677880D02*
X213997805Y-84439785D01*
X213997805Y-84439785D02*
X213997805Y-84142166D01*
X213997805Y-84142166D02*
X213938282Y-83904071D01*
X213938282Y-83904071D02*
X213878758Y-83785023D01*
X213878758Y-83785023D02*
X213819234Y-83725500D01*
X213819234Y-83725500D02*
X213700186Y-83665976D01*
X213700186Y-83665976D02*
X213581139Y-83665976D01*
X213581139Y-83665976D02*
X213462091Y-83725500D01*
X213462091Y-83725500D02*
X213402567Y-83785023D01*
X213402567Y-83785023D02*
X213343044Y-83904071D01*
X213343044Y-83904071D02*
X213283520Y-84142166D01*
X213283520Y-84142166D02*
X213283520Y-84439785D01*
X213283520Y-84439785D02*
X213343044Y-84677880D01*
X213343044Y-84677880D02*
X213402567Y-84796928D01*
X213402567Y-84796928D02*
X213462091Y-84856452D01*
X213462091Y-84856452D02*
X213581139Y-84915976D01*
X214473996Y-84796928D02*
X214533520Y-84856452D01*
X214533520Y-84856452D02*
X214652567Y-84915976D01*
X214652567Y-84915976D02*
X214950186Y-84915976D01*
X214950186Y-84915976D02*
X215069234Y-84856452D01*
X215069234Y-84856452D02*
X215128758Y-84796928D01*
X215128758Y-84796928D02*
X215188281Y-84677880D01*
X215188281Y-84677880D02*
X215188281Y-84558833D01*
X215188281Y-84558833D02*
X215128758Y-84380261D01*
X215128758Y-84380261D02*
X214414472Y-83665976D01*
X214414472Y-83665976D02*
X215188281Y-83665976D01*
X216259710Y-84915976D02*
X216021615Y-84915976D01*
X216021615Y-84915976D02*
X215902567Y-84856452D01*
X215902567Y-84856452D02*
X215843043Y-84796928D01*
X215843043Y-84796928D02*
X215723996Y-84618357D01*
X215723996Y-84618357D02*
X215664472Y-84380261D01*
X215664472Y-84380261D02*
X215664472Y-83904071D01*
X215664472Y-83904071D02*
X215723996Y-83785023D01*
X215723996Y-83785023D02*
X215783519Y-83725500D01*
X215783519Y-83725500D02*
X215902567Y-83665976D01*
X215902567Y-83665976D02*
X216140662Y-83665976D01*
X216140662Y-83665976D02*
X216259710Y-83725500D01*
X216259710Y-83725500D02*
X216319234Y-83785023D01*
X216319234Y-83785023D02*
X216378757Y-83904071D01*
X216378757Y-83904071D02*
X216378757Y-84201690D01*
X216378757Y-84201690D02*
X216319234Y-84320738D01*
X216319234Y-84320738D02*
X216259710Y-84380261D01*
X216259710Y-84380261D02*
X216140662Y-84439785D01*
X216140662Y-84439785D02*
X215902567Y-84439785D01*
X215902567Y-84439785D02*
X215783519Y-84380261D01*
X215783519Y-84380261D02*
X215723996Y-84320738D01*
X215723996Y-84320738D02*
X215664472Y-84201690D01*
X206557330Y-88665976D02*
X205962092Y-88665976D01*
X205962092Y-88665976D02*
X205962092Y-89915976D01*
X207212092Y-89915976D02*
X207450187Y-89915976D01*
X207450187Y-89915976D02*
X207569235Y-89856452D01*
X207569235Y-89856452D02*
X207688282Y-89737404D01*
X207688282Y-89737404D02*
X207747806Y-89499309D01*
X207747806Y-89499309D02*
X207747806Y-89082642D01*
X207747806Y-89082642D02*
X207688282Y-88844547D01*
X207688282Y-88844547D02*
X207569235Y-88725500D01*
X207569235Y-88725500D02*
X207450187Y-88665976D01*
X207450187Y-88665976D02*
X207212092Y-88665976D01*
X207212092Y-88665976D02*
X207093044Y-88725500D01*
X207093044Y-88725500D02*
X206973997Y-88844547D01*
X206973997Y-88844547D02*
X206914473Y-89082642D01*
X206914473Y-89082642D02*
X206914473Y-89499309D01*
X206914473Y-89499309D02*
X206973997Y-89737404D01*
X206973997Y-89737404D02*
X207093044Y-89856452D01*
X207093044Y-89856452D02*
X207212092Y-89915976D01*
X208938282Y-89856452D02*
X208819235Y-89915976D01*
X208819235Y-89915976D02*
X208640663Y-89915976D01*
X208640663Y-89915976D02*
X208462092Y-89856452D01*
X208462092Y-89856452D02*
X208343044Y-89737404D01*
X208343044Y-89737404D02*
X208283521Y-89618357D01*
X208283521Y-89618357D02*
X208223997Y-89380261D01*
X208223997Y-89380261D02*
X208223997Y-89201690D01*
X208223997Y-89201690D02*
X208283521Y-88963595D01*
X208283521Y-88963595D02*
X208343044Y-88844547D01*
X208343044Y-88844547D02*
X208462092Y-88725500D01*
X208462092Y-88725500D02*
X208640663Y-88665976D01*
X208640663Y-88665976D02*
X208759711Y-88665976D01*
X208759711Y-88665976D02*
X208938282Y-88725500D01*
X208938282Y-88725500D02*
X208997806Y-88785023D01*
X208997806Y-88785023D02*
X208997806Y-89201690D01*
X208997806Y-89201690D02*
X208759711Y-89201690D01*
X209473997Y-89023119D02*
X210069235Y-89023119D01*
X209354949Y-88665976D02*
X209771616Y-89915976D01*
X209771616Y-89915976D02*
X210188282Y-88665976D01*
X210604950Y-88665976D02*
X210604950Y-89915976D01*
X210604950Y-89915976D02*
X211319235Y-88665976D01*
X211319235Y-88665976D02*
X211319235Y-89915976D01*
X213283521Y-89320738D02*
X212866855Y-89320738D01*
X212866855Y-88665976D02*
X212866855Y-89915976D01*
X212866855Y-89915976D02*
X213462093Y-89915976D01*
X213938284Y-88665976D02*
X213938284Y-89915976D01*
X215247807Y-88785023D02*
X215188283Y-88725500D01*
X215188283Y-88725500D02*
X215009712Y-88665976D01*
X215009712Y-88665976D02*
X214890664Y-88665976D01*
X214890664Y-88665976D02*
X214712093Y-88725500D01*
X214712093Y-88725500D02*
X214593045Y-88844547D01*
X214593045Y-88844547D02*
X214533522Y-88963595D01*
X214533522Y-88963595D02*
X214473998Y-89201690D01*
X214473998Y-89201690D02*
X214473998Y-89380261D01*
X214473998Y-89380261D02*
X214533522Y-89618357D01*
X214533522Y-89618357D02*
X214593045Y-89737404D01*
X214593045Y-89737404D02*
X214712093Y-89856452D01*
X214712093Y-89856452D02*
X214890664Y-89915976D01*
X214890664Y-89915976D02*
X215009712Y-89915976D01*
X215009712Y-89915976D02*
X215188283Y-89856452D01*
X215188283Y-89856452D02*
X215247807Y-89796928D01*
X215783522Y-88665976D02*
X215783522Y-89915976D01*
X216497807Y-88665976D02*
X215962093Y-89380261D01*
X216497807Y-89915976D02*
X215783522Y-89201690D01*
D11*
X138195000Y-113000000D02*
X165805000Y-113000000D01*
X165805000Y-119000000D01*
X138195000Y-119000000D01*
X138195000Y-113000000D01*
X140805000Y-113000000D02*
X140805000Y-119000000D01*
X143305000Y-113000000D02*
X143305000Y-119000000D01*
X145805000Y-113000000D02*
X145805000Y-119000000D01*
X148305000Y-113000000D02*
X148305000Y-119000000D01*
X150805000Y-113000000D02*
X150805000Y-119000000D01*
X153305000Y-113000000D02*
X153305000Y-119000000D01*
X155805000Y-113000000D02*
X155805000Y-119000000D01*
X158305000Y-113000000D02*
X158305000Y-119000000D01*
X160805000Y-113000000D02*
X160805000Y-119000000D01*
X163305000Y-113000000D02*
X163305000Y-119000000D01*
X167390000Y-113000000D02*
X175000000Y-113000000D01*
X175000000Y-119000000D01*
X167390000Y-119000000D01*
X167390000Y-113000000D01*
X170000000Y-113000000D02*
X170000000Y-119000000D01*
X172500000Y-113000000D02*
X172500000Y-119000000D01*
D10*
X140139023Y-113962092D02*
X138889023Y-113962092D01*
X138889023Y-114795425D02*
X138889023Y-115033520D01*
X138889023Y-115033520D02*
X138948547Y-115152568D01*
X138948547Y-115152568D02*
X139067595Y-115271615D01*
X139067595Y-115271615D02*
X139305690Y-115331139D01*
X139305690Y-115331139D02*
X139722357Y-115331139D01*
X139722357Y-115331139D02*
X139960452Y-115271615D01*
X139960452Y-115271615D02*
X140079500Y-115152568D01*
X140079500Y-115152568D02*
X140139023Y-115033520D01*
X140139023Y-115033520D02*
X140139023Y-114795425D01*
X140139023Y-114795425D02*
X140079500Y-114676377D01*
X140079500Y-114676377D02*
X139960452Y-114557330D01*
X139960452Y-114557330D02*
X139722357Y-114497806D01*
X139722357Y-114497806D02*
X139305690Y-114497806D01*
X139305690Y-114497806D02*
X139067595Y-114557330D01*
X139067595Y-114557330D02*
X138948547Y-114676377D01*
X138948547Y-114676377D02*
X138889023Y-114795425D01*
X138889023Y-116104949D02*
X138889023Y-116223996D01*
X138889023Y-116223996D02*
X138948547Y-116343044D01*
X138948547Y-116343044D02*
X139008071Y-116402568D01*
X139008071Y-116402568D02*
X139127119Y-116462092D01*
X139127119Y-116462092D02*
X139365214Y-116521615D01*
X139365214Y-116521615D02*
X139662833Y-116521615D01*
X139662833Y-116521615D02*
X139900928Y-116462092D01*
X139900928Y-116462092D02*
X140019976Y-116402568D01*
X140019976Y-116402568D02*
X140079500Y-116343044D01*
X140079500Y-116343044D02*
X140139023Y-116223996D01*
X140139023Y-116223996D02*
X140139023Y-116104949D01*
X140139023Y-116104949D02*
X140079500Y-115985901D01*
X140079500Y-115985901D02*
X140019976Y-115926377D01*
X140019976Y-115926377D02*
X139900928Y-115866854D01*
X139900928Y-115866854D02*
X139662833Y-115807330D01*
X139662833Y-115807330D02*
X139365214Y-115807330D01*
X139365214Y-115807330D02*
X139127119Y-115866854D01*
X139127119Y-115866854D02*
X139008071Y-115926377D01*
X139008071Y-115926377D02*
X138948547Y-115985901D01*
X138948547Y-115985901D02*
X138889023Y-116104949D01*
X142639023Y-113962092D02*
X141389023Y-113962092D01*
X141389023Y-114795425D02*
X141389023Y-115033520D01*
X141389023Y-115033520D02*
X141448547Y-115152568D01*
X141448547Y-115152568D02*
X141567595Y-115271615D01*
X141567595Y-115271615D02*
X141805690Y-115331139D01*
X141805690Y-115331139D02*
X142222357Y-115331139D01*
X142222357Y-115331139D02*
X142460452Y-115271615D01*
X142460452Y-115271615D02*
X142579500Y-115152568D01*
X142579500Y-115152568D02*
X142639023Y-115033520D01*
X142639023Y-115033520D02*
X142639023Y-114795425D01*
X142639023Y-114795425D02*
X142579500Y-114676377D01*
X142579500Y-114676377D02*
X142460452Y-114557330D01*
X142460452Y-114557330D02*
X142222357Y-114497806D01*
X142222357Y-114497806D02*
X141805690Y-114497806D01*
X141805690Y-114497806D02*
X141567595Y-114557330D01*
X141567595Y-114557330D02*
X141448547Y-114676377D01*
X141448547Y-114676377D02*
X141389023Y-114795425D01*
X142639023Y-116521615D02*
X142639023Y-115807330D01*
X142639023Y-116164473D02*
X141389023Y-116164473D01*
X141389023Y-116164473D02*
X141567595Y-116045425D01*
X141567595Y-116045425D02*
X141686642Y-115926377D01*
X141686642Y-115926377D02*
X141746166Y-115807330D01*
X145139023Y-113962092D02*
X143889023Y-113962092D01*
X143889023Y-114795425D02*
X143889023Y-115033520D01*
X143889023Y-115033520D02*
X143948547Y-115152568D01*
X143948547Y-115152568D02*
X144067595Y-115271615D01*
X144067595Y-115271615D02*
X144305690Y-115331139D01*
X144305690Y-115331139D02*
X144722357Y-115331139D01*
X144722357Y-115331139D02*
X144960452Y-115271615D01*
X144960452Y-115271615D02*
X145079500Y-115152568D01*
X145079500Y-115152568D02*
X145139023Y-115033520D01*
X145139023Y-115033520D02*
X145139023Y-114795425D01*
X145139023Y-114795425D02*
X145079500Y-114676377D01*
X145079500Y-114676377D02*
X144960452Y-114557330D01*
X144960452Y-114557330D02*
X144722357Y-114497806D01*
X144722357Y-114497806D02*
X144305690Y-114497806D01*
X144305690Y-114497806D02*
X144067595Y-114557330D01*
X144067595Y-114557330D02*
X143948547Y-114676377D01*
X143948547Y-114676377D02*
X143889023Y-114795425D01*
X144008071Y-115807330D02*
X143948547Y-115866854D01*
X143948547Y-115866854D02*
X143889023Y-115985901D01*
X143889023Y-115985901D02*
X143889023Y-116283520D01*
X143889023Y-116283520D02*
X143948547Y-116402568D01*
X143948547Y-116402568D02*
X144008071Y-116462092D01*
X144008071Y-116462092D02*
X144127119Y-116521615D01*
X144127119Y-116521615D02*
X144246166Y-116521615D01*
X144246166Y-116521615D02*
X144424738Y-116462092D01*
X144424738Y-116462092D02*
X145139023Y-115747806D01*
X145139023Y-115747806D02*
X145139023Y-116521615D01*
X147639023Y-113962092D02*
X146389023Y-113962092D01*
X146389023Y-114795425D02*
X146389023Y-115033520D01*
X146389023Y-115033520D02*
X146448547Y-115152568D01*
X146448547Y-115152568D02*
X146567595Y-115271615D01*
X146567595Y-115271615D02*
X146805690Y-115331139D01*
X146805690Y-115331139D02*
X147222357Y-115331139D01*
X147222357Y-115331139D02*
X147460452Y-115271615D01*
X147460452Y-115271615D02*
X147579500Y-115152568D01*
X147579500Y-115152568D02*
X147639023Y-115033520D01*
X147639023Y-115033520D02*
X147639023Y-114795425D01*
X147639023Y-114795425D02*
X147579500Y-114676377D01*
X147579500Y-114676377D02*
X147460452Y-114557330D01*
X147460452Y-114557330D02*
X147222357Y-114497806D01*
X147222357Y-114497806D02*
X146805690Y-114497806D01*
X146805690Y-114497806D02*
X146567595Y-114557330D01*
X146567595Y-114557330D02*
X146448547Y-114676377D01*
X146448547Y-114676377D02*
X146389023Y-114795425D01*
X146389023Y-115747806D02*
X146389023Y-116521615D01*
X146389023Y-116521615D02*
X146865214Y-116104949D01*
X146865214Y-116104949D02*
X146865214Y-116283520D01*
X146865214Y-116283520D02*
X146924738Y-116402568D01*
X146924738Y-116402568D02*
X146984261Y-116462092D01*
X146984261Y-116462092D02*
X147103309Y-116521615D01*
X147103309Y-116521615D02*
X147400928Y-116521615D01*
X147400928Y-116521615D02*
X147519976Y-116462092D01*
X147519976Y-116462092D02*
X147579500Y-116402568D01*
X147579500Y-116402568D02*
X147639023Y-116283520D01*
X147639023Y-116283520D02*
X147639023Y-115926377D01*
X147639023Y-115926377D02*
X147579500Y-115807330D01*
X147579500Y-115807330D02*
X147519976Y-115747806D01*
X150139023Y-113962092D02*
X148889023Y-113962092D01*
X148889023Y-114795425D02*
X148889023Y-115033520D01*
X148889023Y-115033520D02*
X148948547Y-115152568D01*
X148948547Y-115152568D02*
X149067595Y-115271615D01*
X149067595Y-115271615D02*
X149305690Y-115331139D01*
X149305690Y-115331139D02*
X149722357Y-115331139D01*
X149722357Y-115331139D02*
X149960452Y-115271615D01*
X149960452Y-115271615D02*
X150079500Y-115152568D01*
X150079500Y-115152568D02*
X150139023Y-115033520D01*
X150139023Y-115033520D02*
X150139023Y-114795425D01*
X150139023Y-114795425D02*
X150079500Y-114676377D01*
X150079500Y-114676377D02*
X149960452Y-114557330D01*
X149960452Y-114557330D02*
X149722357Y-114497806D01*
X149722357Y-114497806D02*
X149305690Y-114497806D01*
X149305690Y-114497806D02*
X149067595Y-114557330D01*
X149067595Y-114557330D02*
X148948547Y-114676377D01*
X148948547Y-114676377D02*
X148889023Y-114795425D01*
X148889023Y-116402568D02*
X148889023Y-116164473D01*
X148889023Y-116164473D02*
X148948547Y-116045425D01*
X148948547Y-116045425D02*
X149008071Y-115985901D01*
X149008071Y-115985901D02*
X149186642Y-115866854D01*
X149186642Y-115866854D02*
X149424738Y-115807330D01*
X149424738Y-115807330D02*
X149900928Y-115807330D01*
X149900928Y-115807330D02*
X150019976Y-115866854D01*
X150019976Y-115866854D02*
X150079500Y-115926377D01*
X150079500Y-115926377D02*
X150139023Y-116045425D01*
X150139023Y-116045425D02*
X150139023Y-116283520D01*
X150139023Y-116283520D02*
X150079500Y-116402568D01*
X150079500Y-116402568D02*
X150019976Y-116462092D01*
X150019976Y-116462092D02*
X149900928Y-116521615D01*
X149900928Y-116521615D02*
X149603309Y-116521615D01*
X149603309Y-116521615D02*
X149484261Y-116462092D01*
X149484261Y-116462092D02*
X149424738Y-116402568D01*
X149424738Y-116402568D02*
X149365214Y-116283520D01*
X149365214Y-116283520D02*
X149365214Y-116045425D01*
X149365214Y-116045425D02*
X149424738Y-115926377D01*
X149424738Y-115926377D02*
X149484261Y-115866854D01*
X149484261Y-115866854D02*
X149603309Y-115807330D01*
X152639023Y-113962092D02*
X151389023Y-113962092D01*
X151389023Y-114795425D02*
X151389023Y-115033520D01*
X151389023Y-115033520D02*
X151448547Y-115152568D01*
X151448547Y-115152568D02*
X151567595Y-115271615D01*
X151567595Y-115271615D02*
X151805690Y-115331139D01*
X151805690Y-115331139D02*
X152222357Y-115331139D01*
X152222357Y-115331139D02*
X152460452Y-115271615D01*
X152460452Y-115271615D02*
X152579500Y-115152568D01*
X152579500Y-115152568D02*
X152639023Y-115033520D01*
X152639023Y-115033520D02*
X152639023Y-114795425D01*
X152639023Y-114795425D02*
X152579500Y-114676377D01*
X152579500Y-114676377D02*
X152460452Y-114557330D01*
X152460452Y-114557330D02*
X152222357Y-114497806D01*
X152222357Y-114497806D02*
X151805690Y-114497806D01*
X151805690Y-114497806D02*
X151567595Y-114557330D01*
X151567595Y-114557330D02*
X151448547Y-114676377D01*
X151448547Y-114676377D02*
X151389023Y-114795425D01*
X151389023Y-115747806D02*
X151389023Y-116581139D01*
X151389023Y-116581139D02*
X152639023Y-116045425D01*
X155139023Y-113962092D02*
X153889023Y-113962092D01*
X153889023Y-114795425D02*
X153889023Y-115033520D01*
X153889023Y-115033520D02*
X153948547Y-115152568D01*
X153948547Y-115152568D02*
X154067595Y-115271615D01*
X154067595Y-115271615D02*
X154305690Y-115331139D01*
X154305690Y-115331139D02*
X154722357Y-115331139D01*
X154722357Y-115331139D02*
X154960452Y-115271615D01*
X154960452Y-115271615D02*
X155079500Y-115152568D01*
X155079500Y-115152568D02*
X155139023Y-115033520D01*
X155139023Y-115033520D02*
X155139023Y-114795425D01*
X155139023Y-114795425D02*
X155079500Y-114676377D01*
X155079500Y-114676377D02*
X154960452Y-114557330D01*
X154960452Y-114557330D02*
X154722357Y-114497806D01*
X154722357Y-114497806D02*
X154305690Y-114497806D01*
X154305690Y-114497806D02*
X154067595Y-114557330D01*
X154067595Y-114557330D02*
X153948547Y-114676377D01*
X153948547Y-114676377D02*
X153889023Y-114795425D01*
X155139023Y-116521615D02*
X155139023Y-115807330D01*
X155139023Y-116164473D02*
X153889023Y-116164473D01*
X153889023Y-116164473D02*
X154067595Y-116045425D01*
X154067595Y-116045425D02*
X154186642Y-115926377D01*
X154186642Y-115926377D02*
X154246166Y-115807330D01*
X154305690Y-117593044D02*
X155139023Y-117593044D01*
X153829500Y-117295425D02*
X154722357Y-116997806D01*
X154722357Y-116997806D02*
X154722357Y-117771615D01*
X157639023Y-113962092D02*
X156389023Y-113962092D01*
X156389023Y-114795425D02*
X156389023Y-115033520D01*
X156389023Y-115033520D02*
X156448547Y-115152568D01*
X156448547Y-115152568D02*
X156567595Y-115271615D01*
X156567595Y-115271615D02*
X156805690Y-115331139D01*
X156805690Y-115331139D02*
X157222357Y-115331139D01*
X157222357Y-115331139D02*
X157460452Y-115271615D01*
X157460452Y-115271615D02*
X157579500Y-115152568D01*
X157579500Y-115152568D02*
X157639023Y-115033520D01*
X157639023Y-115033520D02*
X157639023Y-114795425D01*
X157639023Y-114795425D02*
X157579500Y-114676377D01*
X157579500Y-114676377D02*
X157460452Y-114557330D01*
X157460452Y-114557330D02*
X157222357Y-114497806D01*
X157222357Y-114497806D02*
X156805690Y-114497806D01*
X156805690Y-114497806D02*
X156567595Y-114557330D01*
X156567595Y-114557330D02*
X156448547Y-114676377D01*
X156448547Y-114676377D02*
X156389023Y-114795425D01*
X157639023Y-116521615D02*
X157639023Y-115807330D01*
X157639023Y-116164473D02*
X156389023Y-116164473D01*
X156389023Y-116164473D02*
X156567595Y-116045425D01*
X156567595Y-116045425D02*
X156686642Y-115926377D01*
X156686642Y-115926377D02*
X156746166Y-115807330D01*
X156924738Y-117235901D02*
X156865214Y-117116853D01*
X156865214Y-117116853D02*
X156805690Y-117057330D01*
X156805690Y-117057330D02*
X156686642Y-116997806D01*
X156686642Y-116997806D02*
X156627119Y-116997806D01*
X156627119Y-116997806D02*
X156508071Y-117057330D01*
X156508071Y-117057330D02*
X156448547Y-117116853D01*
X156448547Y-117116853D02*
X156389023Y-117235901D01*
X156389023Y-117235901D02*
X156389023Y-117473996D01*
X156389023Y-117473996D02*
X156448547Y-117593044D01*
X156448547Y-117593044D02*
X156508071Y-117652568D01*
X156508071Y-117652568D02*
X156627119Y-117712091D01*
X156627119Y-117712091D02*
X156686642Y-117712091D01*
X156686642Y-117712091D02*
X156805690Y-117652568D01*
X156805690Y-117652568D02*
X156865214Y-117593044D01*
X156865214Y-117593044D02*
X156924738Y-117473996D01*
X156924738Y-117473996D02*
X156924738Y-117235901D01*
X156924738Y-117235901D02*
X156984261Y-117116853D01*
X156984261Y-117116853D02*
X157043785Y-117057330D01*
X157043785Y-117057330D02*
X157162833Y-116997806D01*
X157162833Y-116997806D02*
X157400928Y-116997806D01*
X157400928Y-116997806D02*
X157519976Y-117057330D01*
X157519976Y-117057330D02*
X157579500Y-117116853D01*
X157579500Y-117116853D02*
X157639023Y-117235901D01*
X157639023Y-117235901D02*
X157639023Y-117473996D01*
X157639023Y-117473996D02*
X157579500Y-117593044D01*
X157579500Y-117593044D02*
X157519976Y-117652568D01*
X157519976Y-117652568D02*
X157400928Y-117712091D01*
X157400928Y-117712091D02*
X157162833Y-117712091D01*
X157162833Y-117712091D02*
X157043785Y-117652568D01*
X157043785Y-117652568D02*
X156984261Y-117593044D01*
X156984261Y-117593044D02*
X156924738Y-117473996D01*
X160139023Y-113962092D02*
X158889023Y-113962092D01*
X158889023Y-114795425D02*
X158889023Y-115033520D01*
X158889023Y-115033520D02*
X158948547Y-115152568D01*
X158948547Y-115152568D02*
X159067595Y-115271615D01*
X159067595Y-115271615D02*
X159305690Y-115331139D01*
X159305690Y-115331139D02*
X159722357Y-115331139D01*
X159722357Y-115331139D02*
X159960452Y-115271615D01*
X159960452Y-115271615D02*
X160079500Y-115152568D01*
X160079500Y-115152568D02*
X160139023Y-115033520D01*
X160139023Y-115033520D02*
X160139023Y-114795425D01*
X160139023Y-114795425D02*
X160079500Y-114676377D01*
X160079500Y-114676377D02*
X159960452Y-114557330D01*
X159960452Y-114557330D02*
X159722357Y-114497806D01*
X159722357Y-114497806D02*
X159305690Y-114497806D01*
X159305690Y-114497806D02*
X159067595Y-114557330D01*
X159067595Y-114557330D02*
X158948547Y-114676377D01*
X158948547Y-114676377D02*
X158889023Y-114795425D01*
X160139023Y-116521615D02*
X160139023Y-115807330D01*
X160139023Y-116164473D02*
X158889023Y-116164473D01*
X158889023Y-116164473D02*
X159067595Y-116045425D01*
X159067595Y-116045425D02*
X159186642Y-115926377D01*
X159186642Y-115926377D02*
X159246166Y-115807330D01*
X160139023Y-117116853D02*
X160139023Y-117354949D01*
X160139023Y-117354949D02*
X160079500Y-117473996D01*
X160079500Y-117473996D02*
X160019976Y-117533520D01*
X160019976Y-117533520D02*
X159841404Y-117652568D01*
X159841404Y-117652568D02*
X159603309Y-117712091D01*
X159603309Y-117712091D02*
X159127119Y-117712091D01*
X159127119Y-117712091D02*
X159008071Y-117652568D01*
X159008071Y-117652568D02*
X158948547Y-117593044D01*
X158948547Y-117593044D02*
X158889023Y-117473996D01*
X158889023Y-117473996D02*
X158889023Y-117235901D01*
X158889023Y-117235901D02*
X158948547Y-117116853D01*
X158948547Y-117116853D02*
X159008071Y-117057330D01*
X159008071Y-117057330D02*
X159127119Y-116997806D01*
X159127119Y-116997806D02*
X159424738Y-116997806D01*
X159424738Y-116997806D02*
X159543785Y-117057330D01*
X159543785Y-117057330D02*
X159603309Y-117116853D01*
X159603309Y-117116853D02*
X159662833Y-117235901D01*
X159662833Y-117235901D02*
X159662833Y-117473996D01*
X159662833Y-117473996D02*
X159603309Y-117593044D01*
X159603309Y-117593044D02*
X159543785Y-117652568D01*
X159543785Y-117652568D02*
X159424738Y-117712091D01*
X161389023Y-113783520D02*
X161389023Y-114497806D01*
X162639023Y-114140663D02*
X161389023Y-114140663D01*
X161389023Y-114795425D02*
X162639023Y-115628758D01*
X161389023Y-115628758D02*
X162639023Y-114795425D01*
X165139023Y-114676377D02*
X164543785Y-114259711D01*
X165139023Y-113962092D02*
X163889023Y-113962092D01*
X163889023Y-113962092D02*
X163889023Y-114438282D01*
X163889023Y-114438282D02*
X163948547Y-114557330D01*
X163948547Y-114557330D02*
X164008071Y-114616853D01*
X164008071Y-114616853D02*
X164127119Y-114676377D01*
X164127119Y-114676377D02*
X164305690Y-114676377D01*
X164305690Y-114676377D02*
X164424738Y-114616853D01*
X164424738Y-114616853D02*
X164484261Y-114557330D01*
X164484261Y-114557330D02*
X164543785Y-114438282D01*
X164543785Y-114438282D02*
X164543785Y-113962092D01*
X163889023Y-115093044D02*
X165139023Y-115926377D01*
X163889023Y-115926377D02*
X165139023Y-115093044D01*
X168084023Y-113843044D02*
X168084023Y-114616853D01*
X168084023Y-114616853D02*
X168560214Y-114200187D01*
X168560214Y-114200187D02*
X168560214Y-114378758D01*
X168560214Y-114378758D02*
X168619738Y-114497806D01*
X168619738Y-114497806D02*
X168679261Y-114557330D01*
X168679261Y-114557330D02*
X168798309Y-114616853D01*
X168798309Y-114616853D02*
X169095928Y-114616853D01*
X169095928Y-114616853D02*
X169214976Y-114557330D01*
X169214976Y-114557330D02*
X169274500Y-114497806D01*
X169274500Y-114497806D02*
X169334023Y-114378758D01*
X169334023Y-114378758D02*
X169334023Y-114021615D01*
X169334023Y-114021615D02*
X169274500Y-113902568D01*
X169274500Y-113902568D02*
X169214976Y-113843044D01*
X169214976Y-115152568D02*
X169274500Y-115212091D01*
X169274500Y-115212091D02*
X169334023Y-115152568D01*
X169334023Y-115152568D02*
X169274500Y-115093044D01*
X169274500Y-115093044D02*
X169214976Y-115152568D01*
X169214976Y-115152568D02*
X169334023Y-115152568D01*
X168084023Y-115628758D02*
X168084023Y-116402567D01*
X168084023Y-116402567D02*
X168560214Y-115985901D01*
X168560214Y-115985901D02*
X168560214Y-116164472D01*
X168560214Y-116164472D02*
X168619738Y-116283520D01*
X168619738Y-116283520D02*
X168679261Y-116343044D01*
X168679261Y-116343044D02*
X168798309Y-116402567D01*
X168798309Y-116402567D02*
X169095928Y-116402567D01*
X169095928Y-116402567D02*
X169214976Y-116343044D01*
X169214976Y-116343044D02*
X169274500Y-116283520D01*
X169274500Y-116283520D02*
X169334023Y-116164472D01*
X169334023Y-116164472D02*
X169334023Y-115807329D01*
X169334023Y-115807329D02*
X169274500Y-115688282D01*
X169274500Y-115688282D02*
X169214976Y-115628758D01*
X168084023Y-116759710D02*
X169334023Y-117176377D01*
X169334023Y-117176377D02*
X168084023Y-117593043D01*
X170643547Y-114616853D02*
X170584023Y-114497806D01*
X170584023Y-114497806D02*
X170584023Y-114319234D01*
X170584023Y-114319234D02*
X170643547Y-114140663D01*
X170643547Y-114140663D02*
X170762595Y-114021615D01*
X170762595Y-114021615D02*
X170881642Y-113962092D01*
X170881642Y-113962092D02*
X171119738Y-113902568D01*
X171119738Y-113902568D02*
X171298309Y-113902568D01*
X171298309Y-113902568D02*
X171536404Y-113962092D01*
X171536404Y-113962092D02*
X171655452Y-114021615D01*
X171655452Y-114021615D02*
X171774500Y-114140663D01*
X171774500Y-114140663D02*
X171834023Y-114319234D01*
X171834023Y-114319234D02*
X171834023Y-114438282D01*
X171834023Y-114438282D02*
X171774500Y-114616853D01*
X171774500Y-114616853D02*
X171714976Y-114676377D01*
X171714976Y-114676377D02*
X171298309Y-114676377D01*
X171298309Y-114676377D02*
X171298309Y-114438282D01*
X171834023Y-115212092D02*
X170584023Y-115212092D01*
X170584023Y-115212092D02*
X171834023Y-115926377D01*
X171834023Y-115926377D02*
X170584023Y-115926377D01*
X171834023Y-116521616D02*
X170584023Y-116521616D01*
X170584023Y-116521616D02*
X170584023Y-116819235D01*
X170584023Y-116819235D02*
X170643547Y-116997806D01*
X170643547Y-116997806D02*
X170762595Y-117116854D01*
X170762595Y-117116854D02*
X170881642Y-117176377D01*
X170881642Y-117176377D02*
X171119738Y-117235901D01*
X171119738Y-117235901D02*
X171298309Y-117235901D01*
X171298309Y-117235901D02*
X171536404Y-117176377D01*
X171536404Y-117176377D02*
X171655452Y-117116854D01*
X171655452Y-117116854D02*
X171774500Y-116997806D01*
X171774500Y-116997806D02*
X171834023Y-116819235D01*
X171834023Y-116819235D02*
X171834023Y-116521616D01*
X173084023Y-113783520D02*
X174334023Y-114200187D01*
X174334023Y-114200187D02*
X173084023Y-114616853D01*
X173679261Y-115450187D02*
X173738785Y-115628759D01*
X173738785Y-115628759D02*
X173798309Y-115688282D01*
X173798309Y-115688282D02*
X173917357Y-115747806D01*
X173917357Y-115747806D02*
X174095928Y-115747806D01*
X174095928Y-115747806D02*
X174214976Y-115688282D01*
X174214976Y-115688282D02*
X174274500Y-115628759D01*
X174274500Y-115628759D02*
X174334023Y-115509711D01*
X174334023Y-115509711D02*
X174334023Y-115033521D01*
X174334023Y-115033521D02*
X173084023Y-115033521D01*
X173084023Y-115033521D02*
X173084023Y-115450187D01*
X173084023Y-115450187D02*
X173143547Y-115569235D01*
X173143547Y-115569235D02*
X173203071Y-115628759D01*
X173203071Y-115628759D02*
X173322119Y-115688282D01*
X173322119Y-115688282D02*
X173441166Y-115688282D01*
X173441166Y-115688282D02*
X173560214Y-115628759D01*
X173560214Y-115628759D02*
X173619738Y-115569235D01*
X173619738Y-115569235D02*
X173679261Y-115450187D01*
X173679261Y-115450187D02*
X173679261Y-115033521D01*
X173084023Y-116283521D02*
X174095928Y-116283521D01*
X174095928Y-116283521D02*
X174214976Y-116343044D01*
X174214976Y-116343044D02*
X174274500Y-116402568D01*
X174274500Y-116402568D02*
X174334023Y-116521616D01*
X174334023Y-116521616D02*
X174334023Y-116759711D01*
X174334023Y-116759711D02*
X174274500Y-116878759D01*
X174274500Y-116878759D02*
X174214976Y-116938282D01*
X174214976Y-116938282D02*
X174095928Y-116997806D01*
X174095928Y-116997806D02*
X173084023Y-116997806D01*
X174274500Y-117533521D02*
X174334023Y-117712092D01*
X174334023Y-117712092D02*
X174334023Y-118009711D01*
X174334023Y-118009711D02*
X174274500Y-118128759D01*
X174274500Y-118128759D02*
X174214976Y-118188283D01*
X174214976Y-118188283D02*
X174095928Y-118247806D01*
X174095928Y-118247806D02*
X173976880Y-118247806D01*
X173976880Y-118247806D02*
X173857833Y-118188283D01*
X173857833Y-118188283D02*
X173798309Y-118128759D01*
X173798309Y-118128759D02*
X173738785Y-118009711D01*
X173738785Y-118009711D02*
X173679261Y-117771616D01*
X173679261Y-117771616D02*
X173619738Y-117652568D01*
X173619738Y-117652568D02*
X173560214Y-117593045D01*
X173560214Y-117593045D02*
X173441166Y-117533521D01*
X173441166Y-117533521D02*
X173322119Y-117533521D01*
X173322119Y-117533521D02*
X173203071Y-117593045D01*
X173203071Y-117593045D02*
X173143547Y-117652568D01*
X173143547Y-117652568D02*
X173084023Y-117771616D01*
X173084023Y-117771616D02*
X173084023Y-118069235D01*
X173084023Y-118069235D02*
X173143547Y-118247806D01*
D12*
G36*
X206800000Y-115800000D02*
G01*
X207200000Y-115800000D01*
X207200000Y-116200000D01*
X207600000Y-116200000D01*
X207600000Y-116600000D01*
X207200000Y-116600000D01*
X207200000Y-117000000D01*
X206800000Y-117000000D01*
X206800000Y-118200000D01*
X206400000Y-118200000D01*
X206400000Y-117000000D01*
X206400000Y-116600000D01*
X206400000Y-116200000D01*
X206400000Y-115800000D01*
X206400000Y-115400000D01*
X206800000Y-115400000D01*
X206800000Y-115800000D01*
G37*
G36*
X208000000Y-118200000D02*
G01*
X207600000Y-118200000D01*
X207600000Y-117800000D01*
X208000000Y-117800000D01*
X208000000Y-118200000D01*
G37*
G36*
X209200000Y-117800000D02*
G01*
X209200000Y-118200000D01*
X208800000Y-118200000D01*
X208800000Y-117800000D01*
X208000000Y-117800000D01*
X208000000Y-117400000D01*
X209200000Y-117400000D01*
X209200000Y-117800000D01*
G37*
G36*
X210000000Y-118200000D02*
G01*
X209600000Y-118200000D01*
X209600000Y-117000000D01*
X210000000Y-117000000D01*
X210000000Y-118200000D01*
G37*
G36*
X210800000Y-117800000D02*
G01*
X211200000Y-117800000D01*
X211200000Y-118200000D01*
X210400000Y-118200000D01*
X210400000Y-117800000D01*
X210400000Y-117400000D01*
X210800000Y-117400000D01*
X210800000Y-117800000D01*
G37*
G36*
X212000000Y-117400000D02*
G01*
X213200000Y-117400000D01*
X213200000Y-117800000D01*
X213200000Y-118200000D01*
X212800000Y-118200000D01*
X212800000Y-117800000D01*
X211600000Y-117800000D01*
X211600000Y-117400000D01*
X211200000Y-117400000D01*
X211200000Y-117000000D01*
X212000000Y-117000000D01*
X212000000Y-117400000D01*
G37*
G36*
X215600000Y-117400000D02*
G01*
X214400000Y-117400000D01*
X214400000Y-116200000D01*
X215600000Y-116200000D01*
X215600000Y-117400000D01*
G37*
G36*
X216400000Y-117800000D02*
G01*
X216400000Y-118200000D01*
X213600000Y-118200000D01*
X213600000Y-117800000D01*
X213600000Y-115800000D01*
X214000000Y-115800000D01*
X214000000Y-117800000D01*
X216000000Y-117800000D01*
X216000000Y-115800000D01*
X214000000Y-115800000D01*
X213600000Y-115800000D01*
X213600000Y-115400000D01*
X216400000Y-115400000D01*
X216400000Y-115800000D01*
X216400000Y-117800000D01*
G37*
G36*
X208000000Y-117400000D02*
G01*
X207200000Y-117400000D01*
X207200000Y-117000000D01*
X208000000Y-117000000D01*
X208000000Y-117400000D01*
G37*
G36*
X209200000Y-115800000D02*
G01*
X208800000Y-115800000D01*
X208800000Y-115400000D01*
X209200000Y-115400000D01*
X209200000Y-115800000D01*
G37*
G36*
X210000000Y-115800000D02*
G01*
X210400000Y-115800000D01*
X210400000Y-116200000D01*
X210800000Y-116200000D01*
X210800000Y-115800000D01*
X211600000Y-115800000D01*
X211600000Y-116200000D01*
X211600000Y-116600000D01*
X211200000Y-116600000D01*
X211200000Y-116200000D01*
X210800000Y-116200000D01*
X210800000Y-116600000D01*
X210800000Y-117000000D01*
X210400000Y-117000000D01*
X210400000Y-116600000D01*
X209600000Y-116600000D01*
X209600000Y-117000000D01*
X208800000Y-117000000D01*
X208800000Y-116600000D01*
X208000000Y-116600000D01*
X208000000Y-116200000D01*
X208000000Y-115000000D01*
X208400000Y-115000000D01*
X208400000Y-116200000D01*
X209600000Y-116200000D01*
X209600000Y-115800000D01*
X209600000Y-115000000D01*
X208400000Y-115000000D01*
X208000000Y-115000000D01*
X208000000Y-114600000D01*
X208400000Y-114600000D01*
X208400000Y-114200000D01*
X208800000Y-114200000D01*
X208800000Y-114600000D01*
X209200000Y-114600000D01*
X209600000Y-114600000D01*
X210000000Y-114600000D01*
X210000000Y-114200000D01*
X210000000Y-113800000D01*
X209600000Y-113800000D01*
X209600000Y-114200000D01*
X209600000Y-114600000D01*
X209200000Y-114600000D01*
X209200000Y-114200000D01*
X208800000Y-114200000D01*
X208400000Y-114200000D01*
X208000000Y-114200000D01*
X208000000Y-114600000D01*
X207600000Y-114600000D01*
X207600000Y-115000000D01*
X207200000Y-115000000D01*
X207200000Y-114600000D01*
X207200000Y-114200000D01*
X207600000Y-114200000D01*
X207600000Y-113800000D01*
X208400000Y-113800000D01*
X208400000Y-113400000D01*
X208400000Y-113000000D01*
X207600000Y-113000000D01*
X207600000Y-112600000D01*
X207600000Y-112200000D01*
X207200000Y-112200000D01*
X207200000Y-112600000D01*
X206800000Y-112600000D01*
X206800000Y-113400000D01*
X206400000Y-113400000D01*
X206400000Y-112600000D01*
X206400000Y-112200000D01*
X206800000Y-112200000D01*
X206800000Y-111800000D01*
X207600000Y-111800000D01*
X207600000Y-111400000D01*
X208400000Y-111400000D01*
X208400000Y-111800000D01*
X208800000Y-111800000D01*
X208800000Y-112200000D01*
X208000000Y-112200000D01*
X208000000Y-112600000D01*
X208800000Y-112600000D01*
X208800000Y-113000000D01*
X209200000Y-113000000D01*
X209200000Y-113400000D01*
X208800000Y-113400000D01*
X208800000Y-113800000D01*
X209600000Y-113800000D01*
X209600000Y-113400000D01*
X209600000Y-113000000D01*
X210000000Y-113000000D01*
X210000000Y-113400000D01*
X210400000Y-113400000D01*
X210400000Y-113800000D01*
X210800000Y-113800000D01*
X210800000Y-114200000D01*
X210400000Y-114200000D01*
X210400000Y-114600000D01*
X210400000Y-115000000D01*
X210000000Y-115000000D01*
X210000000Y-115800000D01*
G37*
G36*
X212800000Y-117000000D02*
G01*
X212400000Y-117000000D01*
X212400000Y-116200000D01*
X212800000Y-116200000D01*
X212800000Y-117000000D01*
G37*
G36*
X212800000Y-114200000D02*
G01*
X212400000Y-114200000D01*
X212400000Y-115000000D01*
X212400000Y-115400000D01*
X212400000Y-115800000D01*
X212400000Y-116200000D01*
X212000000Y-116200000D01*
X212000000Y-115800000D01*
X211600000Y-115800000D01*
X211600000Y-115400000D01*
X212000000Y-115400000D01*
X212000000Y-115000000D01*
X211600000Y-115000000D01*
X211600000Y-114200000D01*
X211200000Y-114200000D01*
X211200000Y-113800000D01*
X212800000Y-113800000D01*
X212800000Y-114200000D01*
G37*
G36*
X214800000Y-114600000D02*
G01*
X214800000Y-115000000D01*
X213200000Y-115000000D01*
X213200000Y-116200000D01*
X212800000Y-116200000D01*
X212800000Y-115000000D01*
X212800000Y-114600000D01*
X214000000Y-114600000D01*
X214000000Y-114200000D01*
X214800000Y-114200000D01*
X214800000Y-114600000D01*
G37*
G36*
X211600000Y-115400000D02*
G01*
X210800000Y-115400000D01*
X210800000Y-115000000D01*
X211600000Y-115000000D01*
X211600000Y-115400000D01*
G37*
G36*
X215600000Y-112200000D02*
G01*
X216000000Y-112200000D01*
X216000000Y-112600000D01*
X216400000Y-112600000D01*
X216400000Y-113000000D01*
X216400000Y-115000000D01*
X216000000Y-115000000D01*
X216000000Y-113000000D01*
X215600000Y-113000000D01*
X215600000Y-112600000D01*
X214800000Y-112600000D01*
X214800000Y-113000000D01*
X214800000Y-113400000D01*
X214400000Y-113400000D01*
X214400000Y-113000000D01*
X214000000Y-113000000D01*
X214000000Y-112600000D01*
X214400000Y-112600000D01*
X214400000Y-112200000D01*
X214800000Y-112200000D01*
X214800000Y-111800000D01*
X215600000Y-111800000D01*
X215600000Y-112200000D01*
G37*
G36*
X207200000Y-113800000D02*
G01*
X207200000Y-114200000D01*
X206800000Y-114200000D01*
X206800000Y-114600000D01*
X206400000Y-114600000D01*
X206400000Y-114200000D01*
X206400000Y-113800000D01*
X206800000Y-113800000D01*
X206800000Y-113400000D01*
X207200000Y-113400000D01*
X207200000Y-113800000D01*
G37*
G36*
X214000000Y-114200000D02*
G01*
X213600000Y-114200000D01*
X213600000Y-113800000D01*
X214000000Y-113800000D01*
X214000000Y-114200000D01*
G37*
G36*
X215600000Y-113400000D02*
G01*
X215600000Y-113800000D01*
X215200000Y-113800000D01*
X215200000Y-114200000D01*
X214800000Y-114200000D01*
X214800000Y-113800000D01*
X214800000Y-113400000D01*
X215200000Y-113400000D01*
X215200000Y-113000000D01*
X215600000Y-113000000D01*
X215600000Y-113400000D01*
G37*
G36*
X211200000Y-113800000D02*
G01*
X210800000Y-113800000D01*
X210800000Y-113400000D01*
X211200000Y-113400000D01*
X211200000Y-113800000D01*
G37*
G36*
X213600000Y-113800000D02*
G01*
X213200000Y-113800000D01*
X213200000Y-113400000D01*
X213600000Y-113400000D01*
X213600000Y-113800000D01*
G37*
G36*
X211600000Y-113000000D02*
G01*
X212000000Y-113000000D01*
X212000000Y-113400000D01*
X211200000Y-113400000D01*
X211200000Y-113000000D01*
X211200000Y-112600000D01*
X211600000Y-112600000D01*
X211600000Y-113000000D01*
G37*
G36*
X212800000Y-111800000D02*
G01*
X213200000Y-111800000D01*
X213200000Y-111400000D01*
X214400000Y-111400000D01*
X214400000Y-111800000D01*
X214400000Y-112200000D01*
X214000000Y-112200000D01*
X214000000Y-111800000D01*
X213200000Y-111800000D01*
X213200000Y-112200000D01*
X214000000Y-112200000D01*
X214000000Y-112600000D01*
X213200000Y-112600000D01*
X213200000Y-113000000D01*
X212800000Y-113000000D01*
X212800000Y-113400000D01*
X212400000Y-113400000D01*
X212400000Y-113000000D01*
X212400000Y-112600000D01*
X212800000Y-112600000D01*
X212800000Y-112200000D01*
X212400000Y-112200000D01*
X212400000Y-111800000D01*
X212400000Y-111400000D01*
X212800000Y-111400000D01*
X212800000Y-111800000D01*
G37*
G36*
X214000000Y-113400000D02*
G01*
X213600000Y-113400000D01*
X213600000Y-113000000D01*
X214000000Y-113000000D01*
X214000000Y-113400000D01*
G37*
G36*
X210800000Y-111000000D02*
G01*
X210800000Y-111400000D01*
X211200000Y-111400000D01*
X211200000Y-111800000D01*
X211600000Y-111800000D01*
X211600000Y-112200000D01*
X211200000Y-112200000D01*
X211200000Y-112600000D01*
X210800000Y-112600000D01*
X210800000Y-113000000D01*
X210400000Y-113000000D01*
X210400000Y-112600000D01*
X209600000Y-112600000D01*
X209600000Y-113000000D01*
X209200000Y-113000000D01*
X209200000Y-112600000D01*
X209200000Y-112200000D01*
X210000000Y-112200000D01*
X210000000Y-111800000D01*
X210000000Y-111400000D01*
X210000000Y-111000000D01*
X210400000Y-111000000D01*
X210400000Y-110600000D01*
X210800000Y-110600000D01*
X210800000Y-111000000D01*
G37*
G36*
X212400000Y-112600000D02*
G01*
X212000000Y-112600000D01*
X212000000Y-112200000D01*
X212400000Y-112200000D01*
X212400000Y-112600000D01*
G37*
G36*
X216400000Y-111800000D02*
G01*
X216400000Y-112200000D01*
X216000000Y-112200000D01*
X216000000Y-111800000D01*
X215600000Y-111800000D01*
X215600000Y-111400000D01*
X216400000Y-111400000D01*
X216400000Y-111800000D01*
G37*
G36*
X212400000Y-111000000D02*
G01*
X212400000Y-111400000D01*
X212000000Y-111400000D01*
X212000000Y-111800000D01*
X211600000Y-111800000D01*
X211600000Y-111400000D01*
X211600000Y-111000000D01*
X212000000Y-111000000D01*
X212000000Y-110600000D01*
X212400000Y-110600000D01*
X212400000Y-111000000D01*
G37*
G36*
X208400000Y-110200000D02*
G01*
X207200000Y-110200000D01*
X207200000Y-109000000D01*
X208400000Y-109000000D01*
X208400000Y-110200000D01*
G37*
G36*
X209200000Y-110600000D02*
G01*
X209200000Y-111000000D01*
X206400000Y-111000000D01*
X206400000Y-110600000D01*
X206400000Y-108600000D01*
X206800000Y-108600000D01*
X206800000Y-110600000D01*
X208800000Y-110600000D01*
X208800000Y-108600000D01*
X206800000Y-108600000D01*
X206400000Y-108600000D01*
X206400000Y-108200000D01*
X209200000Y-108200000D01*
X209200000Y-108600000D01*
X209200000Y-110600000D01*
G37*
G36*
X210400000Y-109800000D02*
G01*
X210000000Y-109800000D01*
X210000000Y-111000000D01*
X209600000Y-111000000D01*
X209600000Y-109800000D01*
X209600000Y-109400000D01*
X210400000Y-109400000D01*
X210400000Y-109800000D01*
G37*
G36*
X212000000Y-110600000D02*
G01*
X211600000Y-110600000D01*
X211600000Y-111000000D01*
X211200000Y-111000000D01*
X211200000Y-110600000D01*
X210800000Y-110600000D01*
X210800000Y-110200000D01*
X212000000Y-110200000D01*
X212000000Y-110600000D01*
G37*
G36*
X213200000Y-111000000D02*
G01*
X212800000Y-111000000D01*
X212800000Y-110600000D01*
X213200000Y-110600000D01*
X213200000Y-111000000D01*
G37*
G36*
X215600000Y-110200000D02*
G01*
X214400000Y-110200000D01*
X214400000Y-109000000D01*
X215600000Y-109000000D01*
X215600000Y-110200000D01*
G37*
G36*
X216400000Y-110600000D02*
G01*
X216400000Y-111000000D01*
X213600000Y-111000000D01*
X213600000Y-110600000D01*
X213600000Y-108600000D01*
X214000000Y-108600000D01*
X214000000Y-110600000D01*
X216000000Y-110600000D01*
X216000000Y-108600000D01*
X214000000Y-108600000D01*
X213600000Y-108600000D01*
X213600000Y-108200000D01*
X216400000Y-108200000D01*
X216400000Y-108600000D01*
X216400000Y-110600000D01*
G37*
G36*
X213200000Y-109800000D02*
G01*
X213200000Y-110200000D01*
X212400000Y-110200000D01*
X212400000Y-109800000D01*
X212800000Y-109800000D01*
X212800000Y-109400000D01*
X213200000Y-109400000D01*
X213200000Y-109800000D01*
G37*
G36*
X211600000Y-109400000D02*
G01*
X211600000Y-109800000D01*
X210800000Y-109800000D01*
X210800000Y-109400000D01*
X211200000Y-109400000D01*
X211200000Y-109000000D01*
X211600000Y-109000000D01*
X211600000Y-109400000D01*
G37*
G36*
X210000000Y-109000000D02*
G01*
X209600000Y-109000000D01*
X209600000Y-108200000D01*
X210000000Y-108200000D01*
X210000000Y-109000000D01*
G37*
G36*
X210800000Y-108600000D02*
G01*
X211200000Y-108600000D01*
X211200000Y-109000000D01*
X210400000Y-109000000D01*
X210400000Y-108600000D01*
X210400000Y-108200000D01*
X210800000Y-108200000D01*
X210800000Y-108600000D01*
G37*
G36*
X212800000Y-109000000D02*
G01*
X212000000Y-109000000D01*
X212000000Y-108600000D01*
X212800000Y-108600000D01*
X212800000Y-109000000D01*
G37*
G36*
X212000000Y-108600000D02*
G01*
X211200000Y-108600000D01*
X211200000Y-108200000D01*
X212000000Y-108200000D01*
X212000000Y-108600000D01*
G37*
D11*
X100166436Y-103378240D02*
X99690245Y-103044907D01*
X100166436Y-102806812D02*
X99166436Y-102806812D01*
X99166436Y-102806812D02*
X99166436Y-103187764D01*
X99166436Y-103187764D02*
X99214055Y-103283002D01*
X99214055Y-103283002D02*
X99261674Y-103330621D01*
X99261674Y-103330621D02*
X99356912Y-103378240D01*
X99356912Y-103378240D02*
X99499769Y-103378240D01*
X99499769Y-103378240D02*
X99595007Y-103330621D01*
X99595007Y-103330621D02*
X99642626Y-103283002D01*
X99642626Y-103283002D02*
X99690245Y-103187764D01*
X99690245Y-103187764D02*
X99690245Y-102806812D01*
X99261674Y-103759193D02*
X99214055Y-103806812D01*
X99214055Y-103806812D02*
X99166436Y-103902050D01*
X99166436Y-103902050D02*
X99166436Y-104140145D01*
X99166436Y-104140145D02*
X99214055Y-104235383D01*
X99214055Y-104235383D02*
X99261674Y-104283002D01*
X99261674Y-104283002D02*
X99356912Y-104330621D01*
X99356912Y-104330621D02*
X99452150Y-104330621D01*
X99452150Y-104330621D02*
X99595007Y-104283002D01*
X99595007Y-104283002D02*
X100166436Y-103711574D01*
X100166436Y-103711574D02*
X100166436Y-104330621D01*
X99166436Y-105187764D02*
X99166436Y-104997288D01*
X99166436Y-104997288D02*
X99214055Y-104902050D01*
X99214055Y-104902050D02*
X99261674Y-104854431D01*
X99261674Y-104854431D02*
X99404531Y-104759193D01*
X99404531Y-104759193D02*
X99595007Y-104711574D01*
X99595007Y-104711574D02*
X99975959Y-104711574D01*
X99975959Y-104711574D02*
X100071197Y-104759193D01*
X100071197Y-104759193D02*
X100118817Y-104806812D01*
X100118817Y-104806812D02*
X100166436Y-104902050D01*
X100166436Y-104902050D02*
X100166436Y-105092526D01*
X100166436Y-105092526D02*
X100118817Y-105187764D01*
X100118817Y-105187764D02*
X100071197Y-105235383D01*
X100071197Y-105235383D02*
X99975959Y-105283002D01*
X99975959Y-105283002D02*
X99737864Y-105283002D01*
X99737864Y-105283002D02*
X99642626Y-105235383D01*
X99642626Y-105235383D02*
X99595007Y-105187764D01*
X99595007Y-105187764D02*
X99547388Y-105092526D01*
X99547388Y-105092526D02*
X99547388Y-104902050D01*
X99547388Y-104902050D02*
X99595007Y-104806812D01*
X99595007Y-104806812D02*
X99642626Y-104759193D01*
X99642626Y-104759193D02*
X99737864Y-104711574D01*
X162613555Y-98462718D02*
X162613555Y-97986528D01*
X162613555Y-97986528D02*
X161613555Y-97986528D01*
X162089745Y-98796052D02*
X162089745Y-99129385D01*
X162613555Y-99272242D02*
X162613555Y-98796052D01*
X162613555Y-98796052D02*
X161613555Y-98796052D01*
X161613555Y-98796052D02*
X161613555Y-99272242D01*
X162613555Y-99700814D02*
X161613555Y-99700814D01*
X161613555Y-99700814D02*
X161613555Y-99938909D01*
X161613555Y-99938909D02*
X161661174Y-100081766D01*
X161661174Y-100081766D02*
X161756412Y-100177004D01*
X161756412Y-100177004D02*
X161851650Y-100224623D01*
X161851650Y-100224623D02*
X162042126Y-100272242D01*
X162042126Y-100272242D02*
X162184983Y-100272242D01*
X162184983Y-100272242D02*
X162375459Y-100224623D01*
X162375459Y-100224623D02*
X162470697Y-100177004D01*
X162470697Y-100177004D02*
X162565936Y-100081766D01*
X162565936Y-100081766D02*
X162613555Y-99938909D01*
X162613555Y-99938909D02*
X162613555Y-99700814D01*
X161708793Y-100653195D02*
X161661174Y-100700814D01*
X161661174Y-100700814D02*
X161613555Y-100796052D01*
X161613555Y-100796052D02*
X161613555Y-101034147D01*
X161613555Y-101034147D02*
X161661174Y-101129385D01*
X161661174Y-101129385D02*
X161708793Y-101177004D01*
X161708793Y-101177004D02*
X161804031Y-101224623D01*
X161804031Y-101224623D02*
X161899269Y-101224623D01*
X161899269Y-101224623D02*
X162042126Y-101177004D01*
X162042126Y-101177004D02*
X162613555Y-100605576D01*
X162613555Y-100605576D02*
X162613555Y-101224623D01*
X161613555Y-102081766D02*
X161613555Y-101891290D01*
X161613555Y-101891290D02*
X161661174Y-101796052D01*
X161661174Y-101796052D02*
X161708793Y-101748433D01*
X161708793Y-101748433D02*
X161851650Y-101653195D01*
X161851650Y-101653195D02*
X162042126Y-101605576D01*
X162042126Y-101605576D02*
X162423078Y-101605576D01*
X162423078Y-101605576D02*
X162518316Y-101653195D01*
X162518316Y-101653195D02*
X162565936Y-101700814D01*
X162565936Y-101700814D02*
X162613555Y-101796052D01*
X162613555Y-101796052D02*
X162613555Y-101986528D01*
X162613555Y-101986528D02*
X162565936Y-102081766D01*
X162565936Y-102081766D02*
X162518316Y-102129385D01*
X162518316Y-102129385D02*
X162423078Y-102177004D01*
X162423078Y-102177004D02*
X162184983Y-102177004D01*
X162184983Y-102177004D02*
X162089745Y-102129385D01*
X162089745Y-102129385D02*
X162042126Y-102081766D01*
X162042126Y-102081766D02*
X161994507Y-101986528D01*
X161994507Y-101986528D02*
X161994507Y-101796052D01*
X161994507Y-101796052D02*
X162042126Y-101700814D01*
X162042126Y-101700814D02*
X162089745Y-101653195D01*
X162089745Y-101653195D02*
X162184983Y-101605576D01*
X128454819Y-98404761D02*
X128454819Y-97928571D01*
X128454819Y-97928571D02*
X127454819Y-97928571D01*
X127931009Y-98738095D02*
X127931009Y-99071428D01*
X128454819Y-99214285D02*
X128454819Y-98738095D01*
X128454819Y-98738095D02*
X127454819Y-98738095D01*
X127454819Y-98738095D02*
X127454819Y-99214285D01*
X128454819Y-99642857D02*
X127454819Y-99642857D01*
X127454819Y-99642857D02*
X127454819Y-99880952D01*
X127454819Y-99880952D02*
X127502438Y-100023809D01*
X127502438Y-100023809D02*
X127597676Y-100119047D01*
X127597676Y-100119047D02*
X127692914Y-100166666D01*
X127692914Y-100166666D02*
X127883390Y-100214285D01*
X127883390Y-100214285D02*
X128026247Y-100214285D01*
X128026247Y-100214285D02*
X128216723Y-100166666D01*
X128216723Y-100166666D02*
X128311961Y-100119047D01*
X128311961Y-100119047D02*
X128407200Y-100023809D01*
X128407200Y-100023809D02*
X128454819Y-99880952D01*
X128454819Y-99880952D02*
X128454819Y-99642857D01*
X127454819Y-100547619D02*
X127454819Y-101166666D01*
X127454819Y-101166666D02*
X127835771Y-100833333D01*
X127835771Y-100833333D02*
X127835771Y-100976190D01*
X127835771Y-100976190D02*
X127883390Y-101071428D01*
X127883390Y-101071428D02*
X127931009Y-101119047D01*
X127931009Y-101119047D02*
X128026247Y-101166666D01*
X128026247Y-101166666D02*
X128264342Y-101166666D01*
X128264342Y-101166666D02*
X128359580Y-101119047D01*
X128359580Y-101119047D02*
X128407200Y-101071428D01*
X128407200Y-101071428D02*
X128454819Y-100976190D01*
X128454819Y-100976190D02*
X128454819Y-100690476D01*
X128454819Y-100690476D02*
X128407200Y-100595238D01*
X128407200Y-100595238D02*
X128359580Y-100547619D01*
X127454819Y-101785714D02*
X127454819Y-101880952D01*
X127454819Y-101880952D02*
X127502438Y-101976190D01*
X127502438Y-101976190D02*
X127550057Y-102023809D01*
X127550057Y-102023809D02*
X127645295Y-102071428D01*
X127645295Y-102071428D02*
X127835771Y-102119047D01*
X127835771Y-102119047D02*
X128073866Y-102119047D01*
X128073866Y-102119047D02*
X128264342Y-102071428D01*
X128264342Y-102071428D02*
X128359580Y-102023809D01*
X128359580Y-102023809D02*
X128407200Y-101976190D01*
X128407200Y-101976190D02*
X128454819Y-101880952D01*
X128454819Y-101880952D02*
X128454819Y-101785714D01*
X128454819Y-101785714D02*
X128407200Y-101690476D01*
X128407200Y-101690476D02*
X128359580Y-101642857D01*
X128359580Y-101642857D02*
X128264342Y-101595238D01*
X128264342Y-101595238D02*
X128073866Y-101547619D01*
X128073866Y-101547619D02*
X127835771Y-101547619D01*
X127835771Y-101547619D02*
X127645295Y-101595238D01*
X127645295Y-101595238D02*
X127550057Y-101642857D01*
X127550057Y-101642857D02*
X127502438Y-101690476D01*
X127502438Y-101690476D02*
X127454819Y-101785714D01*
X181954819Y-99380952D02*
X181954819Y-98904762D01*
X181954819Y-98904762D02*
X180954819Y-98904762D01*
X181431009Y-99714286D02*
X181431009Y-100047619D01*
X181954819Y-100190476D02*
X181954819Y-99714286D01*
X181954819Y-99714286D02*
X180954819Y-99714286D01*
X180954819Y-99714286D02*
X180954819Y-100190476D01*
X181954819Y-100619048D02*
X180954819Y-100619048D01*
X180954819Y-100619048D02*
X180954819Y-100857143D01*
X180954819Y-100857143D02*
X181002438Y-101000000D01*
X181002438Y-101000000D02*
X181097676Y-101095238D01*
X181097676Y-101095238D02*
X181192914Y-101142857D01*
X181192914Y-101142857D02*
X181383390Y-101190476D01*
X181383390Y-101190476D02*
X181526247Y-101190476D01*
X181526247Y-101190476D02*
X181716723Y-101142857D01*
X181716723Y-101142857D02*
X181811961Y-101095238D01*
X181811961Y-101095238D02*
X181907200Y-101000000D01*
X181907200Y-101000000D02*
X181954819Y-100857143D01*
X181954819Y-100857143D02*
X181954819Y-100619048D01*
X181954819Y-101666667D02*
X181954819Y-101857143D01*
X181954819Y-101857143D02*
X181907200Y-101952381D01*
X181907200Y-101952381D02*
X181859580Y-102000000D01*
X181859580Y-102000000D02*
X181716723Y-102095238D01*
X181716723Y-102095238D02*
X181526247Y-102142857D01*
X181526247Y-102142857D02*
X181145295Y-102142857D01*
X181145295Y-102142857D02*
X181050057Y-102095238D01*
X181050057Y-102095238D02*
X181002438Y-102047619D01*
X181002438Y-102047619D02*
X180954819Y-101952381D01*
X180954819Y-101952381D02*
X180954819Y-101761905D01*
X180954819Y-101761905D02*
X181002438Y-101666667D01*
X181002438Y-101666667D02*
X181050057Y-101619048D01*
X181050057Y-101619048D02*
X181145295Y-101571429D01*
X181145295Y-101571429D02*
X181383390Y-101571429D01*
X181383390Y-101571429D02*
X181478628Y-101619048D01*
X181478628Y-101619048D02*
X181526247Y-101666667D01*
X181526247Y-101666667D02*
X181573866Y-101761905D01*
X181573866Y-101761905D02*
X181573866Y-101952381D01*
X181573866Y-101952381D02*
X181526247Y-102047619D01*
X181526247Y-102047619D02*
X181478628Y-102095238D01*
X181478628Y-102095238D02*
X181383390Y-102142857D01*
X215730384Y-99560158D02*
X215730384Y-99083968D01*
X215730384Y-99083968D02*
X214730384Y-99083968D01*
X215206574Y-99893492D02*
X215206574Y-100226825D01*
X215730384Y-100369682D02*
X215730384Y-99893492D01*
X215730384Y-99893492D02*
X214730384Y-99893492D01*
X214730384Y-99893492D02*
X214730384Y-100369682D01*
X215730384Y-100798254D02*
X214730384Y-100798254D01*
X214730384Y-100798254D02*
X214730384Y-101036349D01*
X214730384Y-101036349D02*
X214778003Y-101179206D01*
X214778003Y-101179206D02*
X214873241Y-101274444D01*
X214873241Y-101274444D02*
X214968479Y-101322063D01*
X214968479Y-101322063D02*
X215158955Y-101369682D01*
X215158955Y-101369682D02*
X215301812Y-101369682D01*
X215301812Y-101369682D02*
X215492288Y-101322063D01*
X215492288Y-101322063D02*
X215587526Y-101274444D01*
X215587526Y-101274444D02*
X215682765Y-101179206D01*
X215682765Y-101179206D02*
X215730384Y-101036349D01*
X215730384Y-101036349D02*
X215730384Y-100798254D01*
X214825622Y-101750635D02*
X214778003Y-101798254D01*
X214778003Y-101798254D02*
X214730384Y-101893492D01*
X214730384Y-101893492D02*
X214730384Y-102131587D01*
X214730384Y-102131587D02*
X214778003Y-102226825D01*
X214778003Y-102226825D02*
X214825622Y-102274444D01*
X214825622Y-102274444D02*
X214920860Y-102322063D01*
X214920860Y-102322063D02*
X215016098Y-102322063D01*
X215016098Y-102322063D02*
X215158955Y-102274444D01*
X215158955Y-102274444D02*
X215730384Y-101703016D01*
X215730384Y-101703016D02*
X215730384Y-102322063D01*
X138157831Y-98307405D02*
X138157831Y-97831215D01*
X138157831Y-97831215D02*
X137157831Y-97831215D01*
X137634021Y-98640739D02*
X137634021Y-98974072D01*
X138157831Y-99116929D02*
X138157831Y-98640739D01*
X138157831Y-98640739D02*
X137157831Y-98640739D01*
X137157831Y-98640739D02*
X137157831Y-99116929D01*
X138157831Y-99545501D02*
X137157831Y-99545501D01*
X137157831Y-99545501D02*
X137157831Y-99783596D01*
X137157831Y-99783596D02*
X137205450Y-99926453D01*
X137205450Y-99926453D02*
X137300688Y-100021691D01*
X137300688Y-100021691D02*
X137395926Y-100069310D01*
X137395926Y-100069310D02*
X137586402Y-100116929D01*
X137586402Y-100116929D02*
X137729259Y-100116929D01*
X137729259Y-100116929D02*
X137919735Y-100069310D01*
X137919735Y-100069310D02*
X138014973Y-100021691D01*
X138014973Y-100021691D02*
X138110212Y-99926453D01*
X138110212Y-99926453D02*
X138157831Y-99783596D01*
X138157831Y-99783596D02*
X138157831Y-99545501D01*
X138157831Y-101069310D02*
X138157831Y-100497882D01*
X138157831Y-100783596D02*
X137157831Y-100783596D01*
X137157831Y-100783596D02*
X137300688Y-100688358D01*
X137300688Y-100688358D02*
X137395926Y-100593120D01*
X137395926Y-100593120D02*
X137443545Y-100497882D01*
X137157831Y-101926453D02*
X137157831Y-101735977D01*
X137157831Y-101735977D02*
X137205450Y-101640739D01*
X137205450Y-101640739D02*
X137253069Y-101593120D01*
X137253069Y-101593120D02*
X137395926Y-101497882D01*
X137395926Y-101497882D02*
X137586402Y-101450263D01*
X137586402Y-101450263D02*
X137967354Y-101450263D01*
X137967354Y-101450263D02*
X138062592Y-101497882D01*
X138062592Y-101497882D02*
X138110212Y-101545501D01*
X138110212Y-101545501D02*
X138157831Y-101640739D01*
X138157831Y-101640739D02*
X138157831Y-101831215D01*
X138157831Y-101831215D02*
X138110212Y-101926453D01*
X138110212Y-101926453D02*
X138062592Y-101974072D01*
X138062592Y-101974072D02*
X137967354Y-102021691D01*
X137967354Y-102021691D02*
X137729259Y-102021691D01*
X137729259Y-102021691D02*
X137634021Y-101974072D01*
X137634021Y-101974072D02*
X137586402Y-101926453D01*
X137586402Y-101926453D02*
X137538783Y-101831215D01*
X137538783Y-101831215D02*
X137538783Y-101640739D01*
X137538783Y-101640739D02*
X137586402Y-101545501D01*
X137586402Y-101545501D02*
X137634021Y-101497882D01*
X137634021Y-101497882D02*
X137729259Y-101450263D01*
X139070826Y-103325740D02*
X138594635Y-102992407D01*
X139070826Y-102754312D02*
X138070826Y-102754312D01*
X138070826Y-102754312D02*
X138070826Y-103135264D01*
X138070826Y-103135264D02*
X138118445Y-103230502D01*
X138118445Y-103230502D02*
X138166064Y-103278121D01*
X138166064Y-103278121D02*
X138261302Y-103325740D01*
X138261302Y-103325740D02*
X138404159Y-103325740D01*
X138404159Y-103325740D02*
X138499397Y-103278121D01*
X138499397Y-103278121D02*
X138547016Y-103230502D01*
X138547016Y-103230502D02*
X138594635Y-103135264D01*
X138594635Y-103135264D02*
X138594635Y-102754312D01*
X138070826Y-103659074D02*
X138070826Y-104278121D01*
X138070826Y-104278121D02*
X138451778Y-103944788D01*
X138451778Y-103944788D02*
X138451778Y-104087645D01*
X138451778Y-104087645D02*
X138499397Y-104182883D01*
X138499397Y-104182883D02*
X138547016Y-104230502D01*
X138547016Y-104230502D02*
X138642254Y-104278121D01*
X138642254Y-104278121D02*
X138880349Y-104278121D01*
X138880349Y-104278121D02*
X138975587Y-104230502D01*
X138975587Y-104230502D02*
X139023207Y-104182883D01*
X139023207Y-104182883D02*
X139070826Y-104087645D01*
X139070826Y-104087645D02*
X139070826Y-103801931D01*
X139070826Y-103801931D02*
X139023207Y-103706693D01*
X139023207Y-103706693D02*
X138975587Y-103659074D01*
X138070826Y-104897169D02*
X138070826Y-104992407D01*
X138070826Y-104992407D02*
X138118445Y-105087645D01*
X138118445Y-105087645D02*
X138166064Y-105135264D01*
X138166064Y-105135264D02*
X138261302Y-105182883D01*
X138261302Y-105182883D02*
X138451778Y-105230502D01*
X138451778Y-105230502D02*
X138689873Y-105230502D01*
X138689873Y-105230502D02*
X138880349Y-105182883D01*
X138880349Y-105182883D02*
X138975587Y-105135264D01*
X138975587Y-105135264D02*
X139023207Y-105087645D01*
X139023207Y-105087645D02*
X139070826Y-104992407D01*
X139070826Y-104992407D02*
X139070826Y-104897169D01*
X139070826Y-104897169D02*
X139023207Y-104801931D01*
X139023207Y-104801931D02*
X138975587Y-104754312D01*
X138975587Y-104754312D02*
X138880349Y-104706693D01*
X138880349Y-104706693D02*
X138689873Y-104659074D01*
X138689873Y-104659074D02*
X138451778Y-104659074D01*
X138451778Y-104659074D02*
X138261302Y-104706693D01*
X138261302Y-104706693D02*
X138166064Y-104754312D01*
X138166064Y-104754312D02*
X138118445Y-104801931D01*
X138118445Y-104801931D02*
X138070826Y-104897169D01*
X207131352Y-103357142D02*
X206655161Y-103023809D01*
X207131352Y-102785714D02*
X206131352Y-102785714D01*
X206131352Y-102785714D02*
X206131352Y-103166666D01*
X206131352Y-103166666D02*
X206178971Y-103261904D01*
X206178971Y-103261904D02*
X206226590Y-103309523D01*
X206226590Y-103309523D02*
X206321828Y-103357142D01*
X206321828Y-103357142D02*
X206464685Y-103357142D01*
X206464685Y-103357142D02*
X206559923Y-103309523D01*
X206559923Y-103309523D02*
X206607542Y-103261904D01*
X206607542Y-103261904D02*
X206655161Y-103166666D01*
X206655161Y-103166666D02*
X206655161Y-102785714D01*
X206226590Y-103738095D02*
X206178971Y-103785714D01*
X206178971Y-103785714D02*
X206131352Y-103880952D01*
X206131352Y-103880952D02*
X206131352Y-104119047D01*
X206131352Y-104119047D02*
X206178971Y-104214285D01*
X206178971Y-104214285D02*
X206226590Y-104261904D01*
X206226590Y-104261904D02*
X206321828Y-104309523D01*
X206321828Y-104309523D02*
X206417066Y-104309523D01*
X206417066Y-104309523D02*
X206559923Y-104261904D01*
X206559923Y-104261904D02*
X207131352Y-103690476D01*
X207131352Y-103690476D02*
X207131352Y-104309523D01*
X206226590Y-104690476D02*
X206178971Y-104738095D01*
X206178971Y-104738095D02*
X206131352Y-104833333D01*
X206131352Y-104833333D02*
X206131352Y-105071428D01*
X206131352Y-105071428D02*
X206178971Y-105166666D01*
X206178971Y-105166666D02*
X206226590Y-105214285D01*
X206226590Y-105214285D02*
X206321828Y-105261904D01*
X206321828Y-105261904D02*
X206417066Y-105261904D01*
X206417066Y-105261904D02*
X206559923Y-105214285D01*
X206559923Y-105214285D02*
X207131352Y-104642857D01*
X207131352Y-104642857D02*
X207131352Y-105261904D01*
X187503813Y-103388214D02*
X187027622Y-103054881D01*
X187503813Y-102816786D02*
X186503813Y-102816786D01*
X186503813Y-102816786D02*
X186503813Y-103197738D01*
X186503813Y-103197738D02*
X186551432Y-103292976D01*
X186551432Y-103292976D02*
X186599051Y-103340595D01*
X186599051Y-103340595D02*
X186694289Y-103388214D01*
X186694289Y-103388214D02*
X186837146Y-103388214D01*
X186837146Y-103388214D02*
X186932384Y-103340595D01*
X186932384Y-103340595D02*
X186980003Y-103292976D01*
X186980003Y-103292976D02*
X187027622Y-103197738D01*
X187027622Y-103197738D02*
X187027622Y-102816786D01*
X186503813Y-103721548D02*
X186503813Y-104340595D01*
X186503813Y-104340595D02*
X186884765Y-104007262D01*
X186884765Y-104007262D02*
X186884765Y-104150119D01*
X186884765Y-104150119D02*
X186932384Y-104245357D01*
X186932384Y-104245357D02*
X186980003Y-104292976D01*
X186980003Y-104292976D02*
X187075241Y-104340595D01*
X187075241Y-104340595D02*
X187313336Y-104340595D01*
X187313336Y-104340595D02*
X187408574Y-104292976D01*
X187408574Y-104292976D02*
X187456194Y-104245357D01*
X187456194Y-104245357D02*
X187503813Y-104150119D01*
X187503813Y-104150119D02*
X187503813Y-103864405D01*
X187503813Y-103864405D02*
X187456194Y-103769167D01*
X187456194Y-103769167D02*
X187408574Y-103721548D01*
X186837146Y-105197738D02*
X187503813Y-105197738D01*
X186456194Y-104959643D02*
X187170479Y-104721548D01*
X187170479Y-104721548D02*
X187170479Y-105340595D01*
X123454819Y-98404761D02*
X123454819Y-97928571D01*
X123454819Y-97928571D02*
X122454819Y-97928571D01*
X122931009Y-98738095D02*
X122931009Y-99071428D01*
X123454819Y-99214285D02*
X123454819Y-98738095D01*
X123454819Y-98738095D02*
X122454819Y-98738095D01*
X122454819Y-98738095D02*
X122454819Y-99214285D01*
X123454819Y-99642857D02*
X122454819Y-99642857D01*
X122454819Y-99642857D02*
X122454819Y-99880952D01*
X122454819Y-99880952D02*
X122502438Y-100023809D01*
X122502438Y-100023809D02*
X122597676Y-100119047D01*
X122597676Y-100119047D02*
X122692914Y-100166666D01*
X122692914Y-100166666D02*
X122883390Y-100214285D01*
X122883390Y-100214285D02*
X123026247Y-100214285D01*
X123026247Y-100214285D02*
X123216723Y-100166666D01*
X123216723Y-100166666D02*
X123311961Y-100119047D01*
X123311961Y-100119047D02*
X123407200Y-100023809D01*
X123407200Y-100023809D02*
X123454819Y-99880952D01*
X123454819Y-99880952D02*
X123454819Y-99642857D01*
X122454819Y-100547619D02*
X122454819Y-101166666D01*
X122454819Y-101166666D02*
X122835771Y-100833333D01*
X122835771Y-100833333D02*
X122835771Y-100976190D01*
X122835771Y-100976190D02*
X122883390Y-101071428D01*
X122883390Y-101071428D02*
X122931009Y-101119047D01*
X122931009Y-101119047D02*
X123026247Y-101166666D01*
X123026247Y-101166666D02*
X123264342Y-101166666D01*
X123264342Y-101166666D02*
X123359580Y-101119047D01*
X123359580Y-101119047D02*
X123407200Y-101071428D01*
X123407200Y-101071428D02*
X123454819Y-100976190D01*
X123454819Y-100976190D02*
X123454819Y-100690476D01*
X123454819Y-100690476D02*
X123407200Y-100595238D01*
X123407200Y-100595238D02*
X123359580Y-100547619D01*
X123454819Y-102119047D02*
X123454819Y-101547619D01*
X123454819Y-101833333D02*
X122454819Y-101833333D01*
X122454819Y-101833333D02*
X122597676Y-101738095D01*
X122597676Y-101738095D02*
X122692914Y-101642857D01*
X122692914Y-101642857D02*
X122740533Y-101547619D01*
X201454819Y-98404761D02*
X201454819Y-97928571D01*
X201454819Y-97928571D02*
X200454819Y-97928571D01*
X200931009Y-98738095D02*
X200931009Y-99071428D01*
X201454819Y-99214285D02*
X201454819Y-98738095D01*
X201454819Y-98738095D02*
X200454819Y-98738095D01*
X200454819Y-98738095D02*
X200454819Y-99214285D01*
X201454819Y-99642857D02*
X200454819Y-99642857D01*
X200454819Y-99642857D02*
X200454819Y-99880952D01*
X200454819Y-99880952D02*
X200502438Y-100023809D01*
X200502438Y-100023809D02*
X200597676Y-100119047D01*
X200597676Y-100119047D02*
X200692914Y-100166666D01*
X200692914Y-100166666D02*
X200883390Y-100214285D01*
X200883390Y-100214285D02*
X201026247Y-100214285D01*
X201026247Y-100214285D02*
X201216723Y-100166666D01*
X201216723Y-100166666D02*
X201311961Y-100119047D01*
X201311961Y-100119047D02*
X201407200Y-100023809D01*
X201407200Y-100023809D02*
X201454819Y-99880952D01*
X201454819Y-99880952D02*
X201454819Y-99642857D01*
X201454819Y-101166666D02*
X201454819Y-100595238D01*
X201454819Y-100880952D02*
X200454819Y-100880952D01*
X200454819Y-100880952D02*
X200597676Y-100785714D01*
X200597676Y-100785714D02*
X200692914Y-100690476D01*
X200692914Y-100690476D02*
X200740533Y-100595238D01*
X200454819Y-101500000D02*
X200454819Y-102166666D01*
X200454819Y-102166666D02*
X201454819Y-101738095D01*
X158493021Y-103360740D02*
X158016830Y-103027407D01*
X158493021Y-102789312D02*
X157493021Y-102789312D01*
X157493021Y-102789312D02*
X157493021Y-103170264D01*
X157493021Y-103170264D02*
X157540640Y-103265502D01*
X157540640Y-103265502D02*
X157588259Y-103313121D01*
X157588259Y-103313121D02*
X157683497Y-103360740D01*
X157683497Y-103360740D02*
X157826354Y-103360740D01*
X157826354Y-103360740D02*
X157921592Y-103313121D01*
X157921592Y-103313121D02*
X157969211Y-103265502D01*
X157969211Y-103265502D02*
X158016830Y-103170264D01*
X158016830Y-103170264D02*
X158016830Y-102789312D01*
X157826354Y-104217883D02*
X158493021Y-104217883D01*
X157445402Y-103979788D02*
X158159687Y-103741693D01*
X158159687Y-103741693D02*
X158159687Y-104360740D01*
X158493021Y-105265502D02*
X158493021Y-104694074D01*
X158493021Y-104979788D02*
X157493021Y-104979788D01*
X157493021Y-104979788D02*
X157635878Y-104884550D01*
X157635878Y-104884550D02*
X157731116Y-104789312D01*
X157731116Y-104789312D02*
X157778735Y-104694074D01*
X191621126Y-98414929D02*
X191621126Y-97938739D01*
X191621126Y-97938739D02*
X190621126Y-97938739D01*
X191097316Y-98748263D02*
X191097316Y-99081596D01*
X191621126Y-99224453D02*
X191621126Y-98748263D01*
X191621126Y-98748263D02*
X190621126Y-98748263D01*
X190621126Y-98748263D02*
X190621126Y-99224453D01*
X191621126Y-99653025D02*
X190621126Y-99653025D01*
X190621126Y-99653025D02*
X190621126Y-99891120D01*
X190621126Y-99891120D02*
X190668745Y-100033977D01*
X190668745Y-100033977D02*
X190763983Y-100129215D01*
X190763983Y-100129215D02*
X190859221Y-100176834D01*
X190859221Y-100176834D02*
X191049697Y-100224453D01*
X191049697Y-100224453D02*
X191192554Y-100224453D01*
X191192554Y-100224453D02*
X191383030Y-100176834D01*
X191383030Y-100176834D02*
X191478268Y-100129215D01*
X191478268Y-100129215D02*
X191573507Y-100033977D01*
X191573507Y-100033977D02*
X191621126Y-99891120D01*
X191621126Y-99891120D02*
X191621126Y-99653025D01*
X191621126Y-101176834D02*
X191621126Y-100605406D01*
X191621126Y-100891120D02*
X190621126Y-100891120D01*
X190621126Y-100891120D02*
X190763983Y-100795882D01*
X190763983Y-100795882D02*
X190859221Y-100700644D01*
X190859221Y-100700644D02*
X190906840Y-100605406D01*
X191621126Y-101653025D02*
X191621126Y-101843501D01*
X191621126Y-101843501D02*
X191573507Y-101938739D01*
X191573507Y-101938739D02*
X191525887Y-101986358D01*
X191525887Y-101986358D02*
X191383030Y-102081596D01*
X191383030Y-102081596D02*
X191192554Y-102129215D01*
X191192554Y-102129215D02*
X190811602Y-102129215D01*
X190811602Y-102129215D02*
X190716364Y-102081596D01*
X190716364Y-102081596D02*
X190668745Y-102033977D01*
X190668745Y-102033977D02*
X190621126Y-101938739D01*
X190621126Y-101938739D02*
X190621126Y-101748263D01*
X190621126Y-101748263D02*
X190668745Y-101653025D01*
X190668745Y-101653025D02*
X190716364Y-101605406D01*
X190716364Y-101605406D02*
X190811602Y-101557787D01*
X190811602Y-101557787D02*
X191049697Y-101557787D01*
X191049697Y-101557787D02*
X191144935Y-101605406D01*
X191144935Y-101605406D02*
X191192554Y-101653025D01*
X191192554Y-101653025D02*
X191240173Y-101748263D01*
X191240173Y-101748263D02*
X191240173Y-101938739D01*
X191240173Y-101938739D02*
X191192554Y-102033977D01*
X191192554Y-102033977D02*
X191144935Y-102081596D01*
X191144935Y-102081596D02*
X191049697Y-102129215D01*
X202286967Y-103357142D02*
X201810776Y-103023809D01*
X202286967Y-102785714D02*
X201286967Y-102785714D01*
X201286967Y-102785714D02*
X201286967Y-103166666D01*
X201286967Y-103166666D02*
X201334586Y-103261904D01*
X201334586Y-103261904D02*
X201382205Y-103309523D01*
X201382205Y-103309523D02*
X201477443Y-103357142D01*
X201477443Y-103357142D02*
X201620300Y-103357142D01*
X201620300Y-103357142D02*
X201715538Y-103309523D01*
X201715538Y-103309523D02*
X201763157Y-103261904D01*
X201763157Y-103261904D02*
X201810776Y-103166666D01*
X201810776Y-103166666D02*
X201810776Y-102785714D01*
X201382205Y-103738095D02*
X201334586Y-103785714D01*
X201334586Y-103785714D02*
X201286967Y-103880952D01*
X201286967Y-103880952D02*
X201286967Y-104119047D01*
X201286967Y-104119047D02*
X201334586Y-104214285D01*
X201334586Y-104214285D02*
X201382205Y-104261904D01*
X201382205Y-104261904D02*
X201477443Y-104309523D01*
X201477443Y-104309523D02*
X201572681Y-104309523D01*
X201572681Y-104309523D02*
X201715538Y-104261904D01*
X201715538Y-104261904D02*
X202286967Y-103690476D01*
X202286967Y-103690476D02*
X202286967Y-104309523D01*
X201286967Y-104642857D02*
X201286967Y-105261904D01*
X201286967Y-105261904D02*
X201667919Y-104928571D01*
X201667919Y-104928571D02*
X201667919Y-105071428D01*
X201667919Y-105071428D02*
X201715538Y-105166666D01*
X201715538Y-105166666D02*
X201763157Y-105214285D01*
X201763157Y-105214285D02*
X201858395Y-105261904D01*
X201858395Y-105261904D02*
X202096490Y-105261904D01*
X202096490Y-105261904D02*
X202191728Y-105214285D01*
X202191728Y-105214285D02*
X202239348Y-105166666D01*
X202239348Y-105166666D02*
X202286967Y-105071428D01*
X202286967Y-105071428D02*
X202286967Y-104785714D01*
X202286967Y-104785714D02*
X202239348Y-104690476D01*
X202239348Y-104690476D02*
X202191728Y-104642857D01*
X134189027Y-103325740D02*
X133712836Y-102992407D01*
X134189027Y-102754312D02*
X133189027Y-102754312D01*
X133189027Y-102754312D02*
X133189027Y-103135264D01*
X133189027Y-103135264D02*
X133236646Y-103230502D01*
X133236646Y-103230502D02*
X133284265Y-103278121D01*
X133284265Y-103278121D02*
X133379503Y-103325740D01*
X133379503Y-103325740D02*
X133522360Y-103325740D01*
X133522360Y-103325740D02*
X133617598Y-103278121D01*
X133617598Y-103278121D02*
X133665217Y-103230502D01*
X133665217Y-103230502D02*
X133712836Y-103135264D01*
X133712836Y-103135264D02*
X133712836Y-102754312D01*
X133189027Y-103659074D02*
X133189027Y-104278121D01*
X133189027Y-104278121D02*
X133569979Y-103944788D01*
X133569979Y-103944788D02*
X133569979Y-104087645D01*
X133569979Y-104087645D02*
X133617598Y-104182883D01*
X133617598Y-104182883D02*
X133665217Y-104230502D01*
X133665217Y-104230502D02*
X133760455Y-104278121D01*
X133760455Y-104278121D02*
X133998550Y-104278121D01*
X133998550Y-104278121D02*
X134093788Y-104230502D01*
X134093788Y-104230502D02*
X134141408Y-104182883D01*
X134141408Y-104182883D02*
X134189027Y-104087645D01*
X134189027Y-104087645D02*
X134189027Y-103801931D01*
X134189027Y-103801931D02*
X134141408Y-103706693D01*
X134141408Y-103706693D02*
X134093788Y-103659074D01*
X134189027Y-105230502D02*
X134189027Y-104659074D01*
X134189027Y-104944788D02*
X133189027Y-104944788D01*
X133189027Y-104944788D02*
X133331884Y-104849550D01*
X133331884Y-104849550D02*
X133427122Y-104754312D01*
X133427122Y-104754312D02*
X133474741Y-104659074D01*
X113714054Y-99345110D02*
X113714054Y-98868920D01*
X113714054Y-98868920D02*
X112714054Y-98868920D01*
X113190244Y-99678444D02*
X113190244Y-100011777D01*
X113714054Y-100154634D02*
X113714054Y-99678444D01*
X113714054Y-99678444D02*
X112714054Y-99678444D01*
X112714054Y-99678444D02*
X112714054Y-100154634D01*
X113714054Y-100583206D02*
X112714054Y-100583206D01*
X112714054Y-100583206D02*
X112714054Y-100821301D01*
X112714054Y-100821301D02*
X112761673Y-100964158D01*
X112761673Y-100964158D02*
X112856911Y-101059396D01*
X112856911Y-101059396D02*
X112952149Y-101107015D01*
X112952149Y-101107015D02*
X113142625Y-101154634D01*
X113142625Y-101154634D02*
X113285482Y-101154634D01*
X113285482Y-101154634D02*
X113475958Y-101107015D01*
X113475958Y-101107015D02*
X113571196Y-101059396D01*
X113571196Y-101059396D02*
X113666435Y-100964158D01*
X113666435Y-100964158D02*
X113714054Y-100821301D01*
X113714054Y-100821301D02*
X113714054Y-100583206D01*
X112714054Y-102059396D02*
X112714054Y-101583206D01*
X112714054Y-101583206D02*
X113190244Y-101535587D01*
X113190244Y-101535587D02*
X113142625Y-101583206D01*
X113142625Y-101583206D02*
X113095006Y-101678444D01*
X113095006Y-101678444D02*
X113095006Y-101916539D01*
X113095006Y-101916539D02*
X113142625Y-102011777D01*
X113142625Y-102011777D02*
X113190244Y-102059396D01*
X113190244Y-102059396D02*
X113285482Y-102107015D01*
X113285482Y-102107015D02*
X113523577Y-102107015D01*
X113523577Y-102107015D02*
X113618815Y-102059396D01*
X113618815Y-102059396D02*
X113666435Y-102011777D01*
X113666435Y-102011777D02*
X113714054Y-101916539D01*
X113714054Y-101916539D02*
X113714054Y-101678444D01*
X113714054Y-101678444D02*
X113666435Y-101583206D01*
X113666435Y-101583206D02*
X113618815Y-101535587D01*
X129272228Y-103325740D02*
X128796037Y-102992407D01*
X129272228Y-102754312D02*
X128272228Y-102754312D01*
X128272228Y-102754312D02*
X128272228Y-103135264D01*
X128272228Y-103135264D02*
X128319847Y-103230502D01*
X128319847Y-103230502D02*
X128367466Y-103278121D01*
X128367466Y-103278121D02*
X128462704Y-103325740D01*
X128462704Y-103325740D02*
X128605561Y-103325740D01*
X128605561Y-103325740D02*
X128700799Y-103278121D01*
X128700799Y-103278121D02*
X128748418Y-103230502D01*
X128748418Y-103230502D02*
X128796037Y-103135264D01*
X128796037Y-103135264D02*
X128796037Y-102754312D01*
X128605561Y-104182883D02*
X129272228Y-104182883D01*
X128224609Y-103944788D02*
X128938894Y-103706693D01*
X128938894Y-103706693D02*
X128938894Y-104325740D01*
X128605561Y-105135264D02*
X129272228Y-105135264D01*
X128224609Y-104897169D02*
X128938894Y-104659074D01*
X128938894Y-104659074D02*
X128938894Y-105278121D01*
X168336618Y-103360740D02*
X167860427Y-103027407D01*
X168336618Y-102789312D02*
X167336618Y-102789312D01*
X167336618Y-102789312D02*
X167336618Y-103170264D01*
X167336618Y-103170264D02*
X167384237Y-103265502D01*
X167384237Y-103265502D02*
X167431856Y-103313121D01*
X167431856Y-103313121D02*
X167527094Y-103360740D01*
X167527094Y-103360740D02*
X167669951Y-103360740D01*
X167669951Y-103360740D02*
X167765189Y-103313121D01*
X167765189Y-103313121D02*
X167812808Y-103265502D01*
X167812808Y-103265502D02*
X167860427Y-103170264D01*
X167860427Y-103170264D02*
X167860427Y-102789312D01*
X167431856Y-103741693D02*
X167384237Y-103789312D01*
X167384237Y-103789312D02*
X167336618Y-103884550D01*
X167336618Y-103884550D02*
X167336618Y-104122645D01*
X167336618Y-104122645D02*
X167384237Y-104217883D01*
X167384237Y-104217883D02*
X167431856Y-104265502D01*
X167431856Y-104265502D02*
X167527094Y-104313121D01*
X167527094Y-104313121D02*
X167622332Y-104313121D01*
X167622332Y-104313121D02*
X167765189Y-104265502D01*
X167765189Y-104265502D02*
X168336618Y-103694074D01*
X168336618Y-103694074D02*
X168336618Y-104313121D01*
X168336618Y-104789312D02*
X168336618Y-104979788D01*
X168336618Y-104979788D02*
X168288999Y-105075026D01*
X168288999Y-105075026D02*
X168241379Y-105122645D01*
X168241379Y-105122645D02*
X168098522Y-105217883D01*
X168098522Y-105217883D02*
X167908046Y-105265502D01*
X167908046Y-105265502D02*
X167527094Y-105265502D01*
X167527094Y-105265502D02*
X167431856Y-105217883D01*
X167431856Y-105217883D02*
X167384237Y-105170264D01*
X167384237Y-105170264D02*
X167336618Y-105075026D01*
X167336618Y-105075026D02*
X167336618Y-104884550D01*
X167336618Y-104884550D02*
X167384237Y-104789312D01*
X167384237Y-104789312D02*
X167431856Y-104741693D01*
X167431856Y-104741693D02*
X167527094Y-104694074D01*
X167527094Y-104694074D02*
X167765189Y-104694074D01*
X167765189Y-104694074D02*
X167860427Y-104741693D01*
X167860427Y-104741693D02*
X167908046Y-104789312D01*
X167908046Y-104789312D02*
X167955665Y-104884550D01*
X167955665Y-104884550D02*
X167955665Y-105075026D01*
X167955665Y-105075026D02*
X167908046Y-105170264D01*
X167908046Y-105170264D02*
X167860427Y-105217883D01*
X167860427Y-105217883D02*
X167765189Y-105265502D01*
X192473197Y-103357142D02*
X191997006Y-103023809D01*
X192473197Y-102785714D02*
X191473197Y-102785714D01*
X191473197Y-102785714D02*
X191473197Y-103166666D01*
X191473197Y-103166666D02*
X191520816Y-103261904D01*
X191520816Y-103261904D02*
X191568435Y-103309523D01*
X191568435Y-103309523D02*
X191663673Y-103357142D01*
X191663673Y-103357142D02*
X191806530Y-103357142D01*
X191806530Y-103357142D02*
X191901768Y-103309523D01*
X191901768Y-103309523D02*
X191949387Y-103261904D01*
X191949387Y-103261904D02*
X191997006Y-103166666D01*
X191997006Y-103166666D02*
X191997006Y-102785714D01*
X191473197Y-103690476D02*
X191473197Y-104309523D01*
X191473197Y-104309523D02*
X191854149Y-103976190D01*
X191854149Y-103976190D02*
X191854149Y-104119047D01*
X191854149Y-104119047D02*
X191901768Y-104214285D01*
X191901768Y-104214285D02*
X191949387Y-104261904D01*
X191949387Y-104261904D02*
X192044625Y-104309523D01*
X192044625Y-104309523D02*
X192282720Y-104309523D01*
X192282720Y-104309523D02*
X192377958Y-104261904D01*
X192377958Y-104261904D02*
X192425578Y-104214285D01*
X192425578Y-104214285D02*
X192473197Y-104119047D01*
X192473197Y-104119047D02*
X192473197Y-103833333D01*
X192473197Y-103833333D02*
X192425578Y-103738095D01*
X192425578Y-103738095D02*
X192377958Y-103690476D01*
X191473197Y-104642857D02*
X191473197Y-105261904D01*
X191473197Y-105261904D02*
X191854149Y-104928571D01*
X191854149Y-104928571D02*
X191854149Y-105071428D01*
X191854149Y-105071428D02*
X191901768Y-105166666D01*
X191901768Y-105166666D02*
X191949387Y-105214285D01*
X191949387Y-105214285D02*
X192044625Y-105261904D01*
X192044625Y-105261904D02*
X192282720Y-105261904D01*
X192282720Y-105261904D02*
X192377958Y-105214285D01*
X192377958Y-105214285D02*
X192425578Y-105166666D01*
X192425578Y-105166666D02*
X192473197Y-105071428D01*
X192473197Y-105071428D02*
X192473197Y-104785714D01*
X192473197Y-104785714D02*
X192425578Y-104690476D01*
X192425578Y-104690476D02*
X192377958Y-104642857D01*
X95266304Y-103378240D02*
X94790113Y-103044907D01*
X95266304Y-102806812D02*
X94266304Y-102806812D01*
X94266304Y-102806812D02*
X94266304Y-103187764D01*
X94266304Y-103187764D02*
X94313923Y-103283002D01*
X94313923Y-103283002D02*
X94361542Y-103330621D01*
X94361542Y-103330621D02*
X94456780Y-103378240D01*
X94456780Y-103378240D02*
X94599637Y-103378240D01*
X94599637Y-103378240D02*
X94694875Y-103330621D01*
X94694875Y-103330621D02*
X94742494Y-103283002D01*
X94742494Y-103283002D02*
X94790113Y-103187764D01*
X94790113Y-103187764D02*
X94790113Y-102806812D01*
X94266304Y-103711574D02*
X94266304Y-104330621D01*
X94266304Y-104330621D02*
X94647256Y-103997288D01*
X94647256Y-103997288D02*
X94647256Y-104140145D01*
X94647256Y-104140145D02*
X94694875Y-104235383D01*
X94694875Y-104235383D02*
X94742494Y-104283002D01*
X94742494Y-104283002D02*
X94837732Y-104330621D01*
X94837732Y-104330621D02*
X95075827Y-104330621D01*
X95075827Y-104330621D02*
X95171065Y-104283002D01*
X95171065Y-104283002D02*
X95218685Y-104235383D01*
X95218685Y-104235383D02*
X95266304Y-104140145D01*
X95266304Y-104140145D02*
X95266304Y-103854431D01*
X95266304Y-103854431D02*
X95218685Y-103759193D01*
X95218685Y-103759193D02*
X95171065Y-103711574D01*
X94266304Y-105187764D02*
X94266304Y-104997288D01*
X94266304Y-104997288D02*
X94313923Y-104902050D01*
X94313923Y-104902050D02*
X94361542Y-104854431D01*
X94361542Y-104854431D02*
X94504399Y-104759193D01*
X94504399Y-104759193D02*
X94694875Y-104711574D01*
X94694875Y-104711574D02*
X95075827Y-104711574D01*
X95075827Y-104711574D02*
X95171065Y-104759193D01*
X95171065Y-104759193D02*
X95218685Y-104806812D01*
X95218685Y-104806812D02*
X95266304Y-104902050D01*
X95266304Y-104902050D02*
X95266304Y-105092526D01*
X95266304Y-105092526D02*
X95218685Y-105187764D01*
X95218685Y-105187764D02*
X95171065Y-105235383D01*
X95171065Y-105235383D02*
X95075827Y-105283002D01*
X95075827Y-105283002D02*
X94837732Y-105283002D01*
X94837732Y-105283002D02*
X94742494Y-105235383D01*
X94742494Y-105235383D02*
X94694875Y-105187764D01*
X94694875Y-105187764D02*
X94647256Y-105092526D01*
X94647256Y-105092526D02*
X94647256Y-104902050D01*
X94647256Y-104902050D02*
X94694875Y-104806812D01*
X94694875Y-104806812D02*
X94742494Y-104759193D01*
X94742494Y-104759193D02*
X94837732Y-104711574D01*
X114606832Y-103378240D02*
X114130641Y-103044907D01*
X114606832Y-102806812D02*
X113606832Y-102806812D01*
X113606832Y-102806812D02*
X113606832Y-103187764D01*
X113606832Y-103187764D02*
X113654451Y-103283002D01*
X113654451Y-103283002D02*
X113702070Y-103330621D01*
X113702070Y-103330621D02*
X113797308Y-103378240D01*
X113797308Y-103378240D02*
X113940165Y-103378240D01*
X113940165Y-103378240D02*
X114035403Y-103330621D01*
X114035403Y-103330621D02*
X114083022Y-103283002D01*
X114083022Y-103283002D02*
X114130641Y-103187764D01*
X114130641Y-103187764D02*
X114130641Y-102806812D01*
X114606832Y-104330621D02*
X114606832Y-103759193D01*
X114606832Y-104044907D02*
X113606832Y-104044907D01*
X113606832Y-104044907D02*
X113749689Y-103949669D01*
X113749689Y-103949669D02*
X113844927Y-103854431D01*
X113844927Y-103854431D02*
X113892546Y-103759193D01*
X113606832Y-104663955D02*
X113606832Y-105330621D01*
X113606832Y-105330621D02*
X114606832Y-104902050D01*
X124320430Y-103325740D02*
X123844239Y-102992407D01*
X124320430Y-102754312D02*
X123320430Y-102754312D01*
X123320430Y-102754312D02*
X123320430Y-103135264D01*
X123320430Y-103135264D02*
X123368049Y-103230502D01*
X123368049Y-103230502D02*
X123415668Y-103278121D01*
X123415668Y-103278121D02*
X123510906Y-103325740D01*
X123510906Y-103325740D02*
X123653763Y-103325740D01*
X123653763Y-103325740D02*
X123749001Y-103278121D01*
X123749001Y-103278121D02*
X123796620Y-103230502D01*
X123796620Y-103230502D02*
X123844239Y-103135264D01*
X123844239Y-103135264D02*
X123844239Y-102754312D01*
X123653763Y-104182883D02*
X124320430Y-104182883D01*
X123272811Y-103944788D02*
X123987096Y-103706693D01*
X123987096Y-103706693D02*
X123987096Y-104325740D01*
X123320430Y-105182883D02*
X123320430Y-104706693D01*
X123320430Y-104706693D02*
X123796620Y-104659074D01*
X123796620Y-104659074D02*
X123749001Y-104706693D01*
X123749001Y-104706693D02*
X123701382Y-104801931D01*
X123701382Y-104801931D02*
X123701382Y-105040026D01*
X123701382Y-105040026D02*
X123749001Y-105135264D01*
X123749001Y-105135264D02*
X123796620Y-105182883D01*
X123796620Y-105182883D02*
X123891858Y-105230502D01*
X123891858Y-105230502D02*
X124129953Y-105230502D01*
X124129953Y-105230502D02*
X124225191Y-105182883D01*
X124225191Y-105182883D02*
X124272811Y-105135264D01*
X124272811Y-105135264D02*
X124320430Y-105040026D01*
X124320430Y-105040026D02*
X124320430Y-104801931D01*
X124320430Y-104801931D02*
X124272811Y-104706693D01*
X124272811Y-104706693D02*
X124225191Y-104659074D01*
X211934069Y-103869523D02*
X211457878Y-103536190D01*
X211934069Y-103298095D02*
X210934069Y-103298095D01*
X210934069Y-103298095D02*
X210934069Y-103679047D01*
X210934069Y-103679047D02*
X210981688Y-103774285D01*
X210981688Y-103774285D02*
X211029307Y-103821904D01*
X211029307Y-103821904D02*
X211124545Y-103869523D01*
X211124545Y-103869523D02*
X211267402Y-103869523D01*
X211267402Y-103869523D02*
X211362640Y-103821904D01*
X211362640Y-103821904D02*
X211410259Y-103774285D01*
X211410259Y-103774285D02*
X211457878Y-103679047D01*
X211457878Y-103679047D02*
X211457878Y-103298095D01*
X210934069Y-104726666D02*
X210934069Y-104536190D01*
X210934069Y-104536190D02*
X210981688Y-104440952D01*
X210981688Y-104440952D02*
X211029307Y-104393333D01*
X211029307Y-104393333D02*
X211172164Y-104298095D01*
X211172164Y-104298095D02*
X211362640Y-104250476D01*
X211362640Y-104250476D02*
X211743592Y-104250476D01*
X211743592Y-104250476D02*
X211838830Y-104298095D01*
X211838830Y-104298095D02*
X211886450Y-104345714D01*
X211886450Y-104345714D02*
X211934069Y-104440952D01*
X211934069Y-104440952D02*
X211934069Y-104631428D01*
X211934069Y-104631428D02*
X211886450Y-104726666D01*
X211886450Y-104726666D02*
X211838830Y-104774285D01*
X211838830Y-104774285D02*
X211743592Y-104821904D01*
X211743592Y-104821904D02*
X211505497Y-104821904D01*
X211505497Y-104821904D02*
X211410259Y-104774285D01*
X211410259Y-104774285D02*
X211362640Y-104726666D01*
X211362640Y-104726666D02*
X211315021Y-104631428D01*
X211315021Y-104631428D02*
X211315021Y-104440952D01*
X211315021Y-104440952D02*
X211362640Y-104345714D01*
X211362640Y-104345714D02*
X211410259Y-104298095D01*
X211410259Y-104298095D02*
X211505497Y-104250476D01*
X109836701Y-103378240D02*
X109360510Y-103044907D01*
X109836701Y-102806812D02*
X108836701Y-102806812D01*
X108836701Y-102806812D02*
X108836701Y-103187764D01*
X108836701Y-103187764D02*
X108884320Y-103283002D01*
X108884320Y-103283002D02*
X108931939Y-103330621D01*
X108931939Y-103330621D02*
X109027177Y-103378240D01*
X109027177Y-103378240D02*
X109170034Y-103378240D01*
X109170034Y-103378240D02*
X109265272Y-103330621D01*
X109265272Y-103330621D02*
X109312891Y-103283002D01*
X109312891Y-103283002D02*
X109360510Y-103187764D01*
X109360510Y-103187764D02*
X109360510Y-102806812D01*
X108931939Y-103759193D02*
X108884320Y-103806812D01*
X108884320Y-103806812D02*
X108836701Y-103902050D01*
X108836701Y-103902050D02*
X108836701Y-104140145D01*
X108836701Y-104140145D02*
X108884320Y-104235383D01*
X108884320Y-104235383D02*
X108931939Y-104283002D01*
X108931939Y-104283002D02*
X109027177Y-104330621D01*
X109027177Y-104330621D02*
X109122415Y-104330621D01*
X109122415Y-104330621D02*
X109265272Y-104283002D01*
X109265272Y-104283002D02*
X109836701Y-103711574D01*
X109836701Y-103711574D02*
X109836701Y-104330621D01*
X108836701Y-104949669D02*
X108836701Y-105044907D01*
X108836701Y-105044907D02*
X108884320Y-105140145D01*
X108884320Y-105140145D02*
X108931939Y-105187764D01*
X108931939Y-105187764D02*
X109027177Y-105235383D01*
X109027177Y-105235383D02*
X109217653Y-105283002D01*
X109217653Y-105283002D02*
X109455748Y-105283002D01*
X109455748Y-105283002D02*
X109646224Y-105235383D01*
X109646224Y-105235383D02*
X109741462Y-105187764D01*
X109741462Y-105187764D02*
X109789082Y-105140145D01*
X109789082Y-105140145D02*
X109836701Y-105044907D01*
X109836701Y-105044907D02*
X109836701Y-104949669D01*
X109836701Y-104949669D02*
X109789082Y-104854431D01*
X109789082Y-104854431D02*
X109741462Y-104806812D01*
X109741462Y-104806812D02*
X109646224Y-104759193D01*
X109646224Y-104759193D02*
X109455748Y-104711574D01*
X109455748Y-104711574D02*
X109217653Y-104711574D01*
X109217653Y-104711574D02*
X109027177Y-104759193D01*
X109027177Y-104759193D02*
X108931939Y-104806812D01*
X108931939Y-104806812D02*
X108884320Y-104854431D01*
X108884320Y-104854431D02*
X108836701Y-104949669D01*
X143008355Y-98295458D02*
X143008355Y-97819268D01*
X143008355Y-97819268D02*
X142008355Y-97819268D01*
X142484545Y-98628792D02*
X142484545Y-98962125D01*
X143008355Y-99104982D02*
X143008355Y-98628792D01*
X143008355Y-98628792D02*
X142008355Y-98628792D01*
X142008355Y-98628792D02*
X142008355Y-99104982D01*
X143008355Y-99533554D02*
X142008355Y-99533554D01*
X142008355Y-99533554D02*
X142008355Y-99771649D01*
X142008355Y-99771649D02*
X142055974Y-99914506D01*
X142055974Y-99914506D02*
X142151212Y-100009744D01*
X142151212Y-100009744D02*
X142246450Y-100057363D01*
X142246450Y-100057363D02*
X142436926Y-100104982D01*
X142436926Y-100104982D02*
X142579783Y-100104982D01*
X142579783Y-100104982D02*
X142770259Y-100057363D01*
X142770259Y-100057363D02*
X142865497Y-100009744D01*
X142865497Y-100009744D02*
X142960736Y-99914506D01*
X142960736Y-99914506D02*
X143008355Y-99771649D01*
X143008355Y-99771649D02*
X143008355Y-99533554D01*
X143008355Y-101057363D02*
X143008355Y-100485935D01*
X143008355Y-100771649D02*
X142008355Y-100771649D01*
X142008355Y-100771649D02*
X142151212Y-100676411D01*
X142151212Y-100676411D02*
X142246450Y-100581173D01*
X142246450Y-100581173D02*
X142294069Y-100485935D01*
X142008355Y-101962125D02*
X142008355Y-101485935D01*
X142008355Y-101485935D02*
X142484545Y-101438316D01*
X142484545Y-101438316D02*
X142436926Y-101485935D01*
X142436926Y-101485935D02*
X142389307Y-101581173D01*
X142389307Y-101581173D02*
X142389307Y-101819268D01*
X142389307Y-101819268D02*
X142436926Y-101914506D01*
X142436926Y-101914506D02*
X142484545Y-101962125D01*
X142484545Y-101962125D02*
X142579783Y-102009744D01*
X142579783Y-102009744D02*
X142817878Y-102009744D01*
X142817878Y-102009744D02*
X142913116Y-101962125D01*
X142913116Y-101962125D02*
X142960736Y-101914506D01*
X142960736Y-101914506D02*
X143008355Y-101819268D01*
X143008355Y-101819268D02*
X143008355Y-101581173D01*
X143008355Y-101581173D02*
X142960736Y-101485935D01*
X142960736Y-101485935D02*
X142913116Y-101438316D01*
X133454819Y-98404761D02*
X133454819Y-97928571D01*
X133454819Y-97928571D02*
X132454819Y-97928571D01*
X132931009Y-98738095D02*
X132931009Y-99071428D01*
X133454819Y-99214285D02*
X133454819Y-98738095D01*
X133454819Y-98738095D02*
X132454819Y-98738095D01*
X132454819Y-98738095D02*
X132454819Y-99214285D01*
X133454819Y-99642857D02*
X132454819Y-99642857D01*
X132454819Y-99642857D02*
X132454819Y-99880952D01*
X132454819Y-99880952D02*
X132502438Y-100023809D01*
X132502438Y-100023809D02*
X132597676Y-100119047D01*
X132597676Y-100119047D02*
X132692914Y-100166666D01*
X132692914Y-100166666D02*
X132883390Y-100214285D01*
X132883390Y-100214285D02*
X133026247Y-100214285D01*
X133026247Y-100214285D02*
X133216723Y-100166666D01*
X133216723Y-100166666D02*
X133311961Y-100119047D01*
X133311961Y-100119047D02*
X133407200Y-100023809D01*
X133407200Y-100023809D02*
X133454819Y-99880952D01*
X133454819Y-99880952D02*
X133454819Y-99642857D01*
X132550057Y-100595238D02*
X132502438Y-100642857D01*
X132502438Y-100642857D02*
X132454819Y-100738095D01*
X132454819Y-100738095D02*
X132454819Y-100976190D01*
X132454819Y-100976190D02*
X132502438Y-101071428D01*
X132502438Y-101071428D02*
X132550057Y-101119047D01*
X132550057Y-101119047D02*
X132645295Y-101166666D01*
X132645295Y-101166666D02*
X132740533Y-101166666D01*
X132740533Y-101166666D02*
X132883390Y-101119047D01*
X132883390Y-101119047D02*
X133454819Y-100547619D01*
X133454819Y-100547619D02*
X133454819Y-101166666D01*
X133454819Y-101642857D02*
X133454819Y-101833333D01*
X133454819Y-101833333D02*
X133407200Y-101928571D01*
X133407200Y-101928571D02*
X133359580Y-101976190D01*
X133359580Y-101976190D02*
X133216723Y-102071428D01*
X133216723Y-102071428D02*
X133026247Y-102119047D01*
X133026247Y-102119047D02*
X132645295Y-102119047D01*
X132645295Y-102119047D02*
X132550057Y-102071428D01*
X132550057Y-102071428D02*
X132502438Y-102023809D01*
X132502438Y-102023809D02*
X132454819Y-101928571D01*
X132454819Y-101928571D02*
X132454819Y-101738095D01*
X132454819Y-101738095D02*
X132502438Y-101642857D01*
X132502438Y-101642857D02*
X132550057Y-101595238D01*
X132550057Y-101595238D02*
X132645295Y-101547619D01*
X132645295Y-101547619D02*
X132883390Y-101547619D01*
X132883390Y-101547619D02*
X132978628Y-101595238D01*
X132978628Y-101595238D02*
X133026247Y-101642857D01*
X133026247Y-101642857D02*
X133073866Y-101738095D01*
X133073866Y-101738095D02*
X133073866Y-101928571D01*
X133073866Y-101928571D02*
X133026247Y-102023809D01*
X133026247Y-102023809D02*
X132978628Y-102071428D01*
X132978628Y-102071428D02*
X132883390Y-102119047D01*
X167454819Y-98404761D02*
X167454819Y-97928571D01*
X167454819Y-97928571D02*
X166454819Y-97928571D01*
X166931009Y-98738095D02*
X166931009Y-99071428D01*
X167454819Y-99214285D02*
X167454819Y-98738095D01*
X167454819Y-98738095D02*
X166454819Y-98738095D01*
X166454819Y-98738095D02*
X166454819Y-99214285D01*
X167454819Y-99642857D02*
X166454819Y-99642857D01*
X166454819Y-99642857D02*
X166454819Y-99880952D01*
X166454819Y-99880952D02*
X166502438Y-100023809D01*
X166502438Y-100023809D02*
X166597676Y-100119047D01*
X166597676Y-100119047D02*
X166692914Y-100166666D01*
X166692914Y-100166666D02*
X166883390Y-100214285D01*
X166883390Y-100214285D02*
X167026247Y-100214285D01*
X167026247Y-100214285D02*
X167216723Y-100166666D01*
X167216723Y-100166666D02*
X167311961Y-100119047D01*
X167311961Y-100119047D02*
X167407200Y-100023809D01*
X167407200Y-100023809D02*
X167454819Y-99880952D01*
X167454819Y-99880952D02*
X167454819Y-99642857D01*
X166550057Y-100595238D02*
X166502438Y-100642857D01*
X166502438Y-100642857D02*
X166454819Y-100738095D01*
X166454819Y-100738095D02*
X166454819Y-100976190D01*
X166454819Y-100976190D02*
X166502438Y-101071428D01*
X166502438Y-101071428D02*
X166550057Y-101119047D01*
X166550057Y-101119047D02*
X166645295Y-101166666D01*
X166645295Y-101166666D02*
X166740533Y-101166666D01*
X166740533Y-101166666D02*
X166883390Y-101119047D01*
X166883390Y-101119047D02*
X167454819Y-100547619D01*
X167454819Y-100547619D02*
X167454819Y-101166666D01*
X166454819Y-102071428D02*
X166454819Y-101595238D01*
X166454819Y-101595238D02*
X166931009Y-101547619D01*
X166931009Y-101547619D02*
X166883390Y-101595238D01*
X166883390Y-101595238D02*
X166835771Y-101690476D01*
X166835771Y-101690476D02*
X166835771Y-101928571D01*
X166835771Y-101928571D02*
X166883390Y-102023809D01*
X166883390Y-102023809D02*
X166931009Y-102071428D01*
X166931009Y-102071428D02*
X167026247Y-102119047D01*
X167026247Y-102119047D02*
X167264342Y-102119047D01*
X167264342Y-102119047D02*
X167359580Y-102071428D01*
X167359580Y-102071428D02*
X167407200Y-102023809D01*
X167407200Y-102023809D02*
X167454819Y-101928571D01*
X167454819Y-101928571D02*
X167454819Y-101690476D01*
X167454819Y-101690476D02*
X167407200Y-101595238D01*
X167407200Y-101595238D02*
X167359580Y-101547619D01*
X103954819Y-98404761D02*
X103954819Y-97928571D01*
X103954819Y-97928571D02*
X102954819Y-97928571D01*
X103431009Y-98738095D02*
X103431009Y-99071428D01*
X103954819Y-99214285D02*
X103954819Y-98738095D01*
X103954819Y-98738095D02*
X102954819Y-98738095D01*
X102954819Y-98738095D02*
X102954819Y-99214285D01*
X103954819Y-99642857D02*
X102954819Y-99642857D01*
X102954819Y-99642857D02*
X102954819Y-99880952D01*
X102954819Y-99880952D02*
X103002438Y-100023809D01*
X103002438Y-100023809D02*
X103097676Y-100119047D01*
X103097676Y-100119047D02*
X103192914Y-100166666D01*
X103192914Y-100166666D02*
X103383390Y-100214285D01*
X103383390Y-100214285D02*
X103526247Y-100214285D01*
X103526247Y-100214285D02*
X103716723Y-100166666D01*
X103716723Y-100166666D02*
X103811961Y-100119047D01*
X103811961Y-100119047D02*
X103907200Y-100023809D01*
X103907200Y-100023809D02*
X103954819Y-99880952D01*
X103954819Y-99880952D02*
X103954819Y-99642857D01*
X103954819Y-101166666D02*
X103954819Y-100595238D01*
X103954819Y-100880952D02*
X102954819Y-100880952D01*
X102954819Y-100880952D02*
X103097676Y-100785714D01*
X103097676Y-100785714D02*
X103192914Y-100690476D01*
X103192914Y-100690476D02*
X103240533Y-100595238D01*
X103954819Y-102119047D02*
X103954819Y-101547619D01*
X103954819Y-101833333D02*
X102954819Y-101833333D01*
X102954819Y-101833333D02*
X103097676Y-101738095D01*
X103097676Y-101738095D02*
X103192914Y-101642857D01*
X103192914Y-101642857D02*
X103240533Y-101547619D01*
X173193417Y-103360740D02*
X172717226Y-103027407D01*
X173193417Y-102789312D02*
X172193417Y-102789312D01*
X172193417Y-102789312D02*
X172193417Y-103170264D01*
X172193417Y-103170264D02*
X172241036Y-103265502D01*
X172241036Y-103265502D02*
X172288655Y-103313121D01*
X172288655Y-103313121D02*
X172383893Y-103360740D01*
X172383893Y-103360740D02*
X172526750Y-103360740D01*
X172526750Y-103360740D02*
X172621988Y-103313121D01*
X172621988Y-103313121D02*
X172669607Y-103265502D01*
X172669607Y-103265502D02*
X172717226Y-103170264D01*
X172717226Y-103170264D02*
X172717226Y-102789312D01*
X172288655Y-103741693D02*
X172241036Y-103789312D01*
X172241036Y-103789312D02*
X172193417Y-103884550D01*
X172193417Y-103884550D02*
X172193417Y-104122645D01*
X172193417Y-104122645D02*
X172241036Y-104217883D01*
X172241036Y-104217883D02*
X172288655Y-104265502D01*
X172288655Y-104265502D02*
X172383893Y-104313121D01*
X172383893Y-104313121D02*
X172479131Y-104313121D01*
X172479131Y-104313121D02*
X172621988Y-104265502D01*
X172621988Y-104265502D02*
X173193417Y-103694074D01*
X173193417Y-103694074D02*
X173193417Y-104313121D01*
X172193417Y-104646455D02*
X172193417Y-105313121D01*
X172193417Y-105313121D02*
X173193417Y-104884550D01*
X172266816Y-98426876D02*
X172266816Y-97950686D01*
X172266816Y-97950686D02*
X171266816Y-97950686D01*
X171743006Y-98760210D02*
X171743006Y-99093543D01*
X172266816Y-99236400D02*
X172266816Y-98760210D01*
X172266816Y-98760210D02*
X171266816Y-98760210D01*
X171266816Y-98760210D02*
X171266816Y-99236400D01*
X172266816Y-99664972D02*
X171266816Y-99664972D01*
X171266816Y-99664972D02*
X171266816Y-99903067D01*
X171266816Y-99903067D02*
X171314435Y-100045924D01*
X171314435Y-100045924D02*
X171409673Y-100141162D01*
X171409673Y-100141162D02*
X171504911Y-100188781D01*
X171504911Y-100188781D02*
X171695387Y-100236400D01*
X171695387Y-100236400D02*
X171838244Y-100236400D01*
X171838244Y-100236400D02*
X172028720Y-100188781D01*
X172028720Y-100188781D02*
X172123958Y-100141162D01*
X172123958Y-100141162D02*
X172219197Y-100045924D01*
X172219197Y-100045924D02*
X172266816Y-99903067D01*
X172266816Y-99903067D02*
X172266816Y-99664972D01*
X172266816Y-101188781D02*
X172266816Y-100617353D01*
X172266816Y-100903067D02*
X171266816Y-100903067D01*
X171266816Y-100903067D02*
X171409673Y-100807829D01*
X171409673Y-100807829D02*
X171504911Y-100712591D01*
X171504911Y-100712591D02*
X171552530Y-100617353D01*
X171600149Y-102045924D02*
X172266816Y-102045924D01*
X171219197Y-101807829D02*
X171933482Y-101569734D01*
X171933482Y-101569734D02*
X171933482Y-102188781D01*
X178006882Y-103360740D02*
X177530691Y-103027407D01*
X178006882Y-102789312D02*
X177006882Y-102789312D01*
X177006882Y-102789312D02*
X177006882Y-103170264D01*
X177006882Y-103170264D02*
X177054501Y-103265502D01*
X177054501Y-103265502D02*
X177102120Y-103313121D01*
X177102120Y-103313121D02*
X177197358Y-103360740D01*
X177197358Y-103360740D02*
X177340215Y-103360740D01*
X177340215Y-103360740D02*
X177435453Y-103313121D01*
X177435453Y-103313121D02*
X177483072Y-103265502D01*
X177483072Y-103265502D02*
X177530691Y-103170264D01*
X177530691Y-103170264D02*
X177530691Y-102789312D01*
X177102120Y-103741693D02*
X177054501Y-103789312D01*
X177054501Y-103789312D02*
X177006882Y-103884550D01*
X177006882Y-103884550D02*
X177006882Y-104122645D01*
X177006882Y-104122645D02*
X177054501Y-104217883D01*
X177054501Y-104217883D02*
X177102120Y-104265502D01*
X177102120Y-104265502D02*
X177197358Y-104313121D01*
X177197358Y-104313121D02*
X177292596Y-104313121D01*
X177292596Y-104313121D02*
X177435453Y-104265502D01*
X177435453Y-104265502D02*
X178006882Y-103694074D01*
X178006882Y-103694074D02*
X178006882Y-104313121D01*
X177340215Y-105170264D02*
X178006882Y-105170264D01*
X176959263Y-104932169D02*
X177673548Y-104694074D01*
X177673548Y-104694074D02*
X177673548Y-105313121D01*
X85336040Y-103378240D02*
X84859849Y-103044907D01*
X85336040Y-102806812D02*
X84336040Y-102806812D01*
X84336040Y-102806812D02*
X84336040Y-103187764D01*
X84336040Y-103187764D02*
X84383659Y-103283002D01*
X84383659Y-103283002D02*
X84431278Y-103330621D01*
X84431278Y-103330621D02*
X84526516Y-103378240D01*
X84526516Y-103378240D02*
X84669373Y-103378240D01*
X84669373Y-103378240D02*
X84764611Y-103330621D01*
X84764611Y-103330621D02*
X84812230Y-103283002D01*
X84812230Y-103283002D02*
X84859849Y-103187764D01*
X84859849Y-103187764D02*
X84859849Y-102806812D01*
X84336040Y-103711574D02*
X84336040Y-104330621D01*
X84336040Y-104330621D02*
X84716992Y-103997288D01*
X84716992Y-103997288D02*
X84716992Y-104140145D01*
X84716992Y-104140145D02*
X84764611Y-104235383D01*
X84764611Y-104235383D02*
X84812230Y-104283002D01*
X84812230Y-104283002D02*
X84907468Y-104330621D01*
X84907468Y-104330621D02*
X85145563Y-104330621D01*
X85145563Y-104330621D02*
X85240801Y-104283002D01*
X85240801Y-104283002D02*
X85288421Y-104235383D01*
X85288421Y-104235383D02*
X85336040Y-104140145D01*
X85336040Y-104140145D02*
X85336040Y-103854431D01*
X85336040Y-103854431D02*
X85288421Y-103759193D01*
X85288421Y-103759193D02*
X85240801Y-103711574D01*
X84764611Y-104902050D02*
X84716992Y-104806812D01*
X84716992Y-104806812D02*
X84669373Y-104759193D01*
X84669373Y-104759193D02*
X84574135Y-104711574D01*
X84574135Y-104711574D02*
X84526516Y-104711574D01*
X84526516Y-104711574D02*
X84431278Y-104759193D01*
X84431278Y-104759193D02*
X84383659Y-104806812D01*
X84383659Y-104806812D02*
X84336040Y-104902050D01*
X84336040Y-104902050D02*
X84336040Y-105092526D01*
X84336040Y-105092526D02*
X84383659Y-105187764D01*
X84383659Y-105187764D02*
X84431278Y-105235383D01*
X84431278Y-105235383D02*
X84526516Y-105283002D01*
X84526516Y-105283002D02*
X84574135Y-105283002D01*
X84574135Y-105283002D02*
X84669373Y-105235383D01*
X84669373Y-105235383D02*
X84716992Y-105187764D01*
X84716992Y-105187764D02*
X84764611Y-105092526D01*
X84764611Y-105092526D02*
X84764611Y-104902050D01*
X84764611Y-104902050D02*
X84812230Y-104806812D01*
X84812230Y-104806812D02*
X84859849Y-104759193D01*
X84859849Y-104759193D02*
X84955087Y-104711574D01*
X84955087Y-104711574D02*
X85145563Y-104711574D01*
X85145563Y-104711574D02*
X85240801Y-104759193D01*
X85240801Y-104759193D02*
X85288421Y-104806812D01*
X85288421Y-104806812D02*
X85336040Y-104902050D01*
X85336040Y-104902050D02*
X85336040Y-105092526D01*
X85336040Y-105092526D02*
X85288421Y-105187764D01*
X85288421Y-105187764D02*
X85240801Y-105235383D01*
X85240801Y-105235383D02*
X85145563Y-105283002D01*
X85145563Y-105283002D02*
X84955087Y-105283002D01*
X84955087Y-105283002D02*
X84859849Y-105235383D01*
X84859849Y-105235383D02*
X84812230Y-105187764D01*
X84812230Y-105187764D02*
X84764611Y-105092526D01*
X148729423Y-103325740D02*
X148253232Y-102992407D01*
X148729423Y-102754312D02*
X147729423Y-102754312D01*
X147729423Y-102754312D02*
X147729423Y-103135264D01*
X147729423Y-103135264D02*
X147777042Y-103230502D01*
X147777042Y-103230502D02*
X147824661Y-103278121D01*
X147824661Y-103278121D02*
X147919899Y-103325740D01*
X147919899Y-103325740D02*
X148062756Y-103325740D01*
X148062756Y-103325740D02*
X148157994Y-103278121D01*
X148157994Y-103278121D02*
X148205613Y-103230502D01*
X148205613Y-103230502D02*
X148253232Y-103135264D01*
X148253232Y-103135264D02*
X148253232Y-102754312D01*
X147824661Y-103706693D02*
X147777042Y-103754312D01*
X147777042Y-103754312D02*
X147729423Y-103849550D01*
X147729423Y-103849550D02*
X147729423Y-104087645D01*
X147729423Y-104087645D02*
X147777042Y-104182883D01*
X147777042Y-104182883D02*
X147824661Y-104230502D01*
X147824661Y-104230502D02*
X147919899Y-104278121D01*
X147919899Y-104278121D02*
X148015137Y-104278121D01*
X148015137Y-104278121D02*
X148157994Y-104230502D01*
X148157994Y-104230502D02*
X148729423Y-103659074D01*
X148729423Y-103659074D02*
X148729423Y-104278121D01*
X148729423Y-105230502D02*
X148729423Y-104659074D01*
X148729423Y-104944788D02*
X147729423Y-104944788D01*
X147729423Y-104944788D02*
X147872280Y-104849550D01*
X147872280Y-104849550D02*
X147967518Y-104754312D01*
X147967518Y-104754312D02*
X148015137Y-104659074D01*
X163436486Y-103360740D02*
X162960295Y-103027407D01*
X163436486Y-102789312D02*
X162436486Y-102789312D01*
X162436486Y-102789312D02*
X162436486Y-103170264D01*
X162436486Y-103170264D02*
X162484105Y-103265502D01*
X162484105Y-103265502D02*
X162531724Y-103313121D01*
X162531724Y-103313121D02*
X162626962Y-103360740D01*
X162626962Y-103360740D02*
X162769819Y-103360740D01*
X162769819Y-103360740D02*
X162865057Y-103313121D01*
X162865057Y-103313121D02*
X162912676Y-103265502D01*
X162912676Y-103265502D02*
X162960295Y-103170264D01*
X162960295Y-103170264D02*
X162960295Y-102789312D01*
X162769819Y-104217883D02*
X163436486Y-104217883D01*
X162388867Y-103979788D02*
X163103152Y-103741693D01*
X163103152Y-103741693D02*
X163103152Y-104360740D01*
X162436486Y-104932169D02*
X162436486Y-105027407D01*
X162436486Y-105027407D02*
X162484105Y-105122645D01*
X162484105Y-105122645D02*
X162531724Y-105170264D01*
X162531724Y-105170264D02*
X162626962Y-105217883D01*
X162626962Y-105217883D02*
X162817438Y-105265502D01*
X162817438Y-105265502D02*
X163055533Y-105265502D01*
X163055533Y-105265502D02*
X163246009Y-105217883D01*
X163246009Y-105217883D02*
X163341247Y-105170264D01*
X163341247Y-105170264D02*
X163388867Y-105122645D01*
X163388867Y-105122645D02*
X163436486Y-105027407D01*
X163436486Y-105027407D02*
X163436486Y-104932169D01*
X163436486Y-104932169D02*
X163388867Y-104836931D01*
X163388867Y-104836931D02*
X163341247Y-104789312D01*
X163341247Y-104789312D02*
X163246009Y-104741693D01*
X163246009Y-104741693D02*
X163055533Y-104694074D01*
X163055533Y-104694074D02*
X162817438Y-104694074D01*
X162817438Y-104694074D02*
X162626962Y-104741693D01*
X162626962Y-104741693D02*
X162531724Y-104789312D01*
X162531724Y-104789312D02*
X162484105Y-104836931D01*
X162484105Y-104836931D02*
X162436486Y-104932169D01*
X210954819Y-99380952D02*
X210954819Y-98904762D01*
X210954819Y-98904762D02*
X209954819Y-98904762D01*
X210431009Y-99714286D02*
X210431009Y-100047619D01*
X210954819Y-100190476D02*
X210954819Y-99714286D01*
X210954819Y-99714286D02*
X209954819Y-99714286D01*
X209954819Y-99714286D02*
X209954819Y-100190476D01*
X210954819Y-100619048D02*
X209954819Y-100619048D01*
X209954819Y-100619048D02*
X209954819Y-100857143D01*
X209954819Y-100857143D02*
X210002438Y-101000000D01*
X210002438Y-101000000D02*
X210097676Y-101095238D01*
X210097676Y-101095238D02*
X210192914Y-101142857D01*
X210192914Y-101142857D02*
X210383390Y-101190476D01*
X210383390Y-101190476D02*
X210526247Y-101190476D01*
X210526247Y-101190476D02*
X210716723Y-101142857D01*
X210716723Y-101142857D02*
X210811961Y-101095238D01*
X210811961Y-101095238D02*
X210907200Y-101000000D01*
X210907200Y-101000000D02*
X210954819Y-100857143D01*
X210954819Y-100857143D02*
X210954819Y-100619048D01*
X209954819Y-101523810D02*
X209954819Y-102190476D01*
X209954819Y-102190476D02*
X210954819Y-101761905D01*
X186686972Y-99201745D02*
X186686972Y-98725555D01*
X186686972Y-98725555D02*
X185686972Y-98725555D01*
X186163162Y-99535079D02*
X186163162Y-99868412D01*
X186686972Y-100011269D02*
X186686972Y-99535079D01*
X186686972Y-99535079D02*
X185686972Y-99535079D01*
X185686972Y-99535079D02*
X185686972Y-100011269D01*
X186686972Y-100439841D02*
X185686972Y-100439841D01*
X185686972Y-100439841D02*
X185686972Y-100677936D01*
X185686972Y-100677936D02*
X185734591Y-100820793D01*
X185734591Y-100820793D02*
X185829829Y-100916031D01*
X185829829Y-100916031D02*
X185925067Y-100963650D01*
X185925067Y-100963650D02*
X186115543Y-101011269D01*
X186115543Y-101011269D02*
X186258400Y-101011269D01*
X186258400Y-101011269D02*
X186448876Y-100963650D01*
X186448876Y-100963650D02*
X186544114Y-100916031D01*
X186544114Y-100916031D02*
X186639353Y-100820793D01*
X186639353Y-100820793D02*
X186686972Y-100677936D01*
X186686972Y-100677936D02*
X186686972Y-100439841D01*
X186020305Y-101868412D02*
X186686972Y-101868412D01*
X185639353Y-101630317D02*
X186353638Y-101392222D01*
X186353638Y-101392222D02*
X186353638Y-102011269D01*
X153506222Y-103360740D02*
X153030031Y-103027407D01*
X153506222Y-102789312D02*
X152506222Y-102789312D01*
X152506222Y-102789312D02*
X152506222Y-103170264D01*
X152506222Y-103170264D02*
X152553841Y-103265502D01*
X152553841Y-103265502D02*
X152601460Y-103313121D01*
X152601460Y-103313121D02*
X152696698Y-103360740D01*
X152696698Y-103360740D02*
X152839555Y-103360740D01*
X152839555Y-103360740D02*
X152934793Y-103313121D01*
X152934793Y-103313121D02*
X152982412Y-103265502D01*
X152982412Y-103265502D02*
X153030031Y-103170264D01*
X153030031Y-103170264D02*
X153030031Y-102789312D01*
X152839555Y-104217883D02*
X153506222Y-104217883D01*
X152458603Y-103979788D02*
X153172888Y-103741693D01*
X153172888Y-103741693D02*
X153172888Y-104360740D01*
X152601460Y-104694074D02*
X152553841Y-104741693D01*
X152553841Y-104741693D02*
X152506222Y-104836931D01*
X152506222Y-104836931D02*
X152506222Y-105075026D01*
X152506222Y-105075026D02*
X152553841Y-105170264D01*
X152553841Y-105170264D02*
X152601460Y-105217883D01*
X152601460Y-105217883D02*
X152696698Y-105265502D01*
X152696698Y-105265502D02*
X152791936Y-105265502D01*
X152791936Y-105265502D02*
X152934793Y-105217883D01*
X152934793Y-105217883D02*
X153506222Y-104646455D01*
X153506222Y-104646455D02*
X153506222Y-105265502D01*
X182777014Y-103360740D02*
X182300823Y-103027407D01*
X182777014Y-102789312D02*
X181777014Y-102789312D01*
X181777014Y-102789312D02*
X181777014Y-103170264D01*
X181777014Y-103170264D02*
X181824633Y-103265502D01*
X181824633Y-103265502D02*
X181872252Y-103313121D01*
X181872252Y-103313121D02*
X181967490Y-103360740D01*
X181967490Y-103360740D02*
X182110347Y-103360740D01*
X182110347Y-103360740D02*
X182205585Y-103313121D01*
X182205585Y-103313121D02*
X182253204Y-103265502D01*
X182253204Y-103265502D02*
X182300823Y-103170264D01*
X182300823Y-103170264D02*
X182300823Y-102789312D01*
X182777014Y-104313121D02*
X182777014Y-103741693D01*
X182777014Y-104027407D02*
X181777014Y-104027407D01*
X181777014Y-104027407D02*
X181919871Y-103932169D01*
X181919871Y-103932169D02*
X182015109Y-103836931D01*
X182015109Y-103836931D02*
X182062728Y-103741693D01*
X182777014Y-104789312D02*
X182777014Y-104979788D01*
X182777014Y-104979788D02*
X182729395Y-105075026D01*
X182729395Y-105075026D02*
X182681775Y-105122645D01*
X182681775Y-105122645D02*
X182538918Y-105217883D01*
X182538918Y-105217883D02*
X182348442Y-105265502D01*
X182348442Y-105265502D02*
X181967490Y-105265502D01*
X181967490Y-105265502D02*
X181872252Y-105217883D01*
X181872252Y-105217883D02*
X181824633Y-105170264D01*
X181824633Y-105170264D02*
X181777014Y-105075026D01*
X181777014Y-105075026D02*
X181777014Y-104884550D01*
X181777014Y-104884550D02*
X181824633Y-104789312D01*
X181824633Y-104789312D02*
X181872252Y-104741693D01*
X181872252Y-104741693D02*
X181967490Y-104694074D01*
X181967490Y-104694074D02*
X182205585Y-104694074D01*
X182205585Y-104694074D02*
X182300823Y-104741693D01*
X182300823Y-104741693D02*
X182348442Y-104789312D01*
X182348442Y-104789312D02*
X182396061Y-104884550D01*
X182396061Y-104884550D02*
X182396061Y-105075026D01*
X182396061Y-105075026D02*
X182348442Y-105170264D01*
X182348442Y-105170264D02*
X182300823Y-105217883D01*
X182300823Y-105217883D02*
X182205585Y-105265502D01*
X196454819Y-98404761D02*
X196454819Y-97928571D01*
X196454819Y-97928571D02*
X195454819Y-97928571D01*
X195931009Y-98738095D02*
X195931009Y-99071428D01*
X196454819Y-99214285D02*
X196454819Y-98738095D01*
X196454819Y-98738095D02*
X195454819Y-98738095D01*
X195454819Y-98738095D02*
X195454819Y-99214285D01*
X196454819Y-99642857D02*
X195454819Y-99642857D01*
X195454819Y-99642857D02*
X195454819Y-99880952D01*
X195454819Y-99880952D02*
X195502438Y-100023809D01*
X195502438Y-100023809D02*
X195597676Y-100119047D01*
X195597676Y-100119047D02*
X195692914Y-100166666D01*
X195692914Y-100166666D02*
X195883390Y-100214285D01*
X195883390Y-100214285D02*
X196026247Y-100214285D01*
X196026247Y-100214285D02*
X196216723Y-100166666D01*
X196216723Y-100166666D02*
X196311961Y-100119047D01*
X196311961Y-100119047D02*
X196407200Y-100023809D01*
X196407200Y-100023809D02*
X196454819Y-99880952D01*
X196454819Y-99880952D02*
X196454819Y-99642857D01*
X196454819Y-101166666D02*
X196454819Y-100595238D01*
X196454819Y-100880952D02*
X195454819Y-100880952D01*
X195454819Y-100880952D02*
X195597676Y-100785714D01*
X195597676Y-100785714D02*
X195692914Y-100690476D01*
X195692914Y-100690476D02*
X195740533Y-100595238D01*
X195883390Y-101738095D02*
X195835771Y-101642857D01*
X195835771Y-101642857D02*
X195788152Y-101595238D01*
X195788152Y-101595238D02*
X195692914Y-101547619D01*
X195692914Y-101547619D02*
X195645295Y-101547619D01*
X195645295Y-101547619D02*
X195550057Y-101595238D01*
X195550057Y-101595238D02*
X195502438Y-101642857D01*
X195502438Y-101642857D02*
X195454819Y-101738095D01*
X195454819Y-101738095D02*
X195454819Y-101928571D01*
X195454819Y-101928571D02*
X195502438Y-102023809D01*
X195502438Y-102023809D02*
X195550057Y-102071428D01*
X195550057Y-102071428D02*
X195645295Y-102119047D01*
X195645295Y-102119047D02*
X195692914Y-102119047D01*
X195692914Y-102119047D02*
X195788152Y-102071428D01*
X195788152Y-102071428D02*
X195835771Y-102023809D01*
X195835771Y-102023809D02*
X195883390Y-101928571D01*
X195883390Y-101928571D02*
X195883390Y-101738095D01*
X195883390Y-101738095D02*
X195931009Y-101642857D01*
X195931009Y-101642857D02*
X195978628Y-101595238D01*
X195978628Y-101595238D02*
X196073866Y-101547619D01*
X196073866Y-101547619D02*
X196264342Y-101547619D01*
X196264342Y-101547619D02*
X196359580Y-101595238D01*
X196359580Y-101595238D02*
X196407200Y-101642857D01*
X196407200Y-101642857D02*
X196454819Y-101738095D01*
X196454819Y-101738095D02*
X196454819Y-101928571D01*
X196454819Y-101928571D02*
X196407200Y-102023809D01*
X196407200Y-102023809D02*
X196359580Y-102071428D01*
X196359580Y-102071428D02*
X196264342Y-102119047D01*
X196264342Y-102119047D02*
X196073866Y-102119047D01*
X196073866Y-102119047D02*
X195978628Y-102071428D01*
X195978628Y-102071428D02*
X195931009Y-102023809D01*
X195931009Y-102023809D02*
X195883390Y-101928571D01*
X105023235Y-103378240D02*
X104547044Y-103044907D01*
X105023235Y-102806812D02*
X104023235Y-102806812D01*
X104023235Y-102806812D02*
X104023235Y-103187764D01*
X104023235Y-103187764D02*
X104070854Y-103283002D01*
X104070854Y-103283002D02*
X104118473Y-103330621D01*
X104118473Y-103330621D02*
X104213711Y-103378240D01*
X104213711Y-103378240D02*
X104356568Y-103378240D01*
X104356568Y-103378240D02*
X104451806Y-103330621D01*
X104451806Y-103330621D02*
X104499425Y-103283002D01*
X104499425Y-103283002D02*
X104547044Y-103187764D01*
X104547044Y-103187764D02*
X104547044Y-102806812D01*
X104118473Y-103759193D02*
X104070854Y-103806812D01*
X104070854Y-103806812D02*
X104023235Y-103902050D01*
X104023235Y-103902050D02*
X104023235Y-104140145D01*
X104023235Y-104140145D02*
X104070854Y-104235383D01*
X104070854Y-104235383D02*
X104118473Y-104283002D01*
X104118473Y-104283002D02*
X104213711Y-104330621D01*
X104213711Y-104330621D02*
X104308949Y-104330621D01*
X104308949Y-104330621D02*
X104451806Y-104283002D01*
X104451806Y-104283002D02*
X105023235Y-103711574D01*
X105023235Y-103711574D02*
X105023235Y-104330621D01*
X104023235Y-105235383D02*
X104023235Y-104759193D01*
X104023235Y-104759193D02*
X104499425Y-104711574D01*
X104499425Y-104711574D02*
X104451806Y-104759193D01*
X104451806Y-104759193D02*
X104404187Y-104854431D01*
X104404187Y-104854431D02*
X104404187Y-105092526D01*
X104404187Y-105092526D02*
X104451806Y-105187764D01*
X104451806Y-105187764D02*
X104499425Y-105235383D01*
X104499425Y-105235383D02*
X104594663Y-105283002D01*
X104594663Y-105283002D02*
X104832758Y-105283002D01*
X104832758Y-105283002D02*
X104927996Y-105235383D01*
X104927996Y-105235383D02*
X104975616Y-105187764D01*
X104975616Y-105187764D02*
X105023235Y-105092526D01*
X105023235Y-105092526D02*
X105023235Y-104854431D01*
X105023235Y-104854431D02*
X104975616Y-104759193D01*
X104975616Y-104759193D02*
X104927996Y-104711574D01*
X157583824Y-98295458D02*
X157583824Y-97819268D01*
X157583824Y-97819268D02*
X156583824Y-97819268D01*
X157060014Y-98628792D02*
X157060014Y-98962125D01*
X157583824Y-99104982D02*
X157583824Y-98628792D01*
X157583824Y-98628792D02*
X156583824Y-98628792D01*
X156583824Y-98628792D02*
X156583824Y-99104982D01*
X157583824Y-99533554D02*
X156583824Y-99533554D01*
X156583824Y-99533554D02*
X156583824Y-99771649D01*
X156583824Y-99771649D02*
X156631443Y-99914506D01*
X156631443Y-99914506D02*
X156726681Y-100009744D01*
X156726681Y-100009744D02*
X156821919Y-100057363D01*
X156821919Y-100057363D02*
X157012395Y-100104982D01*
X157012395Y-100104982D02*
X157155252Y-100104982D01*
X157155252Y-100104982D02*
X157345728Y-100057363D01*
X157345728Y-100057363D02*
X157440966Y-100009744D01*
X157440966Y-100009744D02*
X157536205Y-99914506D01*
X157536205Y-99914506D02*
X157583824Y-99771649D01*
X157583824Y-99771649D02*
X157583824Y-99533554D01*
X156679062Y-100485935D02*
X156631443Y-100533554D01*
X156631443Y-100533554D02*
X156583824Y-100628792D01*
X156583824Y-100628792D02*
X156583824Y-100866887D01*
X156583824Y-100866887D02*
X156631443Y-100962125D01*
X156631443Y-100962125D02*
X156679062Y-101009744D01*
X156679062Y-101009744D02*
X156774300Y-101057363D01*
X156774300Y-101057363D02*
X156869538Y-101057363D01*
X156869538Y-101057363D02*
X157012395Y-101009744D01*
X157012395Y-101009744D02*
X157583824Y-100438316D01*
X157583824Y-100438316D02*
X157583824Y-101057363D01*
X156583824Y-101390697D02*
X156583824Y-102057363D01*
X156583824Y-102057363D02*
X157583824Y-101628792D01*
X147799145Y-98379088D02*
X147799145Y-97902898D01*
X147799145Y-97902898D02*
X146799145Y-97902898D01*
X147275335Y-98712422D02*
X147275335Y-99045755D01*
X147799145Y-99188612D02*
X147799145Y-98712422D01*
X147799145Y-98712422D02*
X146799145Y-98712422D01*
X146799145Y-98712422D02*
X146799145Y-99188612D01*
X147799145Y-99617184D02*
X146799145Y-99617184D01*
X146799145Y-99617184D02*
X146799145Y-99855279D01*
X146799145Y-99855279D02*
X146846764Y-99998136D01*
X146846764Y-99998136D02*
X146942002Y-100093374D01*
X146942002Y-100093374D02*
X147037240Y-100140993D01*
X147037240Y-100140993D02*
X147227716Y-100188612D01*
X147227716Y-100188612D02*
X147370573Y-100188612D01*
X147370573Y-100188612D02*
X147561049Y-100140993D01*
X147561049Y-100140993D02*
X147656287Y-100093374D01*
X147656287Y-100093374D02*
X147751526Y-99998136D01*
X147751526Y-99998136D02*
X147799145Y-99855279D01*
X147799145Y-99855279D02*
X147799145Y-99617184D01*
X147799145Y-101140993D02*
X147799145Y-100569565D01*
X147799145Y-100855279D02*
X146799145Y-100855279D01*
X146799145Y-100855279D02*
X146942002Y-100760041D01*
X146942002Y-100760041D02*
X147037240Y-100664803D01*
X147037240Y-100664803D02*
X147084859Y-100569565D01*
X146799145Y-101474327D02*
X146799145Y-102093374D01*
X146799145Y-102093374D02*
X147180097Y-101760041D01*
X147180097Y-101760041D02*
X147180097Y-101902898D01*
X147180097Y-101902898D02*
X147227716Y-101998136D01*
X147227716Y-101998136D02*
X147275335Y-102045755D01*
X147275335Y-102045755D02*
X147370573Y-102093374D01*
X147370573Y-102093374D02*
X147608668Y-102093374D01*
X147608668Y-102093374D02*
X147703906Y-102045755D01*
X147703906Y-102045755D02*
X147751526Y-101998136D01*
X147751526Y-101998136D02*
X147799145Y-101902898D01*
X147799145Y-101902898D02*
X147799145Y-101617184D01*
X147799145Y-101617184D02*
X147751526Y-101521946D01*
X147751526Y-101521946D02*
X147703906Y-101474327D01*
X90322839Y-103378240D02*
X89846648Y-103044907D01*
X90322839Y-102806812D02*
X89322839Y-102806812D01*
X89322839Y-102806812D02*
X89322839Y-103187764D01*
X89322839Y-103187764D02*
X89370458Y-103283002D01*
X89370458Y-103283002D02*
X89418077Y-103330621D01*
X89418077Y-103330621D02*
X89513315Y-103378240D01*
X89513315Y-103378240D02*
X89656172Y-103378240D01*
X89656172Y-103378240D02*
X89751410Y-103330621D01*
X89751410Y-103330621D02*
X89799029Y-103283002D01*
X89799029Y-103283002D02*
X89846648Y-103187764D01*
X89846648Y-103187764D02*
X89846648Y-102806812D01*
X89322839Y-103711574D02*
X89322839Y-104330621D01*
X89322839Y-104330621D02*
X89703791Y-103997288D01*
X89703791Y-103997288D02*
X89703791Y-104140145D01*
X89703791Y-104140145D02*
X89751410Y-104235383D01*
X89751410Y-104235383D02*
X89799029Y-104283002D01*
X89799029Y-104283002D02*
X89894267Y-104330621D01*
X89894267Y-104330621D02*
X90132362Y-104330621D01*
X90132362Y-104330621D02*
X90227600Y-104283002D01*
X90227600Y-104283002D02*
X90275220Y-104235383D01*
X90275220Y-104235383D02*
X90322839Y-104140145D01*
X90322839Y-104140145D02*
X90322839Y-103854431D01*
X90322839Y-103854431D02*
X90275220Y-103759193D01*
X90275220Y-103759193D02*
X90227600Y-103711574D01*
X89322839Y-104663955D02*
X89322839Y-105330621D01*
X89322839Y-105330621D02*
X90322839Y-104902050D01*
X108954819Y-98404761D02*
X108954819Y-97928571D01*
X108954819Y-97928571D02*
X107954819Y-97928571D01*
X108431009Y-98738095D02*
X108431009Y-99071428D01*
X108954819Y-99214285D02*
X108954819Y-98738095D01*
X108954819Y-98738095D02*
X107954819Y-98738095D01*
X107954819Y-98738095D02*
X107954819Y-99214285D01*
X108954819Y-99642857D02*
X107954819Y-99642857D01*
X107954819Y-99642857D02*
X107954819Y-99880952D01*
X107954819Y-99880952D02*
X108002438Y-100023809D01*
X108002438Y-100023809D02*
X108097676Y-100119047D01*
X108097676Y-100119047D02*
X108192914Y-100166666D01*
X108192914Y-100166666D02*
X108383390Y-100214285D01*
X108383390Y-100214285D02*
X108526247Y-100214285D01*
X108526247Y-100214285D02*
X108716723Y-100166666D01*
X108716723Y-100166666D02*
X108811961Y-100119047D01*
X108811961Y-100119047D02*
X108907200Y-100023809D01*
X108907200Y-100023809D02*
X108954819Y-99880952D01*
X108954819Y-99880952D02*
X108954819Y-99642857D01*
X108954819Y-101166666D02*
X108954819Y-100595238D01*
X108954819Y-100880952D02*
X107954819Y-100880952D01*
X107954819Y-100880952D02*
X108097676Y-100785714D01*
X108097676Y-100785714D02*
X108192914Y-100690476D01*
X108192914Y-100690476D02*
X108240533Y-100595238D01*
X107954819Y-101785714D02*
X107954819Y-101880952D01*
X107954819Y-101880952D02*
X108002438Y-101976190D01*
X108002438Y-101976190D02*
X108050057Y-102023809D01*
X108050057Y-102023809D02*
X108145295Y-102071428D01*
X108145295Y-102071428D02*
X108335771Y-102119047D01*
X108335771Y-102119047D02*
X108573866Y-102119047D01*
X108573866Y-102119047D02*
X108764342Y-102071428D01*
X108764342Y-102071428D02*
X108859580Y-102023809D01*
X108859580Y-102023809D02*
X108907200Y-101976190D01*
X108907200Y-101976190D02*
X108954819Y-101880952D01*
X108954819Y-101880952D02*
X108954819Y-101785714D01*
X108954819Y-101785714D02*
X108907200Y-101690476D01*
X108907200Y-101690476D02*
X108859580Y-101642857D01*
X108859580Y-101642857D02*
X108764342Y-101595238D01*
X108764342Y-101595238D02*
X108573866Y-101547619D01*
X108573866Y-101547619D02*
X108335771Y-101547619D01*
X108335771Y-101547619D02*
X108145295Y-101595238D01*
X108145295Y-101595238D02*
X108050057Y-101642857D01*
X108050057Y-101642857D02*
X108002438Y-101690476D01*
X108002438Y-101690476D02*
X107954819Y-101785714D01*
X152745246Y-99261480D02*
X152745246Y-98785290D01*
X152745246Y-98785290D02*
X151745246Y-98785290D01*
X152221436Y-99594814D02*
X152221436Y-99928147D01*
X152745246Y-100071004D02*
X152745246Y-99594814D01*
X152745246Y-99594814D02*
X151745246Y-99594814D01*
X151745246Y-99594814D02*
X151745246Y-100071004D01*
X152745246Y-100499576D02*
X151745246Y-100499576D01*
X151745246Y-100499576D02*
X151745246Y-100737671D01*
X151745246Y-100737671D02*
X151792865Y-100880528D01*
X151792865Y-100880528D02*
X151888103Y-100975766D01*
X151888103Y-100975766D02*
X151983341Y-101023385D01*
X151983341Y-101023385D02*
X152173817Y-101071004D01*
X152173817Y-101071004D02*
X152316674Y-101071004D01*
X152316674Y-101071004D02*
X152507150Y-101023385D01*
X152507150Y-101023385D02*
X152602388Y-100975766D01*
X152602388Y-100975766D02*
X152697627Y-100880528D01*
X152697627Y-100880528D02*
X152745246Y-100737671D01*
X152745246Y-100737671D02*
X152745246Y-100499576D01*
X151745246Y-101928147D02*
X151745246Y-101737671D01*
X151745246Y-101737671D02*
X151792865Y-101642433D01*
X151792865Y-101642433D02*
X151840484Y-101594814D01*
X151840484Y-101594814D02*
X151983341Y-101499576D01*
X151983341Y-101499576D02*
X152173817Y-101451957D01*
X152173817Y-101451957D02*
X152554769Y-101451957D01*
X152554769Y-101451957D02*
X152650007Y-101499576D01*
X152650007Y-101499576D02*
X152697627Y-101547195D01*
X152697627Y-101547195D02*
X152745246Y-101642433D01*
X152745246Y-101642433D02*
X152745246Y-101832909D01*
X152745246Y-101832909D02*
X152697627Y-101928147D01*
X152697627Y-101928147D02*
X152650007Y-101975766D01*
X152650007Y-101975766D02*
X152554769Y-102023385D01*
X152554769Y-102023385D02*
X152316674Y-102023385D01*
X152316674Y-102023385D02*
X152221436Y-101975766D01*
X152221436Y-101975766D02*
X152173817Y-101928147D01*
X152173817Y-101928147D02*
X152126198Y-101832909D01*
X152126198Y-101832909D02*
X152126198Y-101642433D01*
X152126198Y-101642433D02*
X152173817Y-101547195D01*
X152173817Y-101547195D02*
X152221436Y-101499576D01*
X152221436Y-101499576D02*
X152316674Y-101451957D01*
X118454819Y-99380952D02*
X118454819Y-98904762D01*
X118454819Y-98904762D02*
X117454819Y-98904762D01*
X117931009Y-99714286D02*
X117931009Y-100047619D01*
X118454819Y-100190476D02*
X118454819Y-99714286D01*
X118454819Y-99714286D02*
X117454819Y-99714286D01*
X117454819Y-99714286D02*
X117454819Y-100190476D01*
X118454819Y-100619048D02*
X117454819Y-100619048D01*
X117454819Y-100619048D02*
X117454819Y-100857143D01*
X117454819Y-100857143D02*
X117502438Y-101000000D01*
X117502438Y-101000000D02*
X117597676Y-101095238D01*
X117597676Y-101095238D02*
X117692914Y-101142857D01*
X117692914Y-101142857D02*
X117883390Y-101190476D01*
X117883390Y-101190476D02*
X118026247Y-101190476D01*
X118026247Y-101190476D02*
X118216723Y-101142857D01*
X118216723Y-101142857D02*
X118311961Y-101095238D01*
X118311961Y-101095238D02*
X118407200Y-101000000D01*
X118407200Y-101000000D02*
X118454819Y-100857143D01*
X118454819Y-100857143D02*
X118454819Y-100619048D01*
X117454819Y-101523810D02*
X117454819Y-102142857D01*
X117454819Y-102142857D02*
X117835771Y-101809524D01*
X117835771Y-101809524D02*
X117835771Y-101952381D01*
X117835771Y-101952381D02*
X117883390Y-102047619D01*
X117883390Y-102047619D02*
X117931009Y-102095238D01*
X117931009Y-102095238D02*
X118026247Y-102142857D01*
X118026247Y-102142857D02*
X118264342Y-102142857D01*
X118264342Y-102142857D02*
X118359580Y-102095238D01*
X118359580Y-102095238D02*
X118407200Y-102047619D01*
X118407200Y-102047619D02*
X118454819Y-101952381D01*
X118454819Y-101952381D02*
X118454819Y-101666667D01*
X118454819Y-101666667D02*
X118407200Y-101571429D01*
X118407200Y-101571429D02*
X118359580Y-101523810D01*
X206220489Y-99142009D02*
X206220489Y-98665819D01*
X206220489Y-98665819D02*
X205220489Y-98665819D01*
X205696679Y-99475343D02*
X205696679Y-99808676D01*
X206220489Y-99951533D02*
X206220489Y-99475343D01*
X206220489Y-99475343D02*
X205220489Y-99475343D01*
X205220489Y-99475343D02*
X205220489Y-99951533D01*
X206220489Y-100380105D02*
X205220489Y-100380105D01*
X205220489Y-100380105D02*
X205220489Y-100618200D01*
X205220489Y-100618200D02*
X205268108Y-100761057D01*
X205268108Y-100761057D02*
X205363346Y-100856295D01*
X205363346Y-100856295D02*
X205458584Y-100903914D01*
X205458584Y-100903914D02*
X205649060Y-100951533D01*
X205649060Y-100951533D02*
X205791917Y-100951533D01*
X205791917Y-100951533D02*
X205982393Y-100903914D01*
X205982393Y-100903914D02*
X206077631Y-100856295D01*
X206077631Y-100856295D02*
X206172870Y-100761057D01*
X206172870Y-100761057D02*
X206220489Y-100618200D01*
X206220489Y-100618200D02*
X206220489Y-100380105D01*
X205649060Y-101522962D02*
X205601441Y-101427724D01*
X205601441Y-101427724D02*
X205553822Y-101380105D01*
X205553822Y-101380105D02*
X205458584Y-101332486D01*
X205458584Y-101332486D02*
X205410965Y-101332486D01*
X205410965Y-101332486D02*
X205315727Y-101380105D01*
X205315727Y-101380105D02*
X205268108Y-101427724D01*
X205268108Y-101427724D02*
X205220489Y-101522962D01*
X205220489Y-101522962D02*
X205220489Y-101713438D01*
X205220489Y-101713438D02*
X205268108Y-101808676D01*
X205268108Y-101808676D02*
X205315727Y-101856295D01*
X205315727Y-101856295D02*
X205410965Y-101903914D01*
X205410965Y-101903914D02*
X205458584Y-101903914D01*
X205458584Y-101903914D02*
X205553822Y-101856295D01*
X205553822Y-101856295D02*
X205601441Y-101808676D01*
X205601441Y-101808676D02*
X205649060Y-101713438D01*
X205649060Y-101713438D02*
X205649060Y-101522962D01*
X205649060Y-101522962D02*
X205696679Y-101427724D01*
X205696679Y-101427724D02*
X205744298Y-101380105D01*
X205744298Y-101380105D02*
X205839536Y-101332486D01*
X205839536Y-101332486D02*
X206030012Y-101332486D01*
X206030012Y-101332486D02*
X206125250Y-101380105D01*
X206125250Y-101380105D02*
X206172870Y-101427724D01*
X206172870Y-101427724D02*
X206220489Y-101522962D01*
X206220489Y-101522962D02*
X206220489Y-101713438D01*
X206220489Y-101713438D02*
X206172870Y-101808676D01*
X206172870Y-101808676D02*
X206125250Y-101856295D01*
X206125250Y-101856295D02*
X206030012Y-101903914D01*
X206030012Y-101903914D02*
X205839536Y-101903914D01*
X205839536Y-101903914D02*
X205744298Y-101856295D01*
X205744298Y-101856295D02*
X205696679Y-101808676D01*
X205696679Y-101808676D02*
X205649060Y-101713438D01*
X89454819Y-98404761D02*
X89454819Y-97928571D01*
X89454819Y-97928571D02*
X88454819Y-97928571D01*
X88931009Y-98738095D02*
X88931009Y-99071428D01*
X89454819Y-99214285D02*
X89454819Y-98738095D01*
X89454819Y-98738095D02*
X88454819Y-98738095D01*
X88454819Y-98738095D02*
X88454819Y-99214285D01*
X89454819Y-99642857D02*
X88454819Y-99642857D01*
X88454819Y-99642857D02*
X88454819Y-99880952D01*
X88454819Y-99880952D02*
X88502438Y-100023809D01*
X88502438Y-100023809D02*
X88597676Y-100119047D01*
X88597676Y-100119047D02*
X88692914Y-100166666D01*
X88692914Y-100166666D02*
X88883390Y-100214285D01*
X88883390Y-100214285D02*
X89026247Y-100214285D01*
X89026247Y-100214285D02*
X89216723Y-100166666D01*
X89216723Y-100166666D02*
X89311961Y-100119047D01*
X89311961Y-100119047D02*
X89407200Y-100023809D01*
X89407200Y-100023809D02*
X89454819Y-99880952D01*
X89454819Y-99880952D02*
X89454819Y-99642857D01*
X88550057Y-100595238D02*
X88502438Y-100642857D01*
X88502438Y-100642857D02*
X88454819Y-100738095D01*
X88454819Y-100738095D02*
X88454819Y-100976190D01*
X88454819Y-100976190D02*
X88502438Y-101071428D01*
X88502438Y-101071428D02*
X88550057Y-101119047D01*
X88550057Y-101119047D02*
X88645295Y-101166666D01*
X88645295Y-101166666D02*
X88740533Y-101166666D01*
X88740533Y-101166666D02*
X88883390Y-101119047D01*
X88883390Y-101119047D02*
X89454819Y-100547619D01*
X89454819Y-100547619D02*
X89454819Y-101166666D01*
X88454819Y-101500000D02*
X88454819Y-102119047D01*
X88454819Y-102119047D02*
X88835771Y-101785714D01*
X88835771Y-101785714D02*
X88835771Y-101928571D01*
X88835771Y-101928571D02*
X88883390Y-102023809D01*
X88883390Y-102023809D02*
X88931009Y-102071428D01*
X88931009Y-102071428D02*
X89026247Y-102119047D01*
X89026247Y-102119047D02*
X89264342Y-102119047D01*
X89264342Y-102119047D02*
X89359580Y-102071428D01*
X89359580Y-102071428D02*
X89407200Y-102023809D01*
X89407200Y-102023809D02*
X89454819Y-101928571D01*
X89454819Y-101928571D02*
X89454819Y-101642857D01*
X89454819Y-101642857D02*
X89407200Y-101547619D01*
X89407200Y-101547619D02*
X89359580Y-101500000D01*
X197400915Y-103357142D02*
X196924724Y-103023809D01*
X197400915Y-102785714D02*
X196400915Y-102785714D01*
X196400915Y-102785714D02*
X196400915Y-103166666D01*
X196400915Y-103166666D02*
X196448534Y-103261904D01*
X196448534Y-103261904D02*
X196496153Y-103309523D01*
X196496153Y-103309523D02*
X196591391Y-103357142D01*
X196591391Y-103357142D02*
X196734248Y-103357142D01*
X196734248Y-103357142D02*
X196829486Y-103309523D01*
X196829486Y-103309523D02*
X196877105Y-103261904D01*
X196877105Y-103261904D02*
X196924724Y-103166666D01*
X196924724Y-103166666D02*
X196924724Y-102785714D01*
X196400915Y-103690476D02*
X196400915Y-104309523D01*
X196400915Y-104309523D02*
X196781867Y-103976190D01*
X196781867Y-103976190D02*
X196781867Y-104119047D01*
X196781867Y-104119047D02*
X196829486Y-104214285D01*
X196829486Y-104214285D02*
X196877105Y-104261904D01*
X196877105Y-104261904D02*
X196972343Y-104309523D01*
X196972343Y-104309523D02*
X197210438Y-104309523D01*
X197210438Y-104309523D02*
X197305676Y-104261904D01*
X197305676Y-104261904D02*
X197353296Y-104214285D01*
X197353296Y-104214285D02*
X197400915Y-104119047D01*
X197400915Y-104119047D02*
X197400915Y-103833333D01*
X197400915Y-103833333D02*
X197353296Y-103738095D01*
X197353296Y-103738095D02*
X197305676Y-103690476D01*
X196496153Y-104690476D02*
X196448534Y-104738095D01*
X196448534Y-104738095D02*
X196400915Y-104833333D01*
X196400915Y-104833333D02*
X196400915Y-105071428D01*
X196400915Y-105071428D02*
X196448534Y-105166666D01*
X196448534Y-105166666D02*
X196496153Y-105214285D01*
X196496153Y-105214285D02*
X196591391Y-105261904D01*
X196591391Y-105261904D02*
X196686629Y-105261904D01*
X196686629Y-105261904D02*
X196829486Y-105214285D01*
X196829486Y-105214285D02*
X197400915Y-104642857D01*
X197400915Y-104642857D02*
X197400915Y-105261904D01*
X220454819Y-99380952D02*
X220454819Y-98904762D01*
X220454819Y-98904762D02*
X219454819Y-98904762D01*
X219931009Y-99714286D02*
X219931009Y-100047619D01*
X220454819Y-100190476D02*
X220454819Y-99714286D01*
X220454819Y-99714286D02*
X219454819Y-99714286D01*
X219454819Y-99714286D02*
X219454819Y-100190476D01*
X220454819Y-100619048D02*
X219454819Y-100619048D01*
X219454819Y-100619048D02*
X219454819Y-100857143D01*
X219454819Y-100857143D02*
X219502438Y-101000000D01*
X219502438Y-101000000D02*
X219597676Y-101095238D01*
X219597676Y-101095238D02*
X219692914Y-101142857D01*
X219692914Y-101142857D02*
X219883390Y-101190476D01*
X219883390Y-101190476D02*
X220026247Y-101190476D01*
X220026247Y-101190476D02*
X220216723Y-101142857D01*
X220216723Y-101142857D02*
X220311961Y-101095238D01*
X220311961Y-101095238D02*
X220407200Y-101000000D01*
X220407200Y-101000000D02*
X220454819Y-100857143D01*
X220454819Y-100857143D02*
X220454819Y-100619048D01*
X220454819Y-102142857D02*
X220454819Y-101571429D01*
X220454819Y-101857143D02*
X219454819Y-101857143D01*
X219454819Y-101857143D02*
X219597676Y-101761905D01*
X219597676Y-101761905D02*
X219692914Y-101666667D01*
X219692914Y-101666667D02*
X219740533Y-101571429D01*
X94454819Y-98404761D02*
X94454819Y-97928571D01*
X94454819Y-97928571D02*
X93454819Y-97928571D01*
X93931009Y-98738095D02*
X93931009Y-99071428D01*
X94454819Y-99214285D02*
X94454819Y-98738095D01*
X94454819Y-98738095D02*
X93454819Y-98738095D01*
X93454819Y-98738095D02*
X93454819Y-99214285D01*
X94454819Y-99642857D02*
X93454819Y-99642857D01*
X93454819Y-99642857D02*
X93454819Y-99880952D01*
X93454819Y-99880952D02*
X93502438Y-100023809D01*
X93502438Y-100023809D02*
X93597676Y-100119047D01*
X93597676Y-100119047D02*
X93692914Y-100166666D01*
X93692914Y-100166666D02*
X93883390Y-100214285D01*
X93883390Y-100214285D02*
X94026247Y-100214285D01*
X94026247Y-100214285D02*
X94216723Y-100166666D01*
X94216723Y-100166666D02*
X94311961Y-100119047D01*
X94311961Y-100119047D02*
X94407200Y-100023809D01*
X94407200Y-100023809D02*
X94454819Y-99880952D01*
X94454819Y-99880952D02*
X94454819Y-99642857D01*
X93550057Y-100595238D02*
X93502438Y-100642857D01*
X93502438Y-100642857D02*
X93454819Y-100738095D01*
X93454819Y-100738095D02*
X93454819Y-100976190D01*
X93454819Y-100976190D02*
X93502438Y-101071428D01*
X93502438Y-101071428D02*
X93550057Y-101119047D01*
X93550057Y-101119047D02*
X93645295Y-101166666D01*
X93645295Y-101166666D02*
X93740533Y-101166666D01*
X93740533Y-101166666D02*
X93883390Y-101119047D01*
X93883390Y-101119047D02*
X94454819Y-100547619D01*
X94454819Y-100547619D02*
X94454819Y-101166666D01*
X93550057Y-101547619D02*
X93502438Y-101595238D01*
X93502438Y-101595238D02*
X93454819Y-101690476D01*
X93454819Y-101690476D02*
X93454819Y-101928571D01*
X93454819Y-101928571D02*
X93502438Y-102023809D01*
X93502438Y-102023809D02*
X93550057Y-102071428D01*
X93550057Y-102071428D02*
X93645295Y-102119047D01*
X93645295Y-102119047D02*
X93740533Y-102119047D01*
X93740533Y-102119047D02*
X93883390Y-102071428D01*
X93883390Y-102071428D02*
X94454819Y-101500000D01*
X94454819Y-101500000D02*
X94454819Y-102119047D01*
X99454819Y-98404761D02*
X99454819Y-97928571D01*
X99454819Y-97928571D02*
X98454819Y-97928571D01*
X98931009Y-98738095D02*
X98931009Y-99071428D01*
X99454819Y-99214285D02*
X99454819Y-98738095D01*
X99454819Y-98738095D02*
X98454819Y-98738095D01*
X98454819Y-98738095D02*
X98454819Y-99214285D01*
X99454819Y-99642857D02*
X98454819Y-99642857D01*
X98454819Y-99642857D02*
X98454819Y-99880952D01*
X98454819Y-99880952D02*
X98502438Y-100023809D01*
X98502438Y-100023809D02*
X98597676Y-100119047D01*
X98597676Y-100119047D02*
X98692914Y-100166666D01*
X98692914Y-100166666D02*
X98883390Y-100214285D01*
X98883390Y-100214285D02*
X99026247Y-100214285D01*
X99026247Y-100214285D02*
X99216723Y-100166666D01*
X99216723Y-100166666D02*
X99311961Y-100119047D01*
X99311961Y-100119047D02*
X99407200Y-100023809D01*
X99407200Y-100023809D02*
X99454819Y-99880952D01*
X99454819Y-99880952D02*
X99454819Y-99642857D01*
X98550057Y-100595238D02*
X98502438Y-100642857D01*
X98502438Y-100642857D02*
X98454819Y-100738095D01*
X98454819Y-100738095D02*
X98454819Y-100976190D01*
X98454819Y-100976190D02*
X98502438Y-101071428D01*
X98502438Y-101071428D02*
X98550057Y-101119047D01*
X98550057Y-101119047D02*
X98645295Y-101166666D01*
X98645295Y-101166666D02*
X98740533Y-101166666D01*
X98740533Y-101166666D02*
X98883390Y-101119047D01*
X98883390Y-101119047D02*
X99454819Y-100547619D01*
X99454819Y-100547619D02*
X99454819Y-101166666D01*
X99454819Y-102119047D02*
X99454819Y-101547619D01*
X99454819Y-101833333D02*
X98454819Y-101833333D01*
X98454819Y-101833333D02*
X98597676Y-101738095D01*
X98597676Y-101738095D02*
X98692914Y-101642857D01*
X98692914Y-101642857D02*
X98740533Y-101547619D01*
X143917624Y-103325740D02*
X143441433Y-102992407D01*
X143917624Y-102754312D02*
X142917624Y-102754312D01*
X142917624Y-102754312D02*
X142917624Y-103135264D01*
X142917624Y-103135264D02*
X142965243Y-103230502D01*
X142965243Y-103230502D02*
X143012862Y-103278121D01*
X143012862Y-103278121D02*
X143108100Y-103325740D01*
X143108100Y-103325740D02*
X143250957Y-103325740D01*
X143250957Y-103325740D02*
X143346195Y-103278121D01*
X143346195Y-103278121D02*
X143393814Y-103230502D01*
X143393814Y-103230502D02*
X143441433Y-103135264D01*
X143441433Y-103135264D02*
X143441433Y-102754312D01*
X143012862Y-103706693D02*
X142965243Y-103754312D01*
X142965243Y-103754312D02*
X142917624Y-103849550D01*
X142917624Y-103849550D02*
X142917624Y-104087645D01*
X142917624Y-104087645D02*
X142965243Y-104182883D01*
X142965243Y-104182883D02*
X143012862Y-104230502D01*
X143012862Y-104230502D02*
X143108100Y-104278121D01*
X143108100Y-104278121D02*
X143203338Y-104278121D01*
X143203338Y-104278121D02*
X143346195Y-104230502D01*
X143346195Y-104230502D02*
X143917624Y-103659074D01*
X143917624Y-103659074D02*
X143917624Y-104278121D01*
X143346195Y-104849550D02*
X143298576Y-104754312D01*
X143298576Y-104754312D02*
X143250957Y-104706693D01*
X143250957Y-104706693D02*
X143155719Y-104659074D01*
X143155719Y-104659074D02*
X143108100Y-104659074D01*
X143108100Y-104659074D02*
X143012862Y-104706693D01*
X143012862Y-104706693D02*
X142965243Y-104754312D01*
X142965243Y-104754312D02*
X142917624Y-104849550D01*
X142917624Y-104849550D02*
X142917624Y-105040026D01*
X142917624Y-105040026D02*
X142965243Y-105135264D01*
X142965243Y-105135264D02*
X143012862Y-105182883D01*
X143012862Y-105182883D02*
X143108100Y-105230502D01*
X143108100Y-105230502D02*
X143155719Y-105230502D01*
X143155719Y-105230502D02*
X143250957Y-105182883D01*
X143250957Y-105182883D02*
X143298576Y-105135264D01*
X143298576Y-105135264D02*
X143346195Y-105040026D01*
X143346195Y-105040026D02*
X143346195Y-104849550D01*
X143346195Y-104849550D02*
X143393814Y-104754312D01*
X143393814Y-104754312D02*
X143441433Y-104706693D01*
X143441433Y-104706693D02*
X143536671Y-104659074D01*
X143536671Y-104659074D02*
X143727147Y-104659074D01*
X143727147Y-104659074D02*
X143822385Y-104706693D01*
X143822385Y-104706693D02*
X143870005Y-104754312D01*
X143870005Y-104754312D02*
X143917624Y-104849550D01*
X143917624Y-104849550D02*
X143917624Y-105040026D01*
X143917624Y-105040026D02*
X143870005Y-105135264D01*
X143870005Y-105135264D02*
X143822385Y-105182883D01*
X143822385Y-105182883D02*
X143727147Y-105230502D01*
X143727147Y-105230502D02*
X143536671Y-105230502D01*
X143536671Y-105230502D02*
X143441433Y-105182883D01*
X143441433Y-105182883D02*
X143393814Y-105135264D01*
X143393814Y-105135264D02*
X143346195Y-105040026D01*
X176954819Y-98404761D02*
X176954819Y-97928571D01*
X176954819Y-97928571D02*
X175954819Y-97928571D01*
X176431009Y-98738095D02*
X176431009Y-99071428D01*
X176954819Y-99214285D02*
X176954819Y-98738095D01*
X176954819Y-98738095D02*
X175954819Y-98738095D01*
X175954819Y-98738095D02*
X175954819Y-99214285D01*
X176954819Y-99642857D02*
X175954819Y-99642857D01*
X175954819Y-99642857D02*
X175954819Y-99880952D01*
X175954819Y-99880952D02*
X176002438Y-100023809D01*
X176002438Y-100023809D02*
X176097676Y-100119047D01*
X176097676Y-100119047D02*
X176192914Y-100166666D01*
X176192914Y-100166666D02*
X176383390Y-100214285D01*
X176383390Y-100214285D02*
X176526247Y-100214285D01*
X176526247Y-100214285D02*
X176716723Y-100166666D01*
X176716723Y-100166666D02*
X176811961Y-100119047D01*
X176811961Y-100119047D02*
X176907200Y-100023809D01*
X176907200Y-100023809D02*
X176954819Y-99880952D01*
X176954819Y-99880952D02*
X176954819Y-99642857D01*
X176954819Y-101166666D02*
X176954819Y-100595238D01*
X176954819Y-100880952D02*
X175954819Y-100880952D01*
X175954819Y-100880952D02*
X176097676Y-100785714D01*
X176097676Y-100785714D02*
X176192914Y-100690476D01*
X176192914Y-100690476D02*
X176240533Y-100595238D01*
X176050057Y-101547619D02*
X176002438Y-101595238D01*
X176002438Y-101595238D02*
X175954819Y-101690476D01*
X175954819Y-101690476D02*
X175954819Y-101928571D01*
X175954819Y-101928571D02*
X176002438Y-102023809D01*
X176002438Y-102023809D02*
X176050057Y-102071428D01*
X176050057Y-102071428D02*
X176145295Y-102119047D01*
X176145295Y-102119047D02*
X176240533Y-102119047D01*
X176240533Y-102119047D02*
X176383390Y-102071428D01*
X176383390Y-102071428D02*
X176954819Y-101500000D01*
X176954819Y-101500000D02*
X176954819Y-102119047D01*
X216695121Y-103869523D02*
X216218930Y-103536190D01*
X216695121Y-103298095D02*
X215695121Y-103298095D01*
X215695121Y-103298095D02*
X215695121Y-103679047D01*
X215695121Y-103679047D02*
X215742740Y-103774285D01*
X215742740Y-103774285D02*
X215790359Y-103821904D01*
X215790359Y-103821904D02*
X215885597Y-103869523D01*
X215885597Y-103869523D02*
X216028454Y-103869523D01*
X216028454Y-103869523D02*
X216123692Y-103821904D01*
X216123692Y-103821904D02*
X216171311Y-103774285D01*
X216171311Y-103774285D02*
X216218930Y-103679047D01*
X216218930Y-103679047D02*
X216218930Y-103298095D01*
X216695121Y-104821904D02*
X216695121Y-104250476D01*
X216695121Y-104536190D02*
X215695121Y-104536190D01*
X215695121Y-104536190D02*
X215837978Y-104440952D01*
X215837978Y-104440952D02*
X215933216Y-104345714D01*
X215933216Y-104345714D02*
X215980835Y-104250476D01*
D12*
%TO.C,G\u002A\u002A\u002A*%
G36*
X174311869Y-86842763D02*
G01*
X174311869Y-88453494D01*
X173919511Y-88453494D01*
X173527154Y-88453494D01*
X173527154Y-86842763D01*
X173527154Y-85232031D01*
X173919511Y-85232031D01*
X174311869Y-85232031D01*
X174311869Y-86842763D01*
G37*
G36*
X174311869Y-89444714D02*
G01*
X174311869Y-89816421D01*
X173919511Y-89816421D01*
X173527154Y-89816421D01*
X173527154Y-89444714D01*
X173527154Y-89073007D01*
X173919511Y-89073007D01*
X174311869Y-89073007D01*
X174311869Y-89444714D01*
G37*
G36*
X180052682Y-87524226D02*
G01*
X180052682Y-89816421D01*
X179660324Y-89816421D01*
X179267967Y-89816421D01*
X179267967Y-87524226D01*
X179267967Y-85232031D01*
X179660324Y-85232031D01*
X180052682Y-85232031D01*
X180052682Y-87524226D01*
G37*
G36*
X195333983Y-86842763D02*
G01*
X195333983Y-88453494D01*
X194941625Y-88453494D01*
X194549267Y-88453494D01*
X194549267Y-86842763D01*
X194549267Y-85232031D01*
X194941625Y-85232031D01*
X195333983Y-85232031D01*
X195333983Y-86842763D01*
G37*
G36*
X195333983Y-89444714D02*
G01*
X195333983Y-89816421D01*
X194941625Y-89816421D01*
X194549267Y-89816421D01*
X194549267Y-89444714D01*
X194549267Y-89073007D01*
X194941625Y-89073007D01*
X195333983Y-89073007D01*
X195333983Y-89444714D01*
G37*
G36*
X173072845Y-85624389D02*
G01*
X173072845Y-86016746D01*
X171503414Y-86016746D01*
X169933983Y-86016746D01*
X169933983Y-87772031D01*
X169933983Y-89527315D01*
X169519850Y-89527315D01*
X169105718Y-89527315D01*
X169117167Y-87479326D01*
X169128617Y-85431336D01*
X169244497Y-85331684D01*
X169360378Y-85232031D01*
X171216611Y-85232031D01*
X173072845Y-85232031D01*
X173072845Y-85624389D01*
G37*
G36*
X197646828Y-86450405D02*
G01*
X197646828Y-87668779D01*
X198328292Y-87668779D01*
X199009755Y-87668779D01*
X199009755Y-88061137D01*
X199009755Y-88453494D01*
X198328292Y-88453494D01*
X197646828Y-88453494D01*
X197646828Y-88990405D01*
X197646828Y-89527315D01*
X197233820Y-89527315D01*
X196820812Y-89527315D01*
X196820812Y-88990405D01*
X196820812Y-88453494D01*
X196325202Y-88453494D01*
X195829593Y-88453494D01*
X195829593Y-88061137D01*
X195829593Y-87668779D01*
X196325202Y-87668779D01*
X196820812Y-87668779D01*
X196820812Y-86450405D01*
X196820812Y-85232031D01*
X197233820Y-85232031D01*
X197646828Y-85232031D01*
X197646828Y-86450405D01*
G37*
G36*
X184327327Y-85951705D02*
G01*
X184496475Y-85994964D01*
X184680666Y-86077841D01*
X184876765Y-86242745D01*
X185029112Y-86467006D01*
X185050085Y-86515618D01*
X185090102Y-86711756D01*
X185085123Y-86934031D01*
X185037962Y-87151128D01*
X184951432Y-87331729D01*
X184870427Y-87428094D01*
X184679040Y-87574658D01*
X184453883Y-87673701D01*
X184224064Y-87710080D01*
X184097569Y-87698510D01*
X183866746Y-87625456D01*
X183656752Y-87498149D01*
X183496696Y-87331729D01*
X183484630Y-87313581D01*
X183396748Y-87113166D01*
X183357034Y-86881207D01*
X183367782Y-86648745D01*
X183431287Y-86446823D01*
X183531435Y-86288595D01*
X183717241Y-86107803D01*
X183940200Y-85996003D01*
X184055669Y-85962939D01*
X184193825Y-85941005D01*
X184327327Y-85951705D01*
G37*
G36*
X194094959Y-85624389D02*
G01*
X194094959Y-86016746D01*
X192525528Y-86016746D01*
X190956097Y-86016746D01*
X190956097Y-87772031D01*
X190956097Y-89527315D01*
X190543089Y-89527315D01*
X190130080Y-89527315D01*
X190130080Y-87568216D01*
X190130863Y-87097534D01*
X190133522Y-86643517D01*
X190138020Y-86261233D01*
X190144313Y-85952855D01*
X190152354Y-85720551D01*
X190162099Y-85566493D01*
X190173502Y-85492850D01*
X190224382Y-85398991D01*
X190307730Y-85305226D01*
X190320450Y-85296225D01*
X190352859Y-85280684D01*
X190401086Y-85267928D01*
X190472549Y-85257680D01*
X190574669Y-85249665D01*
X190714867Y-85243604D01*
X190900564Y-85239222D01*
X191139180Y-85236243D01*
X191438136Y-85234388D01*
X191804851Y-85233383D01*
X192246747Y-85232949D01*
X194094959Y-85232031D01*
X194094959Y-85624389D01*
G37*
G36*
X185768981Y-85317677D02*
G01*
X185807775Y-85346665D01*
X185826837Y-85364537D01*
X185940802Y-85503445D01*
X186059620Y-85692889D01*
X186169091Y-85908171D01*
X186255015Y-86124592D01*
X186286191Y-86233083D01*
X186337401Y-86538933D01*
X186351902Y-86873728D01*
X186329355Y-87205257D01*
X186269424Y-87501308D01*
X186266089Y-87512239D01*
X186216885Y-87638276D01*
X186143301Y-87791457D01*
X186055304Y-87954823D01*
X185962860Y-88111411D01*
X185875933Y-88244260D01*
X185804491Y-88336408D01*
X185758498Y-88370893D01*
X185734197Y-88355538D01*
X185660880Y-88292117D01*
X185553291Y-88190898D01*
X185424831Y-88064200D01*
X185120184Y-87757507D01*
X185226477Y-87631185D01*
X185307928Y-87513066D01*
X185409176Y-87294462D01*
X185478612Y-87052263D01*
X185504389Y-86821006D01*
X185504377Y-86816315D01*
X185469203Y-86544563D01*
X185374763Y-86270394D01*
X185233750Y-86030862D01*
X185122233Y-85884655D01*
X185424805Y-85580051D01*
X185482938Y-85521657D01*
X185600430Y-85406613D01*
X185678485Y-85339621D01*
X185730276Y-85312652D01*
X185768981Y-85317677D01*
G37*
G36*
X186686099Y-84372642D02*
G01*
X186752686Y-84433054D01*
X186845502Y-84539950D01*
X186952231Y-84677799D01*
X187060555Y-84831068D01*
X187158159Y-84984226D01*
X187209161Y-85072853D01*
X187428466Y-85550360D01*
X187574419Y-86055429D01*
X187646209Y-86577817D01*
X187643024Y-87107282D01*
X187564055Y-87633579D01*
X187408490Y-88146467D01*
X187366989Y-88246324D01*
X187270959Y-88444263D01*
X187157859Y-88647164D01*
X187036586Y-88841836D01*
X186916037Y-89015087D01*
X186805112Y-89153725D01*
X186712708Y-89244557D01*
X186647722Y-89274391D01*
X186622522Y-89260731D01*
X186546919Y-89197590D01*
X186439581Y-89095181D01*
X186314929Y-88966831D01*
X186030997Y-88664390D01*
X186219133Y-88414113D01*
X186423192Y-88105744D01*
X186608460Y-87705073D01*
X186717429Y-87280576D01*
X186753505Y-86822112D01*
X186729375Y-86436156D01*
X186635155Y-86013635D01*
X186466084Y-85615089D01*
X186218290Y-85228988D01*
X186029309Y-84977589D01*
X186333702Y-84671152D01*
X186429907Y-84575746D01*
X186544157Y-84466721D01*
X186627616Y-84392269D01*
X186666885Y-84364714D01*
X186686099Y-84372642D01*
G37*
G36*
X187749859Y-83587887D02*
G01*
X188068823Y-83986212D01*
X188382662Y-84493306D01*
X188628057Y-85032358D01*
X188805000Y-85595622D01*
X188913486Y-86175347D01*
X188953506Y-86763788D01*
X188925056Y-87353197D01*
X188828126Y-87935825D01*
X188662712Y-88503924D01*
X188428806Y-89049748D01*
X188126401Y-89565547D01*
X187755491Y-90043576D01*
X187572234Y-90250080D01*
X187252997Y-89931912D01*
X186933761Y-89613744D01*
X187099269Y-89415652D01*
X187142018Y-89363848D01*
X187415268Y-88992741D01*
X187636437Y-88608398D01*
X187816981Y-88188338D01*
X187968355Y-87710080D01*
X187996071Y-87582301D01*
X188027480Y-87325853D01*
X188042944Y-87027099D01*
X188042701Y-86709867D01*
X188026989Y-86397988D01*
X187996047Y-86115289D01*
X187950113Y-85885598D01*
X187878257Y-85648903D01*
X187722256Y-85243240D01*
X187535884Y-84863961D01*
X187328815Y-84529801D01*
X187110718Y-84259496D01*
X187084492Y-84230430D01*
X187017898Y-84139776D01*
X186991219Y-84074613D01*
X187004680Y-84043536D01*
X187065960Y-83960119D01*
X187165454Y-83844820D01*
X187290650Y-83712760D01*
X187590080Y-83409921D01*
X187749859Y-83587887D01*
G37*
G36*
X175839999Y-86450405D02*
G01*
X175839999Y-87668779D01*
X176549724Y-87668779D01*
X176623859Y-87668730D01*
X176870422Y-87667206D01*
X177052858Y-87662489D01*
X177185906Y-87653157D01*
X177284308Y-87637788D01*
X177362804Y-87614959D01*
X177436134Y-87583247D01*
X177524867Y-87537893D01*
X177606167Y-87484656D01*
X177668190Y-87420292D01*
X177713537Y-87334592D01*
X177744807Y-87217345D01*
X177764602Y-87058342D01*
X177775522Y-86847373D01*
X177780167Y-86574230D01*
X177781137Y-86228701D01*
X177781137Y-85232031D01*
X178196609Y-85232031D01*
X178612080Y-85232031D01*
X178599292Y-86336828D01*
X178595943Y-86615916D01*
X178591855Y-86887157D01*
X178586784Y-87096184D01*
X178579726Y-87254155D01*
X178569675Y-87372232D01*
X178555630Y-87461574D01*
X178536585Y-87533339D01*
X178511537Y-87598687D01*
X178479483Y-87668779D01*
X178344955Y-87893782D01*
X178120404Y-88127204D01*
X177828238Y-88314803D01*
X177595284Y-88432844D01*
X176433545Y-88445497D01*
X175271806Y-88458149D01*
X175153220Y-88356184D01*
X175034633Y-88254218D01*
X175022837Y-86743124D01*
X175011042Y-85232031D01*
X175425520Y-85232031D01*
X175839999Y-85232031D01*
X175839999Y-86450405D01*
G37*
G36*
X182761854Y-85234054D02*
G01*
X182921971Y-85236350D01*
X183028783Y-85239698D01*
X183067641Y-85243834D01*
X183063134Y-85249369D01*
X183013221Y-85300425D01*
X182913886Y-85398908D01*
X182772370Y-85537729D01*
X182595912Y-85709802D01*
X182391751Y-85908040D01*
X182167129Y-86125355D01*
X181266616Y-86995072D01*
X182164876Y-87713958D01*
X182193818Y-87737136D01*
X182425249Y-87923593D01*
X182633213Y-88093074D01*
X182809459Y-88238706D01*
X182945737Y-88353622D01*
X183033797Y-88430949D01*
X183065389Y-88463820D01*
X183054064Y-88469770D01*
X182977032Y-88479677D01*
X182839120Y-88487613D01*
X182654410Y-88492884D01*
X182436984Y-88494795D01*
X181806326Y-88494795D01*
X181084382Y-87918201D01*
X181075785Y-87911330D01*
X180835159Y-87715306D01*
X180628071Y-87539419D01*
X180462686Y-87390987D01*
X180347167Y-87277328D01*
X180289678Y-87205762D01*
X180281901Y-87191067D01*
X180247254Y-87114952D01*
X180231344Y-87043522D01*
X180239315Y-86969080D01*
X180276311Y-86883929D01*
X180347475Y-86780372D01*
X180457951Y-86650713D01*
X180612884Y-86487255D01*
X180817418Y-86282301D01*
X181076696Y-86028154D01*
X181890568Y-85234196D01*
X182479105Y-85233113D01*
X182563079Y-85233080D01*
X182761854Y-85234054D01*
G37*
G36*
X201900812Y-85624389D02*
G01*
X201900812Y-86016746D01*
X201119094Y-86016746D01*
X200337377Y-86016746D01*
X200251777Y-86125568D01*
X200222385Y-86167677D01*
X200197221Y-86224833D01*
X200180867Y-86304097D01*
X200171474Y-86420589D01*
X200167194Y-86589429D01*
X200166178Y-86825739D01*
X200166351Y-86905924D01*
X200170961Y-87161772D01*
X200184161Y-87350162D01*
X200209034Y-87482974D01*
X200248665Y-87572085D01*
X200306138Y-87629375D01*
X200384538Y-87666723D01*
X200396826Y-87670456D01*
X200505079Y-87687643D01*
X200671284Y-87699913D01*
X200877883Y-87707370D01*
X201107321Y-87710122D01*
X201342040Y-87708276D01*
X201564484Y-87701937D01*
X201757096Y-87691212D01*
X201902321Y-87676208D01*
X201982600Y-87657031D01*
X202064263Y-87596949D01*
X202136735Y-87479362D01*
X202155273Y-87346355D01*
X202118011Y-87222157D01*
X202023086Y-87130996D01*
X201970064Y-87119416D01*
X201845112Y-87107889D01*
X201665471Y-87098752D01*
X201445964Y-87092735D01*
X201201414Y-87090567D01*
X200455284Y-87090567D01*
X200455284Y-86695272D01*
X200455284Y-86299976D01*
X201332926Y-86313239D01*
X201410502Y-86314437D01*
X201687499Y-86319546D01*
X201897347Y-86325730D01*
X202052516Y-86334215D01*
X202165473Y-86346225D01*
X202248689Y-86362983D01*
X202314632Y-86385716D01*
X202375772Y-86415647D01*
X202387293Y-86421939D01*
X202624793Y-86595752D01*
X202794905Y-86817282D01*
X202897494Y-87086291D01*
X202932425Y-87402540D01*
X202924546Y-87560331D01*
X202858503Y-87843430D01*
X202726960Y-88078062D01*
X202531777Y-88261429D01*
X202274816Y-88390733D01*
X202270390Y-88392270D01*
X202189572Y-88413466D01*
X202080270Y-88429444D01*
X201931668Y-88440800D01*
X201732947Y-88448130D01*
X201473290Y-88452028D01*
X201141880Y-88453091D01*
X201138272Y-88453089D01*
X200832715Y-88452620D01*
X200597363Y-88450808D01*
X200419945Y-88446603D01*
X200288193Y-88438954D01*
X200189837Y-88426808D01*
X200112610Y-88409114D01*
X200044240Y-88384822D01*
X199972461Y-88352879D01*
X199763618Y-88215941D01*
X199583084Y-88010786D01*
X199455866Y-87758445D01*
X199449950Y-87739518D01*
X199428631Y-87617932D01*
X199413726Y-87427521D01*
X199404973Y-87163757D01*
X199402113Y-86822112D01*
X199402154Y-86684281D01*
X199403102Y-86444791D01*
X199406566Y-86266865D01*
X199414179Y-86136192D01*
X199427576Y-86038457D01*
X199448391Y-85959348D01*
X199478256Y-85884553D01*
X199518806Y-85799758D01*
X199670411Y-85572907D01*
X199879266Y-85393176D01*
X200127823Y-85280150D01*
X200130896Y-85279315D01*
X200220452Y-85266520D01*
X200376141Y-85255049D01*
X200582476Y-85245619D01*
X200823965Y-85238948D01*
X201085121Y-85235756D01*
X201900812Y-85232031D01*
X201900812Y-85624389D01*
G37*
%TO.C,R26*%
D13*
X101664117Y-103457088D02*
X101664117Y-103931604D01*
X100619117Y-103457088D02*
X100619117Y-103931604D01*
%TO.C,LED26*%
D10*
X158199869Y-102144702D02*
X158199869Y-98644702D01*
X158319869Y-98644702D02*
X158199869Y-98644702D01*
X158319869Y-102144702D02*
X158199869Y-102144702D01*
X160999869Y-98644702D02*
X160879869Y-98644702D01*
X160999869Y-98644702D02*
X160999869Y-102144702D01*
X160999869Y-98764702D02*
X160879869Y-98644702D01*
X160999869Y-98884702D02*
X160999869Y-98764702D01*
X160999869Y-102144702D02*
X160879869Y-102144702D01*
D14*
X161029869Y-98624702D02*
G75*
G02*
X160969869Y-98624702I-30000J0D01*
G01*
X160969869Y-98624702D02*
G75*
G02*
X161029869Y-98624702I30000J0D01*
G01*
D12*
G36*
X158149859Y-98385910D02*
G01*
X158149859Y-97685912D01*
X158849858Y-97685912D01*
X158149859Y-98385910D01*
G37*
%TO.C,LED30*%
D10*
X124035611Y-102179702D02*
X124035611Y-98679702D01*
X124155611Y-98679702D02*
X124035611Y-98679702D01*
X124155611Y-102179702D02*
X124035611Y-102179702D01*
X126835611Y-98679702D02*
X126715611Y-98679702D01*
X126835611Y-98679702D02*
X126835611Y-102179702D01*
X126835611Y-98799702D02*
X126715611Y-98679702D01*
X126835611Y-98919702D02*
X126835611Y-98799702D01*
X126835611Y-102179702D02*
X126715611Y-102179702D01*
D14*
X126865611Y-98659702D02*
G75*
G02*
X126805611Y-98659702I-30000J0D01*
G01*
X126805611Y-98659702D02*
G75*
G02*
X126865611Y-98659702I30000J0D01*
G01*
D12*
G36*
X123985601Y-98420910D02*
G01*
X123985601Y-97720912D01*
X124685600Y-97720912D01*
X123985601Y-98420910D01*
G37*
%TO.C,LED9*%
D10*
X177540396Y-102144702D02*
X177540396Y-98644702D01*
X177660396Y-98644702D02*
X177540396Y-98644702D01*
X177660396Y-102144702D02*
X177540396Y-102144702D01*
X180340396Y-98644702D02*
X180220396Y-98644702D01*
X180340396Y-98644702D02*
X180340396Y-102144702D01*
X180340396Y-98764702D02*
X180220396Y-98644702D01*
X180340396Y-98884702D02*
X180340396Y-98764702D01*
X180340396Y-102144702D02*
X180220396Y-102144702D01*
D14*
X180370396Y-98624702D02*
G75*
G02*
X180310396Y-98624702I-30000J0D01*
G01*
X180310396Y-98624702D02*
G75*
G02*
X180370396Y-98624702I30000J0D01*
G01*
D12*
G36*
X177490386Y-98385910D02*
G01*
X177490386Y-97685912D01*
X178190385Y-97685912D01*
X177490386Y-98385910D01*
G37*
%TO.C,LED2*%
D10*
X211458503Y-102184490D02*
X211458503Y-98684490D01*
X211578503Y-98684490D02*
X211458503Y-98684490D01*
X211578503Y-102184490D02*
X211458503Y-102184490D01*
X214258503Y-98684490D02*
X214138503Y-98684490D01*
X214258503Y-98684490D02*
X214258503Y-102184490D01*
X214258503Y-98804490D02*
X214138503Y-98684490D01*
X214258503Y-98924490D02*
X214258503Y-98804490D01*
X214258503Y-102184490D02*
X214138503Y-102184490D01*
D14*
X214288503Y-98664490D02*
G75*
G02*
X214228503Y-98664490I-30000J0D01*
G01*
X214228503Y-98664490D02*
G75*
G02*
X214288503Y-98664490I30000J0D01*
G01*
D12*
G36*
X211408493Y-98425698D02*
G01*
X211408493Y-97725700D01*
X212108492Y-97725700D01*
X211408493Y-98425698D01*
G37*
%TO.C,LED16*%
D10*
X133834208Y-102179702D02*
X133834208Y-98679702D01*
X133954208Y-98679702D02*
X133834208Y-98679702D01*
X133954208Y-102179702D02*
X133834208Y-102179702D01*
X136634208Y-98679702D02*
X136514208Y-98679702D01*
X136634208Y-98679702D02*
X136634208Y-102179702D01*
X136634208Y-98799702D02*
X136514208Y-98679702D01*
X136634208Y-98919702D02*
X136634208Y-98799702D01*
X136634208Y-102179702D02*
X136514208Y-102179702D01*
D14*
X136664208Y-98659702D02*
G75*
G02*
X136604208Y-98659702I-30000J0D01*
G01*
X136604208Y-98659702D02*
G75*
G02*
X136664208Y-98659702I30000J0D01*
G01*
D12*
G36*
X133784198Y-98420910D02*
G01*
X133784198Y-97720912D01*
X134484197Y-97720912D01*
X133784198Y-98420910D01*
G37*
%TO.C,R30*%
D13*
X139523507Y-103404588D02*
X139523507Y-103879104D01*
X140568507Y-103404588D02*
X140568507Y-103879104D01*
%TO.C,R22*%
X207584033Y-103435990D02*
X207584033Y-103910506D01*
X208629033Y-103435990D02*
X208629033Y-103910506D01*
%TO.C,R34*%
X187956494Y-103467062D02*
X187956494Y-103941578D01*
X189001494Y-103467062D02*
X189001494Y-103941578D01*
%TO.C,LED31*%
D10*
X119083812Y-102179702D02*
X119083812Y-98679702D01*
X119203812Y-98679702D02*
X119083812Y-98679702D01*
X119203812Y-102179702D02*
X119083812Y-102179702D01*
X121883812Y-98679702D02*
X121763812Y-98679702D01*
X121883812Y-98679702D02*
X121883812Y-102179702D01*
X121883812Y-98799702D02*
X121763812Y-98679702D01*
X121883812Y-98919702D02*
X121883812Y-98799702D01*
X121883812Y-102179702D02*
X121763812Y-102179702D01*
D14*
X121913812Y-98659702D02*
G75*
G02*
X121853812Y-98659702I-30000J0D01*
G01*
X121853812Y-98659702D02*
G75*
G02*
X121913812Y-98659702I30000J0D01*
G01*
D12*
G36*
X119033802Y-98420910D02*
G01*
X119033802Y-97720912D01*
X119733801Y-97720912D01*
X119033802Y-98420910D01*
G37*
%TO.C,LED17*%
D10*
X197050349Y-102148300D02*
X197050349Y-98648300D01*
X197170349Y-98648300D02*
X197050349Y-98648300D01*
X197170349Y-102148300D02*
X197050349Y-102148300D01*
X199850349Y-98648300D02*
X199730349Y-98648300D01*
X199850349Y-98648300D02*
X199850349Y-102148300D01*
X199850349Y-98768300D02*
X199730349Y-98648300D01*
X199850349Y-98888300D02*
X199850349Y-98768300D01*
X199850349Y-102148300D02*
X199730349Y-102148300D01*
D14*
X199880349Y-98628300D02*
G75*
G02*
X199820349Y-98628300I-30000J0D01*
G01*
X199820349Y-98628300D02*
G75*
G02*
X199880349Y-98628300I30000J0D01*
G01*
D12*
G36*
X197000339Y-98389508D02*
G01*
X197000339Y-97689510D01*
X197700338Y-97689510D01*
X197000339Y-98389508D01*
G37*
%TO.C,R41*%
D13*
X158945702Y-103439588D02*
X158945702Y-103914104D01*
X159990702Y-103439588D02*
X159990702Y-103914104D01*
%TO.C,LED19*%
D10*
X187236580Y-102117228D02*
X187236580Y-98617228D01*
X187356580Y-98617228D02*
X187236580Y-98617228D01*
X187356580Y-102117228D02*
X187236580Y-102117228D01*
X190036580Y-98617228D02*
X189916580Y-98617228D01*
X190036580Y-98617228D02*
X190036580Y-102117228D01*
X190036580Y-98737228D02*
X189916580Y-98617228D01*
X190036580Y-98857228D02*
X190036580Y-98737228D01*
X190036580Y-102117228D02*
X189916580Y-102117228D01*
D14*
X190066580Y-98597228D02*
G75*
G02*
X190006580Y-98597228I-30000J0D01*
G01*
X190006580Y-98597228D02*
G75*
G02*
X190066580Y-98597228I30000J0D01*
G01*
D12*
G36*
X187186570Y-98358436D02*
G01*
X187186570Y-97658438D01*
X187886569Y-97658438D01*
X187186570Y-98358436D01*
G37*
%TO.C,R23*%
D13*
X202739648Y-103435990D02*
X202739648Y-103910506D01*
X203784648Y-103435990D02*
X203784648Y-103910506D01*
%TO.C,R31*%
X134641708Y-103404588D02*
X134641708Y-103879104D01*
X135686708Y-103404588D02*
X135686708Y-103879104D01*
%TO.C,LED5*%
D10*
X109370215Y-102127202D02*
X109370215Y-98627202D01*
X109490215Y-98627202D02*
X109370215Y-98627202D01*
X109490215Y-102127202D02*
X109370215Y-102127202D01*
X112170215Y-98627202D02*
X112050215Y-98627202D01*
X112170215Y-98627202D02*
X112170215Y-102127202D01*
X112170215Y-98747202D02*
X112050215Y-98627202D01*
X112170215Y-98867202D02*
X112170215Y-98747202D01*
X112170215Y-102127202D02*
X112050215Y-102127202D01*
D14*
X112200215Y-98607202D02*
G75*
G02*
X112140215Y-98607202I-30000J0D01*
G01*
X112140215Y-98607202D02*
G75*
G02*
X112200215Y-98607202I30000J0D01*
G01*
D12*
G36*
X109320205Y-98368410D02*
G01*
X109320205Y-97668412D01*
X110020204Y-97668412D01*
X109320205Y-98368410D01*
G37*
%TO.C,R44*%
D13*
X129724909Y-103404588D02*
X129724909Y-103879104D01*
X130769909Y-103404588D02*
X130769909Y-103879104D01*
%TO.C,R29*%
X168789299Y-103439588D02*
X168789299Y-103914104D01*
X169834299Y-103439588D02*
X169834299Y-103914104D01*
%TO.C,R33*%
X192925878Y-103435990D02*
X192925878Y-103910506D01*
X193970878Y-103435990D02*
X193970878Y-103910506D01*
%TO.C,R36*%
X95718985Y-103457088D02*
X95718985Y-103931604D01*
X96763985Y-103457088D02*
X96763985Y-103931604D01*
%TO.C,R17*%
X115059513Y-103457088D02*
X115059513Y-103931604D01*
X116104513Y-103457088D02*
X116104513Y-103931604D01*
%TO.C,R45*%
X124773111Y-103404588D02*
X124773111Y-103879104D01*
X125818111Y-103404588D02*
X125818111Y-103879104D01*
%TO.C,R6*%
X212386750Y-103472180D02*
X212386750Y-103946696D01*
X213431750Y-103472180D02*
X213431750Y-103946696D01*
%TO.C,R20*%
X110289382Y-103457088D02*
X110289382Y-103931604D01*
X111334382Y-103457088D02*
X111334382Y-103931604D01*
%TO.C,LED15*%
D10*
X138681007Y-102179702D02*
X138681007Y-98679702D01*
X138801007Y-98679702D02*
X138681007Y-98679702D01*
X138801007Y-102179702D02*
X138681007Y-102179702D01*
X141481007Y-98679702D02*
X141361007Y-98679702D01*
X141481007Y-98679702D02*
X141481007Y-102179702D01*
X141481007Y-98799702D02*
X141361007Y-98679702D01*
X141481007Y-98919702D02*
X141481007Y-98799702D01*
X141481007Y-102179702D02*
X141361007Y-102179702D01*
D14*
X141511007Y-98659702D02*
G75*
G02*
X141451007Y-98659702I-30000J0D01*
G01*
X141451007Y-98659702D02*
G75*
G02*
X141511007Y-98659702I30000J0D01*
G01*
D12*
G36*
X138630997Y-98420910D02*
G01*
X138630997Y-97720912D01*
X139330996Y-97720912D01*
X138630997Y-98420910D01*
G37*
%TO.C,LED29*%
D10*
X128952409Y-102179702D02*
X128952409Y-98679702D01*
X129072409Y-98679702D02*
X128952409Y-98679702D01*
X129072409Y-102179702D02*
X128952409Y-102179702D01*
X131752409Y-98679702D02*
X131632409Y-98679702D01*
X131752409Y-98679702D02*
X131752409Y-102179702D01*
X131752409Y-98799702D02*
X131632409Y-98679702D01*
X131752409Y-98919702D02*
X131752409Y-98799702D01*
X131752409Y-102179702D02*
X131632409Y-102179702D01*
D14*
X131782409Y-98659702D02*
G75*
G02*
X131722409Y-98659702I-30000J0D01*
G01*
X131722409Y-98659702D02*
G75*
G02*
X131782409Y-98659702I30000J0D01*
G01*
D12*
G36*
X128902399Y-98420910D02*
G01*
X128902399Y-97720912D01*
X129602398Y-97720912D01*
X128902399Y-98420910D01*
G37*
%TO.C,LED25*%
D10*
X163100000Y-102144702D02*
X163100000Y-98644702D01*
X163220000Y-98644702D02*
X163100000Y-98644702D01*
X163220000Y-102144702D02*
X163100000Y-102144702D01*
X165900000Y-98644702D02*
X165780000Y-98644702D01*
X165900000Y-98644702D02*
X165900000Y-102144702D01*
X165900000Y-98764702D02*
X165780000Y-98644702D01*
X165900000Y-98884702D02*
X165900000Y-98764702D01*
X165900000Y-102144702D02*
X165780000Y-102144702D01*
D14*
X165930000Y-98624702D02*
G75*
G02*
X165870000Y-98624702I-30000J0D01*
G01*
X165870000Y-98624702D02*
G75*
G02*
X165930000Y-98624702I30000J0D01*
G01*
D12*
G36*
X163049990Y-98385910D02*
G01*
X163049990Y-97685912D01*
X163749989Y-97685912D01*
X163049990Y-98385910D01*
G37*
%TO.C,LED11*%
D10*
X99786617Y-102127202D02*
X99786617Y-98627202D01*
X99906617Y-98627202D02*
X99786617Y-98627202D01*
X99906617Y-102127202D02*
X99786617Y-102127202D01*
X102586617Y-98627202D02*
X102466617Y-98627202D01*
X102586617Y-98627202D02*
X102586617Y-102127202D01*
X102586617Y-98747202D02*
X102466617Y-98627202D01*
X102586617Y-98867202D02*
X102586617Y-98747202D01*
X102586617Y-102127202D02*
X102466617Y-102127202D01*
D14*
X102616617Y-98607202D02*
G75*
G02*
X102556617Y-98607202I-30000J0D01*
G01*
X102556617Y-98607202D02*
G75*
G02*
X102616617Y-98607202I30000J0D01*
G01*
D12*
G36*
X99736607Y-98368410D02*
G01*
X99736607Y-97668412D01*
X100436606Y-97668412D01*
X99736607Y-98368410D01*
G37*
%TO.C,R27*%
D13*
X173646098Y-103439588D02*
X173646098Y-103914104D01*
X174691098Y-103439588D02*
X174691098Y-103914104D01*
%TO.C,LED14*%
D10*
X167956799Y-102144702D02*
X167956799Y-98644702D01*
X168076799Y-98644702D02*
X167956799Y-98644702D01*
X168076799Y-102144702D02*
X167956799Y-102144702D01*
X170756799Y-98644702D02*
X170636799Y-98644702D01*
X170756799Y-98644702D02*
X170756799Y-102144702D01*
X170756799Y-98764702D02*
X170636799Y-98644702D01*
X170756799Y-98884702D02*
X170756799Y-98764702D01*
X170756799Y-102144702D02*
X170636799Y-102144702D01*
D14*
X170786799Y-98624702D02*
G75*
G02*
X170726799Y-98624702I-30000J0D01*
G01*
X170726799Y-98624702D02*
G75*
G02*
X170786799Y-98624702I30000J0D01*
G01*
D12*
G36*
X167906789Y-98385910D02*
G01*
X167906789Y-97685912D01*
X168606788Y-97685912D01*
X167906789Y-98385910D01*
G37*
%TO.C,R24*%
D13*
X178459563Y-103439588D02*
X178459563Y-103914104D01*
X179504563Y-103439588D02*
X179504563Y-103914104D01*
%TO.C,R38*%
X85788721Y-103457088D02*
X85788721Y-103931604D01*
X86833721Y-103457088D02*
X86833721Y-103931604D01*
%TO.C,R21*%
X149182104Y-103404588D02*
X149182104Y-103879104D01*
X150227104Y-103404588D02*
X150227104Y-103879104D01*
%TO.C,R40*%
X163889167Y-103439588D02*
X163889167Y-103914104D01*
X164934167Y-103439588D02*
X164934167Y-103914104D01*
%TO.C,LED7*%
D10*
X206697452Y-102148300D02*
X206697452Y-98648300D01*
X206817452Y-98648300D02*
X206697452Y-98648300D01*
X206817452Y-102148300D02*
X206697452Y-102148300D01*
X209497452Y-98648300D02*
X209377452Y-98648300D01*
X209497452Y-98648300D02*
X209497452Y-102148300D01*
X209497452Y-98768300D02*
X209377452Y-98648300D01*
X209497452Y-98888300D02*
X209497452Y-98768300D01*
X209497452Y-102148300D02*
X209377452Y-102148300D01*
D14*
X209527452Y-98628300D02*
G75*
G02*
X209467452Y-98628300I-30000J0D01*
G01*
X209467452Y-98628300D02*
G75*
G02*
X209527452Y-98628300I30000J0D01*
G01*
D12*
G36*
X206647442Y-98389508D02*
G01*
X206647442Y-97689510D01*
X207347441Y-97689510D01*
X206647442Y-98389508D01*
G37*
%TO.C,LED4*%
D10*
X182267195Y-102144702D02*
X182267195Y-98644702D01*
X182387195Y-98644702D02*
X182267195Y-98644702D01*
X182387195Y-102144702D02*
X182267195Y-102144702D01*
X185067195Y-98644702D02*
X184947195Y-98644702D01*
X185067195Y-98644702D02*
X185067195Y-102144702D01*
X185067195Y-98764702D02*
X184947195Y-98644702D01*
X185067195Y-98884702D02*
X185067195Y-98764702D01*
X185067195Y-102144702D02*
X184947195Y-102144702D01*
D14*
X185097195Y-98624702D02*
G75*
G02*
X185037195Y-98624702I-30000J0D01*
G01*
X185037195Y-98624702D02*
G75*
G02*
X185097195Y-98624702I30000J0D01*
G01*
D12*
G36*
X182217185Y-98385910D02*
G01*
X182217185Y-97685912D01*
X182917184Y-97685912D01*
X182217185Y-98385910D01*
G37*
%TO.C,R42*%
D13*
X153958903Y-103439588D02*
X153958903Y-103914104D01*
X155003903Y-103439588D02*
X155003903Y-103914104D01*
%TO.C,R19*%
X183229695Y-103439588D02*
X183229695Y-103914104D01*
X184274695Y-103439588D02*
X184274695Y-103914104D01*
%TO.C,LED18*%
D10*
X192164297Y-102148300D02*
X192164297Y-98648300D01*
X192284297Y-98648300D02*
X192164297Y-98648300D01*
X192284297Y-102148300D02*
X192164297Y-102148300D01*
X194964297Y-98648300D02*
X194844297Y-98648300D01*
X194964297Y-98648300D02*
X194964297Y-102148300D01*
X194964297Y-98768300D02*
X194844297Y-98648300D01*
X194964297Y-98888300D02*
X194964297Y-98768300D01*
X194964297Y-102148300D02*
X194844297Y-102148300D01*
D14*
X194994297Y-98628300D02*
G75*
G02*
X194934297Y-98628300I-30000J0D01*
G01*
X194934297Y-98628300D02*
G75*
G02*
X194994297Y-98628300I30000J0D01*
G01*
D12*
G36*
X192114287Y-98389508D02*
G01*
X192114287Y-97689510D01*
X192814286Y-97689510D01*
X192114287Y-98389508D01*
G37*
%TO.C,R25*%
D13*
X105475916Y-103457088D02*
X105475916Y-103931604D01*
X106520916Y-103457088D02*
X106520916Y-103931604D01*
%TO.C,LED27*%
D10*
X153256403Y-102144702D02*
X153256403Y-98644702D01*
X153376403Y-98644702D02*
X153256403Y-98644702D01*
X153376403Y-102144702D02*
X153256403Y-102144702D01*
X156056403Y-98644702D02*
X155936403Y-98644702D01*
X156056403Y-98644702D02*
X156056403Y-102144702D01*
X156056403Y-98764702D02*
X155936403Y-98644702D01*
X156056403Y-98884702D02*
X156056403Y-98764702D01*
X156056403Y-102144702D02*
X155936403Y-102144702D01*
D14*
X156086403Y-98624702D02*
G75*
G02*
X156026403Y-98624702I-30000J0D01*
G01*
X156026403Y-98624702D02*
G75*
G02*
X156086403Y-98624702I30000J0D01*
G01*
D12*
G36*
X153206393Y-98385910D02*
G01*
X153206393Y-97685912D01*
X153906392Y-97685912D01*
X153206393Y-98385910D01*
G37*
%TO.C,LED13*%
D10*
X143492805Y-102179702D02*
X143492805Y-98679702D01*
X143612805Y-98679702D02*
X143492805Y-98679702D01*
X143612805Y-102179702D02*
X143492805Y-102179702D01*
X146292805Y-98679702D02*
X146172805Y-98679702D01*
X146292805Y-98679702D02*
X146292805Y-102179702D01*
X146292805Y-98799702D02*
X146172805Y-98679702D01*
X146292805Y-98919702D02*
X146292805Y-98799702D01*
X146292805Y-102179702D02*
X146172805Y-102179702D01*
D14*
X146322805Y-98659702D02*
G75*
G02*
X146262805Y-98659702I-30000J0D01*
G01*
X146262805Y-98659702D02*
G75*
G02*
X146322805Y-98659702I30000J0D01*
G01*
D12*
G36*
X143442795Y-98420910D02*
G01*
X143442795Y-97720912D01*
X144142794Y-97720912D01*
X143442795Y-98420910D01*
G37*
%TO.C,R37*%
D13*
X90775520Y-103457088D02*
X90775520Y-103931604D01*
X91820520Y-103457088D02*
X91820520Y-103931604D01*
%TO.C,LED10*%
D10*
X104600083Y-102127202D02*
X104600083Y-98627202D01*
X104720083Y-98627202D02*
X104600083Y-98627202D01*
X104720083Y-102127202D02*
X104600083Y-102127202D01*
X107400083Y-98627202D02*
X107280083Y-98627202D01*
X107400083Y-98627202D02*
X107400083Y-102127202D01*
X107400083Y-98747202D02*
X107280083Y-98627202D01*
X107400083Y-98867202D02*
X107400083Y-98747202D01*
X107400083Y-102127202D02*
X107280083Y-102127202D01*
D14*
X107430083Y-98607202D02*
G75*
G02*
X107370083Y-98607202I-30000J0D01*
G01*
X107370083Y-98607202D02*
G75*
G02*
X107430083Y-98607202I30000J0D01*
G01*
D12*
G36*
X104550073Y-98368410D02*
G01*
X104550073Y-97668412D01*
X105250072Y-97668412D01*
X104550073Y-98368410D01*
G37*
%TO.C,LED6*%
D10*
X148269604Y-102179702D02*
X148269604Y-98679702D01*
X148389604Y-98679702D02*
X148269604Y-98679702D01*
X148389604Y-102179702D02*
X148269604Y-102179702D01*
X151069604Y-98679702D02*
X150949604Y-98679702D01*
X151069604Y-98679702D02*
X151069604Y-102179702D01*
X151069604Y-98799702D02*
X150949604Y-98679702D01*
X151069604Y-98919702D02*
X151069604Y-98799702D01*
X151069604Y-102179702D02*
X150949604Y-102179702D01*
D14*
X151099604Y-98659702D02*
G75*
G02*
X151039604Y-98659702I-30000J0D01*
G01*
X151039604Y-98659702D02*
G75*
G02*
X151099604Y-98659702I30000J0D01*
G01*
D12*
G36*
X148219594Y-98420910D02*
G01*
X148219594Y-97720912D01*
X148919593Y-97720912D01*
X148219594Y-98420910D01*
G37*
%TO.C,LED3*%
D10*
X114097013Y-102127202D02*
X114097013Y-98627202D01*
X114217013Y-98627202D02*
X114097013Y-98627202D01*
X114217013Y-102127202D02*
X114097013Y-102127202D01*
X116897013Y-98627202D02*
X116777013Y-98627202D01*
X116897013Y-98627202D02*
X116897013Y-102127202D01*
X116897013Y-98747202D02*
X116777013Y-98627202D01*
X116897013Y-98867202D02*
X116897013Y-98747202D01*
X116897013Y-102127202D02*
X116777013Y-102127202D01*
D14*
X116927013Y-98607202D02*
G75*
G02*
X116867013Y-98607202I-30000J0D01*
G01*
X116867013Y-98607202D02*
G75*
G02*
X116927013Y-98607202I30000J0D01*
G01*
D12*
G36*
X114047003Y-98368410D02*
G01*
X114047003Y-97668412D01*
X114747002Y-97668412D01*
X114047003Y-98368410D01*
G37*
%TO.C,LED8*%
D10*
X201894734Y-102148300D02*
X201894734Y-98648300D01*
X202014734Y-98648300D02*
X201894734Y-98648300D01*
X202014734Y-102148300D02*
X201894734Y-102148300D01*
X204694734Y-98648300D02*
X204574734Y-98648300D01*
X204694734Y-98648300D02*
X204694734Y-102148300D01*
X204694734Y-98768300D02*
X204574734Y-98648300D01*
X204694734Y-98888300D02*
X204694734Y-98768300D01*
X204694734Y-102148300D02*
X204574734Y-102148300D01*
D14*
X204724734Y-98628300D02*
G75*
G02*
X204664734Y-98628300I-30000J0D01*
G01*
X204664734Y-98628300D02*
G75*
G02*
X204724734Y-98628300I30000J0D01*
G01*
D12*
G36*
X201844724Y-98389508D02*
G01*
X201844724Y-97689510D01*
X202544723Y-97689510D01*
X201844724Y-98389508D01*
G37*
%TO.C,LED23*%
D10*
X85086221Y-102127202D02*
X85086221Y-98627202D01*
X85206221Y-98627202D02*
X85086221Y-98627202D01*
X85206221Y-102127202D02*
X85086221Y-102127202D01*
X87886221Y-98627202D02*
X87766221Y-98627202D01*
X87886221Y-98627202D02*
X87886221Y-102127202D01*
X87886221Y-98747202D02*
X87766221Y-98627202D01*
X87886221Y-98867202D02*
X87886221Y-98747202D01*
X87886221Y-102127202D02*
X87766221Y-102127202D01*
D14*
X87916221Y-98607202D02*
G75*
G02*
X87856221Y-98607202I-30000J0D01*
G01*
X87856221Y-98607202D02*
G75*
G02*
X87916221Y-98607202I30000J0D01*
G01*
D12*
G36*
X85036211Y-98368410D02*
G01*
X85036211Y-97668412D01*
X85736210Y-97668412D01*
X85036211Y-98368410D01*
G37*
%TO.C,R32*%
D13*
X197853596Y-103435990D02*
X197853596Y-103910506D01*
X198898596Y-103435990D02*
X198898596Y-103910506D01*
%TO.C,LED1*%
D10*
X216177888Y-102184490D02*
X216177888Y-98684490D01*
X216297888Y-98684490D02*
X216177888Y-98684490D01*
X216297888Y-102184490D02*
X216177888Y-102184490D01*
X218977888Y-98684490D02*
X218857888Y-98684490D01*
X218977888Y-98684490D02*
X218977888Y-102184490D01*
X218977888Y-98804490D02*
X218857888Y-98684490D01*
X218977888Y-98924490D02*
X218977888Y-98804490D01*
X218977888Y-102184490D02*
X218857888Y-102184490D01*
D14*
X219007888Y-98664490D02*
G75*
G02*
X218947888Y-98664490I-30000J0D01*
G01*
X218947888Y-98664490D02*
G75*
G02*
X219007888Y-98664490I30000J0D01*
G01*
D12*
G36*
X216127878Y-98425698D02*
G01*
X216127878Y-97725700D01*
X216827877Y-97725700D01*
X216127878Y-98425698D01*
G37*
%TO.C,LED22*%
D10*
X90029687Y-102127202D02*
X90029687Y-98627202D01*
X90149687Y-98627202D02*
X90029687Y-98627202D01*
X90149687Y-102127202D02*
X90029687Y-102127202D01*
X92829687Y-98627202D02*
X92709687Y-98627202D01*
X92829687Y-98627202D02*
X92829687Y-102127202D01*
X92829687Y-98747202D02*
X92709687Y-98627202D01*
X92829687Y-98867202D02*
X92829687Y-98747202D01*
X92829687Y-102127202D02*
X92709687Y-102127202D01*
D14*
X92859687Y-98607202D02*
G75*
G02*
X92799687Y-98607202I-30000J0D01*
G01*
X92799687Y-98607202D02*
G75*
G02*
X92859687Y-98607202I30000J0D01*
G01*
D12*
G36*
X89979677Y-98368410D02*
G01*
X89979677Y-97668412D01*
X90679676Y-97668412D01*
X89979677Y-98368410D01*
G37*
%TO.C,LED21*%
D10*
X94929818Y-102127202D02*
X94929818Y-98627202D01*
X95049818Y-98627202D02*
X94929818Y-98627202D01*
X95049818Y-102127202D02*
X94929818Y-102127202D01*
X97729818Y-98627202D02*
X97609818Y-98627202D01*
X97729818Y-98627202D02*
X97729818Y-102127202D01*
X97729818Y-98747202D02*
X97609818Y-98627202D01*
X97729818Y-98867202D02*
X97729818Y-98747202D01*
X97729818Y-102127202D02*
X97609818Y-102127202D01*
D14*
X97759818Y-98607202D02*
G75*
G02*
X97699818Y-98607202I-30000J0D01*
G01*
X97699818Y-98607202D02*
G75*
G02*
X97759818Y-98607202I30000J0D01*
G01*
D12*
G36*
X94879808Y-98368410D02*
G01*
X94879808Y-97668412D01*
X95579807Y-97668412D01*
X94879808Y-98368410D01*
G37*
%TO.C,R28*%
D13*
X144370305Y-103404588D02*
X144370305Y-103879104D01*
X145415305Y-103404588D02*
X145415305Y-103879104D01*
%TO.C,LED12*%
D10*
X172770265Y-102144702D02*
X172770265Y-98644702D01*
X172890265Y-98644702D02*
X172770265Y-98644702D01*
X172890265Y-102144702D02*
X172770265Y-102144702D01*
X175570265Y-98644702D02*
X175450265Y-98644702D01*
X175570265Y-98644702D02*
X175570265Y-102144702D01*
X175570265Y-98764702D02*
X175450265Y-98644702D01*
X175570265Y-98884702D02*
X175570265Y-98764702D01*
X175570265Y-102144702D02*
X175450265Y-102144702D01*
D14*
X175600265Y-98624702D02*
G75*
G02*
X175540265Y-98624702I-30000J0D01*
G01*
X175540265Y-98624702D02*
G75*
G02*
X175600265Y-98624702I30000J0D01*
G01*
D12*
G36*
X172720255Y-98385910D02*
G01*
X172720255Y-97685912D01*
X173420254Y-97685912D01*
X172720255Y-98385910D01*
G37*
%TO.C,R1*%
D13*
X217147802Y-103472180D02*
X217147802Y-103946696D01*
X218192802Y-103472180D02*
X218192802Y-103946696D01*
%TD*%
M02*
