%TF.GenerationSoftware,KiCad,Pcbnew,10.0.4*%
%TF.CreationDate,2026-07-12T11:49:56-04:00*%
%TF.ProjectId,linklite_v2,6c696e6b-6c69-4746-955f-76322e6b6963,rev?*%
%TF.SameCoordinates,Original*%
%TF.FileFunction,Legend,Top*%
%TF.FilePolarity,Positive*%
%FSLAX46Y46*%
G04 Gerber Fmt 4.6, Leading zero omitted, Abs format (unit mm)*
G04 Created by KiCad (PCBNEW 10.0.4) date 2026-07-12 11:49:56*
%MOMM*%
%LPD*%
G01*
G04 APERTURE LIST*
%ADD10C,0.250000*%
%ADD11C,0.150000*%
%ADD12C,0.200000*%
%ADD13C,0.120000*%
%ADD14C,0.060000*%
%ADD15C,0.000000*%
G04 APERTURE END LIST*
D10*
X77962092Y-99334023D02*
X77962092Y-98084023D01*
X77962092Y-98084023D02*
X78438282Y-98084023D01*
X78438282Y-98084023D02*
X78557330Y-98143547D01*
X78557330Y-98143547D02*
X78616853Y-98203071D01*
X78616853Y-98203071D02*
X78676377Y-98322119D01*
X78676377Y-98322119D02*
X78676377Y-98500690D01*
X78676377Y-98500690D02*
X78616853Y-98619738D01*
X78616853Y-98619738D02*
X78557330Y-98679261D01*
X78557330Y-98679261D02*
X78438282Y-98738785D01*
X78438282Y-98738785D02*
X77962092Y-98738785D01*
X79093044Y-98084023D02*
X79390663Y-99334023D01*
X79390663Y-99334023D02*
X79628758Y-98441166D01*
X79628758Y-98441166D02*
X79866853Y-99334023D01*
X79866853Y-99334023D02*
X80164473Y-98084023D01*
X81354948Y-99334023D02*
X80938282Y-98738785D01*
X80640663Y-99334023D02*
X80640663Y-98084023D01*
X80640663Y-98084023D02*
X81116853Y-98084023D01*
X81116853Y-98084023D02*
X81235901Y-98143547D01*
X81235901Y-98143547D02*
X81295424Y-98203071D01*
X81295424Y-98203071D02*
X81354948Y-98322119D01*
X81354948Y-98322119D02*
X81354948Y-98500690D01*
X81354948Y-98500690D02*
X81295424Y-98619738D01*
X81295424Y-98619738D02*
X81235901Y-98679261D01*
X81235901Y-98679261D02*
X81116853Y-98738785D01*
X81116853Y-98738785D02*
X80640663Y-98738785D01*
X82843044Y-99334023D02*
X82843044Y-98084023D01*
X83438282Y-99334023D02*
X83438282Y-98084023D01*
X83438282Y-98084023D02*
X84152567Y-99334023D01*
X84152567Y-99334023D02*
X84152567Y-98084023D01*
X87962092Y-118834023D02*
X87962092Y-117584023D01*
X87962092Y-117584023D02*
X88438282Y-117584023D01*
X88438282Y-117584023D02*
X88557330Y-117643547D01*
X88557330Y-117643547D02*
X88616853Y-117703071D01*
X88616853Y-117703071D02*
X88676377Y-117822119D01*
X88676377Y-117822119D02*
X88676377Y-118000690D01*
X88676377Y-118000690D02*
X88616853Y-118119738D01*
X88616853Y-118119738D02*
X88557330Y-118179261D01*
X88557330Y-118179261D02*
X88438282Y-118238785D01*
X88438282Y-118238785D02*
X87962092Y-118238785D01*
X89212092Y-118834023D02*
X89212092Y-117584023D01*
X89212092Y-117584023D02*
X89509711Y-117584023D01*
X89509711Y-117584023D02*
X89688282Y-117643547D01*
X89688282Y-117643547D02*
X89807330Y-117762595D01*
X89807330Y-117762595D02*
X89866853Y-117881642D01*
X89866853Y-117881642D02*
X89926377Y-118119738D01*
X89926377Y-118119738D02*
X89926377Y-118298309D01*
X89926377Y-118298309D02*
X89866853Y-118536404D01*
X89866853Y-118536404D02*
X89807330Y-118655452D01*
X89807330Y-118655452D02*
X89688282Y-118774500D01*
X89688282Y-118774500D02*
X89509711Y-118834023D01*
X89509711Y-118834023D02*
X89212092Y-118834023D01*
X91652568Y-117584023D02*
X91890663Y-117584023D01*
X91890663Y-117584023D02*
X92009711Y-117643547D01*
X92009711Y-117643547D02*
X92128758Y-117762595D01*
X92128758Y-117762595D02*
X92188282Y-118000690D01*
X92188282Y-118000690D02*
X92188282Y-118417357D01*
X92188282Y-118417357D02*
X92128758Y-118655452D01*
X92128758Y-118655452D02*
X92009711Y-118774500D01*
X92009711Y-118774500D02*
X91890663Y-118834023D01*
X91890663Y-118834023D02*
X91652568Y-118834023D01*
X91652568Y-118834023D02*
X91533520Y-118774500D01*
X91533520Y-118774500D02*
X91414473Y-118655452D01*
X91414473Y-118655452D02*
X91354949Y-118417357D01*
X91354949Y-118417357D02*
X91354949Y-118000690D01*
X91354949Y-118000690D02*
X91414473Y-117762595D01*
X91414473Y-117762595D02*
X91533520Y-117643547D01*
X91533520Y-117643547D02*
X91652568Y-117584023D01*
X92723997Y-118834023D02*
X92723997Y-117584023D01*
X93438282Y-118834023D02*
X92902568Y-118119738D01*
X93438282Y-117584023D02*
X92723997Y-118298309D01*
X95521616Y-118834023D02*
X94926378Y-118834023D01*
X94926378Y-118834023D02*
X94926378Y-117584023D01*
X95938283Y-118179261D02*
X96354949Y-118179261D01*
X96533521Y-118834023D02*
X95938283Y-118834023D01*
X95938283Y-118834023D02*
X95938283Y-117584023D01*
X95938283Y-117584023D02*
X96533521Y-117584023D01*
X97069235Y-118834023D02*
X97069235Y-117584023D01*
X97069235Y-117584023D02*
X97366854Y-117584023D01*
X97366854Y-117584023D02*
X97545425Y-117643547D01*
X97545425Y-117643547D02*
X97664473Y-117762595D01*
X97664473Y-117762595D02*
X97723996Y-117881642D01*
X97723996Y-117881642D02*
X97783520Y-118119738D01*
X97783520Y-118119738D02*
X97783520Y-118298309D01*
X97783520Y-118298309D02*
X97723996Y-118536404D01*
X97723996Y-118536404D02*
X97664473Y-118655452D01*
X97664473Y-118655452D02*
X97545425Y-118774500D01*
X97545425Y-118774500D02*
X97366854Y-118834023D01*
X97366854Y-118834023D02*
X97069235Y-118834023D01*
X131462092Y-93679261D02*
X131878758Y-93679261D01*
X132057330Y-94334023D02*
X131462092Y-94334023D01*
X131462092Y-94334023D02*
X131462092Y-93084023D01*
X131462092Y-93084023D02*
X132057330Y-93084023D01*
X132533520Y-94274500D02*
X132712091Y-94334023D01*
X132712091Y-94334023D02*
X133009710Y-94334023D01*
X133009710Y-94334023D02*
X133128758Y-94274500D01*
X133128758Y-94274500D02*
X133188282Y-94214976D01*
X133188282Y-94214976D02*
X133247805Y-94095928D01*
X133247805Y-94095928D02*
X133247805Y-93976880D01*
X133247805Y-93976880D02*
X133188282Y-93857833D01*
X133188282Y-93857833D02*
X133128758Y-93798309D01*
X133128758Y-93798309D02*
X133009710Y-93738785D01*
X133009710Y-93738785D02*
X132771615Y-93679261D01*
X132771615Y-93679261D02*
X132652567Y-93619738D01*
X132652567Y-93619738D02*
X132593044Y-93560214D01*
X132593044Y-93560214D02*
X132533520Y-93441166D01*
X132533520Y-93441166D02*
X132533520Y-93322119D01*
X132533520Y-93322119D02*
X132593044Y-93203071D01*
X132593044Y-93203071D02*
X132652567Y-93143547D01*
X132652567Y-93143547D02*
X132771615Y-93084023D01*
X132771615Y-93084023D02*
X133069234Y-93084023D01*
X133069234Y-93084023D02*
X133247805Y-93143547D01*
X133783520Y-94334023D02*
X133783520Y-93084023D01*
X133783520Y-93084023D02*
X134259710Y-93084023D01*
X134259710Y-93084023D02*
X134378758Y-93143547D01*
X134378758Y-93143547D02*
X134438281Y-93203071D01*
X134438281Y-93203071D02*
X134497805Y-93322119D01*
X134497805Y-93322119D02*
X134497805Y-93500690D01*
X134497805Y-93500690D02*
X134438281Y-93619738D01*
X134438281Y-93619738D02*
X134378758Y-93679261D01*
X134378758Y-93679261D02*
X134259710Y-93738785D01*
X134259710Y-93738785D02*
X133783520Y-93738785D01*
X135985901Y-94334023D02*
X135985901Y-93084023D01*
X135985901Y-93084023D02*
X136462091Y-93084023D01*
X136462091Y-93084023D02*
X136581139Y-93143547D01*
X136581139Y-93143547D02*
X136640662Y-93203071D01*
X136640662Y-93203071D02*
X136700186Y-93322119D01*
X136700186Y-93322119D02*
X136700186Y-93500690D01*
X136700186Y-93500690D02*
X136640662Y-93619738D01*
X136640662Y-93619738D02*
X136581139Y-93679261D01*
X136581139Y-93679261D02*
X136462091Y-93738785D01*
X136462091Y-93738785D02*
X135985901Y-93738785D01*
X137116853Y-93084023D02*
X137414472Y-94334023D01*
X137414472Y-94334023D02*
X137652567Y-93441166D01*
X137652567Y-93441166D02*
X137890662Y-94334023D01*
X137890662Y-94334023D02*
X138188282Y-93084023D01*
X139378757Y-94334023D02*
X138962091Y-93738785D01*
X138664472Y-94334023D02*
X138664472Y-93084023D01*
X138664472Y-93084023D02*
X139140662Y-93084023D01*
X139140662Y-93084023D02*
X139259710Y-93143547D01*
X139259710Y-93143547D02*
X139319233Y-93203071D01*
X139319233Y-93203071D02*
X139378757Y-93322119D01*
X139378757Y-93322119D02*
X139378757Y-93500690D01*
X139378757Y-93500690D02*
X139319233Y-93619738D01*
X139319233Y-93619738D02*
X139259710Y-93679261D01*
X139259710Y-93679261D02*
X139140662Y-93738785D01*
X139140662Y-93738785D02*
X138664472Y-93738785D01*
X140676377Y-101834023D02*
X140259711Y-101238785D01*
X139962092Y-101834023D02*
X139962092Y-100584023D01*
X139962092Y-100584023D02*
X140438282Y-100584023D01*
X140438282Y-100584023D02*
X140557330Y-100643547D01*
X140557330Y-100643547D02*
X140616853Y-100703071D01*
X140616853Y-100703071D02*
X140676377Y-100822119D01*
X140676377Y-100822119D02*
X140676377Y-101000690D01*
X140676377Y-101000690D02*
X140616853Y-101119738D01*
X140616853Y-101119738D02*
X140557330Y-101179261D01*
X140557330Y-101179261D02*
X140438282Y-101238785D01*
X140438282Y-101238785D02*
X139962092Y-101238785D01*
X141212092Y-101179261D02*
X141628758Y-101179261D01*
X141807330Y-101834023D02*
X141212092Y-101834023D01*
X141212092Y-101834023D02*
X141212092Y-100584023D01*
X141212092Y-100584023D02*
X141807330Y-100584023D01*
X142283520Y-101774500D02*
X142462091Y-101834023D01*
X142462091Y-101834023D02*
X142759710Y-101834023D01*
X142759710Y-101834023D02*
X142878758Y-101774500D01*
X142878758Y-101774500D02*
X142938282Y-101714976D01*
X142938282Y-101714976D02*
X142997805Y-101595928D01*
X142997805Y-101595928D02*
X142997805Y-101476880D01*
X142997805Y-101476880D02*
X142938282Y-101357833D01*
X142938282Y-101357833D02*
X142878758Y-101298309D01*
X142878758Y-101298309D02*
X142759710Y-101238785D01*
X142759710Y-101238785D02*
X142521615Y-101179261D01*
X142521615Y-101179261D02*
X142402567Y-101119738D01*
X142402567Y-101119738D02*
X142343044Y-101060214D01*
X142343044Y-101060214D02*
X142283520Y-100941166D01*
X142283520Y-100941166D02*
X142283520Y-100822119D01*
X142283520Y-100822119D02*
X142343044Y-100703071D01*
X142343044Y-100703071D02*
X142402567Y-100643547D01*
X142402567Y-100643547D02*
X142521615Y-100584023D01*
X142521615Y-100584023D02*
X142819234Y-100584023D01*
X142819234Y-100584023D02*
X142997805Y-100643547D01*
X143533520Y-101179261D02*
X143950186Y-101179261D01*
X144128758Y-101834023D02*
X143533520Y-101834023D01*
X143533520Y-101834023D02*
X143533520Y-100584023D01*
X143533520Y-100584023D02*
X144128758Y-100584023D01*
X144485900Y-100584023D02*
X145200186Y-100584023D01*
X144843043Y-101834023D02*
X144843043Y-100584023D01*
X158378758Y-104179261D02*
X158557330Y-104238785D01*
X158557330Y-104238785D02*
X158616853Y-104298309D01*
X158616853Y-104298309D02*
X158676377Y-104417357D01*
X158676377Y-104417357D02*
X158676377Y-104595928D01*
X158676377Y-104595928D02*
X158616853Y-104714976D01*
X158616853Y-104714976D02*
X158557330Y-104774500D01*
X158557330Y-104774500D02*
X158438282Y-104834023D01*
X158438282Y-104834023D02*
X157962092Y-104834023D01*
X157962092Y-104834023D02*
X157962092Y-103584023D01*
X157962092Y-103584023D02*
X158378758Y-103584023D01*
X158378758Y-103584023D02*
X158497806Y-103643547D01*
X158497806Y-103643547D02*
X158557330Y-103703071D01*
X158557330Y-103703071D02*
X158616853Y-103822119D01*
X158616853Y-103822119D02*
X158616853Y-103941166D01*
X158616853Y-103941166D02*
X158557330Y-104060214D01*
X158557330Y-104060214D02*
X158497806Y-104119738D01*
X158497806Y-104119738D02*
X158378758Y-104179261D01*
X158378758Y-104179261D02*
X157962092Y-104179261D01*
X159450187Y-103584023D02*
X159688282Y-103584023D01*
X159688282Y-103584023D02*
X159807330Y-103643547D01*
X159807330Y-103643547D02*
X159926377Y-103762595D01*
X159926377Y-103762595D02*
X159985901Y-104000690D01*
X159985901Y-104000690D02*
X159985901Y-104417357D01*
X159985901Y-104417357D02*
X159926377Y-104655452D01*
X159926377Y-104655452D02*
X159807330Y-104774500D01*
X159807330Y-104774500D02*
X159688282Y-104834023D01*
X159688282Y-104834023D02*
X159450187Y-104834023D01*
X159450187Y-104834023D02*
X159331139Y-104774500D01*
X159331139Y-104774500D02*
X159212092Y-104655452D01*
X159212092Y-104655452D02*
X159152568Y-104417357D01*
X159152568Y-104417357D02*
X159152568Y-104000690D01*
X159152568Y-104000690D02*
X159212092Y-103762595D01*
X159212092Y-103762595D02*
X159331139Y-103643547D01*
X159331139Y-103643547D02*
X159450187Y-103584023D01*
X160759711Y-103584023D02*
X160997806Y-103584023D01*
X160997806Y-103584023D02*
X161116854Y-103643547D01*
X161116854Y-103643547D02*
X161235901Y-103762595D01*
X161235901Y-103762595D02*
X161295425Y-104000690D01*
X161295425Y-104000690D02*
X161295425Y-104417357D01*
X161295425Y-104417357D02*
X161235901Y-104655452D01*
X161235901Y-104655452D02*
X161116854Y-104774500D01*
X161116854Y-104774500D02*
X160997806Y-104834023D01*
X160997806Y-104834023D02*
X160759711Y-104834023D01*
X160759711Y-104834023D02*
X160640663Y-104774500D01*
X160640663Y-104774500D02*
X160521616Y-104655452D01*
X160521616Y-104655452D02*
X160462092Y-104417357D01*
X160462092Y-104417357D02*
X160462092Y-104000690D01*
X160462092Y-104000690D02*
X160521616Y-103762595D01*
X160521616Y-103762595D02*
X160640663Y-103643547D01*
X160640663Y-103643547D02*
X160759711Y-103584023D01*
X161652568Y-103584023D02*
X162366854Y-103584023D01*
X162009711Y-104834023D02*
X162009711Y-103584023D01*
X159962092Y-88179261D02*
X160378758Y-88179261D01*
X160557330Y-88834023D02*
X159962092Y-88834023D01*
X159962092Y-88834023D02*
X159962092Y-87584023D01*
X159962092Y-87584023D02*
X160557330Y-87584023D01*
X161033520Y-88774500D02*
X161212091Y-88834023D01*
X161212091Y-88834023D02*
X161509710Y-88834023D01*
X161509710Y-88834023D02*
X161628758Y-88774500D01*
X161628758Y-88774500D02*
X161688282Y-88714976D01*
X161688282Y-88714976D02*
X161747805Y-88595928D01*
X161747805Y-88595928D02*
X161747805Y-88476880D01*
X161747805Y-88476880D02*
X161688282Y-88357833D01*
X161688282Y-88357833D02*
X161628758Y-88298309D01*
X161628758Y-88298309D02*
X161509710Y-88238785D01*
X161509710Y-88238785D02*
X161271615Y-88179261D01*
X161271615Y-88179261D02*
X161152567Y-88119738D01*
X161152567Y-88119738D02*
X161093044Y-88060214D01*
X161093044Y-88060214D02*
X161033520Y-87941166D01*
X161033520Y-87941166D02*
X161033520Y-87822119D01*
X161033520Y-87822119D02*
X161093044Y-87703071D01*
X161093044Y-87703071D02*
X161152567Y-87643547D01*
X161152567Y-87643547D02*
X161271615Y-87584023D01*
X161271615Y-87584023D02*
X161569234Y-87584023D01*
X161569234Y-87584023D02*
X161747805Y-87643547D01*
X162283520Y-88834023D02*
X162283520Y-87584023D01*
X162283520Y-87584023D02*
X162759710Y-87584023D01*
X162759710Y-87584023D02*
X162878758Y-87643547D01*
X162878758Y-87643547D02*
X162938281Y-87703071D01*
X162938281Y-87703071D02*
X162997805Y-87822119D01*
X162997805Y-87822119D02*
X162997805Y-88000690D01*
X162997805Y-88000690D02*
X162938281Y-88119738D01*
X162938281Y-88119738D02*
X162878758Y-88179261D01*
X162878758Y-88179261D02*
X162759710Y-88238785D01*
X162759710Y-88238785D02*
X162283520Y-88238785D01*
X163533520Y-88357833D02*
X164485901Y-88357833D01*
X164962091Y-87584023D02*
X165735900Y-87584023D01*
X165735900Y-87584023D02*
X165319234Y-88060214D01*
X165319234Y-88060214D02*
X165497805Y-88060214D01*
X165497805Y-88060214D02*
X165616853Y-88119738D01*
X165616853Y-88119738D02*
X165676377Y-88179261D01*
X165676377Y-88179261D02*
X165735900Y-88298309D01*
X165735900Y-88298309D02*
X165735900Y-88595928D01*
X165735900Y-88595928D02*
X165676377Y-88714976D01*
X165676377Y-88714976D02*
X165616853Y-88774500D01*
X165616853Y-88774500D02*
X165497805Y-88834023D01*
X165497805Y-88834023D02*
X165140662Y-88834023D01*
X165140662Y-88834023D02*
X165021615Y-88774500D01*
X165021615Y-88774500D02*
X164962091Y-88714976D01*
X166212091Y-87703071D02*
X166271615Y-87643547D01*
X166271615Y-87643547D02*
X166390662Y-87584023D01*
X166390662Y-87584023D02*
X166688281Y-87584023D01*
X166688281Y-87584023D02*
X166807329Y-87643547D01*
X166807329Y-87643547D02*
X166866853Y-87703071D01*
X166866853Y-87703071D02*
X166926376Y-87822119D01*
X166926376Y-87822119D02*
X166926376Y-87941166D01*
X166926376Y-87941166D02*
X166866853Y-88119738D01*
X166866853Y-88119738D02*
X166152567Y-88834023D01*
X166152567Y-88834023D02*
X166926376Y-88834023D01*
X169128757Y-88714976D02*
X169069233Y-88774500D01*
X169069233Y-88774500D02*
X168890662Y-88834023D01*
X168890662Y-88834023D02*
X168771614Y-88834023D01*
X168771614Y-88834023D02*
X168593043Y-88774500D01*
X168593043Y-88774500D02*
X168473995Y-88655452D01*
X168473995Y-88655452D02*
X168414472Y-88536404D01*
X168414472Y-88536404D02*
X168354948Y-88298309D01*
X168354948Y-88298309D02*
X168354948Y-88119738D01*
X168354948Y-88119738D02*
X168414472Y-87881642D01*
X168414472Y-87881642D02*
X168473995Y-87762595D01*
X168473995Y-87762595D02*
X168593043Y-87643547D01*
X168593043Y-87643547D02*
X168771614Y-87584023D01*
X168771614Y-87584023D02*
X168890662Y-87584023D01*
X168890662Y-87584023D02*
X169069233Y-87643547D01*
X169069233Y-87643547D02*
X169128757Y-87703071D01*
X170200186Y-87584023D02*
X169962091Y-87584023D01*
X169962091Y-87584023D02*
X169843043Y-87643547D01*
X169843043Y-87643547D02*
X169783519Y-87703071D01*
X169783519Y-87703071D02*
X169664472Y-87881642D01*
X169664472Y-87881642D02*
X169604948Y-88119738D01*
X169604948Y-88119738D02*
X169604948Y-88595928D01*
X169604948Y-88595928D02*
X169664472Y-88714976D01*
X169664472Y-88714976D02*
X169723995Y-88774500D01*
X169723995Y-88774500D02*
X169843043Y-88834023D01*
X169843043Y-88834023D02*
X170081138Y-88834023D01*
X170081138Y-88834023D02*
X170200186Y-88774500D01*
X170200186Y-88774500D02*
X170259710Y-88714976D01*
X170259710Y-88714976D02*
X170319233Y-88595928D01*
X170319233Y-88595928D02*
X170319233Y-88298309D01*
X170319233Y-88298309D02*
X170259710Y-88179261D01*
X170259710Y-88179261D02*
X170200186Y-88119738D01*
X170200186Y-88119738D02*
X170081138Y-88060214D01*
X170081138Y-88060214D02*
X169843043Y-88060214D01*
X169843043Y-88060214D02*
X169723995Y-88119738D01*
X169723995Y-88119738D02*
X169664472Y-88179261D01*
X169664472Y-88179261D02*
X169604948Y-88298309D01*
X171807329Y-88834023D02*
X171807329Y-87584023D01*
X171807329Y-87584023D02*
X172223995Y-88476880D01*
X172223995Y-88476880D02*
X172640662Y-87584023D01*
X172640662Y-87584023D02*
X172640662Y-88834023D01*
X173235900Y-88834023D02*
X173235900Y-87584023D01*
X173831138Y-88834023D02*
X173831138Y-87584023D01*
X173831138Y-87584023D02*
X174545423Y-88834023D01*
X174545423Y-88834023D02*
X174545423Y-87584023D01*
X175140662Y-88834023D02*
X175140662Y-87584023D01*
X163462092Y-96084023D02*
X163462092Y-97095928D01*
X163462092Y-97095928D02*
X163521615Y-97214976D01*
X163521615Y-97214976D02*
X163581139Y-97274500D01*
X163581139Y-97274500D02*
X163700187Y-97334023D01*
X163700187Y-97334023D02*
X163938282Y-97334023D01*
X163938282Y-97334023D02*
X164057330Y-97274500D01*
X164057330Y-97274500D02*
X164116853Y-97214976D01*
X164116853Y-97214976D02*
X164176377Y-97095928D01*
X164176377Y-97095928D02*
X164176377Y-96084023D01*
X164712092Y-97274500D02*
X164890663Y-97334023D01*
X164890663Y-97334023D02*
X165188282Y-97334023D01*
X165188282Y-97334023D02*
X165307330Y-97274500D01*
X165307330Y-97274500D02*
X165366854Y-97214976D01*
X165366854Y-97214976D02*
X165426377Y-97095928D01*
X165426377Y-97095928D02*
X165426377Y-96976880D01*
X165426377Y-96976880D02*
X165366854Y-96857833D01*
X165366854Y-96857833D02*
X165307330Y-96798309D01*
X165307330Y-96798309D02*
X165188282Y-96738785D01*
X165188282Y-96738785D02*
X164950187Y-96679261D01*
X164950187Y-96679261D02*
X164831139Y-96619738D01*
X164831139Y-96619738D02*
X164771616Y-96560214D01*
X164771616Y-96560214D02*
X164712092Y-96441166D01*
X164712092Y-96441166D02*
X164712092Y-96322119D01*
X164712092Y-96322119D02*
X164771616Y-96203071D01*
X164771616Y-96203071D02*
X164831139Y-96143547D01*
X164831139Y-96143547D02*
X164950187Y-96084023D01*
X164950187Y-96084023D02*
X165247806Y-96084023D01*
X165247806Y-96084023D02*
X165426377Y-96143547D01*
X166676377Y-97334023D02*
X166259711Y-96738785D01*
X165962092Y-97334023D02*
X165962092Y-96084023D01*
X165962092Y-96084023D02*
X166438282Y-96084023D01*
X166438282Y-96084023D02*
X166557330Y-96143547D01*
X166557330Y-96143547D02*
X166616853Y-96203071D01*
X166616853Y-96203071D02*
X166676377Y-96322119D01*
X166676377Y-96322119D02*
X166676377Y-96500690D01*
X166676377Y-96500690D02*
X166616853Y-96619738D01*
X166616853Y-96619738D02*
X166557330Y-96679261D01*
X166557330Y-96679261D02*
X166438282Y-96738785D01*
X166438282Y-96738785D02*
X165962092Y-96738785D01*
X168759711Y-97334023D02*
X168164473Y-97334023D01*
X168164473Y-97334023D02*
X168164473Y-96084023D01*
X169176378Y-96679261D02*
X169593044Y-96679261D01*
X169771616Y-97334023D02*
X169176378Y-97334023D01*
X169176378Y-97334023D02*
X169176378Y-96084023D01*
X169176378Y-96084023D02*
X169771616Y-96084023D01*
X170307330Y-97334023D02*
X170307330Y-96084023D01*
X170307330Y-96084023D02*
X170604949Y-96084023D01*
X170604949Y-96084023D02*
X170783520Y-96143547D01*
X170783520Y-96143547D02*
X170902568Y-96262595D01*
X170902568Y-96262595D02*
X170962091Y-96381642D01*
X170962091Y-96381642D02*
X171021615Y-96619738D01*
X171021615Y-96619738D02*
X171021615Y-96798309D01*
X171021615Y-96798309D02*
X170962091Y-97036404D01*
X170962091Y-97036404D02*
X170902568Y-97155452D01*
X170902568Y-97155452D02*
X170783520Y-97274500D01*
X170783520Y-97274500D02*
X170604949Y-97334023D01*
X170604949Y-97334023D02*
X170307330Y-97334023D01*
X190878758Y-104179261D02*
X191057330Y-104238785D01*
X191057330Y-104238785D02*
X191116853Y-104298309D01*
X191116853Y-104298309D02*
X191176377Y-104417357D01*
X191176377Y-104417357D02*
X191176377Y-104595928D01*
X191176377Y-104595928D02*
X191116853Y-104714976D01*
X191116853Y-104714976D02*
X191057330Y-104774500D01*
X191057330Y-104774500D02*
X190938282Y-104834023D01*
X190938282Y-104834023D02*
X190462092Y-104834023D01*
X190462092Y-104834023D02*
X190462092Y-103584023D01*
X190462092Y-103584023D02*
X190878758Y-103584023D01*
X190878758Y-103584023D02*
X190997806Y-103643547D01*
X190997806Y-103643547D02*
X191057330Y-103703071D01*
X191057330Y-103703071D02*
X191116853Y-103822119D01*
X191116853Y-103822119D02*
X191116853Y-103941166D01*
X191116853Y-103941166D02*
X191057330Y-104060214D01*
X191057330Y-104060214D02*
X190997806Y-104119738D01*
X190997806Y-104119738D02*
X190878758Y-104179261D01*
X190878758Y-104179261D02*
X190462092Y-104179261D01*
X191533520Y-103584023D02*
X192247806Y-103584023D01*
X191890663Y-104834023D02*
X191890663Y-103584023D01*
X192664473Y-104834023D02*
X192664473Y-103584023D01*
X192664473Y-103584023D02*
X193378758Y-104834023D01*
X193378758Y-104834023D02*
X193378758Y-103584023D01*
X195581139Y-104834023D02*
X194866854Y-104834023D01*
X195223997Y-104834023D02*
X195223997Y-103584023D01*
X195223997Y-103584023D02*
X195104949Y-103762595D01*
X195104949Y-103762595D02*
X194985901Y-103881642D01*
X194985901Y-103881642D02*
X194866854Y-103941166D01*
X190878758Y-114179261D02*
X191057330Y-114238785D01*
X191057330Y-114238785D02*
X191116853Y-114298309D01*
X191116853Y-114298309D02*
X191176377Y-114417357D01*
X191176377Y-114417357D02*
X191176377Y-114595928D01*
X191176377Y-114595928D02*
X191116853Y-114714976D01*
X191116853Y-114714976D02*
X191057330Y-114774500D01*
X191057330Y-114774500D02*
X190938282Y-114834023D01*
X190938282Y-114834023D02*
X190462092Y-114834023D01*
X190462092Y-114834023D02*
X190462092Y-113584023D01*
X190462092Y-113584023D02*
X190878758Y-113584023D01*
X190878758Y-113584023D02*
X190997806Y-113643547D01*
X190997806Y-113643547D02*
X191057330Y-113703071D01*
X191057330Y-113703071D02*
X191116853Y-113822119D01*
X191116853Y-113822119D02*
X191116853Y-113941166D01*
X191116853Y-113941166D02*
X191057330Y-114060214D01*
X191057330Y-114060214D02*
X190997806Y-114119738D01*
X190997806Y-114119738D02*
X190878758Y-114179261D01*
X190878758Y-114179261D02*
X190462092Y-114179261D01*
X191533520Y-113584023D02*
X192247806Y-113584023D01*
X191890663Y-114834023D02*
X191890663Y-113584023D01*
X192664473Y-114834023D02*
X192664473Y-113584023D01*
X192664473Y-113584023D02*
X193378758Y-114834023D01*
X193378758Y-114834023D02*
X193378758Y-113584023D01*
X194866854Y-113703071D02*
X194926378Y-113643547D01*
X194926378Y-113643547D02*
X195045425Y-113584023D01*
X195045425Y-113584023D02*
X195343044Y-113584023D01*
X195343044Y-113584023D02*
X195462092Y-113643547D01*
X195462092Y-113643547D02*
X195521616Y-113703071D01*
X195521616Y-113703071D02*
X195581139Y-113822119D01*
X195581139Y-113822119D02*
X195581139Y-113941166D01*
X195581139Y-113941166D02*
X195521616Y-114119738D01*
X195521616Y-114119738D02*
X194807330Y-114834023D01*
X194807330Y-114834023D02*
X195581139Y-114834023D01*
X213462092Y-98834023D02*
X213462092Y-97584023D01*
X213462092Y-97584023D02*
X213938282Y-97584023D01*
X213938282Y-97584023D02*
X214057330Y-97643547D01*
X214057330Y-97643547D02*
X214116853Y-97703071D01*
X214116853Y-97703071D02*
X214176377Y-97822119D01*
X214176377Y-97822119D02*
X214176377Y-98000690D01*
X214176377Y-98000690D02*
X214116853Y-98119738D01*
X214116853Y-98119738D02*
X214057330Y-98179261D01*
X214057330Y-98179261D02*
X213938282Y-98238785D01*
X213938282Y-98238785D02*
X213462092Y-98238785D01*
X214593044Y-97584023D02*
X214890663Y-98834023D01*
X214890663Y-98834023D02*
X215128758Y-97941166D01*
X215128758Y-97941166D02*
X215366853Y-98834023D01*
X215366853Y-98834023D02*
X215664473Y-97584023D01*
X216854948Y-98834023D02*
X216438282Y-98238785D01*
X216140663Y-98834023D02*
X216140663Y-97584023D01*
X216140663Y-97584023D02*
X216616853Y-97584023D01*
X216616853Y-97584023D02*
X216735901Y-97643547D01*
X216735901Y-97643547D02*
X216795424Y-97703071D01*
X216795424Y-97703071D02*
X216854948Y-97822119D01*
X216854948Y-97822119D02*
X216854948Y-98000690D01*
X216854948Y-98000690D02*
X216795424Y-98119738D01*
X216795424Y-98119738D02*
X216735901Y-98179261D01*
X216735901Y-98179261D02*
X216616853Y-98238785D01*
X216616853Y-98238785D02*
X216140663Y-98238785D01*
X218581139Y-97584023D02*
X218819234Y-97584023D01*
X218819234Y-97584023D02*
X218938282Y-97643547D01*
X218938282Y-97643547D02*
X219057329Y-97762595D01*
X219057329Y-97762595D02*
X219116853Y-98000690D01*
X219116853Y-98000690D02*
X219116853Y-98417357D01*
X219116853Y-98417357D02*
X219057329Y-98655452D01*
X219057329Y-98655452D02*
X218938282Y-98774500D01*
X218938282Y-98774500D02*
X218819234Y-98834023D01*
X218819234Y-98834023D02*
X218581139Y-98834023D01*
X218581139Y-98834023D02*
X218462091Y-98774500D01*
X218462091Y-98774500D02*
X218343044Y-98655452D01*
X218343044Y-98655452D02*
X218283520Y-98417357D01*
X218283520Y-98417357D02*
X218283520Y-98000690D01*
X218283520Y-98000690D02*
X218343044Y-97762595D01*
X218343044Y-97762595D02*
X218462091Y-97643547D01*
X218462091Y-97643547D02*
X218581139Y-97584023D01*
X219652568Y-97584023D02*
X219652568Y-98595928D01*
X219652568Y-98595928D02*
X219712091Y-98714976D01*
X219712091Y-98714976D02*
X219771615Y-98774500D01*
X219771615Y-98774500D02*
X219890663Y-98834023D01*
X219890663Y-98834023D02*
X220128758Y-98834023D01*
X220128758Y-98834023D02*
X220247806Y-98774500D01*
X220247806Y-98774500D02*
X220307329Y-98714976D01*
X220307329Y-98714976D02*
X220366853Y-98595928D01*
X220366853Y-98595928D02*
X220366853Y-97584023D01*
X220783520Y-97584023D02*
X221497806Y-97584023D01*
X221140663Y-98834023D02*
X221140663Y-97584023D01*
D11*
X121907142Y-110359580D02*
X121859523Y-110407200D01*
X121859523Y-110407200D02*
X121716666Y-110454819D01*
X121716666Y-110454819D02*
X121621428Y-110454819D01*
X121621428Y-110454819D02*
X121478571Y-110407200D01*
X121478571Y-110407200D02*
X121383333Y-110311961D01*
X121383333Y-110311961D02*
X121335714Y-110216723D01*
X121335714Y-110216723D02*
X121288095Y-110026247D01*
X121288095Y-110026247D02*
X121288095Y-109883390D01*
X121288095Y-109883390D02*
X121335714Y-109692914D01*
X121335714Y-109692914D02*
X121383333Y-109597676D01*
X121383333Y-109597676D02*
X121478571Y-109502438D01*
X121478571Y-109502438D02*
X121621428Y-109454819D01*
X121621428Y-109454819D02*
X121716666Y-109454819D01*
X121716666Y-109454819D02*
X121859523Y-109502438D01*
X121859523Y-109502438D02*
X121907142Y-109550057D01*
X122859523Y-110454819D02*
X122288095Y-110454819D01*
X122573809Y-110454819D02*
X122573809Y-109454819D01*
X122573809Y-109454819D02*
X122478571Y-109597676D01*
X122478571Y-109597676D02*
X122383333Y-109692914D01*
X122383333Y-109692914D02*
X122288095Y-109740533D01*
X123192857Y-109454819D02*
X123811904Y-109454819D01*
X123811904Y-109454819D02*
X123478571Y-109835771D01*
X123478571Y-109835771D02*
X123621428Y-109835771D01*
X123621428Y-109835771D02*
X123716666Y-109883390D01*
X123716666Y-109883390D02*
X123764285Y-109931009D01*
X123764285Y-109931009D02*
X123811904Y-110026247D01*
X123811904Y-110026247D02*
X123811904Y-110264342D01*
X123811904Y-110264342D02*
X123764285Y-110359580D01*
X123764285Y-110359580D02*
X123716666Y-110407200D01*
X123716666Y-110407200D02*
X123621428Y-110454819D01*
X123621428Y-110454819D02*
X123335714Y-110454819D01*
X123335714Y-110454819D02*
X123240476Y-110407200D01*
X123240476Y-110407200D02*
X123192857Y-110359580D01*
X98133333Y-116954819D02*
X97800000Y-116478628D01*
X97561905Y-116954819D02*
X97561905Y-115954819D01*
X97561905Y-115954819D02*
X97942857Y-115954819D01*
X97942857Y-115954819D02*
X98038095Y-116002438D01*
X98038095Y-116002438D02*
X98085714Y-116050057D01*
X98085714Y-116050057D02*
X98133333Y-116145295D01*
X98133333Y-116145295D02*
X98133333Y-116288152D01*
X98133333Y-116288152D02*
X98085714Y-116383390D01*
X98085714Y-116383390D02*
X98038095Y-116431009D01*
X98038095Y-116431009D02*
X97942857Y-116478628D01*
X97942857Y-116478628D02*
X97561905Y-116478628D01*
X98609524Y-116954819D02*
X98800000Y-116954819D01*
X98800000Y-116954819D02*
X98895238Y-116907200D01*
X98895238Y-116907200D02*
X98942857Y-116859580D01*
X98942857Y-116859580D02*
X99038095Y-116716723D01*
X99038095Y-116716723D02*
X99085714Y-116526247D01*
X99085714Y-116526247D02*
X99085714Y-116145295D01*
X99085714Y-116145295D02*
X99038095Y-116050057D01*
X99038095Y-116050057D02*
X98990476Y-116002438D01*
X98990476Y-116002438D02*
X98895238Y-115954819D01*
X98895238Y-115954819D02*
X98704762Y-115954819D01*
X98704762Y-115954819D02*
X98609524Y-116002438D01*
X98609524Y-116002438D02*
X98561905Y-116050057D01*
X98561905Y-116050057D02*
X98514286Y-116145295D01*
X98514286Y-116145295D02*
X98514286Y-116383390D01*
X98514286Y-116383390D02*
X98561905Y-116478628D01*
X98561905Y-116478628D02*
X98609524Y-116526247D01*
X98609524Y-116526247D02*
X98704762Y-116573866D01*
X98704762Y-116573866D02*
X98895238Y-116573866D01*
X98895238Y-116573866D02*
X98990476Y-116526247D01*
X98990476Y-116526247D02*
X99038095Y-116478628D01*
X99038095Y-116478628D02*
X99085714Y-116383390D01*
X97157142Y-113954819D02*
X96823809Y-113478628D01*
X96585714Y-113954819D02*
X96585714Y-112954819D01*
X96585714Y-112954819D02*
X96966666Y-112954819D01*
X96966666Y-112954819D02*
X97061904Y-113002438D01*
X97061904Y-113002438D02*
X97109523Y-113050057D01*
X97109523Y-113050057D02*
X97157142Y-113145295D01*
X97157142Y-113145295D02*
X97157142Y-113288152D01*
X97157142Y-113288152D02*
X97109523Y-113383390D01*
X97109523Y-113383390D02*
X97061904Y-113431009D01*
X97061904Y-113431009D02*
X96966666Y-113478628D01*
X96966666Y-113478628D02*
X96585714Y-113478628D01*
X98109523Y-113954819D02*
X97538095Y-113954819D01*
X97823809Y-113954819D02*
X97823809Y-112954819D01*
X97823809Y-112954819D02*
X97728571Y-113097676D01*
X97728571Y-113097676D02*
X97633333Y-113192914D01*
X97633333Y-113192914D02*
X97538095Y-113240533D01*
X99061904Y-113954819D02*
X98490476Y-113954819D01*
X98776190Y-113954819D02*
X98776190Y-112954819D01*
X98776190Y-112954819D02*
X98680952Y-113097676D01*
X98680952Y-113097676D02*
X98585714Y-113192914D01*
X98585714Y-113192914D02*
X98490476Y-113240533D01*
X97157142Y-115357993D02*
X96823809Y-114881802D01*
X96585714Y-115357993D02*
X96585714Y-114357993D01*
X96585714Y-114357993D02*
X96966666Y-114357993D01*
X96966666Y-114357993D02*
X97061904Y-114405612D01*
X97061904Y-114405612D02*
X97109523Y-114453231D01*
X97109523Y-114453231D02*
X97157142Y-114548469D01*
X97157142Y-114548469D02*
X97157142Y-114691326D01*
X97157142Y-114691326D02*
X97109523Y-114786564D01*
X97109523Y-114786564D02*
X97061904Y-114834183D01*
X97061904Y-114834183D02*
X96966666Y-114881802D01*
X96966666Y-114881802D02*
X96585714Y-114881802D01*
X98109523Y-115357993D02*
X97538095Y-115357993D01*
X97823809Y-115357993D02*
X97823809Y-114357993D01*
X97823809Y-114357993D02*
X97728571Y-114500850D01*
X97728571Y-114500850D02*
X97633333Y-114596088D01*
X97633333Y-114596088D02*
X97538095Y-114643707D01*
X98728571Y-114357993D02*
X98823809Y-114357993D01*
X98823809Y-114357993D02*
X98919047Y-114405612D01*
X98919047Y-114405612D02*
X98966666Y-114453231D01*
X98966666Y-114453231D02*
X99014285Y-114548469D01*
X99014285Y-114548469D02*
X99061904Y-114738945D01*
X99061904Y-114738945D02*
X99061904Y-114977040D01*
X99061904Y-114977040D02*
X99014285Y-115167516D01*
X99014285Y-115167516D02*
X98966666Y-115262754D01*
X98966666Y-115262754D02*
X98919047Y-115310374D01*
X98919047Y-115310374D02*
X98823809Y-115357993D01*
X98823809Y-115357993D02*
X98728571Y-115357993D01*
X98728571Y-115357993D02*
X98633333Y-115310374D01*
X98633333Y-115310374D02*
X98585714Y-115262754D01*
X98585714Y-115262754D02*
X98538095Y-115167516D01*
X98538095Y-115167516D02*
X98490476Y-114977040D01*
X98490476Y-114977040D02*
X98490476Y-114738945D01*
X98490476Y-114738945D02*
X98538095Y-114548469D01*
X98538095Y-114548469D02*
X98585714Y-114453231D01*
X98585714Y-114453231D02*
X98633333Y-114405612D01*
X98633333Y-114405612D02*
X98728571Y-114357993D01*
X100654819Y-117842857D02*
X100178628Y-118176190D01*
X100654819Y-118414285D02*
X99654819Y-118414285D01*
X99654819Y-118414285D02*
X99654819Y-118033333D01*
X99654819Y-118033333D02*
X99702438Y-117938095D01*
X99702438Y-117938095D02*
X99750057Y-117890476D01*
X99750057Y-117890476D02*
X99845295Y-117842857D01*
X99845295Y-117842857D02*
X99988152Y-117842857D01*
X99988152Y-117842857D02*
X100083390Y-117890476D01*
X100083390Y-117890476D02*
X100131009Y-117938095D01*
X100131009Y-117938095D02*
X100178628Y-118033333D01*
X100178628Y-118033333D02*
X100178628Y-118414285D01*
X100654819Y-116890476D02*
X100654819Y-117461904D01*
X100654819Y-117176190D02*
X99654819Y-117176190D01*
X99654819Y-117176190D02*
X99797676Y-117271428D01*
X99797676Y-117271428D02*
X99892914Y-117366666D01*
X99892914Y-117366666D02*
X99940533Y-117461904D01*
X100083390Y-116319047D02*
X100035771Y-116414285D01*
X100035771Y-116414285D02*
X99988152Y-116461904D01*
X99988152Y-116461904D02*
X99892914Y-116509523D01*
X99892914Y-116509523D02*
X99845295Y-116509523D01*
X99845295Y-116509523D02*
X99750057Y-116461904D01*
X99750057Y-116461904D02*
X99702438Y-116414285D01*
X99702438Y-116414285D02*
X99654819Y-116319047D01*
X99654819Y-116319047D02*
X99654819Y-116128571D01*
X99654819Y-116128571D02*
X99702438Y-116033333D01*
X99702438Y-116033333D02*
X99750057Y-115985714D01*
X99750057Y-115985714D02*
X99845295Y-115938095D01*
X99845295Y-115938095D02*
X99892914Y-115938095D01*
X99892914Y-115938095D02*
X99988152Y-115985714D01*
X99988152Y-115985714D02*
X100035771Y-116033333D01*
X100035771Y-116033333D02*
X100083390Y-116128571D01*
X100083390Y-116128571D02*
X100083390Y-116319047D01*
X100083390Y-116319047D02*
X100131009Y-116414285D01*
X100131009Y-116414285D02*
X100178628Y-116461904D01*
X100178628Y-116461904D02*
X100273866Y-116509523D01*
X100273866Y-116509523D02*
X100464342Y-116509523D01*
X100464342Y-116509523D02*
X100559580Y-116461904D01*
X100559580Y-116461904D02*
X100607200Y-116414285D01*
X100607200Y-116414285D02*
X100654819Y-116319047D01*
X100654819Y-116319047D02*
X100654819Y-116128571D01*
X100654819Y-116128571D02*
X100607200Y-116033333D01*
X100607200Y-116033333D02*
X100559580Y-115985714D01*
X100559580Y-115985714D02*
X100464342Y-115938095D01*
X100464342Y-115938095D02*
X100273866Y-115938095D01*
X100273866Y-115938095D02*
X100178628Y-115985714D01*
X100178628Y-115985714D02*
X100131009Y-116033333D01*
X100131009Y-116033333D02*
X100083390Y-116128571D01*
X94221123Y-114929676D02*
X94268743Y-114977295D01*
X94268743Y-114977295D02*
X94316362Y-115120152D01*
X94316362Y-115120152D02*
X94316362Y-115215390D01*
X94316362Y-115215390D02*
X94268743Y-115358247D01*
X94268743Y-115358247D02*
X94173504Y-115453485D01*
X94173504Y-115453485D02*
X94078266Y-115501104D01*
X94078266Y-115501104D02*
X93887790Y-115548723D01*
X93887790Y-115548723D02*
X93744933Y-115548723D01*
X93744933Y-115548723D02*
X93554457Y-115501104D01*
X93554457Y-115501104D02*
X93459219Y-115453485D01*
X93459219Y-115453485D02*
X93363981Y-115358247D01*
X93363981Y-115358247D02*
X93316362Y-115215390D01*
X93316362Y-115215390D02*
X93316362Y-115120152D01*
X93316362Y-115120152D02*
X93363981Y-114977295D01*
X93363981Y-114977295D02*
X93411600Y-114929676D01*
X93649695Y-114072533D02*
X94316362Y-114072533D01*
X93268743Y-114310628D02*
X93983028Y-114548723D01*
X93983028Y-114548723D02*
X93983028Y-113929676D01*
X89666666Y-98931009D02*
X89333333Y-98931009D01*
X89333333Y-99454819D02*
X89333333Y-98454819D01*
X89333333Y-98454819D02*
X89809523Y-98454819D01*
X90095238Y-98454819D02*
X90714285Y-98454819D01*
X90714285Y-98454819D02*
X90380952Y-98835771D01*
X90380952Y-98835771D02*
X90523809Y-98835771D01*
X90523809Y-98835771D02*
X90619047Y-98883390D01*
X90619047Y-98883390D02*
X90666666Y-98931009D01*
X90666666Y-98931009D02*
X90714285Y-99026247D01*
X90714285Y-99026247D02*
X90714285Y-99264342D01*
X90714285Y-99264342D02*
X90666666Y-99359580D01*
X90666666Y-99359580D02*
X90619047Y-99407200D01*
X90619047Y-99407200D02*
X90523809Y-99454819D01*
X90523809Y-99454819D02*
X90238095Y-99454819D01*
X90238095Y-99454819D02*
X90142857Y-99407200D01*
X90142857Y-99407200D02*
X90095238Y-99359580D01*
X112691441Y-119500698D02*
X112643822Y-119548318D01*
X112643822Y-119548318D02*
X112500965Y-119595937D01*
X112500965Y-119595937D02*
X112405727Y-119595937D01*
X112405727Y-119595937D02*
X112262870Y-119548318D01*
X112262870Y-119548318D02*
X112167632Y-119453079D01*
X112167632Y-119453079D02*
X112120013Y-119357841D01*
X112120013Y-119357841D02*
X112072394Y-119167365D01*
X112072394Y-119167365D02*
X112072394Y-119024508D01*
X112072394Y-119024508D02*
X112120013Y-118834032D01*
X112120013Y-118834032D02*
X112167632Y-118738794D01*
X112167632Y-118738794D02*
X112262870Y-118643556D01*
X112262870Y-118643556D02*
X112405727Y-118595937D01*
X112405727Y-118595937D02*
X112500965Y-118595937D01*
X112500965Y-118595937D02*
X112643822Y-118643556D01*
X112643822Y-118643556D02*
X112691441Y-118691175D01*
X113643822Y-119595937D02*
X113072394Y-119595937D01*
X113358108Y-119595937D02*
X113358108Y-118595937D01*
X113358108Y-118595937D02*
X113262870Y-118738794D01*
X113262870Y-118738794D02*
X113167632Y-118834032D01*
X113167632Y-118834032D02*
X113072394Y-118881651D01*
X113977156Y-118595937D02*
X114643822Y-118595937D01*
X114643822Y-118595937D02*
X114215251Y-119595937D01*
X113269142Y-116039580D02*
X113221523Y-116087200D01*
X113221523Y-116087200D02*
X113078666Y-116134819D01*
X113078666Y-116134819D02*
X112983428Y-116134819D01*
X112983428Y-116134819D02*
X112840571Y-116087200D01*
X112840571Y-116087200D02*
X112745333Y-115991961D01*
X112745333Y-115991961D02*
X112697714Y-115896723D01*
X112697714Y-115896723D02*
X112650095Y-115706247D01*
X112650095Y-115706247D02*
X112650095Y-115563390D01*
X112650095Y-115563390D02*
X112697714Y-115372914D01*
X112697714Y-115372914D02*
X112745333Y-115277676D01*
X112745333Y-115277676D02*
X112840571Y-115182438D01*
X112840571Y-115182438D02*
X112983428Y-115134819D01*
X112983428Y-115134819D02*
X113078666Y-115134819D01*
X113078666Y-115134819D02*
X113221523Y-115182438D01*
X113221523Y-115182438D02*
X113269142Y-115230057D01*
X114221523Y-116134819D02*
X113650095Y-116134819D01*
X113935809Y-116134819D02*
X113935809Y-115134819D01*
X113935809Y-115134819D02*
X113840571Y-115277676D01*
X113840571Y-115277676D02*
X113745333Y-115372914D01*
X113745333Y-115372914D02*
X113650095Y-115420533D01*
X115126285Y-115134819D02*
X114650095Y-115134819D01*
X114650095Y-115134819D02*
X114602476Y-115611009D01*
X114602476Y-115611009D02*
X114650095Y-115563390D01*
X114650095Y-115563390D02*
X114745333Y-115515771D01*
X114745333Y-115515771D02*
X114983428Y-115515771D01*
X114983428Y-115515771D02*
X115078666Y-115563390D01*
X115078666Y-115563390D02*
X115126285Y-115611009D01*
X115126285Y-115611009D02*
X115173904Y-115706247D01*
X115173904Y-115706247D02*
X115173904Y-115944342D01*
X115173904Y-115944342D02*
X115126285Y-116039580D01*
X115126285Y-116039580D02*
X115078666Y-116087200D01*
X115078666Y-116087200D02*
X114983428Y-116134819D01*
X114983428Y-116134819D02*
X114745333Y-116134819D01*
X114745333Y-116134819D02*
X114650095Y-116087200D01*
X114650095Y-116087200D02*
X114602476Y-116039580D01*
X195357142Y-110954819D02*
X195023809Y-110478628D01*
X194785714Y-110954819D02*
X194785714Y-109954819D01*
X194785714Y-109954819D02*
X195166666Y-109954819D01*
X195166666Y-109954819D02*
X195261904Y-110002438D01*
X195261904Y-110002438D02*
X195309523Y-110050057D01*
X195309523Y-110050057D02*
X195357142Y-110145295D01*
X195357142Y-110145295D02*
X195357142Y-110288152D01*
X195357142Y-110288152D02*
X195309523Y-110383390D01*
X195309523Y-110383390D02*
X195261904Y-110431009D01*
X195261904Y-110431009D02*
X195166666Y-110478628D01*
X195166666Y-110478628D02*
X194785714Y-110478628D01*
X196214285Y-110288152D02*
X196214285Y-110954819D01*
X195976190Y-109907200D02*
X195738095Y-110621485D01*
X195738095Y-110621485D02*
X196357142Y-110621485D01*
X196785714Y-110954819D02*
X196976190Y-110954819D01*
X196976190Y-110954819D02*
X197071428Y-110907200D01*
X197071428Y-110907200D02*
X197119047Y-110859580D01*
X197119047Y-110859580D02*
X197214285Y-110716723D01*
X197214285Y-110716723D02*
X197261904Y-110526247D01*
X197261904Y-110526247D02*
X197261904Y-110145295D01*
X197261904Y-110145295D02*
X197214285Y-110050057D01*
X197214285Y-110050057D02*
X197166666Y-110002438D01*
X197166666Y-110002438D02*
X197071428Y-109954819D01*
X197071428Y-109954819D02*
X196880952Y-109954819D01*
X196880952Y-109954819D02*
X196785714Y-110002438D01*
X196785714Y-110002438D02*
X196738095Y-110050057D01*
X196738095Y-110050057D02*
X196690476Y-110145295D01*
X196690476Y-110145295D02*
X196690476Y-110383390D01*
X196690476Y-110383390D02*
X196738095Y-110478628D01*
X196738095Y-110478628D02*
X196785714Y-110526247D01*
X196785714Y-110526247D02*
X196880952Y-110573866D01*
X196880952Y-110573866D02*
X197071428Y-110573866D01*
X197071428Y-110573866D02*
X197166666Y-110526247D01*
X197166666Y-110526247D02*
X197214285Y-110478628D01*
X197214285Y-110478628D02*
X197261904Y-110383390D01*
X113269142Y-118029580D02*
X113221523Y-118077200D01*
X113221523Y-118077200D02*
X113078666Y-118124819D01*
X113078666Y-118124819D02*
X112983428Y-118124819D01*
X112983428Y-118124819D02*
X112840571Y-118077200D01*
X112840571Y-118077200D02*
X112745333Y-117981961D01*
X112745333Y-117981961D02*
X112697714Y-117886723D01*
X112697714Y-117886723D02*
X112650095Y-117696247D01*
X112650095Y-117696247D02*
X112650095Y-117553390D01*
X112650095Y-117553390D02*
X112697714Y-117362914D01*
X112697714Y-117362914D02*
X112745333Y-117267676D01*
X112745333Y-117267676D02*
X112840571Y-117172438D01*
X112840571Y-117172438D02*
X112983428Y-117124819D01*
X112983428Y-117124819D02*
X113078666Y-117124819D01*
X113078666Y-117124819D02*
X113221523Y-117172438D01*
X113221523Y-117172438D02*
X113269142Y-117220057D01*
X114221523Y-118124819D02*
X113650095Y-118124819D01*
X113935809Y-118124819D02*
X113935809Y-117124819D01*
X113935809Y-117124819D02*
X113840571Y-117267676D01*
X113840571Y-117267676D02*
X113745333Y-117362914D01*
X113745333Y-117362914D02*
X113650095Y-117410533D01*
X115078666Y-117124819D02*
X114888190Y-117124819D01*
X114888190Y-117124819D02*
X114792952Y-117172438D01*
X114792952Y-117172438D02*
X114745333Y-117220057D01*
X114745333Y-117220057D02*
X114650095Y-117362914D01*
X114650095Y-117362914D02*
X114602476Y-117553390D01*
X114602476Y-117553390D02*
X114602476Y-117934342D01*
X114602476Y-117934342D02*
X114650095Y-118029580D01*
X114650095Y-118029580D02*
X114697714Y-118077200D01*
X114697714Y-118077200D02*
X114792952Y-118124819D01*
X114792952Y-118124819D02*
X114983428Y-118124819D01*
X114983428Y-118124819D02*
X115078666Y-118077200D01*
X115078666Y-118077200D02*
X115126285Y-118029580D01*
X115126285Y-118029580D02*
X115173904Y-117934342D01*
X115173904Y-117934342D02*
X115173904Y-117696247D01*
X115173904Y-117696247D02*
X115126285Y-117601009D01*
X115126285Y-117601009D02*
X115078666Y-117553390D01*
X115078666Y-117553390D02*
X114983428Y-117505771D01*
X114983428Y-117505771D02*
X114792952Y-117505771D01*
X114792952Y-117505771D02*
X114697714Y-117553390D01*
X114697714Y-117553390D02*
X114650095Y-117601009D01*
X114650095Y-117601009D02*
X114602476Y-117696247D01*
X121883333Y-112509580D02*
X121835714Y-112557200D01*
X121835714Y-112557200D02*
X121692857Y-112604819D01*
X121692857Y-112604819D02*
X121597619Y-112604819D01*
X121597619Y-112604819D02*
X121454762Y-112557200D01*
X121454762Y-112557200D02*
X121359524Y-112461961D01*
X121359524Y-112461961D02*
X121311905Y-112366723D01*
X121311905Y-112366723D02*
X121264286Y-112176247D01*
X121264286Y-112176247D02*
X121264286Y-112033390D01*
X121264286Y-112033390D02*
X121311905Y-111842914D01*
X121311905Y-111842914D02*
X121359524Y-111747676D01*
X121359524Y-111747676D02*
X121454762Y-111652438D01*
X121454762Y-111652438D02*
X121597619Y-111604819D01*
X121597619Y-111604819D02*
X121692857Y-111604819D01*
X121692857Y-111604819D02*
X121835714Y-111652438D01*
X121835714Y-111652438D02*
X121883333Y-111700057D01*
X122740476Y-111604819D02*
X122550000Y-111604819D01*
X122550000Y-111604819D02*
X122454762Y-111652438D01*
X122454762Y-111652438D02*
X122407143Y-111700057D01*
X122407143Y-111700057D02*
X122311905Y-111842914D01*
X122311905Y-111842914D02*
X122264286Y-112033390D01*
X122264286Y-112033390D02*
X122264286Y-112414342D01*
X122264286Y-112414342D02*
X122311905Y-112509580D01*
X122311905Y-112509580D02*
X122359524Y-112557200D01*
X122359524Y-112557200D02*
X122454762Y-112604819D01*
X122454762Y-112604819D02*
X122645238Y-112604819D01*
X122645238Y-112604819D02*
X122740476Y-112557200D01*
X122740476Y-112557200D02*
X122788095Y-112509580D01*
X122788095Y-112509580D02*
X122835714Y-112414342D01*
X122835714Y-112414342D02*
X122835714Y-112176247D01*
X122835714Y-112176247D02*
X122788095Y-112081009D01*
X122788095Y-112081009D02*
X122740476Y-112033390D01*
X122740476Y-112033390D02*
X122645238Y-111985771D01*
X122645238Y-111985771D02*
X122454762Y-111985771D01*
X122454762Y-111985771D02*
X122359524Y-112033390D01*
X122359524Y-112033390D02*
X122311905Y-112081009D01*
X122311905Y-112081009D02*
X122264286Y-112176247D01*
X167166666Y-106954819D02*
X167166666Y-107669104D01*
X167166666Y-107669104D02*
X167119047Y-107811961D01*
X167119047Y-107811961D02*
X167023809Y-107907200D01*
X167023809Y-107907200D02*
X166880952Y-107954819D01*
X166880952Y-107954819D02*
X166785714Y-107954819D01*
X167595238Y-107050057D02*
X167642857Y-107002438D01*
X167642857Y-107002438D02*
X167738095Y-106954819D01*
X167738095Y-106954819D02*
X167976190Y-106954819D01*
X167976190Y-106954819D02*
X168071428Y-107002438D01*
X168071428Y-107002438D02*
X168119047Y-107050057D01*
X168119047Y-107050057D02*
X168166666Y-107145295D01*
X168166666Y-107145295D02*
X168166666Y-107240533D01*
X168166666Y-107240533D02*
X168119047Y-107383390D01*
X168119047Y-107383390D02*
X167547619Y-107954819D01*
X167547619Y-107954819D02*
X168166666Y-107954819D01*
X162716597Y-92907211D02*
X162383264Y-92431020D01*
X162145169Y-92907211D02*
X162145169Y-91907211D01*
X162145169Y-91907211D02*
X162526121Y-91907211D01*
X162526121Y-91907211D02*
X162621359Y-91954830D01*
X162621359Y-91954830D02*
X162668978Y-92002449D01*
X162668978Y-92002449D02*
X162716597Y-92097687D01*
X162716597Y-92097687D02*
X162716597Y-92240544D01*
X162716597Y-92240544D02*
X162668978Y-92335782D01*
X162668978Y-92335782D02*
X162621359Y-92383401D01*
X162621359Y-92383401D02*
X162526121Y-92431020D01*
X162526121Y-92431020D02*
X162145169Y-92431020D01*
X163049931Y-91907211D02*
X163668978Y-91907211D01*
X163668978Y-91907211D02*
X163335645Y-92288163D01*
X163335645Y-92288163D02*
X163478502Y-92288163D01*
X163478502Y-92288163D02*
X163573740Y-92335782D01*
X163573740Y-92335782D02*
X163621359Y-92383401D01*
X163621359Y-92383401D02*
X163668978Y-92478639D01*
X163668978Y-92478639D02*
X163668978Y-92716734D01*
X163668978Y-92716734D02*
X163621359Y-92811972D01*
X163621359Y-92811972D02*
X163573740Y-92859592D01*
X163573740Y-92859592D02*
X163478502Y-92907211D01*
X163478502Y-92907211D02*
X163192788Y-92907211D01*
X163192788Y-92907211D02*
X163097550Y-92859592D01*
X163097550Y-92859592D02*
X163049931Y-92811972D01*
X140429389Y-88859580D02*
X140381770Y-88907200D01*
X140381770Y-88907200D02*
X140238913Y-88954819D01*
X140238913Y-88954819D02*
X140143675Y-88954819D01*
X140143675Y-88954819D02*
X140000818Y-88907200D01*
X140000818Y-88907200D02*
X139905580Y-88811961D01*
X139905580Y-88811961D02*
X139857961Y-88716723D01*
X139857961Y-88716723D02*
X139810342Y-88526247D01*
X139810342Y-88526247D02*
X139810342Y-88383390D01*
X139810342Y-88383390D02*
X139857961Y-88192914D01*
X139857961Y-88192914D02*
X139905580Y-88097676D01*
X139905580Y-88097676D02*
X140000818Y-88002438D01*
X140000818Y-88002438D02*
X140143675Y-87954819D01*
X140143675Y-87954819D02*
X140238913Y-87954819D01*
X140238913Y-87954819D02*
X140381770Y-88002438D01*
X140381770Y-88002438D02*
X140429389Y-88050057D01*
X141381770Y-88954819D02*
X140810342Y-88954819D01*
X141096056Y-88954819D02*
X141096056Y-87954819D01*
X141096056Y-87954819D02*
X141000818Y-88097676D01*
X141000818Y-88097676D02*
X140905580Y-88192914D01*
X140905580Y-88192914D02*
X140810342Y-88240533D01*
X88986662Y-115392883D02*
X88653329Y-114916692D01*
X88415234Y-115392883D02*
X88415234Y-114392883D01*
X88415234Y-114392883D02*
X88796186Y-114392883D01*
X88796186Y-114392883D02*
X88891424Y-114440502D01*
X88891424Y-114440502D02*
X88939043Y-114488121D01*
X88939043Y-114488121D02*
X88986662Y-114583359D01*
X88986662Y-114583359D02*
X88986662Y-114726216D01*
X88986662Y-114726216D02*
X88939043Y-114821454D01*
X88939043Y-114821454D02*
X88891424Y-114869073D01*
X88891424Y-114869073D02*
X88796186Y-114916692D01*
X88796186Y-114916692D02*
X88415234Y-114916692D01*
X89891424Y-114392883D02*
X89415234Y-114392883D01*
X89415234Y-114392883D02*
X89367615Y-114869073D01*
X89367615Y-114869073D02*
X89415234Y-114821454D01*
X89415234Y-114821454D02*
X89510472Y-114773835D01*
X89510472Y-114773835D02*
X89748567Y-114773835D01*
X89748567Y-114773835D02*
X89843805Y-114821454D01*
X89843805Y-114821454D02*
X89891424Y-114869073D01*
X89891424Y-114869073D02*
X89939043Y-114964311D01*
X89939043Y-114964311D02*
X89939043Y-115202406D01*
X89939043Y-115202406D02*
X89891424Y-115297644D01*
X89891424Y-115297644D02*
X89843805Y-115345264D01*
X89843805Y-115345264D02*
X89748567Y-115392883D01*
X89748567Y-115392883D02*
X89510472Y-115392883D01*
X89510472Y-115392883D02*
X89415234Y-115345264D01*
X89415234Y-115345264D02*
X89367615Y-115297644D01*
X90923592Y-116766434D02*
X90590259Y-116290243D01*
X90352164Y-116766434D02*
X90352164Y-115766434D01*
X90352164Y-115766434D02*
X90733116Y-115766434D01*
X90733116Y-115766434D02*
X90828354Y-115814053D01*
X90828354Y-115814053D02*
X90875973Y-115861672D01*
X90875973Y-115861672D02*
X90923592Y-115956910D01*
X90923592Y-115956910D02*
X90923592Y-116099767D01*
X90923592Y-116099767D02*
X90875973Y-116195005D01*
X90875973Y-116195005D02*
X90828354Y-116242624D01*
X90828354Y-116242624D02*
X90733116Y-116290243D01*
X90733116Y-116290243D02*
X90352164Y-116290243D01*
X91875973Y-116766434D02*
X91304545Y-116766434D01*
X91590259Y-116766434D02*
X91590259Y-115766434D01*
X91590259Y-115766434D02*
X91495021Y-115909291D01*
X91495021Y-115909291D02*
X91399783Y-116004529D01*
X91399783Y-116004529D02*
X91304545Y-116052148D01*
X92209307Y-115766434D02*
X92828354Y-115766434D01*
X92828354Y-115766434D02*
X92495021Y-116147386D01*
X92495021Y-116147386D02*
X92637878Y-116147386D01*
X92637878Y-116147386D02*
X92733116Y-116195005D01*
X92733116Y-116195005D02*
X92780735Y-116242624D01*
X92780735Y-116242624D02*
X92828354Y-116337862D01*
X92828354Y-116337862D02*
X92828354Y-116575957D01*
X92828354Y-116575957D02*
X92780735Y-116671195D01*
X92780735Y-116671195D02*
X92733116Y-116718815D01*
X92733116Y-116718815D02*
X92637878Y-116766434D01*
X92637878Y-116766434D02*
X92352164Y-116766434D01*
X92352164Y-116766434D02*
X92256926Y-116718815D01*
X92256926Y-116718815D02*
X92209307Y-116671195D01*
X105504819Y-117261904D02*
X106314342Y-117261904D01*
X106314342Y-117261904D02*
X106409580Y-117214285D01*
X106409580Y-117214285D02*
X106457200Y-117166666D01*
X106457200Y-117166666D02*
X106504819Y-117071428D01*
X106504819Y-117071428D02*
X106504819Y-116880952D01*
X106504819Y-116880952D02*
X106457200Y-116785714D01*
X106457200Y-116785714D02*
X106409580Y-116738095D01*
X106409580Y-116738095D02*
X106314342Y-116690476D01*
X106314342Y-116690476D02*
X105504819Y-116690476D01*
X105504819Y-116309523D02*
X105504819Y-115642857D01*
X105504819Y-115642857D02*
X106504819Y-116071428D01*
X88058734Y-105230945D02*
X88058734Y-106040468D01*
X88058734Y-106040468D02*
X88106353Y-106135706D01*
X88106353Y-106135706D02*
X88153972Y-106183326D01*
X88153972Y-106183326D02*
X88249210Y-106230945D01*
X88249210Y-106230945D02*
X88439686Y-106230945D01*
X88439686Y-106230945D02*
X88534924Y-106183326D01*
X88534924Y-106183326D02*
X88582543Y-106135706D01*
X88582543Y-106135706D02*
X88630162Y-106040468D01*
X88630162Y-106040468D02*
X88630162Y-105230945D01*
X89011115Y-105230945D02*
X89630162Y-105230945D01*
X89630162Y-105230945D02*
X89296829Y-105611897D01*
X89296829Y-105611897D02*
X89439686Y-105611897D01*
X89439686Y-105611897D02*
X89534924Y-105659516D01*
X89534924Y-105659516D02*
X89582543Y-105707135D01*
X89582543Y-105707135D02*
X89630162Y-105802373D01*
X89630162Y-105802373D02*
X89630162Y-106040468D01*
X89630162Y-106040468D02*
X89582543Y-106135706D01*
X89582543Y-106135706D02*
X89534924Y-106183326D01*
X89534924Y-106183326D02*
X89439686Y-106230945D01*
X89439686Y-106230945D02*
X89153972Y-106230945D01*
X89153972Y-106230945D02*
X89058734Y-106183326D01*
X89058734Y-106183326D02*
X89011115Y-106135706D01*
X137666666Y-106954819D02*
X137666666Y-107669104D01*
X137666666Y-107669104D02*
X137619047Y-107811961D01*
X137619047Y-107811961D02*
X137523809Y-107907200D01*
X137523809Y-107907200D02*
X137380952Y-107954819D01*
X137380952Y-107954819D02*
X137285714Y-107954819D01*
X138047619Y-106954819D02*
X138666666Y-106954819D01*
X138666666Y-106954819D02*
X138333333Y-107335771D01*
X138333333Y-107335771D02*
X138476190Y-107335771D01*
X138476190Y-107335771D02*
X138571428Y-107383390D01*
X138571428Y-107383390D02*
X138619047Y-107431009D01*
X138619047Y-107431009D02*
X138666666Y-107526247D01*
X138666666Y-107526247D02*
X138666666Y-107764342D01*
X138666666Y-107764342D02*
X138619047Y-107859580D01*
X138619047Y-107859580D02*
X138571428Y-107907200D01*
X138571428Y-107907200D02*
X138476190Y-107954819D01*
X138476190Y-107954819D02*
X138190476Y-107954819D01*
X138190476Y-107954819D02*
X138095238Y-107907200D01*
X138095238Y-107907200D02*
X138047619Y-107859580D01*
X105902129Y-113163801D02*
X105854510Y-113211421D01*
X105854510Y-113211421D02*
X105711653Y-113259040D01*
X105711653Y-113259040D02*
X105616415Y-113259040D01*
X105616415Y-113259040D02*
X105473558Y-113211421D01*
X105473558Y-113211421D02*
X105378320Y-113116182D01*
X105378320Y-113116182D02*
X105330701Y-113020944D01*
X105330701Y-113020944D02*
X105283082Y-112830468D01*
X105283082Y-112830468D02*
X105283082Y-112687611D01*
X105283082Y-112687611D02*
X105330701Y-112497135D01*
X105330701Y-112497135D02*
X105378320Y-112401897D01*
X105378320Y-112401897D02*
X105473558Y-112306659D01*
X105473558Y-112306659D02*
X105616415Y-112259040D01*
X105616415Y-112259040D02*
X105711653Y-112259040D01*
X105711653Y-112259040D02*
X105854510Y-112306659D01*
X105854510Y-112306659D02*
X105902129Y-112354278D01*
X106806891Y-112259040D02*
X106330701Y-112259040D01*
X106330701Y-112259040D02*
X106283082Y-112735230D01*
X106283082Y-112735230D02*
X106330701Y-112687611D01*
X106330701Y-112687611D02*
X106425939Y-112639992D01*
X106425939Y-112639992D02*
X106664034Y-112639992D01*
X106664034Y-112639992D02*
X106759272Y-112687611D01*
X106759272Y-112687611D02*
X106806891Y-112735230D01*
X106806891Y-112735230D02*
X106854510Y-112830468D01*
X106854510Y-112830468D02*
X106854510Y-113068563D01*
X106854510Y-113068563D02*
X106806891Y-113163801D01*
X106806891Y-113163801D02*
X106759272Y-113211421D01*
X106759272Y-113211421D02*
X106664034Y-113259040D01*
X106664034Y-113259040D02*
X106425939Y-113259040D01*
X106425939Y-113259040D02*
X106330701Y-113211421D01*
X106330701Y-113211421D02*
X106283082Y-113163801D01*
X190666667Y-108907200D02*
X190809524Y-108954819D01*
X190809524Y-108954819D02*
X191047619Y-108954819D01*
X191047619Y-108954819D02*
X191142857Y-108907200D01*
X191142857Y-108907200D02*
X191190476Y-108859580D01*
X191190476Y-108859580D02*
X191238095Y-108764342D01*
X191238095Y-108764342D02*
X191238095Y-108669104D01*
X191238095Y-108669104D02*
X191190476Y-108573866D01*
X191190476Y-108573866D02*
X191142857Y-108526247D01*
X191142857Y-108526247D02*
X191047619Y-108478628D01*
X191047619Y-108478628D02*
X190857143Y-108431009D01*
X190857143Y-108431009D02*
X190761905Y-108383390D01*
X190761905Y-108383390D02*
X190714286Y-108335771D01*
X190714286Y-108335771D02*
X190666667Y-108240533D01*
X190666667Y-108240533D02*
X190666667Y-108145295D01*
X190666667Y-108145295D02*
X190714286Y-108050057D01*
X190714286Y-108050057D02*
X190761905Y-108002438D01*
X190761905Y-108002438D02*
X190857143Y-107954819D01*
X190857143Y-107954819D02*
X191095238Y-107954819D01*
X191095238Y-107954819D02*
X191238095Y-108002438D01*
X191571429Y-107954819D02*
X191809524Y-108954819D01*
X191809524Y-108954819D02*
X192000000Y-108240533D01*
X192000000Y-108240533D02*
X192190476Y-108954819D01*
X192190476Y-108954819D02*
X192428572Y-107954819D01*
X193238095Y-107954819D02*
X193047619Y-107954819D01*
X193047619Y-107954819D02*
X192952381Y-108002438D01*
X192952381Y-108002438D02*
X192904762Y-108050057D01*
X192904762Y-108050057D02*
X192809524Y-108192914D01*
X192809524Y-108192914D02*
X192761905Y-108383390D01*
X192761905Y-108383390D02*
X192761905Y-108764342D01*
X192761905Y-108764342D02*
X192809524Y-108859580D01*
X192809524Y-108859580D02*
X192857143Y-108907200D01*
X192857143Y-108907200D02*
X192952381Y-108954819D01*
X192952381Y-108954819D02*
X193142857Y-108954819D01*
X193142857Y-108954819D02*
X193238095Y-108907200D01*
X193238095Y-108907200D02*
X193285714Y-108859580D01*
X193285714Y-108859580D02*
X193333333Y-108764342D01*
X193333333Y-108764342D02*
X193333333Y-108526247D01*
X193333333Y-108526247D02*
X193285714Y-108431009D01*
X193285714Y-108431009D02*
X193238095Y-108383390D01*
X193238095Y-108383390D02*
X193142857Y-108335771D01*
X193142857Y-108335771D02*
X192952381Y-108335771D01*
X192952381Y-108335771D02*
X192857143Y-108383390D01*
X192857143Y-108383390D02*
X192809524Y-108431009D01*
X192809524Y-108431009D02*
X192761905Y-108526247D01*
X106833333Y-88859580D02*
X106785714Y-88907200D01*
X106785714Y-88907200D02*
X106642857Y-88954819D01*
X106642857Y-88954819D02*
X106547619Y-88954819D01*
X106547619Y-88954819D02*
X106404762Y-88907200D01*
X106404762Y-88907200D02*
X106309524Y-88811961D01*
X106309524Y-88811961D02*
X106261905Y-88716723D01*
X106261905Y-88716723D02*
X106214286Y-88526247D01*
X106214286Y-88526247D02*
X106214286Y-88383390D01*
X106214286Y-88383390D02*
X106261905Y-88192914D01*
X106261905Y-88192914D02*
X106309524Y-88097676D01*
X106309524Y-88097676D02*
X106404762Y-88002438D01*
X106404762Y-88002438D02*
X106547619Y-87954819D01*
X106547619Y-87954819D02*
X106642857Y-87954819D01*
X106642857Y-87954819D02*
X106785714Y-88002438D01*
X106785714Y-88002438D02*
X106833333Y-88050057D01*
X107404762Y-88383390D02*
X107309524Y-88335771D01*
X107309524Y-88335771D02*
X107261905Y-88288152D01*
X107261905Y-88288152D02*
X107214286Y-88192914D01*
X107214286Y-88192914D02*
X107214286Y-88145295D01*
X107214286Y-88145295D02*
X107261905Y-88050057D01*
X107261905Y-88050057D02*
X107309524Y-88002438D01*
X107309524Y-88002438D02*
X107404762Y-87954819D01*
X107404762Y-87954819D02*
X107595238Y-87954819D01*
X107595238Y-87954819D02*
X107690476Y-88002438D01*
X107690476Y-88002438D02*
X107738095Y-88050057D01*
X107738095Y-88050057D02*
X107785714Y-88145295D01*
X107785714Y-88145295D02*
X107785714Y-88192914D01*
X107785714Y-88192914D02*
X107738095Y-88288152D01*
X107738095Y-88288152D02*
X107690476Y-88335771D01*
X107690476Y-88335771D02*
X107595238Y-88383390D01*
X107595238Y-88383390D02*
X107404762Y-88383390D01*
X107404762Y-88383390D02*
X107309524Y-88431009D01*
X107309524Y-88431009D02*
X107261905Y-88478628D01*
X107261905Y-88478628D02*
X107214286Y-88573866D01*
X107214286Y-88573866D02*
X107214286Y-88764342D01*
X107214286Y-88764342D02*
X107261905Y-88859580D01*
X107261905Y-88859580D02*
X107309524Y-88907200D01*
X107309524Y-88907200D02*
X107404762Y-88954819D01*
X107404762Y-88954819D02*
X107595238Y-88954819D01*
X107595238Y-88954819D02*
X107690476Y-88907200D01*
X107690476Y-88907200D02*
X107738095Y-88859580D01*
X107738095Y-88859580D02*
X107785714Y-88764342D01*
X107785714Y-88764342D02*
X107785714Y-88573866D01*
X107785714Y-88573866D02*
X107738095Y-88478628D01*
X107738095Y-88478628D02*
X107690476Y-88431009D01*
X107690476Y-88431009D02*
X107595238Y-88383390D01*
X140851286Y-96194395D02*
X140803667Y-96242015D01*
X140803667Y-96242015D02*
X140660810Y-96289634D01*
X140660810Y-96289634D02*
X140565572Y-96289634D01*
X140565572Y-96289634D02*
X140422715Y-96242015D01*
X140422715Y-96242015D02*
X140327477Y-96146776D01*
X140327477Y-96146776D02*
X140279858Y-96051538D01*
X140279858Y-96051538D02*
X140232239Y-95861062D01*
X140232239Y-95861062D02*
X140232239Y-95718205D01*
X140232239Y-95718205D02*
X140279858Y-95527729D01*
X140279858Y-95527729D02*
X140327477Y-95432491D01*
X140327477Y-95432491D02*
X140422715Y-95337253D01*
X140422715Y-95337253D02*
X140565572Y-95289634D01*
X140565572Y-95289634D02*
X140660810Y-95289634D01*
X140660810Y-95289634D02*
X140803667Y-95337253D01*
X140803667Y-95337253D02*
X140851286Y-95384872D01*
X141184620Y-95289634D02*
X141803667Y-95289634D01*
X141803667Y-95289634D02*
X141470334Y-95670586D01*
X141470334Y-95670586D02*
X141613191Y-95670586D01*
X141613191Y-95670586D02*
X141708429Y-95718205D01*
X141708429Y-95718205D02*
X141756048Y-95765824D01*
X141756048Y-95765824D02*
X141803667Y-95861062D01*
X141803667Y-95861062D02*
X141803667Y-96099157D01*
X141803667Y-96099157D02*
X141756048Y-96194395D01*
X141756048Y-96194395D02*
X141708429Y-96242015D01*
X141708429Y-96242015D02*
X141613191Y-96289634D01*
X141613191Y-96289634D02*
X141327477Y-96289634D01*
X141327477Y-96289634D02*
X141232239Y-96242015D01*
X141232239Y-96242015D02*
X141184620Y-96194395D01*
X90528632Y-107325140D02*
X90052442Y-107325140D01*
X90052442Y-107325140D02*
X90052442Y-106325140D01*
X90861966Y-106801330D02*
X91195299Y-106801330D01*
X91338156Y-107325140D02*
X90861966Y-107325140D01*
X90861966Y-107325140D02*
X90861966Y-106325140D01*
X90861966Y-106325140D02*
X91338156Y-106325140D01*
X91766728Y-107325140D02*
X91766728Y-106325140D01*
X91766728Y-106325140D02*
X92004823Y-106325140D01*
X92004823Y-106325140D02*
X92147680Y-106372759D01*
X92147680Y-106372759D02*
X92242918Y-106467997D01*
X92242918Y-106467997D02*
X92290537Y-106563235D01*
X92290537Y-106563235D02*
X92338156Y-106753711D01*
X92338156Y-106753711D02*
X92338156Y-106896568D01*
X92338156Y-106896568D02*
X92290537Y-107087044D01*
X92290537Y-107087044D02*
X92242918Y-107182282D01*
X92242918Y-107182282D02*
X92147680Y-107277521D01*
X92147680Y-107277521D02*
X92004823Y-107325140D01*
X92004823Y-107325140D02*
X91766728Y-107325140D01*
X92671490Y-106325140D02*
X93290537Y-106325140D01*
X93290537Y-106325140D02*
X92957204Y-106706092D01*
X92957204Y-106706092D02*
X93100061Y-106706092D01*
X93100061Y-106706092D02*
X93195299Y-106753711D01*
X93195299Y-106753711D02*
X93242918Y-106801330D01*
X93242918Y-106801330D02*
X93290537Y-106896568D01*
X93290537Y-106896568D02*
X93290537Y-107134663D01*
X93290537Y-107134663D02*
X93242918Y-107229901D01*
X93242918Y-107229901D02*
X93195299Y-107277521D01*
X93195299Y-107277521D02*
X93100061Y-107325140D01*
X93100061Y-107325140D02*
X92814347Y-107325140D01*
X92814347Y-107325140D02*
X92719109Y-107277521D01*
X92719109Y-107277521D02*
X92671490Y-107229901D01*
X93623871Y-106325140D02*
X94242918Y-106325140D01*
X94242918Y-106325140D02*
X93909585Y-106706092D01*
X93909585Y-106706092D02*
X94052442Y-106706092D01*
X94052442Y-106706092D02*
X94147680Y-106753711D01*
X94147680Y-106753711D02*
X94195299Y-106801330D01*
X94195299Y-106801330D02*
X94242918Y-106896568D01*
X94242918Y-106896568D02*
X94242918Y-107134663D01*
X94242918Y-107134663D02*
X94195299Y-107229901D01*
X94195299Y-107229901D02*
X94147680Y-107277521D01*
X94147680Y-107277521D02*
X94052442Y-107325140D01*
X94052442Y-107325140D02*
X93766728Y-107325140D01*
X93766728Y-107325140D02*
X93671490Y-107277521D01*
X93671490Y-107277521D02*
X93623871Y-107229901D01*
X140429389Y-90359580D02*
X140381770Y-90407200D01*
X140381770Y-90407200D02*
X140238913Y-90454819D01*
X140238913Y-90454819D02*
X140143675Y-90454819D01*
X140143675Y-90454819D02*
X140000818Y-90407200D01*
X140000818Y-90407200D02*
X139905580Y-90311961D01*
X139905580Y-90311961D02*
X139857961Y-90216723D01*
X139857961Y-90216723D02*
X139810342Y-90026247D01*
X139810342Y-90026247D02*
X139810342Y-89883390D01*
X139810342Y-89883390D02*
X139857961Y-89692914D01*
X139857961Y-89692914D02*
X139905580Y-89597676D01*
X139905580Y-89597676D02*
X140000818Y-89502438D01*
X140000818Y-89502438D02*
X140143675Y-89454819D01*
X140143675Y-89454819D02*
X140238913Y-89454819D01*
X140238913Y-89454819D02*
X140381770Y-89502438D01*
X140381770Y-89502438D02*
X140429389Y-89550057D01*
X140810342Y-89550057D02*
X140857961Y-89502438D01*
X140857961Y-89502438D02*
X140953199Y-89454819D01*
X140953199Y-89454819D02*
X141191294Y-89454819D01*
X141191294Y-89454819D02*
X141286532Y-89502438D01*
X141286532Y-89502438D02*
X141334151Y-89550057D01*
X141334151Y-89550057D02*
X141381770Y-89645295D01*
X141381770Y-89645295D02*
X141381770Y-89740533D01*
X141381770Y-89740533D02*
X141334151Y-89883390D01*
X141334151Y-89883390D02*
X140762723Y-90454819D01*
X140762723Y-90454819D02*
X141381770Y-90454819D01*
X140824356Y-94808509D02*
X140491023Y-94332318D01*
X140252928Y-94808509D02*
X140252928Y-93808509D01*
X140252928Y-93808509D02*
X140633880Y-93808509D01*
X140633880Y-93808509D02*
X140729118Y-93856128D01*
X140729118Y-93856128D02*
X140776737Y-93903747D01*
X140776737Y-93903747D02*
X140824356Y-93998985D01*
X140824356Y-93998985D02*
X140824356Y-94141842D01*
X140824356Y-94141842D02*
X140776737Y-94237080D01*
X140776737Y-94237080D02*
X140729118Y-94284699D01*
X140729118Y-94284699D02*
X140633880Y-94332318D01*
X140633880Y-94332318D02*
X140252928Y-94332318D01*
X141395785Y-94237080D02*
X141300547Y-94189461D01*
X141300547Y-94189461D02*
X141252928Y-94141842D01*
X141252928Y-94141842D02*
X141205309Y-94046604D01*
X141205309Y-94046604D02*
X141205309Y-93998985D01*
X141205309Y-93998985D02*
X141252928Y-93903747D01*
X141252928Y-93903747D02*
X141300547Y-93856128D01*
X141300547Y-93856128D02*
X141395785Y-93808509D01*
X141395785Y-93808509D02*
X141586261Y-93808509D01*
X141586261Y-93808509D02*
X141681499Y-93856128D01*
X141681499Y-93856128D02*
X141729118Y-93903747D01*
X141729118Y-93903747D02*
X141776737Y-93998985D01*
X141776737Y-93998985D02*
X141776737Y-94046604D01*
X141776737Y-94046604D02*
X141729118Y-94141842D01*
X141729118Y-94141842D02*
X141681499Y-94189461D01*
X141681499Y-94189461D02*
X141586261Y-94237080D01*
X141586261Y-94237080D02*
X141395785Y-94237080D01*
X141395785Y-94237080D02*
X141300547Y-94284699D01*
X141300547Y-94284699D02*
X141252928Y-94332318D01*
X141252928Y-94332318D02*
X141205309Y-94427556D01*
X141205309Y-94427556D02*
X141205309Y-94618032D01*
X141205309Y-94618032D02*
X141252928Y-94713270D01*
X141252928Y-94713270D02*
X141300547Y-94760890D01*
X141300547Y-94760890D02*
X141395785Y-94808509D01*
X141395785Y-94808509D02*
X141586261Y-94808509D01*
X141586261Y-94808509D02*
X141681499Y-94760890D01*
X141681499Y-94760890D02*
X141729118Y-94713270D01*
X141729118Y-94713270D02*
X141776737Y-94618032D01*
X141776737Y-94618032D02*
X141776737Y-94427556D01*
X141776737Y-94427556D02*
X141729118Y-94332318D01*
X141729118Y-94332318D02*
X141681499Y-94284699D01*
X141681499Y-94284699D02*
X141586261Y-94237080D01*
X145166667Y-99407200D02*
X145309524Y-99454819D01*
X145309524Y-99454819D02*
X145547619Y-99454819D01*
X145547619Y-99454819D02*
X145642857Y-99407200D01*
X145642857Y-99407200D02*
X145690476Y-99359580D01*
X145690476Y-99359580D02*
X145738095Y-99264342D01*
X145738095Y-99264342D02*
X145738095Y-99169104D01*
X145738095Y-99169104D02*
X145690476Y-99073866D01*
X145690476Y-99073866D02*
X145642857Y-99026247D01*
X145642857Y-99026247D02*
X145547619Y-98978628D01*
X145547619Y-98978628D02*
X145357143Y-98931009D01*
X145357143Y-98931009D02*
X145261905Y-98883390D01*
X145261905Y-98883390D02*
X145214286Y-98835771D01*
X145214286Y-98835771D02*
X145166667Y-98740533D01*
X145166667Y-98740533D02*
X145166667Y-98645295D01*
X145166667Y-98645295D02*
X145214286Y-98550057D01*
X145214286Y-98550057D02*
X145261905Y-98502438D01*
X145261905Y-98502438D02*
X145357143Y-98454819D01*
X145357143Y-98454819D02*
X145595238Y-98454819D01*
X145595238Y-98454819D02*
X145738095Y-98502438D01*
X146071429Y-98454819D02*
X146309524Y-99454819D01*
X146309524Y-99454819D02*
X146500000Y-98740533D01*
X146500000Y-98740533D02*
X146690476Y-99454819D01*
X146690476Y-99454819D02*
X146928572Y-98454819D01*
X147214286Y-98454819D02*
X147833333Y-98454819D01*
X147833333Y-98454819D02*
X147500000Y-98835771D01*
X147500000Y-98835771D02*
X147642857Y-98835771D01*
X147642857Y-98835771D02*
X147738095Y-98883390D01*
X147738095Y-98883390D02*
X147785714Y-98931009D01*
X147785714Y-98931009D02*
X147833333Y-99026247D01*
X147833333Y-99026247D02*
X147833333Y-99264342D01*
X147833333Y-99264342D02*
X147785714Y-99359580D01*
X147785714Y-99359580D02*
X147738095Y-99407200D01*
X147738095Y-99407200D02*
X147642857Y-99454819D01*
X147642857Y-99454819D02*
X147357143Y-99454819D01*
X147357143Y-99454819D02*
X147261905Y-99407200D01*
X147261905Y-99407200D02*
X147214286Y-99359580D01*
X112383333Y-107454819D02*
X111907143Y-107454819D01*
X111907143Y-107454819D02*
X111907143Y-106454819D01*
X113240476Y-107454819D02*
X112669048Y-107454819D01*
X112954762Y-107454819D02*
X112954762Y-106454819D01*
X112954762Y-106454819D02*
X112859524Y-106597676D01*
X112859524Y-106597676D02*
X112764286Y-106692914D01*
X112764286Y-106692914D02*
X112669048Y-106740533D01*
X105261905Y-111579819D02*
X105261905Y-110579819D01*
X105261905Y-110579819D02*
X105500000Y-110579819D01*
X105500000Y-110579819D02*
X105642857Y-110627438D01*
X105642857Y-110627438D02*
X105738095Y-110722676D01*
X105738095Y-110722676D02*
X105785714Y-110817914D01*
X105785714Y-110817914D02*
X105833333Y-111008390D01*
X105833333Y-111008390D02*
X105833333Y-111151247D01*
X105833333Y-111151247D02*
X105785714Y-111341723D01*
X105785714Y-111341723D02*
X105738095Y-111436961D01*
X105738095Y-111436961D02*
X105642857Y-111532200D01*
X105642857Y-111532200D02*
X105500000Y-111579819D01*
X105500000Y-111579819D02*
X105261905Y-111579819D01*
X106166667Y-110579819D02*
X106785714Y-110579819D01*
X106785714Y-110579819D02*
X106452381Y-110960771D01*
X106452381Y-110960771D02*
X106595238Y-110960771D01*
X106595238Y-110960771D02*
X106690476Y-111008390D01*
X106690476Y-111008390D02*
X106738095Y-111056009D01*
X106738095Y-111056009D02*
X106785714Y-111151247D01*
X106785714Y-111151247D02*
X106785714Y-111389342D01*
X106785714Y-111389342D02*
X106738095Y-111484580D01*
X106738095Y-111484580D02*
X106690476Y-111532200D01*
X106690476Y-111532200D02*
X106595238Y-111579819D01*
X106595238Y-111579819D02*
X106309524Y-111579819D01*
X106309524Y-111579819D02*
X106214286Y-111532200D01*
X106214286Y-111532200D02*
X106166667Y-111484580D01*
X151238095Y-98954819D02*
X151238095Y-99764342D01*
X151238095Y-99764342D02*
X151285714Y-99859580D01*
X151285714Y-99859580D02*
X151333333Y-99907200D01*
X151333333Y-99907200D02*
X151428571Y-99954819D01*
X151428571Y-99954819D02*
X151619047Y-99954819D01*
X151619047Y-99954819D02*
X151714285Y-99907200D01*
X151714285Y-99907200D02*
X151761904Y-99859580D01*
X151761904Y-99859580D02*
X151809523Y-99764342D01*
X151809523Y-99764342D02*
X151809523Y-98954819D01*
X152238095Y-99050057D02*
X152285714Y-99002438D01*
X152285714Y-99002438D02*
X152380952Y-98954819D01*
X152380952Y-98954819D02*
X152619047Y-98954819D01*
X152619047Y-98954819D02*
X152714285Y-99002438D01*
X152714285Y-99002438D02*
X152761904Y-99050057D01*
X152761904Y-99050057D02*
X152809523Y-99145295D01*
X152809523Y-99145295D02*
X152809523Y-99240533D01*
X152809523Y-99240533D02*
X152761904Y-99383390D01*
X152761904Y-99383390D02*
X152190476Y-99954819D01*
X152190476Y-99954819D02*
X152809523Y-99954819D01*
X96857142Y-110954819D02*
X96523809Y-110478628D01*
X96285714Y-110954819D02*
X96285714Y-109954819D01*
X96285714Y-109954819D02*
X96666666Y-109954819D01*
X96666666Y-109954819D02*
X96761904Y-110002438D01*
X96761904Y-110002438D02*
X96809523Y-110050057D01*
X96809523Y-110050057D02*
X96857142Y-110145295D01*
X96857142Y-110145295D02*
X96857142Y-110288152D01*
X96857142Y-110288152D02*
X96809523Y-110383390D01*
X96809523Y-110383390D02*
X96761904Y-110431009D01*
X96761904Y-110431009D02*
X96666666Y-110478628D01*
X96666666Y-110478628D02*
X96285714Y-110478628D01*
X97809523Y-110954819D02*
X97238095Y-110954819D01*
X97523809Y-110954819D02*
X97523809Y-109954819D01*
X97523809Y-109954819D02*
X97428571Y-110097676D01*
X97428571Y-110097676D02*
X97333333Y-110192914D01*
X97333333Y-110192914D02*
X97238095Y-110240533D01*
X98666666Y-109954819D02*
X98476190Y-109954819D01*
X98476190Y-109954819D02*
X98380952Y-110002438D01*
X98380952Y-110002438D02*
X98333333Y-110050057D01*
X98333333Y-110050057D02*
X98238095Y-110192914D01*
X98238095Y-110192914D02*
X98190476Y-110383390D01*
X98190476Y-110383390D02*
X98190476Y-110764342D01*
X98190476Y-110764342D02*
X98238095Y-110859580D01*
X98238095Y-110859580D02*
X98285714Y-110907200D01*
X98285714Y-110907200D02*
X98380952Y-110954819D01*
X98380952Y-110954819D02*
X98571428Y-110954819D01*
X98571428Y-110954819D02*
X98666666Y-110907200D01*
X98666666Y-110907200D02*
X98714285Y-110859580D01*
X98714285Y-110859580D02*
X98761904Y-110764342D01*
X98761904Y-110764342D02*
X98761904Y-110526247D01*
X98761904Y-110526247D02*
X98714285Y-110431009D01*
X98714285Y-110431009D02*
X98666666Y-110383390D01*
X98666666Y-110383390D02*
X98571428Y-110335771D01*
X98571428Y-110335771D02*
X98380952Y-110335771D01*
X98380952Y-110335771D02*
X98285714Y-110383390D01*
X98285714Y-110383390D02*
X98238095Y-110431009D01*
X98238095Y-110431009D02*
X98190476Y-110526247D01*
X99166666Y-98431009D02*
X98833333Y-98431009D01*
X98833333Y-98954819D02*
X98833333Y-97954819D01*
X98833333Y-97954819D02*
X99309523Y-97954819D01*
X100119047Y-98288152D02*
X100119047Y-98954819D01*
X99880952Y-97907200D02*
X99642857Y-98621485D01*
X99642857Y-98621485D02*
X100261904Y-98621485D01*
X105029761Y-108050057D02*
X104934523Y-108002438D01*
X104934523Y-108002438D02*
X104839285Y-107907200D01*
X104839285Y-107907200D02*
X104696428Y-107764342D01*
X104696428Y-107764342D02*
X104601190Y-107716723D01*
X104601190Y-107716723D02*
X104505952Y-107716723D01*
X104553571Y-107954819D02*
X104458333Y-107907200D01*
X104458333Y-107907200D02*
X104363095Y-107811961D01*
X104363095Y-107811961D02*
X104315476Y-107621485D01*
X104315476Y-107621485D02*
X104315476Y-107288152D01*
X104315476Y-107288152D02*
X104363095Y-107097676D01*
X104363095Y-107097676D02*
X104458333Y-107002438D01*
X104458333Y-107002438D02*
X104553571Y-106954819D01*
X104553571Y-106954819D02*
X104744047Y-106954819D01*
X104744047Y-106954819D02*
X104839285Y-107002438D01*
X104839285Y-107002438D02*
X104934523Y-107097676D01*
X104934523Y-107097676D02*
X104982142Y-107288152D01*
X104982142Y-107288152D02*
X104982142Y-107621485D01*
X104982142Y-107621485D02*
X104934523Y-107811961D01*
X104934523Y-107811961D02*
X104839285Y-107907200D01*
X104839285Y-107907200D02*
X104744047Y-107954819D01*
X104744047Y-107954819D02*
X104553571Y-107954819D01*
X105363095Y-107050057D02*
X105410714Y-107002438D01*
X105410714Y-107002438D02*
X105505952Y-106954819D01*
X105505952Y-106954819D02*
X105744047Y-106954819D01*
X105744047Y-106954819D02*
X105839285Y-107002438D01*
X105839285Y-107002438D02*
X105886904Y-107050057D01*
X105886904Y-107050057D02*
X105934523Y-107145295D01*
X105934523Y-107145295D02*
X105934523Y-107240533D01*
X105934523Y-107240533D02*
X105886904Y-107383390D01*
X105886904Y-107383390D02*
X105315476Y-107954819D01*
X105315476Y-107954819D02*
X105934523Y-107954819D01*
X86238095Y-110454819D02*
X86238095Y-111264342D01*
X86238095Y-111264342D02*
X86285714Y-111359580D01*
X86285714Y-111359580D02*
X86333333Y-111407200D01*
X86333333Y-111407200D02*
X86428571Y-111454819D01*
X86428571Y-111454819D02*
X86619047Y-111454819D01*
X86619047Y-111454819D02*
X86714285Y-111407200D01*
X86714285Y-111407200D02*
X86761904Y-111359580D01*
X86761904Y-111359580D02*
X86809523Y-111264342D01*
X86809523Y-111264342D02*
X86809523Y-110454819D01*
X87761904Y-110454819D02*
X87285714Y-110454819D01*
X87285714Y-110454819D02*
X87238095Y-110931009D01*
X87238095Y-110931009D02*
X87285714Y-110883390D01*
X87285714Y-110883390D02*
X87380952Y-110835771D01*
X87380952Y-110835771D02*
X87619047Y-110835771D01*
X87619047Y-110835771D02*
X87714285Y-110883390D01*
X87714285Y-110883390D02*
X87761904Y-110931009D01*
X87761904Y-110931009D02*
X87809523Y-111026247D01*
X87809523Y-111026247D02*
X87809523Y-111264342D01*
X87809523Y-111264342D02*
X87761904Y-111359580D01*
X87761904Y-111359580D02*
X87714285Y-111407200D01*
X87714285Y-111407200D02*
X87619047Y-111454819D01*
X87619047Y-111454819D02*
X87380952Y-111454819D01*
X87380952Y-111454819D02*
X87285714Y-111407200D01*
X87285714Y-111407200D02*
X87238095Y-111359580D01*
X190698133Y-99407200D02*
X190840990Y-99454819D01*
X190840990Y-99454819D02*
X191079085Y-99454819D01*
X191079085Y-99454819D02*
X191174323Y-99407200D01*
X191174323Y-99407200D02*
X191221942Y-99359580D01*
X191221942Y-99359580D02*
X191269561Y-99264342D01*
X191269561Y-99264342D02*
X191269561Y-99169104D01*
X191269561Y-99169104D02*
X191221942Y-99073866D01*
X191221942Y-99073866D02*
X191174323Y-99026247D01*
X191174323Y-99026247D02*
X191079085Y-98978628D01*
X191079085Y-98978628D02*
X190888609Y-98931009D01*
X190888609Y-98931009D02*
X190793371Y-98883390D01*
X190793371Y-98883390D02*
X190745752Y-98835771D01*
X190745752Y-98835771D02*
X190698133Y-98740533D01*
X190698133Y-98740533D02*
X190698133Y-98645295D01*
X190698133Y-98645295D02*
X190745752Y-98550057D01*
X190745752Y-98550057D02*
X190793371Y-98502438D01*
X190793371Y-98502438D02*
X190888609Y-98454819D01*
X190888609Y-98454819D02*
X191126704Y-98454819D01*
X191126704Y-98454819D02*
X191269561Y-98502438D01*
X191602895Y-98454819D02*
X191840990Y-99454819D01*
X191840990Y-99454819D02*
X192031466Y-98740533D01*
X192031466Y-98740533D02*
X192221942Y-99454819D01*
X192221942Y-99454819D02*
X192460038Y-98454819D01*
X193317180Y-98454819D02*
X192840990Y-98454819D01*
X192840990Y-98454819D02*
X192793371Y-98931009D01*
X192793371Y-98931009D02*
X192840990Y-98883390D01*
X192840990Y-98883390D02*
X192936228Y-98835771D01*
X192936228Y-98835771D02*
X193174323Y-98835771D01*
X193174323Y-98835771D02*
X193269561Y-98883390D01*
X193269561Y-98883390D02*
X193317180Y-98931009D01*
X193317180Y-98931009D02*
X193364799Y-99026247D01*
X193364799Y-99026247D02*
X193364799Y-99264342D01*
X193364799Y-99264342D02*
X193317180Y-99359580D01*
X193317180Y-99359580D02*
X193269561Y-99407200D01*
X193269561Y-99407200D02*
X193174323Y-99454819D01*
X193174323Y-99454819D02*
X192936228Y-99454819D01*
X192936228Y-99454819D02*
X192840990Y-99407200D01*
X192840990Y-99407200D02*
X192793371Y-99359580D01*
X159712757Y-96228202D02*
X159379424Y-95752011D01*
X159141329Y-96228202D02*
X159141329Y-95228202D01*
X159141329Y-95228202D02*
X159522281Y-95228202D01*
X159522281Y-95228202D02*
X159617519Y-95275821D01*
X159617519Y-95275821D02*
X159665138Y-95323440D01*
X159665138Y-95323440D02*
X159712757Y-95418678D01*
X159712757Y-95418678D02*
X159712757Y-95561535D01*
X159712757Y-95561535D02*
X159665138Y-95656773D01*
X159665138Y-95656773D02*
X159617519Y-95704392D01*
X159617519Y-95704392D02*
X159522281Y-95752011D01*
X159522281Y-95752011D02*
X159141329Y-95752011D01*
X160617519Y-95228202D02*
X160141329Y-95228202D01*
X160141329Y-95228202D02*
X160093710Y-95704392D01*
X160093710Y-95704392D02*
X160141329Y-95656773D01*
X160141329Y-95656773D02*
X160236567Y-95609154D01*
X160236567Y-95609154D02*
X160474662Y-95609154D01*
X160474662Y-95609154D02*
X160569900Y-95656773D01*
X160569900Y-95656773D02*
X160617519Y-95704392D01*
X160617519Y-95704392D02*
X160665138Y-95799630D01*
X160665138Y-95799630D02*
X160665138Y-96037725D01*
X160665138Y-96037725D02*
X160617519Y-96132963D01*
X160617519Y-96132963D02*
X160569900Y-96180583D01*
X160569900Y-96180583D02*
X160474662Y-96228202D01*
X160474662Y-96228202D02*
X160236567Y-96228202D01*
X160236567Y-96228202D02*
X160141329Y-96180583D01*
X160141329Y-96180583D02*
X160093710Y-96132963D01*
X161284186Y-95228202D02*
X161379424Y-95228202D01*
X161379424Y-95228202D02*
X161474662Y-95275821D01*
X161474662Y-95275821D02*
X161522281Y-95323440D01*
X161522281Y-95323440D02*
X161569900Y-95418678D01*
X161569900Y-95418678D02*
X161617519Y-95609154D01*
X161617519Y-95609154D02*
X161617519Y-95847249D01*
X161617519Y-95847249D02*
X161569900Y-96037725D01*
X161569900Y-96037725D02*
X161522281Y-96132963D01*
X161522281Y-96132963D02*
X161474662Y-96180583D01*
X161474662Y-96180583D02*
X161379424Y-96228202D01*
X161379424Y-96228202D02*
X161284186Y-96228202D01*
X161284186Y-96228202D02*
X161188948Y-96180583D01*
X161188948Y-96180583D02*
X161141329Y-96132963D01*
X161141329Y-96132963D02*
X161093710Y-96037725D01*
X161093710Y-96037725D02*
X161046091Y-95847249D01*
X161046091Y-95847249D02*
X161046091Y-95609154D01*
X161046091Y-95609154D02*
X161093710Y-95418678D01*
X161093710Y-95418678D02*
X161141329Y-95323440D01*
X161141329Y-95323440D02*
X161188948Y-95275821D01*
X161188948Y-95275821D02*
X161284186Y-95228202D01*
X216738095Y-86954819D02*
X216738095Y-87764342D01*
X216738095Y-87764342D02*
X216785714Y-87859580D01*
X216785714Y-87859580D02*
X216833333Y-87907200D01*
X216833333Y-87907200D02*
X216928571Y-87954819D01*
X216928571Y-87954819D02*
X217119047Y-87954819D01*
X217119047Y-87954819D02*
X217214285Y-87907200D01*
X217214285Y-87907200D02*
X217261904Y-87859580D01*
X217261904Y-87859580D02*
X217309523Y-87764342D01*
X217309523Y-87764342D02*
X217309523Y-86954819D01*
X218214285Y-86954819D02*
X218023809Y-86954819D01*
X218023809Y-86954819D02*
X217928571Y-87002438D01*
X217928571Y-87002438D02*
X217880952Y-87050057D01*
X217880952Y-87050057D02*
X217785714Y-87192914D01*
X217785714Y-87192914D02*
X217738095Y-87383390D01*
X217738095Y-87383390D02*
X217738095Y-87764342D01*
X217738095Y-87764342D02*
X217785714Y-87859580D01*
X217785714Y-87859580D02*
X217833333Y-87907200D01*
X217833333Y-87907200D02*
X217928571Y-87954819D01*
X217928571Y-87954819D02*
X218119047Y-87954819D01*
X218119047Y-87954819D02*
X218214285Y-87907200D01*
X218214285Y-87907200D02*
X218261904Y-87859580D01*
X218261904Y-87859580D02*
X218309523Y-87764342D01*
X218309523Y-87764342D02*
X218309523Y-87526247D01*
X218309523Y-87526247D02*
X218261904Y-87431009D01*
X218261904Y-87431009D02*
X218214285Y-87383390D01*
X218214285Y-87383390D02*
X218119047Y-87335771D01*
X218119047Y-87335771D02*
X217928571Y-87335771D01*
X217928571Y-87335771D02*
X217833333Y-87383390D01*
X217833333Y-87383390D02*
X217785714Y-87431009D01*
X217785714Y-87431009D02*
X217738095Y-87526247D01*
X213567982Y-87954819D02*
X213091792Y-87954819D01*
X213091792Y-87954819D02*
X213091792Y-86954819D01*
X213901316Y-87954819D02*
X213901316Y-87288152D01*
X213901316Y-86954819D02*
X213853697Y-87002438D01*
X213853697Y-87002438D02*
X213901316Y-87050057D01*
X213901316Y-87050057D02*
X213948935Y-87002438D01*
X213948935Y-87002438D02*
X213901316Y-86954819D01*
X213901316Y-86954819D02*
X213901316Y-87050057D01*
X214377506Y-87288152D02*
X214377506Y-87954819D01*
X214377506Y-87383390D02*
X214425125Y-87335771D01*
X214425125Y-87335771D02*
X214520363Y-87288152D01*
X214520363Y-87288152D02*
X214663220Y-87288152D01*
X214663220Y-87288152D02*
X214758458Y-87335771D01*
X214758458Y-87335771D02*
X214806077Y-87431009D01*
X214806077Y-87431009D02*
X214806077Y-87954819D01*
X215663220Y-87907200D02*
X215567982Y-87954819D01*
X215567982Y-87954819D02*
X215377506Y-87954819D01*
X215377506Y-87954819D02*
X215282268Y-87907200D01*
X215282268Y-87907200D02*
X215234649Y-87811961D01*
X215234649Y-87811961D02*
X215234649Y-87431009D01*
X215234649Y-87431009D02*
X215282268Y-87335771D01*
X215282268Y-87335771D02*
X215377506Y-87288152D01*
X215377506Y-87288152D02*
X215567982Y-87288152D01*
X215567982Y-87288152D02*
X215663220Y-87335771D01*
X215663220Y-87335771D02*
X215710839Y-87431009D01*
X215710839Y-87431009D02*
X215710839Y-87526247D01*
X215710839Y-87526247D02*
X215234649Y-87621485D01*
X168904761Y-92550057D02*
X168809523Y-92502438D01*
X168809523Y-92502438D02*
X168714285Y-92407200D01*
X168714285Y-92407200D02*
X168571428Y-92264342D01*
X168571428Y-92264342D02*
X168476190Y-92216723D01*
X168476190Y-92216723D02*
X168380952Y-92216723D01*
X168428571Y-92454819D02*
X168333333Y-92407200D01*
X168333333Y-92407200D02*
X168238095Y-92311961D01*
X168238095Y-92311961D02*
X168190476Y-92121485D01*
X168190476Y-92121485D02*
X168190476Y-91788152D01*
X168190476Y-91788152D02*
X168238095Y-91597676D01*
X168238095Y-91597676D02*
X168333333Y-91502438D01*
X168333333Y-91502438D02*
X168428571Y-91454819D01*
X168428571Y-91454819D02*
X168619047Y-91454819D01*
X168619047Y-91454819D02*
X168714285Y-91502438D01*
X168714285Y-91502438D02*
X168809523Y-91597676D01*
X168809523Y-91597676D02*
X168857142Y-91788152D01*
X168857142Y-91788152D02*
X168857142Y-92121485D01*
X168857142Y-92121485D02*
X168809523Y-92311961D01*
X168809523Y-92311961D02*
X168714285Y-92407200D01*
X168714285Y-92407200D02*
X168619047Y-92454819D01*
X168619047Y-92454819D02*
X168428571Y-92454819D01*
X169190476Y-91454819D02*
X169809523Y-91454819D01*
X169809523Y-91454819D02*
X169476190Y-91835771D01*
X169476190Y-91835771D02*
X169619047Y-91835771D01*
X169619047Y-91835771D02*
X169714285Y-91883390D01*
X169714285Y-91883390D02*
X169761904Y-91931009D01*
X169761904Y-91931009D02*
X169809523Y-92026247D01*
X169809523Y-92026247D02*
X169809523Y-92264342D01*
X169809523Y-92264342D02*
X169761904Y-92359580D01*
X169761904Y-92359580D02*
X169714285Y-92407200D01*
X169714285Y-92407200D02*
X169619047Y-92454819D01*
X169619047Y-92454819D02*
X169333333Y-92454819D01*
X169333333Y-92454819D02*
X169238095Y-92407200D01*
X169238095Y-92407200D02*
X169190476Y-92359580D01*
X82357142Y-113454819D02*
X82023809Y-112978628D01*
X81785714Y-113454819D02*
X81785714Y-112454819D01*
X81785714Y-112454819D02*
X82166666Y-112454819D01*
X82166666Y-112454819D02*
X82261904Y-112502438D01*
X82261904Y-112502438D02*
X82309523Y-112550057D01*
X82309523Y-112550057D02*
X82357142Y-112645295D01*
X82357142Y-112645295D02*
X82357142Y-112788152D01*
X82357142Y-112788152D02*
X82309523Y-112883390D01*
X82309523Y-112883390D02*
X82261904Y-112931009D01*
X82261904Y-112931009D02*
X82166666Y-112978628D01*
X82166666Y-112978628D02*
X81785714Y-112978628D01*
X83309523Y-113454819D02*
X82738095Y-113454819D01*
X83023809Y-113454819D02*
X83023809Y-112454819D01*
X83023809Y-112454819D02*
X82928571Y-112597676D01*
X82928571Y-112597676D02*
X82833333Y-112692914D01*
X82833333Y-112692914D02*
X82738095Y-112740533D01*
X84214285Y-112454819D02*
X83738095Y-112454819D01*
X83738095Y-112454819D02*
X83690476Y-112931009D01*
X83690476Y-112931009D02*
X83738095Y-112883390D01*
X83738095Y-112883390D02*
X83833333Y-112835771D01*
X83833333Y-112835771D02*
X84071428Y-112835771D01*
X84071428Y-112835771D02*
X84166666Y-112883390D01*
X84166666Y-112883390D02*
X84214285Y-112931009D01*
X84214285Y-112931009D02*
X84261904Y-113026247D01*
X84261904Y-113026247D02*
X84261904Y-113264342D01*
X84261904Y-113264342D02*
X84214285Y-113359580D01*
X84214285Y-113359580D02*
X84166666Y-113407200D01*
X84166666Y-113407200D02*
X84071428Y-113454819D01*
X84071428Y-113454819D02*
X83833333Y-113454819D01*
X83833333Y-113454819D02*
X83738095Y-113407200D01*
X83738095Y-113407200D02*
X83690476Y-113359580D01*
X156333333Y-102454819D02*
X156000000Y-101978628D01*
X155761905Y-102454819D02*
X155761905Y-101454819D01*
X155761905Y-101454819D02*
X156142857Y-101454819D01*
X156142857Y-101454819D02*
X156238095Y-101502438D01*
X156238095Y-101502438D02*
X156285714Y-101550057D01*
X156285714Y-101550057D02*
X156333333Y-101645295D01*
X156333333Y-101645295D02*
X156333333Y-101788152D01*
X156333333Y-101788152D02*
X156285714Y-101883390D01*
X156285714Y-101883390D02*
X156238095Y-101931009D01*
X156238095Y-101931009D02*
X156142857Y-101978628D01*
X156142857Y-101978628D02*
X155761905Y-101978628D01*
X157190476Y-101788152D02*
X157190476Y-102454819D01*
X156952381Y-101407200D02*
X156714286Y-102121485D01*
X156714286Y-102121485D02*
X157333333Y-102121485D01*
X195357142Y-101061354D02*
X195023809Y-100585163D01*
X194785714Y-101061354D02*
X194785714Y-100061354D01*
X194785714Y-100061354D02*
X195166666Y-100061354D01*
X195166666Y-100061354D02*
X195261904Y-100108973D01*
X195261904Y-100108973D02*
X195309523Y-100156592D01*
X195309523Y-100156592D02*
X195357142Y-100251830D01*
X195357142Y-100251830D02*
X195357142Y-100394687D01*
X195357142Y-100394687D02*
X195309523Y-100489925D01*
X195309523Y-100489925D02*
X195261904Y-100537544D01*
X195261904Y-100537544D02*
X195166666Y-100585163D01*
X195166666Y-100585163D02*
X194785714Y-100585163D01*
X196214285Y-100394687D02*
X196214285Y-101061354D01*
X195976190Y-100013735D02*
X195738095Y-100728020D01*
X195738095Y-100728020D02*
X196357142Y-100728020D01*
X196880952Y-100489925D02*
X196785714Y-100442306D01*
X196785714Y-100442306D02*
X196738095Y-100394687D01*
X196738095Y-100394687D02*
X196690476Y-100299449D01*
X196690476Y-100299449D02*
X196690476Y-100251830D01*
X196690476Y-100251830D02*
X196738095Y-100156592D01*
X196738095Y-100156592D02*
X196785714Y-100108973D01*
X196785714Y-100108973D02*
X196880952Y-100061354D01*
X196880952Y-100061354D02*
X197071428Y-100061354D01*
X197071428Y-100061354D02*
X197166666Y-100108973D01*
X197166666Y-100108973D02*
X197214285Y-100156592D01*
X197214285Y-100156592D02*
X197261904Y-100251830D01*
X197261904Y-100251830D02*
X197261904Y-100299449D01*
X197261904Y-100299449D02*
X197214285Y-100394687D01*
X197214285Y-100394687D02*
X197166666Y-100442306D01*
X197166666Y-100442306D02*
X197071428Y-100489925D01*
X197071428Y-100489925D02*
X196880952Y-100489925D01*
X196880952Y-100489925D02*
X196785714Y-100537544D01*
X196785714Y-100537544D02*
X196738095Y-100585163D01*
X196738095Y-100585163D02*
X196690476Y-100680401D01*
X196690476Y-100680401D02*
X196690476Y-100870877D01*
X196690476Y-100870877D02*
X196738095Y-100966115D01*
X196738095Y-100966115D02*
X196785714Y-101013735D01*
X196785714Y-101013735D02*
X196880952Y-101061354D01*
X196880952Y-101061354D02*
X197071428Y-101061354D01*
X197071428Y-101061354D02*
X197166666Y-101013735D01*
X197166666Y-101013735D02*
X197214285Y-100966115D01*
X197214285Y-100966115D02*
X197261904Y-100870877D01*
X197261904Y-100870877D02*
X197261904Y-100680401D01*
X197261904Y-100680401D02*
X197214285Y-100585163D01*
X197214285Y-100585163D02*
X197166666Y-100537544D01*
X197166666Y-100537544D02*
X197071428Y-100489925D01*
X81238095Y-87954819D02*
X81238095Y-88764342D01*
X81238095Y-88764342D02*
X81285714Y-88859580D01*
X81285714Y-88859580D02*
X81333333Y-88907200D01*
X81333333Y-88907200D02*
X81428571Y-88954819D01*
X81428571Y-88954819D02*
X81619047Y-88954819D01*
X81619047Y-88954819D02*
X81714285Y-88907200D01*
X81714285Y-88907200D02*
X81761904Y-88859580D01*
X81761904Y-88859580D02*
X81809523Y-88764342D01*
X81809523Y-88764342D02*
X81809523Y-87954819D01*
X82428571Y-88383390D02*
X82333333Y-88335771D01*
X82333333Y-88335771D02*
X82285714Y-88288152D01*
X82285714Y-88288152D02*
X82238095Y-88192914D01*
X82238095Y-88192914D02*
X82238095Y-88145295D01*
X82238095Y-88145295D02*
X82285714Y-88050057D01*
X82285714Y-88050057D02*
X82333333Y-88002438D01*
X82333333Y-88002438D02*
X82428571Y-87954819D01*
X82428571Y-87954819D02*
X82619047Y-87954819D01*
X82619047Y-87954819D02*
X82714285Y-88002438D01*
X82714285Y-88002438D02*
X82761904Y-88050057D01*
X82761904Y-88050057D02*
X82809523Y-88145295D01*
X82809523Y-88145295D02*
X82809523Y-88192914D01*
X82809523Y-88192914D02*
X82761904Y-88288152D01*
X82761904Y-88288152D02*
X82714285Y-88335771D01*
X82714285Y-88335771D02*
X82619047Y-88383390D01*
X82619047Y-88383390D02*
X82428571Y-88383390D01*
X82428571Y-88383390D02*
X82333333Y-88431009D01*
X82333333Y-88431009D02*
X82285714Y-88478628D01*
X82285714Y-88478628D02*
X82238095Y-88573866D01*
X82238095Y-88573866D02*
X82238095Y-88764342D01*
X82238095Y-88764342D02*
X82285714Y-88859580D01*
X82285714Y-88859580D02*
X82333333Y-88907200D01*
X82333333Y-88907200D02*
X82428571Y-88954819D01*
X82428571Y-88954819D02*
X82619047Y-88954819D01*
X82619047Y-88954819D02*
X82714285Y-88907200D01*
X82714285Y-88907200D02*
X82761904Y-88859580D01*
X82761904Y-88859580D02*
X82809523Y-88764342D01*
X82809523Y-88764342D02*
X82809523Y-88573866D01*
X82809523Y-88573866D02*
X82761904Y-88478628D01*
X82761904Y-88478628D02*
X82714285Y-88431009D01*
X82714285Y-88431009D02*
X82619047Y-88383390D01*
X78312969Y-88954819D02*
X77836779Y-88954819D01*
X77836779Y-88954819D02*
X77836779Y-87954819D01*
X78646303Y-88954819D02*
X78646303Y-88288152D01*
X78646303Y-87954819D02*
X78598684Y-88002438D01*
X78598684Y-88002438D02*
X78646303Y-88050057D01*
X78646303Y-88050057D02*
X78693922Y-88002438D01*
X78693922Y-88002438D02*
X78646303Y-87954819D01*
X78646303Y-87954819D02*
X78646303Y-88050057D01*
X79122493Y-88288152D02*
X79122493Y-88954819D01*
X79122493Y-88383390D02*
X79170112Y-88335771D01*
X79170112Y-88335771D02*
X79265350Y-88288152D01*
X79265350Y-88288152D02*
X79408207Y-88288152D01*
X79408207Y-88288152D02*
X79503445Y-88335771D01*
X79503445Y-88335771D02*
X79551064Y-88431009D01*
X79551064Y-88431009D02*
X79551064Y-88954819D01*
X80408207Y-88907200D02*
X80312969Y-88954819D01*
X80312969Y-88954819D02*
X80122493Y-88954819D01*
X80122493Y-88954819D02*
X80027255Y-88907200D01*
X80027255Y-88907200D02*
X79979636Y-88811961D01*
X79979636Y-88811961D02*
X79979636Y-88431009D01*
X79979636Y-88431009D02*
X80027255Y-88335771D01*
X80027255Y-88335771D02*
X80122493Y-88288152D01*
X80122493Y-88288152D02*
X80312969Y-88288152D01*
X80312969Y-88288152D02*
X80408207Y-88335771D01*
X80408207Y-88335771D02*
X80455826Y-88431009D01*
X80455826Y-88431009D02*
X80455826Y-88526247D01*
X80455826Y-88526247D02*
X79979636Y-88621485D01*
X101857142Y-88189580D02*
X101809523Y-88237200D01*
X101809523Y-88237200D02*
X101666666Y-88284819D01*
X101666666Y-88284819D02*
X101571428Y-88284819D01*
X101571428Y-88284819D02*
X101428571Y-88237200D01*
X101428571Y-88237200D02*
X101333333Y-88141961D01*
X101333333Y-88141961D02*
X101285714Y-88046723D01*
X101285714Y-88046723D02*
X101238095Y-87856247D01*
X101238095Y-87856247D02*
X101238095Y-87713390D01*
X101238095Y-87713390D02*
X101285714Y-87522914D01*
X101285714Y-87522914D02*
X101333333Y-87427676D01*
X101333333Y-87427676D02*
X101428571Y-87332438D01*
X101428571Y-87332438D02*
X101571428Y-87284819D01*
X101571428Y-87284819D02*
X101666666Y-87284819D01*
X101666666Y-87284819D02*
X101809523Y-87332438D01*
X101809523Y-87332438D02*
X101857142Y-87380057D01*
X102809523Y-88284819D02*
X102238095Y-88284819D01*
X102523809Y-88284819D02*
X102523809Y-87284819D01*
X102523809Y-87284819D02*
X102428571Y-87427676D01*
X102428571Y-87427676D02*
X102333333Y-87522914D01*
X102333333Y-87522914D02*
X102238095Y-87570533D01*
X103428571Y-87284819D02*
X103523809Y-87284819D01*
X103523809Y-87284819D02*
X103619047Y-87332438D01*
X103619047Y-87332438D02*
X103666666Y-87380057D01*
X103666666Y-87380057D02*
X103714285Y-87475295D01*
X103714285Y-87475295D02*
X103761904Y-87665771D01*
X103761904Y-87665771D02*
X103761904Y-87903866D01*
X103761904Y-87903866D02*
X103714285Y-88094342D01*
X103714285Y-88094342D02*
X103666666Y-88189580D01*
X103666666Y-88189580D02*
X103619047Y-88237200D01*
X103619047Y-88237200D02*
X103523809Y-88284819D01*
X103523809Y-88284819D02*
X103428571Y-88284819D01*
X103428571Y-88284819D02*
X103333333Y-88237200D01*
X103333333Y-88237200D02*
X103285714Y-88189580D01*
X103285714Y-88189580D02*
X103238095Y-88094342D01*
X103238095Y-88094342D02*
X103190476Y-87903866D01*
X103190476Y-87903866D02*
X103190476Y-87665771D01*
X103190476Y-87665771D02*
X103238095Y-87475295D01*
X103238095Y-87475295D02*
X103285714Y-87380057D01*
X103285714Y-87380057D02*
X103333333Y-87332438D01*
X103333333Y-87332438D02*
X103428571Y-87284819D01*
D12*
X104401266Y-95480326D02*
X104401266Y-94718422D01*
X104782219Y-95099374D02*
X104020314Y-95099374D01*
D11*
X86357142Y-116954819D02*
X86023809Y-116478628D01*
X85785714Y-116954819D02*
X85785714Y-115954819D01*
X85785714Y-115954819D02*
X86166666Y-115954819D01*
X86166666Y-115954819D02*
X86261904Y-116002438D01*
X86261904Y-116002438D02*
X86309523Y-116050057D01*
X86309523Y-116050057D02*
X86357142Y-116145295D01*
X86357142Y-116145295D02*
X86357142Y-116288152D01*
X86357142Y-116288152D02*
X86309523Y-116383390D01*
X86309523Y-116383390D02*
X86261904Y-116431009D01*
X86261904Y-116431009D02*
X86166666Y-116478628D01*
X86166666Y-116478628D02*
X85785714Y-116478628D01*
X87309523Y-116954819D02*
X86738095Y-116954819D01*
X87023809Y-116954819D02*
X87023809Y-115954819D01*
X87023809Y-115954819D02*
X86928571Y-116097676D01*
X86928571Y-116097676D02*
X86833333Y-116192914D01*
X86833333Y-116192914D02*
X86738095Y-116240533D01*
X88166666Y-116288152D02*
X88166666Y-116954819D01*
X87928571Y-115907200D02*
X87690476Y-116621485D01*
X87690476Y-116621485D02*
X88309523Y-116621485D01*
X77761905Y-100454819D02*
X77761905Y-101264342D01*
X77761905Y-101264342D02*
X77809524Y-101359580D01*
X77809524Y-101359580D02*
X77857143Y-101407200D01*
X77857143Y-101407200D02*
X77952381Y-101454819D01*
X77952381Y-101454819D02*
X78142857Y-101454819D01*
X78142857Y-101454819D02*
X78238095Y-101407200D01*
X78238095Y-101407200D02*
X78285714Y-101359580D01*
X78285714Y-101359580D02*
X78333333Y-101264342D01*
X78333333Y-101264342D02*
X78333333Y-100454819D01*
X78761905Y-101407200D02*
X78904762Y-101454819D01*
X78904762Y-101454819D02*
X79142857Y-101454819D01*
X79142857Y-101454819D02*
X79238095Y-101407200D01*
X79238095Y-101407200D02*
X79285714Y-101359580D01*
X79285714Y-101359580D02*
X79333333Y-101264342D01*
X79333333Y-101264342D02*
X79333333Y-101169104D01*
X79333333Y-101169104D02*
X79285714Y-101073866D01*
X79285714Y-101073866D02*
X79238095Y-101026247D01*
X79238095Y-101026247D02*
X79142857Y-100978628D01*
X79142857Y-100978628D02*
X78952381Y-100931009D01*
X78952381Y-100931009D02*
X78857143Y-100883390D01*
X78857143Y-100883390D02*
X78809524Y-100835771D01*
X78809524Y-100835771D02*
X78761905Y-100740533D01*
X78761905Y-100740533D02*
X78761905Y-100645295D01*
X78761905Y-100645295D02*
X78809524Y-100550057D01*
X78809524Y-100550057D02*
X78857143Y-100502438D01*
X78857143Y-100502438D02*
X78952381Y-100454819D01*
X78952381Y-100454819D02*
X79190476Y-100454819D01*
X79190476Y-100454819D02*
X79333333Y-100502438D01*
X80095238Y-100931009D02*
X80238095Y-100978628D01*
X80238095Y-100978628D02*
X80285714Y-101026247D01*
X80285714Y-101026247D02*
X80333333Y-101121485D01*
X80333333Y-101121485D02*
X80333333Y-101264342D01*
X80333333Y-101264342D02*
X80285714Y-101359580D01*
X80285714Y-101359580D02*
X80238095Y-101407200D01*
X80238095Y-101407200D02*
X80142857Y-101454819D01*
X80142857Y-101454819D02*
X79761905Y-101454819D01*
X79761905Y-101454819D02*
X79761905Y-100454819D01*
X79761905Y-100454819D02*
X80095238Y-100454819D01*
X80095238Y-100454819D02*
X80190476Y-100502438D01*
X80190476Y-100502438D02*
X80238095Y-100550057D01*
X80238095Y-100550057D02*
X80285714Y-100645295D01*
X80285714Y-100645295D02*
X80285714Y-100740533D01*
X80285714Y-100740533D02*
X80238095Y-100835771D01*
X80238095Y-100835771D02*
X80190476Y-100883390D01*
X80190476Y-100883390D02*
X80095238Y-100931009D01*
X80095238Y-100931009D02*
X79761905Y-100931009D01*
X81333333Y-101359580D02*
X81285714Y-101407200D01*
X81285714Y-101407200D02*
X81142857Y-101454819D01*
X81142857Y-101454819D02*
X81047619Y-101454819D01*
X81047619Y-101454819D02*
X80904762Y-101407200D01*
X80904762Y-101407200D02*
X80809524Y-101311961D01*
X80809524Y-101311961D02*
X80761905Y-101216723D01*
X80761905Y-101216723D02*
X80714286Y-101026247D01*
X80714286Y-101026247D02*
X80714286Y-100883390D01*
X80714286Y-100883390D02*
X80761905Y-100692914D01*
X80761905Y-100692914D02*
X80809524Y-100597676D01*
X80809524Y-100597676D02*
X80904762Y-100502438D01*
X80904762Y-100502438D02*
X81047619Y-100454819D01*
X81047619Y-100454819D02*
X81142857Y-100454819D01*
X81142857Y-100454819D02*
X81285714Y-100502438D01*
X81285714Y-100502438D02*
X81333333Y-100550057D01*
X82285714Y-101454819D02*
X81714286Y-101454819D01*
X82000000Y-101454819D02*
X82000000Y-100454819D01*
X82000000Y-100454819D02*
X81904762Y-100597676D01*
X81904762Y-100597676D02*
X81809524Y-100692914D01*
X81809524Y-100692914D02*
X81714286Y-100740533D01*
X134904761Y-91454819D02*
X134428571Y-91454819D01*
X134428571Y-91454819D02*
X134428571Y-90454819D01*
X135238095Y-90931009D02*
X135571428Y-90931009D01*
X135714285Y-91454819D02*
X135238095Y-91454819D01*
X135238095Y-91454819D02*
X135238095Y-90454819D01*
X135238095Y-90454819D02*
X135714285Y-90454819D01*
X136142857Y-91454819D02*
X136142857Y-90454819D01*
X136142857Y-90454819D02*
X136380952Y-90454819D01*
X136380952Y-90454819D02*
X136523809Y-90502438D01*
X136523809Y-90502438D02*
X136619047Y-90597676D01*
X136619047Y-90597676D02*
X136666666Y-90692914D01*
X136666666Y-90692914D02*
X136714285Y-90883390D01*
X136714285Y-90883390D02*
X136714285Y-91026247D01*
X136714285Y-91026247D02*
X136666666Y-91216723D01*
X136666666Y-91216723D02*
X136619047Y-91311961D01*
X136619047Y-91311961D02*
X136523809Y-91407200D01*
X136523809Y-91407200D02*
X136380952Y-91454819D01*
X136380952Y-91454819D02*
X136142857Y-91454819D01*
X137047619Y-90454819D02*
X137666666Y-90454819D01*
X137666666Y-90454819D02*
X137333333Y-90835771D01*
X137333333Y-90835771D02*
X137476190Y-90835771D01*
X137476190Y-90835771D02*
X137571428Y-90883390D01*
X137571428Y-90883390D02*
X137619047Y-90931009D01*
X137619047Y-90931009D02*
X137666666Y-91026247D01*
X137666666Y-91026247D02*
X137666666Y-91264342D01*
X137666666Y-91264342D02*
X137619047Y-91359580D01*
X137619047Y-91359580D02*
X137571428Y-91407200D01*
X137571428Y-91407200D02*
X137476190Y-91454819D01*
X137476190Y-91454819D02*
X137190476Y-91454819D01*
X137190476Y-91454819D02*
X137095238Y-91407200D01*
X137095238Y-91407200D02*
X137047619Y-91359580D01*
X138523809Y-90454819D02*
X138333333Y-90454819D01*
X138333333Y-90454819D02*
X138238095Y-90502438D01*
X138238095Y-90502438D02*
X138190476Y-90550057D01*
X138190476Y-90550057D02*
X138095238Y-90692914D01*
X138095238Y-90692914D02*
X138047619Y-90883390D01*
X138047619Y-90883390D02*
X138047619Y-91264342D01*
X138047619Y-91264342D02*
X138095238Y-91359580D01*
X138095238Y-91359580D02*
X138142857Y-91407200D01*
X138142857Y-91407200D02*
X138238095Y-91454819D01*
X138238095Y-91454819D02*
X138428571Y-91454819D01*
X138428571Y-91454819D02*
X138523809Y-91407200D01*
X138523809Y-91407200D02*
X138571428Y-91359580D01*
X138571428Y-91359580D02*
X138619047Y-91264342D01*
X138619047Y-91264342D02*
X138619047Y-91026247D01*
X138619047Y-91026247D02*
X138571428Y-90931009D01*
X138571428Y-90931009D02*
X138523809Y-90883390D01*
X138523809Y-90883390D02*
X138428571Y-90835771D01*
X138428571Y-90835771D02*
X138238095Y-90835771D01*
X138238095Y-90835771D02*
X138142857Y-90883390D01*
X138142857Y-90883390D02*
X138095238Y-90931009D01*
X138095238Y-90931009D02*
X138047619Y-91026247D01*
X95357142Y-107454819D02*
X95023809Y-106978628D01*
X94785714Y-107454819D02*
X94785714Y-106454819D01*
X94785714Y-106454819D02*
X95166666Y-106454819D01*
X95166666Y-106454819D02*
X95261904Y-106502438D01*
X95261904Y-106502438D02*
X95309523Y-106550057D01*
X95309523Y-106550057D02*
X95357142Y-106645295D01*
X95357142Y-106645295D02*
X95357142Y-106788152D01*
X95357142Y-106788152D02*
X95309523Y-106883390D01*
X95309523Y-106883390D02*
X95261904Y-106931009D01*
X95261904Y-106931009D02*
X95166666Y-106978628D01*
X95166666Y-106978628D02*
X94785714Y-106978628D01*
X96309523Y-107454819D02*
X95738095Y-107454819D01*
X96023809Y-107454819D02*
X96023809Y-106454819D01*
X96023809Y-106454819D02*
X95928571Y-106597676D01*
X95928571Y-106597676D02*
X95833333Y-106692914D01*
X95833333Y-106692914D02*
X95738095Y-106740533D01*
X96690476Y-106550057D02*
X96738095Y-106502438D01*
X96738095Y-106502438D02*
X96833333Y-106454819D01*
X96833333Y-106454819D02*
X97071428Y-106454819D01*
X97071428Y-106454819D02*
X97166666Y-106502438D01*
X97166666Y-106502438D02*
X97214285Y-106550057D01*
X97214285Y-106550057D02*
X97261904Y-106645295D01*
X97261904Y-106645295D02*
X97261904Y-106740533D01*
X97261904Y-106740533D02*
X97214285Y-106883390D01*
X97214285Y-106883390D02*
X96642857Y-107454819D01*
X96642857Y-107454819D02*
X97261904Y-107454819D01*
X94761905Y-87454819D02*
X94761905Y-86454819D01*
X94761905Y-86454819D02*
X95000000Y-86454819D01*
X95000000Y-86454819D02*
X95142857Y-86502438D01*
X95142857Y-86502438D02*
X95238095Y-86597676D01*
X95238095Y-86597676D02*
X95285714Y-86692914D01*
X95285714Y-86692914D02*
X95333333Y-86883390D01*
X95333333Y-86883390D02*
X95333333Y-87026247D01*
X95333333Y-87026247D02*
X95285714Y-87216723D01*
X95285714Y-87216723D02*
X95238095Y-87311961D01*
X95238095Y-87311961D02*
X95142857Y-87407200D01*
X95142857Y-87407200D02*
X95000000Y-87454819D01*
X95000000Y-87454819D02*
X94761905Y-87454819D01*
X96190476Y-86788152D02*
X96190476Y-87454819D01*
X95952381Y-86407200D02*
X95714286Y-87121485D01*
X95714286Y-87121485D02*
X96333333Y-87121485D01*
X154333333Y-102454819D02*
X154000000Y-101978628D01*
X153761905Y-102454819D02*
X153761905Y-101454819D01*
X153761905Y-101454819D02*
X154142857Y-101454819D01*
X154142857Y-101454819D02*
X154238095Y-101502438D01*
X154238095Y-101502438D02*
X154285714Y-101550057D01*
X154285714Y-101550057D02*
X154333333Y-101645295D01*
X154333333Y-101645295D02*
X154333333Y-101788152D01*
X154333333Y-101788152D02*
X154285714Y-101883390D01*
X154285714Y-101883390D02*
X154238095Y-101931009D01*
X154238095Y-101931009D02*
X154142857Y-101978628D01*
X154142857Y-101978628D02*
X153761905Y-101978628D01*
X154666667Y-101454819D02*
X155333333Y-101454819D01*
X155333333Y-101454819D02*
X154904762Y-102454819D01*
X95559580Y-114966666D02*
X95607200Y-115014285D01*
X95607200Y-115014285D02*
X95654819Y-115157142D01*
X95654819Y-115157142D02*
X95654819Y-115252380D01*
X95654819Y-115252380D02*
X95607200Y-115395237D01*
X95607200Y-115395237D02*
X95511961Y-115490475D01*
X95511961Y-115490475D02*
X95416723Y-115538094D01*
X95416723Y-115538094D02*
X95226247Y-115585713D01*
X95226247Y-115585713D02*
X95083390Y-115585713D01*
X95083390Y-115585713D02*
X94892914Y-115538094D01*
X94892914Y-115538094D02*
X94797676Y-115490475D01*
X94797676Y-115490475D02*
X94702438Y-115395237D01*
X94702438Y-115395237D02*
X94654819Y-115252380D01*
X94654819Y-115252380D02*
X94654819Y-115157142D01*
X94654819Y-115157142D02*
X94702438Y-115014285D01*
X94702438Y-115014285D02*
X94750057Y-114966666D01*
X95654819Y-114490475D02*
X95654819Y-114299999D01*
X95654819Y-114299999D02*
X95607200Y-114204761D01*
X95607200Y-114204761D02*
X95559580Y-114157142D01*
X95559580Y-114157142D02*
X95416723Y-114061904D01*
X95416723Y-114061904D02*
X95226247Y-114014285D01*
X95226247Y-114014285D02*
X94845295Y-114014285D01*
X94845295Y-114014285D02*
X94750057Y-114061904D01*
X94750057Y-114061904D02*
X94702438Y-114109523D01*
X94702438Y-114109523D02*
X94654819Y-114204761D01*
X94654819Y-114204761D02*
X94654819Y-114395237D01*
X94654819Y-114395237D02*
X94702438Y-114490475D01*
X94702438Y-114490475D02*
X94750057Y-114538094D01*
X94750057Y-114538094D02*
X94845295Y-114585713D01*
X94845295Y-114585713D02*
X95083390Y-114585713D01*
X95083390Y-114585713D02*
X95178628Y-114538094D01*
X95178628Y-114538094D02*
X95226247Y-114490475D01*
X95226247Y-114490475D02*
X95273866Y-114395237D01*
X95273866Y-114395237D02*
X95273866Y-114204761D01*
X95273866Y-114204761D02*
X95226247Y-114109523D01*
X95226247Y-114109523D02*
X95178628Y-114061904D01*
X95178628Y-114061904D02*
X95083390Y-114014285D01*
X162730062Y-91506874D02*
X162396729Y-91030683D01*
X162158634Y-91506874D02*
X162158634Y-90506874D01*
X162158634Y-90506874D02*
X162539586Y-90506874D01*
X162539586Y-90506874D02*
X162634824Y-90554493D01*
X162634824Y-90554493D02*
X162682443Y-90602112D01*
X162682443Y-90602112D02*
X162730062Y-90697350D01*
X162730062Y-90697350D02*
X162730062Y-90840207D01*
X162730062Y-90840207D02*
X162682443Y-90935445D01*
X162682443Y-90935445D02*
X162634824Y-90983064D01*
X162634824Y-90983064D02*
X162539586Y-91030683D01*
X162539586Y-91030683D02*
X162158634Y-91030683D01*
X163111015Y-90602112D02*
X163158634Y-90554493D01*
X163158634Y-90554493D02*
X163253872Y-90506874D01*
X163253872Y-90506874D02*
X163491967Y-90506874D01*
X163491967Y-90506874D02*
X163587205Y-90554493D01*
X163587205Y-90554493D02*
X163634824Y-90602112D01*
X163634824Y-90602112D02*
X163682443Y-90697350D01*
X163682443Y-90697350D02*
X163682443Y-90792588D01*
X163682443Y-90792588D02*
X163634824Y-90935445D01*
X163634824Y-90935445D02*
X163063396Y-91506874D01*
X163063396Y-91506874D02*
X163682443Y-91506874D01*
X159166667Y-98907200D02*
X159309524Y-98954819D01*
X159309524Y-98954819D02*
X159547619Y-98954819D01*
X159547619Y-98954819D02*
X159642857Y-98907200D01*
X159642857Y-98907200D02*
X159690476Y-98859580D01*
X159690476Y-98859580D02*
X159738095Y-98764342D01*
X159738095Y-98764342D02*
X159738095Y-98669104D01*
X159738095Y-98669104D02*
X159690476Y-98573866D01*
X159690476Y-98573866D02*
X159642857Y-98526247D01*
X159642857Y-98526247D02*
X159547619Y-98478628D01*
X159547619Y-98478628D02*
X159357143Y-98431009D01*
X159357143Y-98431009D02*
X159261905Y-98383390D01*
X159261905Y-98383390D02*
X159214286Y-98335771D01*
X159214286Y-98335771D02*
X159166667Y-98240533D01*
X159166667Y-98240533D02*
X159166667Y-98145295D01*
X159166667Y-98145295D02*
X159214286Y-98050057D01*
X159214286Y-98050057D02*
X159261905Y-98002438D01*
X159261905Y-98002438D02*
X159357143Y-97954819D01*
X159357143Y-97954819D02*
X159595238Y-97954819D01*
X159595238Y-97954819D02*
X159738095Y-98002438D01*
X160071429Y-97954819D02*
X160309524Y-98954819D01*
X160309524Y-98954819D02*
X160500000Y-98240533D01*
X160500000Y-98240533D02*
X160690476Y-98954819D01*
X160690476Y-98954819D02*
X160928572Y-97954819D01*
X161738095Y-98288152D02*
X161738095Y-98954819D01*
X161500000Y-97907200D02*
X161261905Y-98621485D01*
X161261905Y-98621485D02*
X161880952Y-98621485D01*
X165404761Y-94454819D02*
X164928571Y-94454819D01*
X164928571Y-94454819D02*
X164928571Y-93454819D01*
X165738095Y-93931009D02*
X166071428Y-93931009D01*
X166214285Y-94454819D02*
X165738095Y-94454819D01*
X165738095Y-94454819D02*
X165738095Y-93454819D01*
X165738095Y-93454819D02*
X166214285Y-93454819D01*
X166642857Y-94454819D02*
X166642857Y-93454819D01*
X166642857Y-93454819D02*
X166880952Y-93454819D01*
X166880952Y-93454819D02*
X167023809Y-93502438D01*
X167023809Y-93502438D02*
X167119047Y-93597676D01*
X167119047Y-93597676D02*
X167166666Y-93692914D01*
X167166666Y-93692914D02*
X167214285Y-93883390D01*
X167214285Y-93883390D02*
X167214285Y-94026247D01*
X167214285Y-94026247D02*
X167166666Y-94216723D01*
X167166666Y-94216723D02*
X167119047Y-94311961D01*
X167119047Y-94311961D02*
X167023809Y-94407200D01*
X167023809Y-94407200D02*
X166880952Y-94454819D01*
X166880952Y-94454819D02*
X166642857Y-94454819D01*
X167547619Y-93454819D02*
X168166666Y-93454819D01*
X168166666Y-93454819D02*
X167833333Y-93835771D01*
X167833333Y-93835771D02*
X167976190Y-93835771D01*
X167976190Y-93835771D02*
X168071428Y-93883390D01*
X168071428Y-93883390D02*
X168119047Y-93931009D01*
X168119047Y-93931009D02*
X168166666Y-94026247D01*
X168166666Y-94026247D02*
X168166666Y-94264342D01*
X168166666Y-94264342D02*
X168119047Y-94359580D01*
X168119047Y-94359580D02*
X168071428Y-94407200D01*
X168071428Y-94407200D02*
X167976190Y-94454819D01*
X167976190Y-94454819D02*
X167690476Y-94454819D01*
X167690476Y-94454819D02*
X167595238Y-94407200D01*
X167595238Y-94407200D02*
X167547619Y-94359580D01*
X169071428Y-93454819D02*
X168595238Y-93454819D01*
X168595238Y-93454819D02*
X168547619Y-93931009D01*
X168547619Y-93931009D02*
X168595238Y-93883390D01*
X168595238Y-93883390D02*
X168690476Y-93835771D01*
X168690476Y-93835771D02*
X168928571Y-93835771D01*
X168928571Y-93835771D02*
X169023809Y-93883390D01*
X169023809Y-93883390D02*
X169071428Y-93931009D01*
X169071428Y-93931009D02*
X169119047Y-94026247D01*
X169119047Y-94026247D02*
X169119047Y-94264342D01*
X169119047Y-94264342D02*
X169071428Y-94359580D01*
X169071428Y-94359580D02*
X169023809Y-94407200D01*
X169023809Y-94407200D02*
X168928571Y-94454819D01*
X168928571Y-94454819D02*
X168690476Y-94454819D01*
X168690476Y-94454819D02*
X168595238Y-94407200D01*
X168595238Y-94407200D02*
X168547619Y-94359580D01*
X142646153Y-93453056D02*
X142312820Y-92976865D01*
X142074725Y-93453056D02*
X142074725Y-92453056D01*
X142074725Y-92453056D02*
X142455677Y-92453056D01*
X142455677Y-92453056D02*
X142550915Y-92500675D01*
X142550915Y-92500675D02*
X142598534Y-92548294D01*
X142598534Y-92548294D02*
X142646153Y-92643532D01*
X142646153Y-92643532D02*
X142646153Y-92786389D01*
X142646153Y-92786389D02*
X142598534Y-92881627D01*
X142598534Y-92881627D02*
X142550915Y-92929246D01*
X142550915Y-92929246D02*
X142455677Y-92976865D01*
X142455677Y-92976865D02*
X142074725Y-92976865D01*
X143550915Y-92453056D02*
X143074725Y-92453056D01*
X143074725Y-92453056D02*
X143027106Y-92929246D01*
X143027106Y-92929246D02*
X143074725Y-92881627D01*
X143074725Y-92881627D02*
X143169963Y-92834008D01*
X143169963Y-92834008D02*
X143408058Y-92834008D01*
X143408058Y-92834008D02*
X143503296Y-92881627D01*
X143503296Y-92881627D02*
X143550915Y-92929246D01*
X143550915Y-92929246D02*
X143598534Y-93024484D01*
X143598534Y-93024484D02*
X143598534Y-93262579D01*
X143598534Y-93262579D02*
X143550915Y-93357817D01*
X143550915Y-93357817D02*
X143503296Y-93405437D01*
X143503296Y-93405437D02*
X143408058Y-93453056D01*
X143408058Y-93453056D02*
X143169963Y-93453056D01*
X143169963Y-93453056D02*
X143074725Y-93405437D01*
X143074725Y-93405437D02*
X143027106Y-93357817D01*
X144550915Y-93453056D02*
X143979487Y-93453056D01*
X144265201Y-93453056D02*
X144265201Y-92453056D01*
X144265201Y-92453056D02*
X144169963Y-92595913D01*
X144169963Y-92595913D02*
X144074725Y-92691151D01*
X144074725Y-92691151D02*
X143979487Y-92738770D01*
%TO.C,C13*%
D13*
X119311252Y-110735000D02*
X118788748Y-110735000D01*
X119311252Y-109265000D02*
X118788748Y-109265000D01*
%TO.C,R9*%
X102787258Y-115977500D02*
X102312742Y-115977500D01*
X102787258Y-117022500D02*
X102312742Y-117022500D01*
%TO.C,R11*%
X102787258Y-112977500D02*
X102312742Y-112977500D01*
X102787258Y-114022500D02*
X102312742Y-114022500D01*
%TO.C,R10*%
X102312742Y-114477500D02*
X102787258Y-114477500D01*
X102312742Y-115522500D02*
X102787258Y-115522500D01*
%TO.C,R18*%
X99677500Y-114462258D02*
X99677500Y-113987742D01*
X100722500Y-114462258D02*
X100722500Y-113987742D01*
%TO.C,C4*%
X94010000Y-112365580D02*
X94010000Y-112084420D01*
X92990000Y-112365580D02*
X92990000Y-112084420D01*
%TO.C,F3*%
D14*
X86330000Y-105000000D02*
G75*
G02*
X86270000Y-105000000I-30000J0D01*
G01*
X86270000Y-105000000D02*
G75*
G02*
X86330000Y-105000000I30000J0D01*
G01*
D10*
X90244144Y-104026543D02*
G75*
G02*
X90000000Y-102500000I-164144J756543D01*
G01*
X90000000Y-100980000D02*
G75*
G02*
X90000000Y-102500000I0J-760000D01*
G01*
X94600000Y-100000000D02*
X94600000Y-105000000D01*
X92300000Y-105400000D02*
X94300000Y-105400000D01*
X92300000Y-99600000D02*
X94300000Y-99600000D01*
X85700000Y-105400000D02*
X87700000Y-105400000D01*
X85700000Y-99600000D02*
X87700000Y-99600000D01*
X85400000Y-100000000D02*
X85400000Y-105000000D01*
%TO.C,C17*%
D13*
X110193719Y-118701118D02*
X110474879Y-118701118D01*
X110193719Y-119721118D02*
X110474879Y-119721118D01*
%TO.C,C15*%
X110288748Y-114765000D02*
X110811252Y-114765000D01*
X110288748Y-116235000D02*
X110811252Y-116235000D01*
%TO.C,R49*%
X195025754Y-111309297D02*
X195500270Y-111309297D01*
X195025754Y-112354297D02*
X195500270Y-112354297D01*
%TO.C,C16*%
X110288748Y-116765000D02*
X110811252Y-116765000D01*
X110288748Y-118235000D02*
X110811252Y-118235000D01*
%TO.C,C6*%
X119311252Y-111415000D02*
X118788748Y-111415000D01*
X119311252Y-112885000D02*
X118788748Y-112885000D01*
%TO.C,J2*%
X168070000Y-110577358D02*
X168070000Y-110890000D01*
X168070000Y-119650000D02*
X168070000Y-113650000D01*
X168930000Y-110577358D02*
X168930000Y-110890000D01*
X168930000Y-113650000D02*
X168930000Y-119650000D01*
X168930000Y-119650000D02*
X168070000Y-119650000D01*
X169770000Y-110890000D02*
X169770000Y-113650000D01*
X170610000Y-110577358D02*
X170610000Y-110890000D01*
X170610000Y-119650000D02*
X170610000Y-113650000D01*
X171470000Y-110577358D02*
X171470000Y-110890000D01*
X171470000Y-113650000D02*
X171470000Y-119650000D01*
X171470000Y-119650000D02*
X170610000Y-119650000D01*
X172310000Y-110890000D02*
X172310000Y-113650000D01*
X173150000Y-110660000D02*
X173150000Y-110890000D01*
X173580000Y-108230000D02*
X174850000Y-108230000D01*
X174010000Y-110660000D02*
X174010000Y-110890000D01*
X174850000Y-108230000D02*
X174850000Y-109500000D01*
X173150000Y-113650000D02*
X174010000Y-113650000D01*
X174010000Y-119650000D01*
X173150000Y-119650000D01*
X173150000Y-113650000D01*
G36*
X173150000Y-113650000D02*
G01*
X174010000Y-113650000D01*
X174010000Y-119650000D01*
X173150000Y-119650000D01*
X173150000Y-113650000D01*
G37*
X167120000Y-110890000D02*
X174960000Y-110890000D01*
X174960000Y-113650000D01*
X167120000Y-113650000D01*
X167120000Y-110890000D01*
%TO.C,R3*%
X160262742Y-91977500D02*
X160737258Y-91977500D01*
X160262742Y-93022500D02*
X160737258Y-93022500D01*
%TO.C,C1*%
X143140580Y-87990000D02*
X142859420Y-87990000D01*
X143140580Y-89010000D02*
X142859420Y-89010000D01*
%TO.C,R5*%
X89762742Y-112927500D02*
X90237258Y-112927500D01*
X89762742Y-113972500D02*
X90237258Y-113972500D01*
%TO.C,R13*%
X91414140Y-114401800D02*
X91888656Y-114401800D01*
X91414140Y-115446800D02*
X91888656Y-115446800D01*
%TO.C,U7*%
D10*
X105150000Y-114950000D02*
X106950000Y-114950000D01*
X105150000Y-118050000D02*
X106950000Y-118050000D01*
D14*
X107480000Y-117950000D02*
G75*
G02*
X107420000Y-117950000I-30000J0D01*
G01*
X107420000Y-117950000D02*
G75*
G02*
X107480000Y-117950000I30000J0D01*
G01*
D10*
X107570000Y-118150000D02*
G75*
G02*
X107330000Y-118150000I-120000J0D01*
G01*
X107330000Y-118150000D02*
G75*
G02*
X107570000Y-118150000I120000J0D01*
G01*
%TO.C,U3*%
D13*
X88150000Y-106510000D02*
X87100000Y-106510000D01*
X88150000Y-108490000D02*
X86850000Y-108490000D01*
X86730000Y-106510000D02*
X86450000Y-106510000D01*
X86730000Y-106230000D01*
X86730000Y-106510000D01*
G36*
X86730000Y-106510000D02*
G01*
X86450000Y-106510000D01*
X86730000Y-106230000D01*
X86730000Y-106510000D01*
G37*
%TO.C,J3*%
X138710000Y-110577358D02*
X138710000Y-110890000D01*
X138710000Y-119650000D02*
X138710000Y-113650000D01*
X139570000Y-110577358D02*
X139570000Y-110890000D01*
X139570000Y-113650000D02*
X139570000Y-119650000D01*
X139570000Y-119650000D02*
X138710000Y-119650000D01*
X140410000Y-110890000D02*
X140410000Y-113650000D01*
X141250000Y-110577358D02*
X141250000Y-110890000D01*
X141250000Y-119650000D02*
X141250000Y-113650000D01*
X142110000Y-110577358D02*
X142110000Y-110890000D01*
X142110000Y-113650000D02*
X142110000Y-119650000D01*
X142110000Y-119650000D02*
X141250000Y-119650000D01*
X142950000Y-110890000D02*
X142950000Y-113650000D01*
X143790000Y-110577358D02*
X143790000Y-110890000D01*
X143790000Y-119650000D02*
X143790000Y-113650000D01*
X144650000Y-110577358D02*
X144650000Y-110890000D01*
X144650000Y-113650000D02*
X144650000Y-119650000D01*
X144650000Y-119650000D02*
X143790000Y-119650000D01*
X145490000Y-110890000D02*
X145490000Y-113650000D01*
X146330000Y-110577358D02*
X146330000Y-110890000D01*
X146330000Y-119650000D02*
X146330000Y-113650000D01*
X147190000Y-110577358D02*
X147190000Y-110890000D01*
X147190000Y-113650000D02*
X147190000Y-119650000D01*
X147190000Y-119650000D02*
X146330000Y-119650000D01*
X148030000Y-110890000D02*
X148030000Y-113650000D01*
X148870000Y-110577358D02*
X148870000Y-110890000D01*
X148870000Y-119650000D02*
X148870000Y-113650000D01*
X149730000Y-110577358D02*
X149730000Y-110890000D01*
X149730000Y-113650000D02*
X149730000Y-119650000D01*
X149730000Y-119650000D02*
X148870000Y-119650000D01*
X150570000Y-110890000D02*
X150570000Y-113650000D01*
X151410000Y-110577358D02*
X151410000Y-110890000D01*
X151410000Y-119650000D02*
X151410000Y-113650000D01*
X152270000Y-110577358D02*
X152270000Y-110890000D01*
X152270000Y-113650000D02*
X152270000Y-119650000D01*
X152270000Y-119650000D02*
X151410000Y-119650000D01*
X153110000Y-110890000D02*
X153110000Y-113650000D01*
X153950000Y-110577358D02*
X153950000Y-110890000D01*
X153950000Y-119650000D02*
X153950000Y-113650000D01*
X154810000Y-110577358D02*
X154810000Y-110890000D01*
X154810000Y-113650000D02*
X154810000Y-119650000D01*
X154810000Y-119650000D02*
X153950000Y-119650000D01*
X155650000Y-110890000D02*
X155650000Y-113650000D01*
X156490000Y-110577358D02*
X156490000Y-110890000D01*
X156490000Y-119650000D02*
X156490000Y-113650000D01*
X157350000Y-110577358D02*
X157350000Y-110890000D01*
X157350000Y-113650000D02*
X157350000Y-119650000D01*
X157350000Y-119650000D02*
X156490000Y-119650000D01*
X158190000Y-110890000D02*
X158190000Y-113650000D01*
X159030000Y-110577358D02*
X159030000Y-110890000D01*
X159030000Y-119650000D02*
X159030000Y-113650000D01*
X159890000Y-110577358D02*
X159890000Y-110890000D01*
X159890000Y-113650000D02*
X159890000Y-119650000D01*
X159890000Y-119650000D02*
X159030000Y-119650000D01*
X160730000Y-110890000D02*
X160730000Y-113650000D01*
X161570000Y-110577358D02*
X161570000Y-110890000D01*
X161570000Y-119650000D02*
X161570000Y-113650000D01*
X162430000Y-110577358D02*
X162430000Y-110890000D01*
X162430000Y-113650000D02*
X162430000Y-119650000D01*
X162430000Y-119650000D02*
X161570000Y-119650000D01*
X163270000Y-110890000D02*
X163270000Y-113650000D01*
X164110000Y-110660000D02*
X164110000Y-110890000D01*
X164540000Y-108230000D02*
X165810000Y-108230000D01*
X164970000Y-110660000D02*
X164970000Y-110890000D01*
X165810000Y-108230000D02*
X165810000Y-109500000D01*
X164110000Y-113650000D02*
X164970000Y-113650000D01*
X164970000Y-119650000D01*
X164110000Y-119650000D01*
X164110000Y-113650000D01*
G36*
X164110000Y-113650000D02*
G01*
X164970000Y-113650000D01*
X164970000Y-119650000D01*
X164110000Y-119650000D01*
X164110000Y-113650000D01*
G37*
X137760000Y-110890000D02*
X165920000Y-110890000D01*
X165920000Y-113650000D01*
X137760000Y-113650000D01*
X137760000Y-110890000D01*
%TO.C,C5*%
X106193634Y-113585230D02*
X105912474Y-113585230D01*
X106193634Y-114605230D02*
X105912474Y-114605230D01*
%TO.C,SW6*%
D10*
X190200000Y-109500000D02*
X190200000Y-109570000D01*
X190200000Y-109500000D02*
X193800000Y-109500000D01*
X190200000Y-110830000D02*
X190200000Y-111170000D01*
X190200000Y-112430000D02*
X190200000Y-112500000D01*
X190200000Y-112500000D02*
X193800000Y-112500000D01*
X193800000Y-109500000D02*
X193800000Y-109570000D01*
X193800000Y-110830000D02*
X193800000Y-111170000D01*
X193800000Y-112430000D02*
X193800000Y-112500000D01*
D14*
X189700000Y-109500000D02*
G75*
G02*
X189640000Y-109500000I-30000J0D01*
G01*
X189640000Y-109500000D02*
G75*
G02*
X189700000Y-109500000I30000J0D01*
G01*
D10*
X192990000Y-111000000D02*
G75*
G02*
X191010000Y-111000000I-990000J0D01*
G01*
X191010000Y-111000000D02*
G75*
G02*
X192990000Y-111000000I990000J0D01*
G01*
%TO.C,C8*%
D13*
X106362223Y-91571407D02*
X106362223Y-91048903D01*
X107832223Y-91571407D02*
X107832223Y-91048903D01*
%TO.C,C3*%
X143617257Y-95364490D02*
X143336097Y-95364490D01*
X143617257Y-96384490D02*
X143336097Y-96384490D01*
%TO.C,LED33*%
D11*
X90010000Y-108050000D02*
X90310000Y-107750000D01*
X90010000Y-108150000D02*
X90010000Y-108050000D01*
X90010000Y-108150000D02*
X90010000Y-108850000D01*
X90010000Y-108850000D02*
X90010000Y-108950000D01*
X90010000Y-108950000D02*
X90310000Y-109250000D01*
X91360000Y-107750000D02*
X90310000Y-107750000D01*
X91360000Y-109250000D02*
X90310000Y-109250000D01*
X91710000Y-108820000D02*
X91380000Y-108490000D01*
X91720000Y-108140000D02*
X91720000Y-108150000D01*
X91720000Y-108140000D02*
X91720000Y-108820000D01*
X91720000Y-108150000D02*
X91380000Y-108490000D01*
X91720000Y-108490000D02*
X91380000Y-108490000D01*
X91720000Y-108820000D02*
X91710000Y-108820000D01*
X91740000Y-107740000D02*
X92890000Y-107740000D01*
X91740000Y-109240000D02*
X92890000Y-109240000D01*
X92890000Y-107740000D02*
X92890000Y-109220000D01*
D14*
X90730000Y-108900000D02*
G75*
G02*
X90670000Y-108900000I-30000J0D01*
G01*
X90670000Y-108900000D02*
G75*
G02*
X90730000Y-108900000I30000J0D01*
G01*
%TO.C,C2*%
D13*
X143140580Y-89490000D02*
X142859420Y-89490000D01*
X143140580Y-90510000D02*
X142859420Y-90510000D01*
%TO.C,R8*%
X143234808Y-93893104D02*
X143709324Y-93893104D01*
X143234808Y-94938104D02*
X143709324Y-94938104D01*
%TO.C,SW3*%
D10*
X140486367Y-96686735D02*
X140486367Y-96616735D01*
X140486367Y-98286735D02*
X140486367Y-97946735D01*
X140486367Y-99616735D02*
X140486367Y-99546735D01*
X144086367Y-96616735D02*
X140486367Y-96616735D01*
X144086367Y-96686735D02*
X144086367Y-96616735D01*
X144086367Y-98286735D02*
X144086367Y-97946735D01*
X144086367Y-99616735D02*
X140486367Y-99616735D01*
X144086367Y-99616735D02*
X144086367Y-99546735D01*
X143276367Y-98116735D02*
G75*
G02*
X141296367Y-98116735I-990000J0D01*
G01*
X141296367Y-98116735D02*
G75*
G02*
X143276367Y-98116735I990000J0D01*
G01*
D14*
X144646367Y-99616735D02*
G75*
G02*
X144586367Y-99616735I-30000J0D01*
G01*
X144586367Y-99616735D02*
G75*
G02*
X144646367Y-99616735I30000J0D01*
G01*
%TO.C,L1*%
D11*
X108820000Y-107620000D02*
X116280000Y-107620000D01*
X108820000Y-109140000D02*
X108820000Y-107620000D01*
X108820000Y-112860000D02*
X108820000Y-114380000D01*
X108820000Y-114380000D02*
X116280000Y-114380000D01*
X116280000Y-107620000D02*
X116280000Y-109140000D01*
X116280000Y-114380000D02*
X116280000Y-112860000D01*
D14*
X108960000Y-114270000D02*
G75*
G02*
X108900000Y-114270000I-30000J0D01*
G01*
X108900000Y-114270000D02*
G75*
G02*
X108960000Y-114270000I30000J0D01*
G01*
%TO.C,D3*%
D13*
X100375000Y-112235000D02*
X104785000Y-112235000D01*
X104785000Y-110015000D02*
X100375000Y-110015000D01*
X104785000Y-112235000D02*
X104785000Y-110015000D01*
%TO.C,U2*%
X145250000Y-81250000D02*
X158750000Y-81250000D01*
X145250000Y-98150000D02*
X145250000Y-81250000D01*
X158750000Y-81250000D02*
X158750000Y-98150000D01*
X158750000Y-98150000D02*
X145250000Y-98150000D01*
X144900000Y-88400000D02*
X144564000Y-88640000D01*
X144564000Y-88160000D01*
X144900000Y-88400000D01*
G36*
X144900000Y-88400000D02*
G01*
X144564000Y-88640000D01*
X144564000Y-88160000D01*
X144900000Y-88400000D01*
G37*
%TO.C,R16*%
X94737258Y-109477500D02*
X94262742Y-109477500D01*
X94737258Y-110522500D02*
X94262742Y-110522500D01*
%TO.C,F4*%
D10*
X94900000Y-100000000D02*
X94900000Y-105000000D01*
X95200000Y-99600000D02*
X97200000Y-99600000D01*
X95200000Y-105400000D02*
X97200000Y-105400000D01*
X101800000Y-99600000D02*
X103800000Y-99600000D01*
X101800000Y-105400000D02*
X103800000Y-105400000D01*
X104100000Y-100000000D02*
X104100000Y-105000000D01*
X99500000Y-100980000D02*
G75*
G02*
X99500000Y-102500000I0J-760000D01*
G01*
X99744144Y-104026543D02*
G75*
G02*
X99500000Y-102500000I-164144J756543D01*
G01*
D14*
X95830000Y-105000000D02*
G75*
G02*
X95770000Y-105000000I-30000J0D01*
G01*
X95770000Y-105000000D02*
G75*
G02*
X95830000Y-105000000I30000J0D01*
G01*
%TO.C,Q2*%
D11*
X101035000Y-106620000D02*
X102085000Y-106620000D01*
X101035000Y-108380000D02*
X101035000Y-106620000D01*
X103035000Y-108380000D02*
X102115000Y-108380000D01*
X104115000Y-106620000D02*
X103065000Y-106620000D01*
X104115000Y-108380000D02*
X104115000Y-106620000D01*
D14*
X101145000Y-108900000D02*
G75*
G02*
X101085000Y-108900000I-30000J0D01*
G01*
X101085000Y-108900000D02*
G75*
G02*
X101145000Y-108900000I30000J0D01*
G01*
%TO.C,U5*%
D13*
X89090000Y-109390000D02*
X90910000Y-109390000D01*
X89090000Y-109440000D02*
X89090000Y-109390000D01*
X89090000Y-112510000D02*
X89090000Y-112460000D01*
X90910000Y-109390000D02*
X90910000Y-109440000D01*
X90910000Y-112460000D02*
X90910000Y-112510000D01*
X90910000Y-112510000D02*
X89090000Y-112510000D01*
X91450000Y-112460000D02*
X91690000Y-112790000D01*
X91210000Y-112790000D01*
X91450000Y-112460000D01*
G36*
X91690000Y-112790000D02*
G01*
X91210000Y-112790000D01*
X91450000Y-112460000D01*
X91690000Y-112790000D01*
G37*
%TO.C,SW5*%
D10*
X190200000Y-99750000D02*
X190200000Y-99820000D01*
X190200000Y-99750000D02*
X193800000Y-99750000D01*
X190200000Y-101080000D02*
X190200000Y-101420000D01*
X190200000Y-102680000D02*
X190200000Y-102750000D01*
X190200000Y-102750000D02*
X193800000Y-102750000D01*
X193800000Y-99750000D02*
X193800000Y-99820000D01*
X193800000Y-101080000D02*
X193800000Y-101420000D01*
X193800000Y-102680000D02*
X193800000Y-102750000D01*
D14*
X189700000Y-99750000D02*
G75*
G02*
X189640000Y-99750000I-30000J0D01*
G01*
X189640000Y-99750000D02*
G75*
G02*
X189700000Y-99750000I30000J0D01*
G01*
D10*
X192990000Y-101250000D02*
G75*
G02*
X191010000Y-101250000I-990000J0D01*
G01*
X191010000Y-101250000D02*
G75*
G02*
X192990000Y-101250000I990000J0D01*
G01*
%TO.C,R50*%
D13*
X160262742Y-93477500D02*
X160737258Y-93477500D01*
X160262742Y-94522500D02*
X160737258Y-94522500D01*
%TO.C,U6*%
D10*
X213210000Y-89270000D02*
X213200000Y-88560000D01*
X213210000Y-89270000D02*
X219590000Y-89270000D01*
X213210000Y-91730000D02*
X219590000Y-91730000D01*
X213210000Y-93270000D02*
X213210000Y-91730000D01*
X213210000Y-93270000D02*
X219590000Y-93270000D01*
X213210000Y-95730000D02*
X219590000Y-95730000D01*
X213210000Y-96560000D02*
X213210000Y-95730000D01*
X213210000Y-96560000D02*
X226320000Y-96560000D01*
X219590000Y-89270000D02*
X219590000Y-91680000D01*
X219590000Y-91680000D02*
X219590000Y-91730000D01*
X219590000Y-93270000D02*
X219590000Y-95670000D01*
X219590000Y-95670000D02*
X219590000Y-95730000D01*
X222410000Y-91990000D02*
X223170000Y-91990000D01*
X223170000Y-91990000D02*
X223170000Y-92370000D01*
X223170000Y-91990000D02*
X225960000Y-91990000D01*
X223170000Y-92370000D02*
X222410000Y-91990000D01*
X225960000Y-91990000D02*
X225960000Y-91990000D01*
X226320000Y-88560000D02*
X213210000Y-88560000D01*
X226320000Y-89270000D02*
X226320000Y-88560000D01*
X226320000Y-93270000D02*
X226320000Y-91730000D01*
X226320000Y-96560000D02*
X226320000Y-95730000D01*
D14*
X212870000Y-96450000D02*
G75*
G02*
X212810000Y-96450000I-30000J0D01*
G01*
X212810000Y-96450000D02*
G75*
G02*
X212870000Y-96450000I30000J0D01*
G01*
D10*
X218690000Y-90530000D02*
G75*
G02*
X217430000Y-90530000I-630000J0D01*
G01*
X217430000Y-90530000D02*
G75*
G02*
X218690000Y-90530000I630000J0D01*
G01*
X218690000Y-94530000D02*
G75*
G02*
X217430000Y-94530000I-630000J0D01*
G01*
X217430000Y-94530000D02*
G75*
G02*
X218690000Y-94530000I630000J0D01*
G01*
D15*
G36*
X223168016Y-91992000D02*
G01*
X223168397Y-92367920D01*
X222406397Y-91986920D01*
X223168016Y-91992000D01*
G37*
%TO.C,Q3*%
D13*
X165177500Y-89940000D02*
X166697500Y-89940000D01*
X165177500Y-89990000D02*
X165177500Y-89940000D01*
X165177500Y-91890000D02*
X165177500Y-91110000D01*
X165177500Y-93060000D02*
X165177500Y-93010000D01*
X166697500Y-89940000D02*
X166697500Y-90940000D01*
X166697500Y-92060000D02*
X166697500Y-93060000D01*
X166697500Y-93060000D02*
X165177500Y-93060000D01*
X164637500Y-91120000D02*
X164877500Y-91450000D01*
X164397500Y-91450000D01*
X164637500Y-91120000D01*
G36*
X164877500Y-91450000D02*
G01*
X164397500Y-91450000D01*
X164637500Y-91120000D01*
X164877500Y-91450000D01*
G37*
%TO.C,R15*%
X84977500Y-114237258D02*
X84977500Y-113762742D01*
X86022500Y-114237258D02*
X86022500Y-113762742D01*
%TO.C,R4*%
X155885847Y-99974693D02*
X155885847Y-99500177D01*
X156930847Y-99974693D02*
X156930847Y-99500177D01*
%TO.C,R48*%
X194985360Y-101514035D02*
X195459876Y-101514035D01*
X194985360Y-102559035D02*
X195459876Y-102559035D01*
%TO.C,U8*%
D10*
X77810000Y-89440000D02*
X77810000Y-90270000D01*
X77810000Y-92730000D02*
X77810000Y-94270000D01*
X77810000Y-96730000D02*
X77810000Y-97440000D01*
X77810000Y-97440000D02*
X90920000Y-97440000D01*
X78170000Y-94010000D02*
X78170000Y-94010000D01*
X80960000Y-93630000D02*
X81720000Y-94010000D01*
X80960000Y-94010000D02*
X78170000Y-94010000D01*
X80960000Y-94010000D02*
X80960000Y-93630000D01*
X81720000Y-94010000D02*
X80960000Y-94010000D01*
X84540000Y-90330000D02*
X84540000Y-90270000D01*
X84540000Y-92730000D02*
X84540000Y-90330000D01*
X84540000Y-94320000D02*
X84540000Y-94270000D01*
X84540000Y-96730000D02*
X84540000Y-94320000D01*
X90920000Y-89440000D02*
X77810000Y-89440000D01*
X90920000Y-89440000D02*
X90920000Y-90270000D01*
X90920000Y-90270000D02*
X84540000Y-90270000D01*
X90920000Y-92730000D02*
X84540000Y-92730000D01*
X90920000Y-92730000D02*
X90920000Y-94270000D01*
X90920000Y-94270000D02*
X84540000Y-94270000D01*
X90920000Y-96730000D02*
X84540000Y-96730000D01*
X90920000Y-96730000D02*
X90930000Y-97440000D01*
X86700000Y-91470000D02*
G75*
G02*
X85440000Y-91470000I-630000J0D01*
G01*
X85440000Y-91470000D02*
G75*
G02*
X86700000Y-91470000I630000J0D01*
G01*
X86700000Y-95470000D02*
G75*
G02*
X85440000Y-95470000I-630000J0D01*
G01*
X85440000Y-95470000D02*
G75*
G02*
X86700000Y-95470000I630000J0D01*
G01*
D14*
X91320000Y-89550000D02*
G75*
G02*
X91260000Y-89550000I-30000J0D01*
G01*
X91260000Y-89550000D02*
G75*
G02*
X91320000Y-89550000I30000J0D01*
G01*
D15*
G36*
X81723603Y-94013080D02*
G01*
X80961984Y-94008000D01*
X80961603Y-93632080D01*
X81723603Y-94013080D01*
G37*
%TO.C,C10*%
D11*
X99120000Y-89620000D02*
X99120000Y-94980000D01*
X99120000Y-94980000D02*
X100520000Y-96380000D01*
X100520000Y-96380000D02*
X101810000Y-96380000D01*
X101790000Y-89630000D02*
X99120000Y-89620000D01*
X103240000Y-89640000D02*
X105880000Y-89620000D01*
X104480000Y-96380000D02*
X103190000Y-96360000D01*
X105880000Y-89620000D02*
X105880000Y-94980000D01*
X105880000Y-94980000D02*
X104480000Y-96380000D01*
D14*
X105830000Y-96800000D02*
G75*
G02*
X105770000Y-96800000I-30000J0D01*
G01*
X105770000Y-96800000D02*
G75*
G02*
X105830000Y-96800000I30000J0D01*
G01*
%TO.C,R14*%
D13*
X86477500Y-114237258D02*
X86477500Y-113762742D01*
X87522500Y-114237258D02*
X87522500Y-113762742D01*
%TO.C,USBC1*%
D10*
X75927500Y-102430000D02*
X77407500Y-102430000D01*
X75927500Y-111370000D02*
X75927500Y-102430000D01*
X75927500Y-111370000D02*
X77407500Y-111370000D01*
X79647500Y-102430000D02*
X81507500Y-102430000D01*
X79647500Y-111370000D02*
X81507500Y-111370000D01*
%TO.C,LED36*%
D11*
X139202339Y-91038338D02*
X139502339Y-90738338D01*
X139202339Y-91138338D02*
X139202339Y-91038338D01*
X139202339Y-91138338D02*
X139202339Y-91838338D01*
X139202339Y-91838338D02*
X139202339Y-91938338D01*
X139202339Y-91938338D02*
X139502339Y-92238338D01*
X140552339Y-90738338D02*
X139502339Y-90738338D01*
X140552339Y-92238338D02*
X139502339Y-92238338D01*
X140902339Y-91808338D02*
X140572339Y-91478338D01*
X140912339Y-91128338D02*
X140912339Y-91138338D01*
X140912339Y-91128338D02*
X140912339Y-91808338D01*
X140912339Y-91138338D02*
X140572339Y-91478338D01*
X140912339Y-91478338D02*
X140572339Y-91478338D01*
X140912339Y-91808338D02*
X140902339Y-91808338D01*
X140932339Y-90728338D02*
X142082339Y-90728338D01*
X140932339Y-92228338D02*
X142082339Y-92228338D01*
X142082339Y-90728338D02*
X142082339Y-92208338D01*
D14*
X139922339Y-91888338D02*
G75*
G02*
X139862339Y-91888338I-30000J0D01*
G01*
X139862339Y-91888338D02*
G75*
G02*
X139922339Y-91888338I30000J0D01*
G01*
%TO.C,R12*%
D13*
X94262742Y-107977500D02*
X94737258Y-107977500D01*
X94262742Y-109022500D02*
X94737258Y-109022500D01*
%TO.C,D4*%
D10*
X92390000Y-89400000D02*
X93360000Y-89400000D01*
X92390000Y-94190000D02*
X98610000Y-94190000D01*
X92390000Y-96600000D02*
X92390000Y-89400000D01*
X92390000Y-96600000D02*
X93360000Y-96600000D01*
X94990000Y-91980000D02*
X95500000Y-93000000D01*
X95500000Y-91480000D02*
X95500000Y-93510000D01*
X95500000Y-93000000D02*
X96010000Y-91980000D01*
X95500000Y-93000000D02*
X96010000Y-93000000D01*
X96010000Y-91980000D02*
X94990000Y-91980000D01*
X96010000Y-93000000D02*
X94990000Y-93000000D01*
X97640000Y-89400000D02*
X98610000Y-89400000D01*
X97640000Y-96600000D02*
X98610000Y-96600000D01*
X98610000Y-96600000D02*
X98610000Y-89400000D01*
D14*
X98480000Y-89000000D02*
G75*
G02*
X98420000Y-89000000I-30000J0D01*
G01*
X98420000Y-89000000D02*
G75*
G02*
X98480000Y-89000000I30000J0D01*
G01*
%TO.C,R7*%
D13*
X154385847Y-99974693D02*
X154385847Y-99500177D01*
X155430847Y-99974693D02*
X155430847Y-99500177D01*
%TO.C,C9*%
X94490000Y-112365580D02*
X94490000Y-112084420D01*
X95510000Y-112365580D02*
X95510000Y-112084420D01*
%TO.C,R2*%
X160262742Y-90477500D02*
X160737258Y-90477500D01*
X160262742Y-91522500D02*
X160737258Y-91522500D01*
%TO.C,SW4*%
D10*
X158200000Y-99495000D02*
X158200000Y-99425000D01*
X158200000Y-101095000D02*
X158200000Y-100755000D01*
X158200000Y-102425000D02*
X158200000Y-102355000D01*
X161800000Y-99425000D02*
X158200000Y-99425000D01*
X161800000Y-99495000D02*
X161800000Y-99425000D01*
X161800000Y-101095000D02*
X161800000Y-100755000D01*
X161800000Y-102425000D02*
X158200000Y-102425000D01*
X161800000Y-102425000D02*
X161800000Y-102355000D01*
X160990000Y-100925000D02*
G75*
G02*
X159010000Y-100925000I-990000J0D01*
G01*
X159010000Y-100925000D02*
G75*
G02*
X160990000Y-100925000I990000J0D01*
G01*
D14*
X162360000Y-102425000D02*
G75*
G02*
X162300000Y-102425000I-30000J0D01*
G01*
X162300000Y-102425000D02*
G75*
G02*
X162360000Y-102425000I30000J0D01*
G01*
%TO.C,LED35*%
D11*
X161860000Y-94760000D02*
X161860000Y-93280000D01*
X163010000Y-93260000D02*
X161860000Y-93260000D01*
X163010000Y-94760000D02*
X161860000Y-94760000D01*
X163030000Y-93680000D02*
X163040000Y-93680000D01*
X163030000Y-94010000D02*
X163370000Y-94010000D01*
X163030000Y-94350000D02*
X163370000Y-94010000D01*
X163030000Y-94360000D02*
X163030000Y-93680000D01*
X163030000Y-94360000D02*
X163030000Y-94350000D01*
X163040000Y-93680000D02*
X163370000Y-94010000D01*
X163390000Y-93250000D02*
X164440000Y-93250000D01*
X163390000Y-94750000D02*
X164440000Y-94750000D01*
X164740000Y-93550000D02*
X164440000Y-93250000D01*
X164740000Y-93650000D02*
X164740000Y-93550000D01*
X164740000Y-94350000D02*
X164740000Y-93650000D01*
X164740000Y-94350000D02*
X164740000Y-94450000D01*
X164740000Y-94450000D02*
X164440000Y-94750000D01*
D14*
X164080000Y-93600000D02*
G75*
G02*
X164020000Y-93600000I-30000J0D01*
G01*
X164020000Y-93600000D02*
G75*
G02*
X164080000Y-93600000I30000J0D01*
G01*
%TO.C,R51*%
D13*
X143220144Y-90965838D02*
X142745628Y-90965838D01*
X143220144Y-92010838D02*
X142745628Y-92010838D01*
%TD*%
M02*
