%TF.GenerationSoftware,KiCad,Pcbnew,10.0.4*%
%TF.CreationDate,2026-07-12T11:49:55-04:00*%
%TF.ProjectId,linklite_v2,6c696e6b-6c69-4746-955f-76322e6b6963,rev?*%
%TF.SameCoordinates,Original*%
%TF.FileFunction,Paste,Top*%
%TF.FilePolarity,Positive*%
%FSLAX46Y46*%
G04 Gerber Fmt 4.6, Leading zero omitted, Abs format (unit mm)*
G04 Created by KiCad (PCBNEW 10.0.4) date 2026-07-12 11:49:55*
%MOMM*%
%LPD*%
G01*
G04 APERTURE LIST*
G04 Aperture macros list*
%AMRoundRect*
0 Rectangle with rounded corners*
0 $1 Rounding radius*
0 $2 $3 $4 $5 $6 $7 $8 $9 X,Y pos of 4 corners*
0 Add a 4 corners polygon primitive as box body*
4,1,4,$2,$3,$4,$5,$6,$7,$8,$9,$2,$3,0*
0 Add four circle primitives for the rounded corners*
1,1,$1+$1,$2,$3*
1,1,$1+$1,$4,$5*
1,1,$1+$1,$6,$7*
1,1,$1+$1,$8,$9*
0 Add four rect primitives between the rounded corners*
20,1,$1+$1,$2,$3,$4,$5,0*
20,1,$1+$1,$4,$5,$6,$7,0*
20,1,$1+$1,$6,$7,$8,$9,0*
20,1,$1+$1,$8,$9,$2,$3,0*%
%AMOutline5P*
0 Free polygon, 5 corners , with rotation*
0 The origin of the aperture is its center*
0 number of corners: always 5*
0 $1 to $10 corner X, Y*
0 $11 Rotation angle, in degrees counterclockwise*
0 create outline with 5 corners*
4,1,5,$1,$2,$3,$4,$5,$6,$7,$8,$9,$10,$1,$2,$11*%
%AMOutline6P*
0 Free polygon, 6 corners , with rotation*
0 The origin of the aperture is its center*
0 number of corners: always 6*
0 $1 to $12 corner X, Y*
0 $13 Rotation angle, in degrees counterclockwise*
0 create outline with 6 corners*
4,1,6,$1,$2,$3,$4,$5,$6,$7,$8,$9,$10,$11,$12,$1,$2,$13*%
%AMOutline7P*
0 Free polygon, 7 corners , with rotation*
0 The origin of the aperture is its center*
0 number of corners: always 7*
0 $1 to $14 corner X, Y*
0 $15 Rotation angle, in degrees counterclockwise*
0 create outline with 7 corners*
4,1,7,$1,$2,$3,$4,$5,$6,$7,$8,$9,$10,$11,$12,$13,$14,$1,$2,$15*%
%AMOutline8P*
0 Free polygon, 8 corners , with rotation*
0 The origin of the aperture is its center*
0 number of corners: always 8*
0 $1 to $16 corner X, Y*
0 $17 Rotation angle, in degrees counterclockwise*
0 create outline with 8 corners*
4,1,8,$1,$2,$3,$4,$5,$6,$7,$8,$9,$10,$11,$12,$13,$14,$15,$16,$1,$2,$17*%
%AMFreePoly0*
4,1,13,0.335355,0.685355,0.350000,0.650000,0.350000,-0.650000,0.335355,-0.685355,0.300000,-0.700000,-0.300000,-0.700000,-0.335355,-0.685355,-0.350000,-0.650000,-0.350000,0.650000,-0.335355,0.685355,-0.300000,0.700000,0.300000,0.700000,0.335355,0.685355,0.335355,0.685355,$1*%
G04 Aperture macros list end*
%ADD10RoundRect,0.250000X0.250000X0.475000X-0.250000X0.475000X-0.250000X-0.475000X0.250000X-0.475000X0*%
%ADD11RoundRect,0.200000X0.200000X0.275000X-0.200000X0.275000X-0.200000X-0.275000X0.200000X-0.275000X0*%
%ADD12RoundRect,0.200000X-0.200000X-0.275000X0.200000X-0.275000X0.200000X0.275000X-0.200000X0.275000X0*%
%ADD13RoundRect,0.200000X0.275000X-0.200000X0.275000X0.200000X-0.275000X0.200000X-0.275000X-0.200000X0*%
%ADD14RoundRect,0.225000X0.250000X-0.225000X0.250000X0.225000X-0.250000X0.225000X-0.250000X-0.225000X0*%
%ADD15R,2.000000X5.300000*%
%ADD16RoundRect,0.225000X-0.225000X-0.250000X0.225000X-0.250000X0.225000X0.250000X-0.225000X0.250000X0*%
%ADD17RoundRect,0.250000X-0.250000X-0.475000X0.250000X-0.475000X0.250000X0.475000X-0.250000X0.475000X0*%
%ADD18RoundRect,0.225000X0.225000X0.250000X-0.225000X0.250000X-0.225000X-0.250000X0.225000X-0.250000X0*%
%ADD19R,1.100000X0.600000*%
%ADD20RoundRect,0.093750X-0.156250X-0.093750X0.156250X-0.093750X0.156250X0.093750X-0.156250X0.093750X0*%
%ADD21RoundRect,0.075000X-0.250000X-0.075000X0.250000X-0.075000X0.250000X0.075000X-0.250000X0.075000X0*%
%ADD22R,1.250000X0.900000*%
%ADD23RoundRect,0.250000X0.475000X-0.250000X0.475000X0.250000X-0.475000X0.250000X-0.475000X-0.250000X0*%
%ADD24R,0.800000X0.800000*%
%ADD25R,2.424000X3.420000*%
%ADD26RoundRect,0.250000X0.400000X0.600000X-0.400000X0.600000X-0.400000X-0.600000X0.400000X-0.600000X0*%
%ADD27R,0.800000X0.400000*%
%ADD28R,0.400000X0.800000*%
%ADD29Outline5P,-0.725000X0.130500X-0.130500X0.725000X0.725000X0.725000X0.725000X-0.725000X-0.725000X-0.725000X0.000000*%
%ADD30R,1.450000X1.450000*%
%ADD31R,0.700000X0.700000*%
%ADD32R,0.600000X1.070000*%
%ADD33RoundRect,0.150000X0.512500X0.150000X-0.512500X0.150000X-0.512500X-0.150000X0.512500X-0.150000X0*%
%ADD34R,6.000000X2.000000*%
%ADD35R,3.500000X2.000000*%
%ADD36RoundRect,0.150000X-0.587500X-0.150000X0.587500X-0.150000X0.587500X0.150000X-0.587500X0.150000X0*%
%ADD37R,1.200000X3.500000*%
%ADD38FreePoly0,270.000000*%
%ADD39R,1.300000X0.300000*%
%ADD40R,3.820000X3.030000*%
G04 APERTURE END LIST*
D10*
%TO.C,C13*%
X118100000Y-110000000D03*
X120000000Y-110000000D03*
%TD*%
D11*
%TO.C,R9*%
X103375000Y-116500000D03*
X101725000Y-116500000D03*
%TD*%
%TO.C,R11*%
X103375000Y-113500000D03*
X101725000Y-113500000D03*
%TD*%
D12*
%TO.C,R10*%
X101725000Y-115000000D03*
X103375000Y-115000000D03*
%TD*%
D13*
%TO.C,R18*%
X100200000Y-115050000D03*
X100200000Y-113400000D03*
%TD*%
D14*
%TO.C,C4*%
X93500000Y-111450000D03*
X93500000Y-113000000D03*
%TD*%
D15*
%TO.C,F3*%
X93300000Y-102500000D03*
X86700000Y-102500000D03*
%TD*%
D16*
%TO.C,C17*%
X109559299Y-119211118D03*
X111109299Y-119211118D03*
%TD*%
D17*
%TO.C,C15*%
X109600000Y-115500000D03*
X111500000Y-115500000D03*
%TD*%
D12*
%TO.C,R49*%
X194438012Y-111831797D03*
X196088012Y-111831797D03*
%TD*%
D17*
%TO.C,C16*%
X109600000Y-117500000D03*
X111500000Y-117500000D03*
%TD*%
D10*
%TO.C,C6*%
X120000000Y-112150000D03*
X118100000Y-112150000D03*
%TD*%
D12*
%TO.C,R3*%
X159675000Y-92500000D03*
X161325000Y-92500000D03*
%TD*%
D18*
%TO.C,C1*%
X143775000Y-88500000D03*
X142225000Y-88500000D03*
%TD*%
D12*
%TO.C,R5*%
X89175000Y-113450000D03*
X90825000Y-113450000D03*
%TD*%
%TO.C,R13*%
X90826398Y-114924300D03*
X92476398Y-114924300D03*
%TD*%
D19*
%TO.C,U7*%
X107400000Y-117450000D03*
X107400000Y-116500000D03*
X107400000Y-115550000D03*
X104700000Y-115550000D03*
X104700000Y-116500000D03*
X104700000Y-117450000D03*
%TD*%
D20*
%TO.C,U3*%
X86650000Y-106962500D03*
D21*
X86575000Y-107500000D03*
D20*
X86650000Y-108037500D03*
X88350000Y-108037500D03*
D21*
X88425000Y-107500000D03*
D20*
X88350000Y-106962500D03*
%TD*%
D18*
%TO.C,C5*%
X106828054Y-114095230D03*
X105278054Y-114095230D03*
%TD*%
D22*
%TO.C,SW6*%
X190070000Y-110200000D03*
X193930000Y-110200000D03*
X193930000Y-111800000D03*
X190070000Y-111800000D03*
%TD*%
D23*
%TO.C,C8*%
X107097223Y-92260155D03*
X107097223Y-90360155D03*
%TD*%
D18*
%TO.C,C3*%
X144251677Y-95874490D03*
X142701677Y-95874490D03*
%TD*%
D24*
%TO.C,LED33*%
X90750000Y-108500000D03*
X92250000Y-108500000D03*
%TD*%
D18*
%TO.C,C2*%
X143775000Y-90000000D03*
X142225000Y-90000000D03*
%TD*%
D12*
%TO.C,R8*%
X142647066Y-94415604D03*
X144297066Y-94415604D03*
%TD*%
D22*
%TO.C,SW3*%
X144216367Y-98916735D03*
X140356367Y-98916735D03*
X140356367Y-97316735D03*
X144216367Y-97316735D03*
%TD*%
D25*
%TO.C,L1*%
X115830000Y-111000000D03*
X109270000Y-111000000D03*
%TD*%
D26*
%TO.C,D3*%
X103875000Y-111125000D03*
X100375000Y-111125000D03*
%TD*%
D27*
%TO.C,U2*%
X146100000Y-88400000D03*
X146100000Y-89200000D03*
X146100000Y-90000000D03*
X146100000Y-90800000D03*
X146100000Y-91600000D03*
X146100000Y-92400000D03*
X146100000Y-93200000D03*
X146100000Y-94000000D03*
X146100000Y-94800000D03*
X146100000Y-95600000D03*
X146100000Y-96400000D03*
D28*
X147200000Y-97300000D03*
X148000000Y-97300000D03*
X148800000Y-97300000D03*
X149600000Y-97300000D03*
X150400000Y-97300000D03*
X151200000Y-97300000D03*
X152000000Y-97300000D03*
X152800000Y-97300000D03*
X153600000Y-97300000D03*
X154400000Y-97300000D03*
X155200000Y-97300000D03*
X156000000Y-97300000D03*
X156800000Y-97300000D03*
D27*
X157900000Y-96400000D03*
X157900000Y-95600000D03*
X157900000Y-94800000D03*
X157900000Y-94000000D03*
X157900000Y-93200000D03*
X157900000Y-92400000D03*
X157900000Y-91600000D03*
X157900000Y-90800000D03*
X157900000Y-90000000D03*
X157900000Y-89200000D03*
X157900000Y-88400000D03*
D28*
X156800000Y-87500000D03*
X156000000Y-87500000D03*
X155200000Y-87500000D03*
X154400000Y-87500000D03*
X153600000Y-87500000D03*
X152800000Y-87500000D03*
X152000000Y-87500000D03*
X151200000Y-87500000D03*
X150400000Y-87500000D03*
X149600000Y-87500000D03*
X148800000Y-87500000D03*
X148000000Y-87500000D03*
X147200000Y-87500000D03*
D29*
X150025000Y-90425000D03*
D30*
X150025000Y-92400000D03*
X150025000Y-94375000D03*
X152000000Y-90425000D03*
X152000000Y-92400000D03*
X152000000Y-94375000D03*
X153975000Y-90425000D03*
X153975000Y-92400000D03*
X153975000Y-94375000D03*
D31*
X157950000Y-87450000D03*
X157950000Y-97350000D03*
X146050000Y-97350000D03*
X146050000Y-87450000D03*
%TD*%
D11*
%TO.C,R16*%
X95325000Y-110000000D03*
X93675000Y-110000000D03*
%TD*%
D15*
%TO.C,F4*%
X96200000Y-102500000D03*
X102800000Y-102500000D03*
%TD*%
D32*
%TO.C,Q2*%
X101625000Y-108740000D03*
X103525000Y-108740000D03*
X102575000Y-106260000D03*
%TD*%
D33*
%TO.C,U5*%
X91137500Y-111900000D03*
X91137500Y-110950000D03*
X91137500Y-110000000D03*
X88862500Y-110000000D03*
X88862500Y-110950000D03*
X88862500Y-111900000D03*
%TD*%
D22*
%TO.C,SW5*%
X190070000Y-100450000D03*
X193930000Y-100450000D03*
X193930000Y-102050000D03*
X190070000Y-102050000D03*
%TD*%
D12*
%TO.C,R50*%
X159675000Y-94000000D03*
X161325000Y-94000000D03*
%TD*%
D34*
%TO.C,U6*%
X223760000Y-94500000D03*
D35*
X214500000Y-94500000D03*
D34*
X223760000Y-90500000D03*
D35*
X214500000Y-90500000D03*
%TD*%
D36*
%TO.C,Q3*%
X165000000Y-90550000D03*
X165000000Y-92450000D03*
X166875000Y-91500000D03*
%TD*%
D13*
%TO.C,R15*%
X85500000Y-114825000D03*
X85500000Y-113175000D03*
%TD*%
%TO.C,R4*%
X156408347Y-100562435D03*
X156408347Y-98912435D03*
%TD*%
D12*
%TO.C,R48*%
X194397618Y-102036535D03*
X196047618Y-102036535D03*
%TD*%
D34*
%TO.C,U8*%
X80370000Y-91500000D03*
D35*
X89630000Y-91500000D03*
D34*
X80370000Y-95500000D03*
D35*
X89630000Y-95500000D03*
%TD*%
D37*
%TO.C,C10*%
X102500000Y-95670000D03*
X102500000Y-90330000D03*
%TD*%
D13*
%TO.C,R14*%
X87000000Y-114825000D03*
X87000000Y-113175000D03*
%TD*%
D38*
%TO.C,USBC1*%
X83497500Y-103700000D03*
X83497500Y-104500000D03*
D39*
X83497500Y-105650000D03*
X83497500Y-106650000D03*
X83497500Y-107150000D03*
X83497500Y-108150000D03*
D38*
X83497500Y-110100000D03*
X83497500Y-109300000D03*
D39*
X83497500Y-108650000D03*
X83497500Y-107650000D03*
X83497500Y-106150000D03*
X83497500Y-105150000D03*
%TD*%
D24*
%TO.C,LED36*%
X139942339Y-91488338D03*
X141442339Y-91488338D03*
%TD*%
D12*
%TO.C,R12*%
X93675000Y-108500000D03*
X95325000Y-108500000D03*
%TD*%
D40*
%TO.C,D4*%
X95500000Y-89560000D03*
X95500000Y-96440000D03*
%TD*%
D13*
%TO.C,R7*%
X154908347Y-100562435D03*
X154908347Y-98912435D03*
%TD*%
D14*
%TO.C,C9*%
X95000000Y-113000000D03*
X95000000Y-111450000D03*
%TD*%
D12*
%TO.C,R2*%
X159675000Y-91000000D03*
X161325000Y-91000000D03*
%TD*%
D22*
%TO.C,SW4*%
X161930000Y-101725000D03*
X158070000Y-101725000D03*
X158070000Y-100125000D03*
X161930000Y-100125000D03*
%TD*%
D24*
%TO.C,LED35*%
X164000000Y-94000000D03*
X162500000Y-94000000D03*
%TD*%
D11*
%TO.C,R51*%
X143807886Y-91488338D03*
X142157886Y-91488338D03*
%TD*%
M02*
